G04 Layer_Color=16711935*
%FSLAX44Y44*%
%MOMM*%
G71*
G01*
G75*
%ADD35C,0.2000*%
%ADD58C,0.2000*%
D35*
X0Y0D02*
Y607060D01*
X816610D01*
Y0D02*
Y607060D01*
X0Y0D02*
X816610D01*
X160260Y24283D02*
G03*
X160264Y24283I8J1504D01*
G01*
X160260Y24283D02*
G03*
X160264Y24283I21J1504D01*
G01*
D02*
G03*
X160271Y24283I17J1504D01*
G01*
X160262Y24283D02*
G03*
X160264Y24283I14J1504D01*
G01*
X160259Y24283D02*
G03*
X160260Y24283I9J1504D01*
G01*
X160259D02*
G03*
X160260Y24283I18J1504D01*
G01*
X160253Y24283D02*
G03*
X160259Y24283I14J1504D01*
G01*
X115190Y35501D02*
G03*
X160253Y24283I46027J88778D01*
G01*
X115179Y35506D02*
G03*
X115190Y35501I703J1329D01*
G01*
X115177Y35508D02*
G03*
X115179Y35506I705J1328D01*
G01*
X115177Y35508D02*
G03*
X115179Y35506I694J1334D01*
G01*
X105836Y43063D02*
G03*
X115179Y35506I23154J19075D01*
G01*
X105826Y43075D02*
G03*
X105834Y43065I23164J19063D01*
G01*
X105827Y43074D02*
G03*
X105834Y43066I1161J956D01*
G01*
X105826Y43075D02*
G03*
X105827Y43074I1170J944D01*
G01*
X105824Y43077D02*
G03*
X105826Y43075I1172J942D01*
G01*
X105824Y43077D02*
G03*
X105826Y43075I1163J953D01*
G01*
D02*
G03*
X105827Y43074I1161J956D01*
G01*
D02*
G03*
X105834Y43065I1170J945D01*
G01*
D02*
G03*
X105836Y43063I23157J19073D01*
G01*
X105834Y43065D02*
G03*
X105836Y43063I1163J953D01*
G01*
X105819Y43084D02*
G03*
X105824Y43077I1169J947D01*
G01*
X47803Y113581D02*
G03*
X47807Y113575I1166J950D01*
G01*
D02*
G03*
X47814Y113568I1161J956D01*
G01*
X47807Y113575D02*
G03*
X47803Y113581I-3861J-3177D01*
G01*
D02*
G03*
X44002Y115398I-3856J-3183D01*
G01*
X43994Y115398D02*
G03*
X44002Y115398I14J1504D01*
G01*
X43985Y115398D02*
G03*
X43991Y115398I19J1504D01*
G01*
X43988Y115398D02*
G03*
X43991Y115398I21J1504D01*
G01*
D02*
G03*
X43994Y115398I18J1504D01*
G01*
X43998Y115398D02*
G03*
X43994Y115398I-52J-5000D01*
G01*
X43991Y115398D02*
G03*
X43998Y115398I13J1504D01*
G01*
X36927Y115465D02*
G03*
X36932Y115465I15J1504D01*
G01*
X36888Y115465D02*
G03*
X36909Y115465I35J1503D01*
G01*
X36909Y115465D02*
G03*
X36924Y115465I32J1504D01*
G01*
X36924D02*
G03*
X36927Y115465I18J1504D01*
G01*
X36924Y115465D02*
G03*
X36927Y115465I-0J1504D01*
G01*
X36909Y115465D02*
G03*
X36924Y115465I14J1504D01*
G01*
X36888Y115465D02*
G03*
X36909Y115465I69J4999D01*
G01*
X33103Y117280D02*
G03*
X36888Y115465I3854J3185D01*
G01*
X33096Y117288D02*
G03*
X33103Y117280I3861J3177D01*
G01*
X33095Y117289D02*
G03*
X33096Y117288I1162J954D01*
G01*
X33095Y117290D02*
G03*
X33095Y117289I1155J963D01*
G01*
X33089Y117297D02*
G03*
X33095Y117290I1169J946D01*
G01*
X33087Y117298D02*
G03*
X33089Y117297I1170J945D01*
G01*
X33086Y117301D02*
G03*
X33087Y117298I1164J952D01*
G01*
X33091Y117294D02*
G03*
X33095Y117289I1166J950D01*
G01*
X33089Y117297D02*
G03*
X33091Y117294I1161J956D01*
G01*
X6219Y149947D02*
G03*
X6230Y149933I1161J956D01*
G01*
X6213Y149954D02*
G03*
X6219Y149947I1158J959D01*
G01*
X6213Y149955D02*
G03*
X6213Y149954I1158J959D01*
G01*
X6206Y149963D02*
G03*
X6219Y149947I3874J3161D01*
G01*
X6213Y149955D02*
G03*
X6219Y149947I1168J948D01*
G01*
X6206Y149963D02*
G03*
X6213Y149955I1165J951D01*
G01*
X6012Y156031D02*
G03*
X6206Y149963I4068J-2907D01*
G01*
X6019Y156041D02*
G03*
X6012Y156031I1216J-884D01*
G01*
X6022Y156046D02*
G03*
X6012Y156031I1220J-879D01*
G01*
X30568Y190397D02*
G03*
X30555Y190379I1210J-893D01*
G01*
X30568Y190398D02*
G03*
X30568Y190397I1210J-894D01*
G01*
X30583Y190418D02*
G03*
X30568Y190398I1208J-895D01*
G01*
X30555Y190379D02*
G03*
X30551Y190374I1223J-875D01*
G01*
X30555Y190379D02*
G03*
X30555Y190378I1236J-856D01*
G01*
X30568Y190397D02*
G03*
X30555Y190379I1223J-874D01*
G01*
X30568Y190398D02*
G03*
X30568Y190397I1223J-875D01*
G01*
X30583Y190418D02*
G03*
X30568Y190398I4053J-2928D01*
G01*
X34666Y192490D02*
G03*
X30583Y190418I-30J-5000D01*
G01*
X34700Y192490D02*
G03*
X34685Y192490I-30J-1504D01*
G01*
X34692Y192490D02*
G03*
X34684Y192490I-22J-1504D01*
G01*
X34692Y192490D02*
G03*
X34685Y192490I-7J-1504D01*
G01*
D02*
G03*
X34684Y192490I1J-1504D01*
G01*
X34684D02*
G03*
X34666Y192490I-48J-5000D01*
G01*
X34684Y192490D02*
G03*
X34666Y192490I-14J-1504D01*
G01*
X34704Y192490D02*
G03*
X34700Y192490I-19J-1504D01*
G01*
Y192490D02*
G03*
X34692Y192490I-30J-1504D01*
G01*
X34700Y192490D02*
G03*
X34692Y192490I-14J-1504D01*
G01*
X36809Y192470D02*
G03*
X36787Y192470I-21J-1504D01*
G01*
X36809Y192470D02*
G03*
X36806Y192470I-7J-1504D01*
G01*
D02*
G03*
X36800Y192470I-3J-1504D01*
G01*
X36803Y192470D02*
G03*
X36806Y192470I48J5000D01*
G01*
D02*
G03*
X36810Y192470I45J5000D01*
G01*
X36821Y192470D02*
G03*
X36813Y192470I-19J-1504D01*
G01*
D02*
G03*
X36809Y192470I-11J-1504D01*
G01*
X36810D02*
G03*
X36809Y192470I-22J-1504D01*
G01*
X36810D02*
G03*
X36813Y192470I40J5000D01*
G01*
D02*
G03*
X36821Y192470I37J5000D01*
G01*
D02*
G03*
X40918Y194563I29J5000D01*
G01*
X40922Y194568D02*
G03*
X40918Y194563I1219J-880D01*
G01*
X58801Y219590D02*
G03*
X58796Y219582I1229J-867D01*
G01*
X58796Y219583D02*
G03*
X58796Y219582I1227J-870D01*
G01*
X58796Y219582D02*
G03*
X58793Y219578I1227J-869D01*
G01*
X58800Y219587D02*
G03*
X58796Y219582I1223J-874D01*
G01*
X58802Y219590D02*
G03*
X58800Y219587I24407J-17444D01*
G01*
X58802Y219591D02*
G03*
X58801Y219590I1228J-868D01*
G01*
X58802Y219591D02*
G03*
X58800Y219587I1221J-877D01*
G01*
X58802Y219590D02*
G03*
X58800Y219587I1229J-867D01*
G01*
X58803Y219592D02*
G03*
X58802Y219590I1220J-879D01*
G01*
X58803Y219592D02*
G03*
X58802Y219590I1227J-869D01*
G01*
X58803Y219592D02*
G03*
X58802Y219590I24406J-17446D01*
G01*
X58812Y219605D02*
G03*
X58803Y219592I1218J-882D01*
G01*
X58804Y219594D02*
G03*
X58803Y219592I1219J-881D01*
G01*
X58807Y219598D02*
G03*
X58803Y219592I24402J-17452D01*
G01*
X58812Y219605D02*
G03*
X58807Y219598I24396J-17459D01*
G01*
X68905Y228517D02*
G03*
X58812Y219605I14304J-26370D01*
G01*
X68928Y228529D02*
G03*
X68918Y228524I704J-1329D01*
G01*
X68916Y228522D02*
G03*
X68905Y228517I14293J-26376D01*
G01*
X68916Y228523D02*
G03*
X68905Y228517I716J-1322D01*
G01*
X68922Y228526D02*
G03*
X68916Y228523I710J-1326D01*
G01*
X68928Y228529D02*
G03*
X68922Y228526I704J-1329D01*
G01*
X68918Y228524D02*
G03*
X68916Y228523I726J-1317D01*
G01*
X68922Y228526D02*
G03*
X68918Y228524I722J-1319D01*
G01*
X68928Y228529D02*
G03*
X68922Y228526I716J-1322D01*
G01*
X138440Y266197D02*
G03*
X138429Y266191I705J-1328D01*
G01*
X138441Y266198D02*
G03*
X138440Y266197I704J-1329D01*
G01*
X138442Y266198D02*
G03*
X138441Y266198I703J-1329D01*
G01*
X138453Y266204D02*
G03*
X138442Y266198I14282J-26382D01*
G01*
X149417Y269638D02*
G03*
X138453Y266204I3318J-29816D01*
G01*
X149426Y269639D02*
G03*
X149423Y269638I166J-1495D01*
G01*
X149426Y269639D02*
G03*
X149424Y269639I175J-1494D01*
G01*
D02*
G03*
X149423Y269638I159J-1495D01*
G01*
D02*
G03*
X149417Y269638I161J-1495D01*
G01*
X149426Y269639D02*
G03*
X149417Y269638I3309J-29817D01*
G01*
X149435Y269640D02*
G03*
X149426Y269639I166J-1495D01*
G01*
X545443Y275092D02*
G03*
X149435Y269640I-169916J-2042946D01*
G01*
X545450Y275091D02*
G03*
X545443Y275092I-131J-1498D01*
G01*
X545452Y275091D02*
G03*
X545450Y275091I-134J-1498D01*
G01*
X545452Y275091D02*
G03*
X545460Y275090I1657J19931D01*
G01*
D02*
G03*
X565149Y286386I1649J19932D01*
G01*
X565157Y286402D02*
G03*
X565150Y286388I1349J-664D01*
G01*
D02*
G03*
X565149Y286386I1356J-649D01*
G01*
D02*
G03*
X565150Y286388I-18039J8636D01*
G01*
D02*
G03*
X565157Y286403I-18040J8634D01*
G01*
X565165Y286419D02*
G03*
X565157Y286403I1349J-664D01*
G01*
X565157Y286402D02*
G03*
X565149Y286386I1357J-648D01*
G01*
X565157Y286404D02*
G03*
X565157Y286402I1349J-665D01*
G01*
X565157Y286403D02*
G03*
X565157Y286402I1357J-648D01*
G01*
X565157Y286404D02*
G03*
X565157Y286403I19175J-9159D01*
G01*
X565158Y286404D02*
G03*
X565157Y286404I1349J-666D01*
G01*
X565165Y286419D02*
G03*
X565157Y286404I19168J-9174D01*
G01*
X604958Y282360D02*
G03*
X565165Y286419I-20625J-5115D01*
G01*
X604960Y282351D02*
G03*
X604958Y282360I-20627J-5106D01*
G01*
X604963Y282337D02*
G03*
X604958Y282360I-1463J-347D01*
G01*
X604963Y282337D02*
G03*
X604963Y282339I-1461J-358D01*
G01*
D02*
G03*
X604963Y282340I-1460J-360D01*
G01*
X604963Y282339D02*
G03*
X604963Y282338I19417J4794D01*
G01*
D02*
G03*
X604964Y282335I19417J4795D01*
G01*
D02*
G03*
X604965Y282330I19416J4798D01*
G01*
D02*
G03*
X621955Y267280I19415J4802D01*
G01*
X621964Y267279D02*
G03*
X621955Y267280I-182J-1493D01*
G01*
X621987Y267276D02*
G03*
X621977Y267278I-193J-1491D01*
G01*
X670892Y260756D02*
G03*
X621987Y267276I-295366J-2028610D01*
G01*
X671429Y260569D02*
G03*
X670892Y260756I-754J-1301D01*
G01*
X750434Y200606D02*
G03*
X671429Y260569I-279464J-286181D01*
G01*
X750452Y200588D02*
G03*
X750448Y200592I-1045J-1081D01*
G01*
X750460Y200580D02*
G03*
X750452Y200588I-1053J-1074D01*
G01*
X750452D02*
G03*
X750434Y200606I-1058J-1069D01*
G01*
X750445Y200595D02*
G03*
X750434Y200606I-279475J-286171D01*
G01*
X750460Y200580D02*
G03*
X750445Y200595I-7002J-7139D01*
G01*
X752113Y198449D02*
G03*
X750460Y200580I-8655J-5008D01*
G01*
X752137Y198409D02*
G03*
X752113Y198449I-1306J-746D01*
G01*
X752133Y198417D02*
G03*
X752137Y198409I28094J16259D01*
G01*
D02*
G03*
X763139Y187078I28090J16267D01*
G01*
D02*
G03*
X763168Y187061I17088J27598D01*
G01*
X763170Y187059D02*
G03*
X763168Y187061I-792J-1278D01*
G01*
X763185Y187050D02*
G03*
X763170Y187059I-780J-1285D01*
G01*
X763200Y187041D02*
G03*
X763185Y187050I-795J-1276D01*
G01*
X765249Y185348D02*
G03*
X763200Y187041I-7337J-6795D01*
G01*
X765256Y185341D02*
G03*
X765249Y185348I-7343J-6788D01*
G01*
X765269Y185326D02*
G03*
X765249Y185348I-1118J-1006D01*
G01*
X765270Y185325D02*
G03*
X765269Y185326I-1119J-1005D01*
G01*
X765270Y185325D02*
G03*
X765270Y185326I-1107J-1018D01*
G01*
X795392Y148413D02*
G03*
X765270Y185326I-324422J-233988D01*
G01*
X795392Y148412D02*
G03*
X795392Y148413I-1215J-886D01*
G01*
X795399Y148402D02*
G03*
X795399Y148403I-8113J-5846D01*
G01*
X795401Y148399D02*
G03*
X795399Y148403I-1218J-882D01*
G01*
D02*
G03*
X795398Y148404I-1222J-877D01*
G01*
X795397Y148406D02*
G03*
X795392Y148412I-324427J-233981D01*
G01*
X795399Y148403D02*
G03*
X795392Y148412I-1221J-877D01*
G01*
X795399Y148403D02*
G03*
X795397Y148406I-1215J-886D01*
G01*
X795399Y148403D02*
G03*
X795397Y148406I-8113J-5847D01*
G01*
X795401Y148399D02*
G03*
X795399Y148403I-1224J-873D01*
G01*
X795410Y148387D02*
G03*
X795399Y148402I-1226J-870D01*
G01*
X795405Y148395D02*
G03*
X795399Y148402I-8119J-5839D01*
G01*
X795410Y148387D02*
G03*
X795405Y148395I-8124J-5831D01*
G01*
X797286Y142556D02*
G03*
X795410Y148387I-10000J0D01*
G01*
X797012Y140232D02*
G03*
X797286Y142556I-9726J2324D01*
G01*
X797008Y140214D02*
G03*
X797012Y140232I-1458J368D01*
G01*
X787791Y101960D02*
G03*
X787796Y101985I-1462J352D01*
G01*
X784322Y96499D02*
G03*
X787791Y101960I-6253J7804D01*
G01*
X784318Y96496D02*
G03*
X784322Y96499I-936J1177D01*
G01*
X784318Y96496D02*
G03*
X784320Y96497I-946J1169D01*
G01*
X784313Y96492D02*
G03*
X784318Y96496I-940J1173D01*
G01*
X734101Y62934D02*
G03*
X784313Y96492I-168649J306688D01*
G01*
X734094Y62930D02*
G03*
X734102Y62934I-725J1318D01*
G01*
X734082Y62923D02*
G03*
X734094Y62930I-4806J8769D01*
G01*
X729492Y61695D02*
G03*
X734082Y62923I-216J9998D01*
G01*
X729368Y61693D02*
G03*
X729492Y61695I-93J10000D01*
G01*
X729341Y61692D02*
G03*
X729368Y61693I-16J1504D01*
G01*
X729152Y61690D02*
G03*
X729153Y61690I-28J1504D01*
G01*
X729153D02*
G03*
X729154Y61690I-16J1504D01*
G01*
X728502Y61674D02*
G03*
X728509Y61675I-56J1503D01*
G01*
X728190Y61663D02*
G03*
X728192Y61663I-54J1503D01*
G01*
X728181Y61662D02*
G03*
X728185Y61663I-70J1502D01*
G01*
X727867Y61648D02*
G03*
X727872Y61648I-74J1502D01*
G01*
X727862Y61648D02*
G03*
X727867Y61648I-69J1502D01*
G01*
X727852Y61647D02*
G03*
X727862Y61648I-78J1502D01*
G01*
X727542Y61630D02*
G03*
X727544Y61630I-85J1501D01*
G01*
X727540Y61630D02*
G03*
X727542Y61630I-83J1502D01*
G01*
X727539Y61630D02*
G03*
X727540Y61630I-99J1501D01*
G01*
X727532Y61629D02*
G03*
X727539Y61630I-91J1501D01*
G01*
X727220Y61609D02*
G03*
X727225Y61610I-96J1501D01*
G01*
X727219Y61609D02*
G03*
X727220Y61609I-116J1499D01*
G01*
X727218Y61609D02*
G03*
X727219Y61609I-115J1499D01*
G01*
X727216Y61609D02*
G03*
X727218Y61609I-113J1500D01*
G01*
X727207Y61608D02*
G03*
X727216Y61609I-104J1500D01*
G01*
X726901Y61586D02*
G03*
X726902Y61586I-117J1499D01*
G01*
X726897Y61586D02*
G03*
X726901Y61586I-132J1498D01*
G01*
X726894Y61585D02*
G03*
X726897Y61586I-129J1498D01*
G01*
X726893Y61585D02*
G03*
X726894Y61585I-128J1498D01*
G01*
X726885Y61585D02*
G03*
X726893Y61585I-120J1499D01*
G01*
X726571Y61559D02*
G03*
X726577Y61559I-117J1499D01*
G01*
X725920Y61497D02*
G03*
X725926Y61497I-163J1495D01*
G01*
X725919Y61497D02*
G03*
X725920Y61497I-163J1495D01*
G01*
X725607Y61462D02*
G03*
X725609Y61463I-161J1495D01*
G01*
X725604Y61462D02*
G03*
X725607Y61462I-158J1496D01*
G01*
X725602Y61462D02*
G03*
X725604Y61462I-180J1493D01*
G01*
X725594Y61461D02*
G03*
X725602Y61462I-172J1494D01*
G01*
X725280Y61424D02*
G03*
X725289Y61425I-171J1494D01*
G01*
X725279Y61424D02*
G03*
X725280Y61424I-190J1492D01*
G01*
X724958Y61383D02*
G03*
X724959Y61384I-188J1492D01*
G01*
X724947Y61382D02*
G03*
X724954Y61383I-196J1491D01*
G01*
X724635Y61340D02*
G03*
X724645Y61341I-198J1491D01*
G01*
X724307Y61292D02*
G03*
X724314Y61293I-228J1486D01*
G01*
X724304Y61292D02*
G03*
X724309Y61292I-225J1487D01*
G01*
X723991Y61244D02*
G03*
X723996Y61244I-223J1487D01*
G01*
X723662Y61190D02*
G03*
X723670Y61191I-249J1483D01*
G01*
X723350Y61137D02*
G03*
X723355Y61137I-270J1479D01*
G01*
D02*
G03*
X723356Y61138I-274J1479D01*
G01*
X723355Y61137D02*
G03*
X723356Y61138I-280J1478D01*
G01*
X723350Y61137D02*
G03*
X723355Y61137I-276J1478D01*
G01*
X723032Y61079D02*
G03*
X723038Y61080I-267J1480D01*
G01*
X723029Y61079D02*
G03*
X723032Y61079I-264J1480D01*
G01*
X723029Y61079D02*
G03*
X723032Y61079I-285J1477D01*
G01*
X723026Y61078D02*
G03*
X723029Y61079I-283J1477D01*
G01*
X723020Y61077D02*
G03*
X723026Y61078I-277J1478D01*
G01*
X722705Y61017D02*
G03*
X722711Y61019I-277J1478D01*
G01*
X722064Y60887D02*
G03*
X722065Y60887I-305J1472D01*
G01*
D02*
G03*
X722066Y60888I-306J1472D01*
G01*
X722065Y60887D02*
G03*
X722066Y60888I-324J1469D01*
G01*
X722061Y60887D02*
G03*
X722065Y60887I-320J1469D01*
G01*
X722059Y60886D02*
G03*
X722061Y60887I-318J1470D01*
G01*
X721748Y60819D02*
G03*
X721752Y60820I-322J1469D01*
G01*
X721747Y60819D02*
G03*
X721752Y60820I-337J1465D01*
G01*
X721745Y60818D02*
G03*
X721747Y60819I-335J1466D01*
G01*
X721743Y60818D02*
G03*
X721745Y60818I-333J1466D01*
G01*
X721738Y60817D02*
G03*
X721743Y60818I-328J1468D01*
G01*
X721106Y60671D02*
G03*
X721107Y60672I-344J1464D01*
G01*
X721103Y60670D02*
G03*
X721106Y60671I-354J1461D01*
G01*
X721098Y60669D02*
G03*
X721101Y60670I-354J1461D01*
G01*
X721098Y60669D02*
G03*
X721102Y60670I-336J1466D01*
G01*
X721098Y60669D02*
G03*
X721102Y60670I-335J1466D01*
G01*
Y60670D02*
G03*
X721103Y60670I-357J1461D01*
G01*
X721101Y60670D02*
G03*
X721102Y60670I-356J1461D01*
G01*
X720790Y60594D02*
G03*
X720792Y60595I-359J1460D01*
G01*
X720787Y60593D02*
G03*
X720790Y60594I-356J1461D01*
G01*
X720785Y60593D02*
G03*
X720787Y60593I-372J1457D01*
G01*
X720779Y60591D02*
G03*
X720785Y60593I-366J1459D01*
G01*
X720470Y60513D02*
G03*
X720477Y60515I-365J1459D01*
G01*
X720469Y60513D02*
G03*
X720470Y60513I-364J1459D01*
G01*
X720466Y60512D02*
G03*
X720469Y60513I-382J1455D01*
G01*
X720156Y60431D02*
G03*
X720159Y60432I-384J1454D01*
G01*
X720155Y60431D02*
G03*
X720156Y60431I-382J1454D01*
G01*
X720153Y60430D02*
G03*
X720155Y60431I-381J1455D01*
G01*
X720151Y60430D02*
G03*
X720153Y60430I-378J1455D01*
G01*
X720151Y60430D02*
G03*
X720153Y60430I-392J1452D01*
G01*
D02*
G03*
X720155Y60431I-395J1451D01*
G01*
D02*
G03*
X720156Y60431I-396J1451D01*
G01*
X720155Y60431D02*
G03*
X720156Y60431I-399J1450D01*
G01*
X720153Y60430D02*
G03*
X720155Y60431I-398J1450D01*
G01*
X720151Y60430D02*
G03*
X720153Y60430I-395J1451D01*
G01*
X720143Y60427D02*
G03*
X720151Y60430I-388J1453D01*
G01*
X719835Y60344D02*
G03*
X719837Y60344I-406J1448D01*
G01*
X719833Y60343D02*
G03*
X719835Y60344I-404J1449D01*
G01*
X719517Y60255D02*
G03*
X719519Y60255I-404J1448D01*
G01*
X719201Y60163D02*
G03*
X719202Y60163I-430J1441D01*
G01*
X718886Y60069D02*
G03*
X718887Y60069I-430J1441D01*
G01*
X718883Y60068D02*
G03*
X718886Y60069I-443J1437D01*
G01*
X718572Y59971D02*
G03*
X718575Y59973I-440J1438D01*
G01*
X718252Y59870D02*
G03*
X718259Y59872I-461J1431D01*
G01*
X717943Y59769D02*
G03*
X717944Y59769I-479J1426D01*
G01*
X717943Y59769D02*
G03*
X717945Y59770I-466J1430D01*
G01*
X717009Y59445D02*
G03*
X717010Y59445I-522J1410D01*
G01*
X716999Y59441D02*
G03*
X717005Y59443I-512J1414D01*
G01*
X716699Y59332D02*
G03*
X716707Y59335I-513J1414D01*
G01*
X716698Y59331D02*
G03*
X716699Y59332I-512J1414D01*
G01*
X716697Y59331D02*
G03*
X716698Y59331I-530J1407D01*
G01*
X716693Y59329D02*
G03*
X716697Y59331I-526J1409D01*
G01*
X716388Y59215D02*
G03*
X716391Y59216I-526J1409D01*
G01*
X716387Y59215D02*
G03*
X716388Y59215I-525J1409D01*
G01*
X716079Y59096D02*
G03*
X716080Y59096I-539J1404D01*
G01*
X715465Y58850D02*
G03*
X715466Y58851I-576J1389D01*
G01*
X715465Y58850D02*
G03*
X715466Y58851I-564J1394D01*
G01*
X715464Y58850D02*
G03*
X715465Y58850I-579J1388D01*
G01*
X715462Y58849D02*
G03*
X715464Y58850I-577J1389D01*
G01*
X715459Y58848D02*
G03*
X715462Y58849I-574J1390D01*
G01*
X715454Y58846D02*
G03*
X715459Y58848I-570J1392D01*
G01*
X715159Y58724D02*
G03*
X715160Y58724I-589J1384D01*
G01*
X715156Y58723D02*
G03*
X715159Y58724I-586J1385D01*
G01*
X715155Y58722D02*
G03*
X715156Y58723I-584J1386D01*
G01*
X714855Y58594D02*
G03*
X714856Y58595I-586J1385D01*
G01*
X714854Y58594D02*
G03*
X714855Y58594I-585J1385D01*
G01*
X714853Y58594D02*
G03*
X714854Y58594I-605J1377D01*
G01*
X714848Y58592D02*
G03*
X714853Y58594I-600J1379D01*
G01*
X714842Y58589D02*
G03*
X714848Y58592I-594J1382D01*
G01*
X714551Y58463D02*
G03*
X714559Y58466I-596J1381D01*
G01*
X714549Y58462D02*
G03*
X714551Y58463I-617J1371D01*
G01*
X714548Y58461D02*
G03*
X714549Y58462I-616J1372D01*
G01*
X714548Y58461D02*
G03*
X714549Y58462I-610J1374D01*
G01*
X714546Y58460D02*
G03*
X714548Y58461I-608J1376D01*
G01*
X714543Y58459D02*
G03*
X714546Y58460I-605J1377D01*
G01*
X714251Y58329D02*
G03*
X714256Y58331I-611J1374D01*
G01*
X714245Y58327D02*
G03*
X714251Y58329I-622J1369D01*
G01*
X713943Y58189D02*
G03*
X713943Y58190I-622J1369D01*
G01*
D02*
G03*
X713944Y58190I-623J1369D01*
G01*
X713337Y57904D02*
G03*
X713342Y57907I-652J1355D01*
G01*
X713042Y57761D02*
G03*
X713048Y57764I-654J1354D01*
G01*
X712744Y57613D02*
G03*
X712744Y57614I-667J1347D01*
G01*
X712740Y57611D02*
G03*
X712744Y57613I-679J1342D01*
G01*
X712447Y57463D02*
G03*
X712452Y57465I-675J1344D01*
G01*
X712444Y57462D02*
G03*
X712447Y57463I-688J1337D01*
G01*
X712154Y57312D02*
G03*
X712155Y57312I-690J1336D01*
G01*
X712142Y57305D02*
G03*
X712150Y57309I-697J1332D01*
G01*
X711859Y57156D02*
G03*
X711866Y57160I-700J1331D01*
G01*
X711857Y57155D02*
G03*
X711859Y57156I-697J1332D01*
G01*
X711856Y57154D02*
G03*
X711857Y57155I-697J1333D01*
G01*
X711851Y57152D02*
G03*
X711856Y57154I-707J1327D01*
G01*
X711565Y56998D02*
G03*
X711566Y56998I-714J1323D01*
G01*
X711562Y56996D02*
G03*
X711563Y56997I-712J1324D01*
G01*
X711270Y56836D02*
G03*
X711274Y56838I-720J1320D01*
G01*
X711270Y56836D02*
G03*
X711271Y56836I-734J1312D01*
G01*
X710980Y56674D02*
G03*
X710981Y56674I-746J1305D01*
G01*
X710980Y56673D02*
G03*
X710981Y56674I-735J1312D01*
G01*
X710972Y56669D02*
G03*
X710976Y56671I-742J1308D01*
G01*
X710690Y56508D02*
G03*
X710697Y56512I-742J1308D01*
G01*
X710402Y56340D02*
G03*
X710403Y56340I-757J1299D01*
G01*
X710401Y56340D02*
G03*
X710402Y56340I-757J1300D01*
G01*
X709828Y55996D02*
G03*
X709829Y55997I-778J1287D01*
G01*
X709544Y55821D02*
G03*
X709545Y55822I-789J1280D01*
G01*
X709258Y55641D02*
G03*
X709262Y55644I-810J1267D01*
G01*
X709256Y55640D02*
G03*
X709260Y55643I-808J1268D01*
G01*
X708980Y55464D02*
G03*
X708984Y55466I-809J1268D01*
G01*
X708979Y55463D02*
G03*
X708979Y55464I-807J1269D01*
G01*
X708978Y55462D02*
G03*
X708979Y55463I-820J1261D01*
G01*
X708699Y55281D02*
G03*
X708700Y55282I-836J1250D01*
G01*
X708695Y55278D02*
G03*
X708696Y55279I-831J1253D01*
G01*
X708423Y55098D02*
G03*
X708424Y55099I-834J1251D01*
G01*
X708421Y55097D02*
G03*
X708424Y55099I-847J1243D01*
G01*
X708419Y55096D02*
G03*
X708421Y55097I-845J1244D01*
G01*
X708418Y55095D02*
G03*
X708419Y55096I-844J1244D01*
G01*
X708415Y55093D02*
G03*
X708418Y55095I-841J1247D01*
G01*
X708141Y54908D02*
G03*
X708146Y54911I-836J1250D01*
G01*
X707866Y54719D02*
G03*
X707867Y54720I-852J1239D01*
G01*
X707318Y54333D02*
G03*
X707319Y54333I-882J1218D01*
G01*
D02*
G03*
X707320Y54334I-873J1224D01*
G01*
X707045Y54135D02*
G03*
X707048Y54136I-892J1211D01*
G01*
X706778Y53938D02*
G03*
X706779Y53938I-893J1210D01*
G01*
X706777Y53937D02*
G03*
X706778Y53938I-892J1211D01*
G01*
X706510Y53737D02*
G03*
X706511Y53738I-913J1195D01*
G01*
X706509Y53737D02*
G03*
X706511Y53738I-903J1203D01*
G01*
X706509Y53736D02*
G03*
X706509Y53737I-917J1192D01*
G01*
X706504Y53733D02*
G03*
X706509Y53736I-912J1195D01*
G01*
X706504Y53732D02*
G03*
X706504Y53733I-912J1196D01*
G01*
X706246Y53536D02*
G03*
X706247Y53536I-911J1196D01*
G01*
X706241Y53532D02*
G03*
X706242Y53532I-925J1186D01*
G01*
X706238Y53530D02*
G03*
X706241Y53532I-922J1188D01*
G01*
X706236Y53528D02*
G03*
X706241Y53531I-919J1190D01*
G01*
X705977Y53327D02*
G03*
X705981Y53330I-918J1191D01*
G01*
X705712Y53118D02*
G03*
X705714Y53119I-940J1174D01*
G01*
X705451Y52909D02*
G03*
X705454Y52910I-939J1175D01*
G01*
X704930Y52480D02*
G03*
X704934Y52483I-970J1149D01*
G01*
X704676Y52265D02*
G03*
X704680Y52268I-967J1152D01*
G01*
X704422Y52047D02*
G03*
X704423Y52048I-980J1141D01*
G01*
X704421Y52047D02*
G03*
X704422Y52047I-993J1130D01*
G01*
X704417Y52043D02*
G03*
X704421Y52047I-975J1145D01*
G01*
X704169Y51826D02*
G03*
X704173Y51830I-984J1137D01*
G01*
X703669Y51378D02*
G03*
X703669Y51379I-1019J1106D01*
G01*
D02*
G03*
X703670Y51380I-1020J1105D01*
G01*
X703669Y51379D02*
G03*
X703670Y51380I-1008J1116D01*
G01*
X703668Y51378D02*
G03*
X703669Y51379I-1007J1117D01*
G01*
X703667Y51377D02*
G03*
X703668Y51378I-1006J1117D01*
G01*
X703422Y51152D02*
G03*
X703426Y51156I-1015J1109D01*
G01*
X703420Y51151D02*
G03*
X703422Y51152I-1014J1111D01*
G01*
X703419Y51149D02*
G03*
X703420Y51151I-1027J1098D01*
G01*
X703420Y51151D02*
G03*
X703422Y51152I-1029J1097D01*
G01*
X703419Y51150D02*
G03*
X703420Y51151I-1024J1101D01*
G01*
X703175Y50922D02*
G03*
X703181Y50928I-1022J1103D01*
G01*
X702930Y50689D02*
G03*
X702931Y50691I-1041J1085D01*
G01*
X702688Y50457D02*
G03*
X702689Y50457I-1053J1073D01*
G01*
D02*
G03*
X702690Y50458I-1054J1073D01*
G01*
X702449Y50222D02*
G03*
X702449Y50223I-1051J1076D01*
G01*
X702449D02*
G03*
X702450Y50223I-1053J1074D01*
G01*
X702449Y50223D02*
G03*
X702450Y50223I-1065J1062D01*
G01*
D02*
G03*
X702451Y50224I-1054J1073D01*
G01*
X702450Y50223D02*
G03*
X702451Y50224I-1052J1074D01*
G01*
X702450Y50223D02*
G03*
X702451Y50224I-1065J1061D01*
G01*
X702442Y50216D02*
G03*
X702448Y50221I-1058J1069D01*
G01*
X702210Y49984D02*
G03*
X702213Y49988I-1058J1069D01*
G01*
X701739Y49504D02*
G03*
X701740Y49504I-1078J1049D01*
G01*
X701737Y49502D02*
G03*
X701739Y49504I-1087J1039D01*
G01*
X701508Y49262D02*
G03*
X701510Y49264I-1085J1041D01*
G01*
X701507Y49261D02*
G03*
X701508Y49262I-1085J1042D01*
G01*
X701265Y49003D02*
G03*
X701277Y49016I-1121J1002D01*
G01*
X701252Y48988D02*
G03*
X701253Y48990I-1120J1003D01*
G01*
X700179Y47791D02*
G03*
X700180Y47791I-1120J1003D01*
G01*
X700179Y47790D02*
G03*
X700179Y47791I-1120J1004D01*
G01*
X700173Y47784D02*
G03*
X700179Y47790I-1114J1010D01*
G01*
X700173Y47783D02*
G03*
X700173Y47784I-1114J1010D01*
G01*
X700159Y47767D02*
G03*
X700173Y47783I-1141J979D01*
G01*
X696314Y45007D02*
G03*
X700159Y47767I-3752J9283D01*
G01*
X696306Y45003D02*
G03*
X696314Y45007I-3743J9286D01*
G01*
X696294Y44998D02*
G03*
X696306Y45003I-130842J324623D01*
G01*
X585929Y20221D02*
G03*
X696294Y44998I-20477J349400D01*
G01*
X585822Y20219D02*
G03*
X585929Y20221I19J1504D01*
G01*
X247968Y23445D02*
G03*
X247971Y23445I27J1504D01*
G01*
X247962Y23446D02*
G03*
X247971Y23445I23J1504D01*
G01*
D02*
G03*
X247985Y23445I24J1504D01*
G01*
X247981Y23445D02*
G03*
X247985Y23445I4J1504D01*
G01*
X247971Y23445D02*
G03*
X247981Y23445I14J1504D01*
G01*
X247970Y23445D02*
G03*
X247968Y23445I-191J-19999D01*
G01*
D02*
G03*
X247962Y23445I-189J-19999D01*
G01*
D02*
G03*
X230385Y13317I-182J-19999D01*
G01*
X230376Y13302D02*
G03*
X230385Y13317I-1304J750D01*
G01*
X193221Y13649D02*
G03*
X230376Y13302I18674J10141D01*
G01*
X193213Y13664D02*
G03*
X193221Y13649I1329J703D01*
G01*
X193212Y13666D02*
G03*
X193213Y13664I1331J701D01*
G01*
X193212Y13665D02*
G03*
X193212Y13666I-17584J-9530D01*
G01*
D02*
G03*
X193208Y13672I-17583J-9531D01*
G01*
D02*
G03*
X175834Y24134I-17580J-9537D01*
G01*
X175822Y24135D02*
G03*
X175834Y24135I2J1504D01*
G01*
X175817D02*
G03*
X175822Y24135I6J1504D01*
G01*
Y24135D02*
G03*
X175819Y24135I-193J-19999D01*
G01*
X175828Y24135D02*
G03*
X175822Y24135I-199J-19999D01*
G01*
X175834Y24134D02*
G03*
X175828Y24135I-205J-19999D01*
G01*
D02*
G03*
X175834Y24135I6J1504D01*
G01*
X175817Y24135D02*
G03*
X175828Y24135I16J1504D01*
G01*
X175804Y24135D02*
G03*
X175817Y24135I19J1504D01*
G01*
X160271Y24283D02*
X175804Y24135D01*
X160264Y24283D02*
X160271Y24283D01*
X160264Y24283D02*
X160267Y24283D01*
X160271Y24283D01*
X160262Y24283D02*
X160264Y24283D01*
X160260Y24283D02*
X160264Y24283D01*
X160259Y24283D02*
X160260D01*
X105826Y43075D02*
X105836Y43063D01*
X105826Y43075D02*
X105826Y43075D01*
X105826Y43075D02*
X105826Y43075D01*
X105819Y43084D02*
X105826Y43075D01*
X105819Y43084D02*
X105823Y43078D01*
X105826Y43075D01*
X105826Y43075D02*
X105826Y43075D01*
X105834Y43065D02*
X105834Y43066D01*
X105824Y43077D02*
X105824Y43077D01*
X105824Y43077D02*
X105834Y43065D01*
X47814Y113568D02*
X105819Y43084D01*
X47807Y113575D02*
X47814Y113568D01*
X47803Y113581D02*
X47807Y113575D01*
X47807Y113575D01*
X47810Y113572D01*
X47814Y113568D01*
X44002Y115398D02*
Y115398D01*
X43985Y115398D02*
X43994Y115398D01*
X43988Y115398D02*
X43991Y115398D01*
X43998Y115398D02*
Y115398D01*
X43990Y115398D02*
X43991Y115398D01*
X43988Y115398D02*
X43990D01*
X43985Y115398D02*
X43988Y115398D01*
X36932Y115465D02*
X43985Y115398D01*
X36927Y115465D02*
X36932Y115465D01*
X36927Y115465D02*
X36932Y115465D01*
X36909Y115465D02*
X36927Y115465D01*
X36888Y115465D02*
X36909Y115465D01*
X36909Y115465D01*
X36924Y115465D02*
X36924D01*
X36927Y115465D02*
Y115465D01*
X36924D02*
X36924D01*
X36909Y115465D02*
X36909D01*
X36909D02*
X36909D01*
X33086Y117301D02*
X33087Y117298D01*
X33087Y117298D02*
X33095Y117289D01*
X33086Y117301D02*
X33089Y117297D01*
X6230Y149933D02*
X33086Y117301D01*
X6219Y149947D02*
X6219Y149947D01*
X6219Y149947D01*
X6206Y149963D02*
X6213Y149955D01*
X6206Y149963D02*
X6206Y149963D01*
X6012Y156031D02*
X6022Y156046D01*
X6019Y156041D02*
X6022Y156046D01*
X6019Y156041D02*
X6019Y156041D01*
X6022Y156046D02*
X30551Y190374D01*
X30555Y190379D01*
X30568Y190398D02*
X30583Y190418D01*
X30555Y190379D02*
X30568Y190398D01*
X30551Y190374D02*
X30554Y190379D01*
X30555Y190378D01*
X34666Y192490D02*
X34700Y192490D01*
X34684Y192490D02*
X34685Y192490D01*
X34684D02*
X34684D01*
Y192490D02*
X34700Y192490D01*
X34704Y192490D01*
X34700Y192490D02*
Y192490D01*
X34700D02*
X34704Y192490D01*
X36787Y192470D01*
X36800Y192470D02*
X36803Y192470D01*
Y192470D01*
X36810Y192470D02*
X36821Y192470D01*
X40918Y194563D02*
X40922Y194568D01*
X40918Y194563D02*
X40918D01*
X40922Y194567D01*
X40922Y194568D01*
X58793Y219578D01*
X58800Y219587D01*
X58801Y219590D01*
X58796Y219582D02*
X58796Y219583D01*
X58796Y219582D02*
X58797Y219583D01*
X58796Y219583D02*
X58797Y219583D01*
X58793Y219578D02*
X58796Y219583D01*
X58802Y219590D02*
X58803Y219592D01*
X58797Y219583D02*
X58803Y219592D01*
X58797Y219583D02*
X58800Y219587D01*
X58801Y219590D01*
X58802Y219591D02*
X58802Y219591D01*
X58802Y219590D02*
X58802D01*
X58803Y219592D02*
X58812Y219605D01*
X58803Y219592D02*
X58804Y219594D01*
X68905Y228517D02*
X68928Y228529D01*
X68916Y228522D02*
X68918Y228524D01*
X68928Y228529D02*
X68928Y228529D01*
X68916Y228523D02*
X68928Y228529D01*
X68916Y228523D02*
X68916Y228523D01*
X68928Y228529D02*
X138429Y266191D01*
X149417Y269638D02*
X149423Y269638D01*
X565149Y286386D02*
X565157Y286402D01*
X565157Y286403D02*
X565165Y286419D01*
X565149Y286386D02*
X565157Y286403D01*
X565149Y286386D02*
X565149Y286386D01*
X565157Y286402D02*
X565157Y286404D01*
X565158Y286404D01*
X604958Y282360D02*
X604960Y282351D01*
X604963Y282340D02*
X604963Y282339D01*
X621964Y267279D02*
X621977Y267278D01*
X621987Y267276D02*
Y267276D01*
X750434Y200606D02*
X750448Y200592D01*
X750452Y200588D02*
X750460Y200580D01*
X750452Y200588D02*
X750452D01*
X750445Y200595D02*
X750445Y200595D01*
X752133Y198417D02*
X752137Y198409D01*
X763168Y187061D02*
X763168Y187061D01*
X765249Y185348D02*
X765256Y185341D01*
X795392Y148413D02*
X795392D01*
X795392Y148412D02*
X795392Y148412D01*
X795392Y148412D02*
X795399Y148403D01*
X795399Y148402D02*
X795401Y148399D01*
X795397Y148406D02*
X795398Y148404D01*
X795397Y148406D02*
X795397Y148406D01*
X795401Y148399D02*
X795410Y148387D01*
X797008Y140214D02*
X797008Y140214D01*
X787797Y101985D02*
X797008Y140214D01*
X787796Y101985D02*
X787797Y101985D01*
X784322Y96499D02*
Y96499D01*
X784318Y96496D02*
X784320Y96497D01*
X734101Y62934D02*
X734102Y62934D01*
X729153Y61690D02*
X729341Y61692D01*
X729152Y61690D02*
X729153D01*
X729153D02*
X729154Y61690D01*
X728831Y61684D02*
X729153Y61690D01*
X728509Y61675D02*
X728831Y61684D01*
X728192Y61663D02*
X728502Y61674D01*
X728190Y61663D02*
Y61663D01*
X728185Y61663D02*
X728190Y61663D01*
X727869Y61648D02*
X728181Y61662D01*
X727869Y61648D02*
X727872Y61648D01*
Y61648D01*
X727551Y61630D02*
X727852Y61647D01*
X727545Y61630D02*
X727551Y61630D01*
X727544Y61630D02*
X727545Y61630D01*
X727540Y61630D02*
X727540D01*
X727225Y61610D02*
X727532Y61629D01*
X727220Y61609D02*
Y61609D01*
X726904Y61586D02*
X727207Y61608D01*
X726902Y61586D02*
X726904Y61586D01*
X726901Y61586D02*
Y61586D01*
X726581Y61560D02*
X726885Y61585D01*
X726577Y61559D02*
X726581Y61560D01*
X726248Y61529D02*
X726571Y61559D01*
X725927Y61497D02*
X726248Y61529D01*
X725926Y61497D02*
X725927Y61497D01*
X725610Y61463D02*
X725919Y61497D01*
X725609Y61463D02*
X725610Y61463D01*
X725594Y61461D02*
X725598Y61462D01*
X725594Y61461D02*
X725598Y61462D01*
X725289Y61425D02*
X725594Y61461D01*
X725278Y61424D02*
X725279Y61424D01*
X725278Y61424D02*
X725278Y61424D01*
X724959Y61384D02*
X725278Y61424D01*
X724954Y61383D02*
X724958Y61383D01*
X724645Y61341D02*
X724947Y61382D01*
X724314Y61293D02*
X724635Y61340D01*
X724304Y61292D02*
X724307Y61292D01*
X724304Y61292D02*
X724309Y61292D01*
X723999Y61245D02*
X724304Y61292D01*
X723996Y61244D02*
X723999Y61245D01*
X723991Y61244D02*
X723991Y61244D01*
X723670Y61191D02*
X723991Y61244D01*
X723354Y61137D02*
X723662Y61190D01*
X723350Y61137D02*
X723354Y61137D01*
X723356Y61138D02*
X723356Y61138D01*
X723344Y61136D02*
X723350Y61137D01*
X723341Y61135D02*
X723344Y61136D01*
X723335Y61134D02*
X723341Y61135D01*
X723038Y61080D02*
X723335Y61134D01*
X723029Y61079D02*
Y61079D01*
X723032Y61079D01*
X722711Y61019D02*
X723020Y61077D01*
X722704Y61017D02*
X722705Y61017D01*
X722384Y60954D02*
X722704Y61017D01*
X722065Y60887D02*
X722384Y60954D01*
X722065Y60887D02*
X722065Y60887D01*
X722064Y60887D02*
X722065Y60887D01*
X721749Y60819D02*
X722059Y60886D01*
X721748Y60819D02*
X721749Y60819D01*
X721752Y60820D02*
X721752Y60820D01*
X721431Y60747D02*
X721738Y60817D01*
X721428Y60747D02*
X721431Y60747D01*
X721425Y60746D02*
X721428Y60747D01*
X721425Y60746D02*
X721425D01*
X721423Y60746D02*
X721425Y60746D01*
X721422Y60745D02*
X721423Y60746D01*
X721107Y60672D02*
X721422Y60745D01*
X721107Y60672D02*
Y60672D01*
X721098Y60669D02*
X721103Y60670D01*
X721101Y60670D02*
X721102Y60670D01*
X721103Y60670D01*
X720792Y60595D02*
X721101Y60670D01*
X720792Y60595D02*
Y60595D01*
X720477Y60515D02*
X720779Y60591D01*
X720462Y60511D02*
X720466Y60512D01*
X720461Y60511D02*
X720462Y60511D01*
X720159Y60432D02*
X720461Y60511D01*
X720151Y60430D02*
X720151Y60430D01*
X720156Y60431D02*
Y60431D01*
X719842Y60346D02*
X720143Y60427D01*
X719841Y60346D02*
X719842Y60346D01*
X719837Y60344D02*
X719841Y60346D01*
X719830Y60342D02*
X719833Y60343D01*
X719519Y60255D02*
X719830Y60342D01*
X719203Y60163D02*
X719517Y60255D01*
X719202Y60163D02*
X719203Y60163D01*
X719200Y60162D02*
X719201Y60163D01*
X718887Y60069D02*
X719200Y60162D01*
X718575Y59973D02*
X718883Y60068D01*
X718571Y59971D02*
X718572D01*
X718259Y59872D02*
X718571Y59971D01*
X717947Y59770D02*
X718252Y59870D01*
X717944Y59769D02*
X717947Y59770D01*
X717944Y59769D02*
X717944Y59769D01*
X717943Y59769D02*
X717944Y59769D01*
X717945Y59770D01*
X717631Y59664D02*
X717943Y59769D01*
X717319Y59556D02*
X717631Y59664D01*
X717009Y59445D02*
X717319Y59556D01*
X717009Y59445D02*
X717009Y59445D01*
X717010Y59445D01*
X717005Y59443D02*
X717009Y59445D01*
X716707Y59335D02*
X716999Y59441D01*
X716393Y59217D02*
X716693Y59329D01*
X716391Y59216D02*
X716393Y59217D01*
X716386Y59214D02*
X716387Y59215D01*
X716384Y59213D02*
X716386Y59214D01*
X716080Y59096D02*
X716384Y59213D01*
X715771Y58974D02*
X716079Y59096D01*
X715465Y58850D02*
X715771Y58974D01*
X715168Y58727D02*
X715454Y58846D01*
X715162Y58725D02*
X715168Y58727D01*
X715160Y58724D02*
X715162Y58725D01*
X714856Y58595D02*
X715155Y58722D01*
X714559Y58466D02*
X714842Y58589D01*
X714551Y58463D02*
Y58463D01*
X714548Y58461D02*
X714549Y58462D01*
X714538Y58457D02*
X714543Y58459D01*
X714256Y58331D02*
X714538Y58457D01*
X714251Y58329D02*
X714251Y58329D01*
X714244Y58326D02*
X714245Y58327D01*
X713943Y58189D02*
X714244Y58326D01*
X713943Y58189D02*
X713944Y58190D01*
X713642Y58049D02*
X713943Y58189D01*
X713342Y57907D02*
X713642Y58049D01*
X713336Y57904D02*
X713337Y57904D01*
X713048Y57764D02*
X713336Y57904D01*
X713042Y57761D02*
X713042Y57761D01*
X712745Y57614D02*
X713042Y57761D01*
X712744Y57614D02*
X712745Y57614D01*
X712452Y57465D02*
X712740Y57611D01*
X712447Y57463D02*
Y57463D01*
X712444Y57462D02*
X712445Y57462D01*
X712444Y57461D02*
X712445Y57462D01*
X712155Y57312D02*
X712444Y57461D01*
X712154Y57312D02*
Y57312D01*
X712150Y57309D02*
X712154Y57312D01*
X711866Y57160D02*
X712142Y57305D01*
X711567Y56999D02*
X711851Y57152D01*
X711565Y56998D02*
X711567Y56999D01*
X711565Y56998D02*
X711565Y56998D01*
X711563Y56997D02*
X711566Y56998D01*
X711562Y56996D02*
X711562Y56996D01*
X711559Y56995D02*
X711562Y56996D01*
X711275Y56839D02*
X711559Y56995D01*
X711274Y56838D02*
X711275Y56839D01*
X711270Y56836D02*
X711271Y56836D01*
X710980Y56674D02*
X711270Y56836D01*
X710976Y56671D02*
X710980Y56673D01*
X710697Y56512D02*
X710972Y56669D01*
X710690Y56508D02*
X710690Y56508D01*
X710401Y56340D02*
X710690Y56508D01*
X710401Y56340D02*
X710403Y56340D01*
X710114Y56169D02*
X710401Y56340D01*
X709828Y55996D02*
X710114Y56169D01*
X709828Y55996D02*
X709829Y55997D01*
X709544Y55821D02*
X709828Y55996D01*
X709544Y55821D02*
X709545Y55822D01*
X709262Y55644D02*
X709544Y55821D01*
X709256Y55640D02*
X709258Y55641D01*
X709256Y55640D02*
X709260Y55643D01*
X708984Y55466D02*
X709256Y55640D01*
X708979Y55464D02*
X708980Y55464D01*
X708979Y55463D02*
X708979Y55463D01*
X708700Y55282D02*
X708978Y55462D01*
X708699Y55281D02*
X708700Y55282D01*
X708699Y55281D02*
X708699Y55281D01*
X708700Y55282D02*
X708700D01*
X708696Y55279D02*
X708700Y55282D01*
X708423Y55098D02*
X708695Y55278D01*
X708424Y55099D02*
X708424Y55099D01*
X708146Y54911D02*
X708415Y55093D01*
X707866Y54719D02*
X708141Y54908D01*
X707866Y54719D02*
X707866Y54719D01*
X707866Y54719D02*
X707867Y54720D01*
X707591Y54527D02*
X707866Y54719D01*
X707318Y54333D02*
X707591Y54527D01*
X707318Y54333D02*
X707320Y54334D01*
X707048Y54136D02*
X707318Y54333D01*
X706779Y53938D02*
X707045Y54135D01*
X706510Y53737D02*
X706777Y53937D01*
X706509Y53737D02*
X706509Y53737D01*
X706247Y53536D02*
X706504Y53732D01*
X706242Y53532D02*
X706246Y53536D01*
X706236Y53528D02*
X706238Y53530D01*
X706236Y53528D02*
X706241Y53531D01*
X705983Y53332D02*
X706236Y53528D01*
X705981Y53330D02*
X705983Y53332D01*
X705977Y53327D02*
X705977Y53327D01*
X705714Y53120D02*
X705977Y53327D01*
X705714Y53119D02*
X705714Y53120D01*
X705454Y52910D02*
X705712Y53118D01*
X705192Y52697D02*
X705451Y52909D01*
X704934Y52483D02*
X705192Y52697D01*
X704680Y52268D02*
X704930Y52480D01*
X704423Y52048D02*
X704676Y52265D01*
X704423Y52048D02*
Y52048D01*
X704417Y52043D02*
X704418Y52043D01*
X704413Y52039D02*
X704418Y52043D01*
X704178Y51834D02*
X704413Y52039D01*
X704173Y51830D02*
X704178Y51834D01*
X703918Y51603D02*
X704169Y51826D01*
X703669Y51379D02*
X703918Y51603D01*
X703669Y51378D02*
X703669Y51379D01*
X703666Y51376D02*
X703667Y51377D01*
X703662Y51373D02*
X703666Y51376D01*
X703426Y51156D02*
X703662Y51373D01*
X703419Y51149D02*
X703422Y51152D01*
X703420Y51151D02*
X703420Y51151D01*
X703414Y51145D02*
X703419Y51150D01*
X703181Y50928D02*
X703414Y51145D01*
X703174Y50921D02*
X703175Y50922D01*
X702931Y50691D02*
X703174Y50921D01*
X702928Y50688D02*
X702930Y50689D01*
X702928Y50687D02*
X702928Y50688D01*
X702691Y50460D02*
X702928Y50687D01*
X702690Y50458D02*
X702691Y50460D01*
X702688Y50457D02*
X702690Y50458D01*
X702686Y50455D02*
X702690Y50458D01*
X702451Y50224D02*
X702686Y50455D01*
X702449Y50222D02*
X702451Y50224D01*
X702449Y50223D02*
X702449Y50223D01*
X702450Y50223D01*
X702448Y50221D02*
X702451Y50224D01*
X702216Y49991D02*
X702442Y50216D01*
X702213Y49988D02*
X702216Y49991D01*
X701974Y49746D02*
X702210Y49984D01*
X701740Y49504D02*
X701974Y49746D01*
X701510Y49264D02*
X701737Y49502D01*
X701277Y49017D02*
X701507Y49261D01*
X701277Y49016D02*
X701277Y49017D01*
X701253Y48990D02*
X701265Y49003D01*
X700180Y47791D02*
X701252Y48988D01*
X700173Y47783D02*
X700173Y47783D01*
X700159Y47767D02*
Y47767D01*
X696306Y45003D02*
X696306Y45003D01*
X585822Y20219D02*
X585827Y20219D01*
X585822Y20219D02*
X585827Y20219D01*
X247985Y23445D02*
X585822Y20219D01*
X247981Y23445D02*
X247985Y23445D01*
X247971Y23445D02*
X247981Y23445D01*
X247962Y23446D02*
X247968Y23445D01*
X247985Y23445D02*
X247985Y23445D01*
X247985D02*
X247985D01*
X247970Y23445D02*
X247971D01*
X230385Y13317D02*
Y13317D01*
X193221Y13649D02*
X193221D01*
X193212Y13666D02*
X193212Y13665D01*
X193212D02*
X193212D01*
X175834Y24135D02*
X175834Y24134D01*
X175817Y24135D02*
X175819Y24135D01*
X175834Y24134D02*
X175834Y24135D01*
X175834D02*
X175834D01*
X91692Y360859D02*
G03*
X91690Y360859I-17J-51D01*
G01*
X92006Y360756D02*
G03*
X92005Y360756I-18J-51D01*
G01*
X92319Y360650D02*
G03*
X92318Y360651I-19J-50D01*
G01*
X92318Y360651D02*
G03*
X92317Y360651I-18J-51D01*
G01*
X92632Y360542D02*
G03*
X92630Y360543I-19J-50D01*
G01*
X92631Y360542D02*
G03*
X92629Y360543I-18J-51D01*
G01*
X92942Y360432D02*
G03*
X92941Y360432I-19J-50D01*
G01*
X93563Y360201D02*
G03*
X93563Y360202I-19J-50D01*
G01*
X93873Y360082D02*
G03*
X93872Y360083I-20J-50D01*
G01*
X94182Y359960D02*
G03*
X94181Y359961I-21J-49D01*
G01*
X94488Y359836D02*
G03*
X94487Y359837I-21J-50D01*
G01*
X95101Y359579D02*
G03*
X95100Y359580I-21J-49D01*
G01*
X95407Y359446D02*
G03*
X95405Y359447I-23J-49D01*
G01*
X95709Y359312D02*
G03*
X95708Y359313I-22J-49D01*
G01*
X96012Y359174D02*
G03*
X96011Y359174I-23J-49D01*
G01*
X96314Y359034D02*
G03*
X96313Y359034I-23J-49D01*
G01*
X97510Y358447D02*
G03*
X97509Y358447I-25J-47D01*
G01*
X97807Y358293D02*
G03*
X97806Y358294I-26J-47D01*
G01*
X98688Y357819D02*
G03*
X98687Y357820I-26J-47D01*
G01*
X98980Y357656D02*
G03*
X98979Y357656I-27J-46D01*
G01*
X99270Y357490D02*
G03*
X99269Y357491I-28J-46D01*
G01*
X99269Y357490D02*
G03*
X99268Y357491I-27J-47D01*
G01*
X99558Y357322D02*
G03*
X99557Y357323I-27J-46D01*
G01*
X99846Y357152D02*
G03*
X99845Y357152I-28J-46D01*
G01*
X99847Y357151D02*
G03*
X99846Y357152I-29J-46D01*
G01*
X100132Y356978D02*
G03*
X100131Y356979I-28J-46D01*
G01*
X100133Y356978D02*
G03*
X100132Y356979I-29J-45D01*
G01*
X100417Y356803D02*
G03*
X100416Y356804I-29J-46D01*
G01*
X100701Y356625D02*
G03*
X100700Y356625I-29J-45D01*
G01*
X101264Y356261D02*
G03*
X101263Y356262I-31J-44D01*
G01*
X101821Y355889D02*
G03*
X101820Y355889I-30J-44D01*
G01*
X102646Y355312D02*
G03*
X102645Y355313I-33J-43D01*
G01*
X102918Y355115D02*
G03*
X102917Y355116I-33J-43D01*
G01*
X103188Y354916D02*
G03*
X103186Y354917I-32J-43D01*
G01*
X103457Y354714D02*
G03*
X103456Y354715I-33J-42D01*
G01*
X103724Y354511D02*
G03*
X103723Y354512I-34J-42D01*
G01*
X103723Y354511D02*
G03*
X103722Y354512I-33J-43D01*
G01*
X103989Y354305D02*
G03*
X103987Y354306I-33J-42D01*
G01*
X104252Y354097D02*
G03*
X104252Y354098I-34J-42D01*
G01*
X104515Y353887D02*
G03*
X104514Y353887I-34J-41D01*
G01*
X104775Y353675D02*
G03*
X104774Y353675I-34J-41D01*
G01*
X104775Y353674D02*
G03*
X104775Y353675I-34J-41D01*
G01*
X105034Y353459D02*
G03*
X105033Y353460I-36J-40D01*
G01*
X105290Y353243D02*
G03*
X105289Y353244I-35J-41D01*
G01*
X105291Y353242D02*
G03*
X105290Y353243I-36J-40D01*
G01*
X105546Y353024D02*
G03*
X105545Y353025I-35J-41D01*
G01*
X106051Y352579D02*
G03*
X106050Y352579I-36J-40D01*
G01*
X106301Y352353D02*
G03*
X106300Y352354I-37J-39D01*
G01*
X106549Y352127D02*
G03*
X106547Y352127I-37J-39D01*
G01*
X106795Y351897D02*
G03*
X106794Y351898I-37J-39D01*
G01*
X107282Y351432D02*
G03*
X107281Y351432I-38J-38D01*
G01*
X107522Y351196D02*
G03*
X107521Y351197I-38J-38D01*
G01*
X107761Y350958D02*
G03*
X107760Y350959I-39J-37D01*
G01*
X107997Y350719D02*
G03*
X107996Y350720I-39J-37D01*
G01*
X108697Y349986D02*
G03*
X108694Y349990I-42J-34D01*
G01*
X108695Y349988D02*
G03*
X108694Y349990I-40J-36D01*
G01*
X109815Y348738D02*
G03*
X113645Y345990I7555J6488D01*
G01*
D02*
G03*
X113646Y345989I3724J9236D01*
G01*
X113647Y345989D02*
G03*
X113645Y345990I-20J-50D01*
G01*
X113647Y345989D02*
G03*
X224056Y321208I130833J324569D01*
G01*
X561961Y324436D02*
G03*
X561960Y324435I0J-54D01*
G01*
X579598Y314273D02*
G03*
X561961Y324436I-17445J-9890D01*
G01*
X579598Y314273D02*
G03*
X616671Y314624I18439J10453D01*
G01*
D02*
G03*
X616673Y314627I-18634J10102D01*
G01*
X634112Y325125D02*
G03*
X616673Y314627I192J-20053D01*
G01*
X634113Y325125D02*
G03*
X634112Y325125I0J-54D01*
G01*
X649671Y325273D02*
G03*
X649670Y325273I-1J-54D01*
G01*
X649671D02*
G03*
X694729Y336490I-956J99942D01*
G01*
X694729D02*
G03*
X694730Y336491I-13787J26584D01*
G01*
D02*
G03*
X704063Y344043I-13788J26583D01*
G01*
D02*
G03*
X704065Y344045I-23121J19031D01*
G01*
X765935Y416388D02*
G03*
X762083Y414545I51J-5053D01*
G01*
X765937Y416388D02*
G03*
X765935Y416388I48J-5054D01*
G01*
X773023Y416455D02*
G03*
X773019Y416455I0J-54D01*
G01*
X773023Y416455D02*
G03*
X776795Y418258I-47J4946D01*
G01*
X776796Y418260D02*
G03*
X776795Y418258I40J-36D01*
G01*
X803674Y450920D02*
G03*
X803671Y450917I39J-37D01*
G01*
X803674Y450920D02*
G03*
X804799Y454060I-3821J3140D01*
G01*
D02*
G03*
X803877Y456936I-4946J0D01*
G01*
X803876Y456938D02*
G03*
X803877Y456936I45J29D01*
G01*
X779321Y491302D02*
G03*
X775249Y493372I-4024J-2876D01*
G01*
X775246Y493372D02*
G03*
X775249Y493372I2J54D01*
G01*
X773127Y493352D02*
G03*
X773130Y493352I2J54D01*
G01*
X768970Y495468D02*
G03*
X773127Y493352I4112J2938D01*
G01*
X751088Y520494D02*
G03*
X751089Y520493I45J30D01*
G01*
X751088Y520494D02*
G03*
X740991Y529412I-24364J-17411D01*
G01*
X740989Y529413D02*
G03*
X740991Y529412I28J46D01*
G01*
X671465Y567087D02*
G03*
X660500Y570522I-14267J-26329D01*
G01*
X660499Y570522D02*
G03*
X660500Y570522I8J53D01*
G01*
X660499Y570522D02*
G03*
X264487Y575974I-226093J-2037440D01*
G01*
X264485Y575974D02*
G03*
X264487Y575974I-4J54D01*
G01*
X244729Y587312D02*
G03*
X264485Y575974I18094J8646D01*
G01*
X244727Y587316D02*
G03*
X244729Y587312I18096J8643D01*
G01*
X244727Y587316D02*
G03*
X244729Y587312I49J23D01*
G01*
X244727Y587316D02*
G03*
X205022Y583264I-19127J-9135D01*
G01*
D02*
G03*
X205022Y583262I20578J-5083D01*
G01*
X205022Y583262D02*
G03*
X205022Y583264I-52J13D01*
G01*
X187966Y568161D02*
G03*
X205022Y583262I-2413J19908D01*
G01*
X187964Y568161D02*
G03*
X187966Y568161I-2411J19908D01*
G01*
X187964Y568161D02*
G03*
X138772Y561599I246442J-2035079D01*
G01*
Y561599D02*
G03*
X59525Y501493I200191J-346238D01*
G01*
X59523Y501491D02*
G03*
X59525Y501493I-35J41D01*
G01*
X59525Y501493D02*
G03*
X59523Y501491I6949J-7116D01*
G01*
D02*
G03*
X57865Y499358I6952J-7113D01*
G01*
X57860Y499351D02*
G03*
X57865Y499358I-42J34D01*
G01*
X46793Y487951D02*
G03*
X57860Y499351I-17087J27662D01*
G01*
X46788Y487948D02*
G03*
X46793Y487951I-23J48D01*
G01*
X46793Y487951D02*
G03*
X46788Y487948I5228J-8462D01*
G01*
D02*
G03*
X44705Y486228I5232J-8459D01*
G01*
D02*
G03*
X44702Y486226I7315J-6739D01*
G01*
X44702Y486226D02*
G03*
X44705Y486228I-40J36D01*
G01*
X44702Y486226D02*
G03*
X14579Y449310I294260J-270865D01*
G01*
X14577Y449307D02*
G03*
X14579Y449310I-41J34D01*
G01*
X14579Y449310D02*
G03*
X14577Y449307I8067J-5818D01*
G01*
D02*
G03*
X12976Y441165I8069J-5815D01*
G01*
X12977Y441162D02*
G03*
X12976Y441165I-52J-13D01*
G01*
X22194Y402909D02*
G03*
X22193Y402911I-52J-13D01*
G01*
X22194Y402909D02*
G03*
X25641Y397479I9669J2330D01*
G01*
X25644Y397477D02*
G03*
X25641Y397479I-34J-42D01*
G01*
X25644Y397477D02*
G03*
X75865Y363913I218836J273081D01*
G01*
X75867Y363912D02*
G03*
X75865Y363913I-28J-46D01*
G01*
X75865D02*
G03*
X75867Y363912I4792J8716D01*
G01*
D02*
G03*
X80457Y362684I4790J8717D01*
G01*
D02*
G03*
X80565Y362683I199J9944D01*
G01*
X80570Y362682D02*
G03*
X80565Y362683I-6J-54D01*
G01*
X81104Y362674D02*
G03*
X81103Y362674I-2J-54D01*
G01*
X82396Y362620D02*
G03*
X82395Y362620I-3J-54D01*
G01*
X82720Y362599D02*
G03*
X82719Y362599I-5J-54D01*
G01*
X83043Y362575D02*
G03*
X83041Y362575I-4J-54D01*
G01*
X83367Y362548D02*
G03*
X83365Y362549I-6J-54D01*
G01*
X83689Y362519D02*
G03*
X83688Y362519I-5J-54D01*
G01*
X84013Y362487D02*
G03*
X84012Y362487I-6J-54D01*
G01*
X84337Y362452D02*
G03*
X84335Y362452I-7J-53D01*
G01*
X84659Y362414D02*
G03*
X84658Y362414I-7J-53D01*
G01*
X85306Y362329D02*
G03*
X85305Y362329I-9J-53D01*
G01*
X85628Y362282D02*
G03*
X85626Y362282I-8J-53D01*
G01*
X85950Y362233D02*
G03*
X85949Y362233I-9J-53D01*
G01*
X86272Y362180D02*
G03*
X86272Y362181I-9J-53D01*
G01*
X86595Y362125D02*
G03*
X86594Y362125I-10J-53D01*
G01*
X87238Y362006D02*
G03*
X87237Y362006I-10J-53D01*
G01*
X87239Y362006D02*
G03*
X87237Y362006I-12J-52D01*
G01*
X87559Y361943D02*
G03*
X87557Y361943I-11J-53D01*
G01*
X87880Y361876D02*
G03*
X87879Y361876I-12J-52D01*
G01*
X88200Y361807D02*
G03*
X88199Y361807I-12J-52D01*
G01*
X88200Y361807D02*
G03*
X88199Y361807I-12J-52D01*
G01*
X89159Y361582D02*
G03*
X89158Y361582I-14J-52D01*
G01*
X90113Y361331D02*
G03*
X90112Y361332I-15J-52D01*
G01*
X90430Y361242D02*
G03*
X90428Y361243I-15J-52D01*
G01*
X90746Y361151D02*
G03*
X90745Y361151I-15J-52D01*
G01*
X91378Y360959D02*
X91690Y360859D01*
X91692Y360859D02*
X92005Y360756D01*
X92005Y360756D02*
X92006Y360756D01*
X92005Y360756D02*
X92006Y360756D01*
X92317Y360651D01*
X92318Y360651D01*
X92318Y360651D02*
X92319Y360650D01*
X92317Y360651D02*
X92319Y360650D01*
X92629Y360543D01*
X92630Y360543D01*
X92631Y360542D02*
X92632Y360542D01*
X92629Y360543D02*
X92632Y360542D01*
X92941Y360432D01*
X92942Y360432D02*
X92943Y360431D01*
X93252Y360318D01*
X93253Y360318D01*
X93253Y360318D02*
X93563Y360202D01*
X93563Y360201D02*
X93872Y360083D01*
X93873Y360082D02*
X94181Y359961D01*
X94181Y359961D02*
X94182Y359960D01*
X94181Y359961D02*
X94182Y359960D01*
X94487Y359837D01*
X94488Y359836D02*
X94795Y359709D01*
X94795Y359709D02*
X95100Y359580D01*
X95101Y359579D02*
X95405Y359447D01*
X95405Y359447D02*
X95407Y359446D01*
X95405Y359447D02*
X95407Y359446D01*
X95708Y359313D01*
X95709Y359312D02*
X96011Y359174D01*
X96012Y359174D02*
X96313Y359034D01*
X96314Y359034D02*
X96614Y358891D01*
X96614Y358891D02*
X96615Y358891D01*
X96913Y358746D01*
X96913Y358746D01*
X96914Y358746D01*
X97212Y358598D01*
X97212Y358598D02*
X97509Y358447D01*
X97510Y358447D02*
X97510Y358447D01*
X97510Y358447D02*
X97510Y358447D01*
X97805Y358295D01*
X97806Y358294D01*
X97807Y358293D02*
X98100Y358139D01*
X98101Y358139D01*
X98101Y358138D01*
X98395Y357980D01*
X98395Y357980D02*
X98687Y357820D01*
X98688Y357819D02*
X98979Y357656D01*
X98979Y357656D02*
X98980Y357656D01*
X98979Y357656D02*
X98980Y357656D01*
X99268Y357491D01*
X99269Y357491D01*
X99269Y357490D02*
X99270Y357490D01*
X99268Y357491D02*
X99270Y357490D01*
X99557Y357323D01*
X99558Y357322D02*
X99559Y357322D01*
X99845Y357152D01*
X99846Y357152D02*
X99847Y357151D01*
X99845Y357152D02*
X99846Y357152D01*
X99845Y357152D02*
X99847Y357151D01*
X100131Y356979D01*
X100132Y356978D02*
X100133Y356978D01*
X100131Y356979D02*
X100132Y356979D01*
X100131Y356979D02*
X100133Y356978D01*
X100416Y356804D01*
X100417Y356803D02*
X100700Y356625D01*
X100701Y356625D02*
X100983Y356445D01*
X100983Y356445D02*
X101263Y356262D01*
X101264Y356261D02*
X101542Y356077D01*
X101543Y356077D01*
X101543Y356077D01*
X101820Y355889D01*
X101821Y355889D02*
X102097Y355699D01*
X102097Y355699D02*
X102372Y355507D01*
X102372Y355507D02*
X102645Y355313D01*
X102646Y355312D02*
X102916Y355117D01*
X102917Y355116D01*
X102918Y355115D02*
X103186Y354917D01*
X103188Y354916D02*
X103456Y354715D01*
X103456Y354715D02*
X103457Y354714D01*
X103456Y354715D02*
X103457Y354714D01*
X103722Y354512D01*
X103723Y354512D01*
X103723Y354511D02*
X103724Y354511D01*
X103722Y354512D02*
X103724Y354511D01*
X103987Y354306D01*
X103989Y354305D02*
X104252Y354098D01*
X104252Y354097D02*
X104514Y353887D01*
X104514Y353887D02*
X104514Y353887D01*
X104515Y353887D01*
X104514Y353887D02*
X104515Y353887D01*
X104774Y353675D01*
X104775Y353675D02*
X104775Y353675D01*
X104774Y353675D02*
X104775Y353675D01*
X104774Y353675D02*
X104775Y353675D01*
X104775Y353674D02*
X105033Y353460D01*
X105034Y353459D02*
X105289Y353244D01*
X105290Y353243D02*
X105291Y353242D01*
X105289Y353244D02*
X105290Y353243D01*
X105289Y353244D02*
X105291Y353242D01*
X105545Y353025D01*
X105546Y353024D02*
X105799Y352803D01*
X105799Y352803D02*
X106050Y352579D01*
X106051Y352579D02*
X106300Y352354D01*
X106301Y352353D02*
X106547Y352127D01*
X106549Y352127D02*
X106549Y352126D01*
X106794Y351898D01*
X106795Y351897D02*
X106795Y351897D01*
X107038Y351666D01*
X107039Y351666D01*
X107039Y351665D01*
X107281Y351432D01*
X107281Y351432D02*
X107282Y351432D01*
X107281Y351432D02*
X107282Y351432D01*
X107521Y351197D01*
X107522Y351196D02*
X107760Y350959D01*
X107760Y350959D02*
X107761Y350958D01*
X107760Y350959D02*
X107761Y350958D01*
X107996Y350720D01*
X107997Y350719D02*
X108231Y350478D01*
X108231Y350478D02*
X108464Y350235D01*
X108464Y350235D02*
X108694Y349990D01*
X108695Y349988D02*
X108697Y349986D01*
X108694Y349990D02*
X108697Y349986D01*
X109812Y348740D01*
X109814Y348739D01*
X109815Y348738D01*
X113646Y345989D02*
X113647Y345989D01*
X113645Y345990D02*
X113647Y345989D01*
X224056Y321208D02*
X561960Y324435D01*
X561962Y324435D01*
X561961Y324436D02*
X561962Y324435D01*
X561960Y324435D02*
X561961Y324436D01*
X616673Y314627D02*
X616673Y314627D01*
X634112Y325125D02*
X634112D01*
X634113D02*
X649670Y325273D01*
X694729Y336490D02*
X694729D01*
X704065Y344045D02*
X704065Y344045D01*
X704065Y344045D02*
X762083Y414545D01*
X762083D01*
Y414545D02*
X762083D01*
X765937Y416388D02*
Y416388D01*
X773019Y416455D01*
X776796Y418260D02*
X803671Y450917D01*
X803876Y456938D02*
X803877Y456936D01*
X803876Y456938D02*
X803877Y456936D01*
X779323Y491299D02*
X803876Y456938D01*
X779321Y491302D02*
X779323Y491299D01*
X779321Y491302D02*
X779321Y491302D01*
X775246Y493372D02*
X775249Y493372D01*
X775246Y493372D02*
X775249Y493372D01*
X773130Y493352D02*
X775246Y493372D01*
X773127Y493352D02*
Y493352D01*
X768970Y495468D02*
X768970D01*
X768970Y495468D02*
X768970Y495468D01*
X751089Y520493D02*
X768970Y495468D01*
X671467Y567086D02*
X740989Y529413D01*
X671465Y567087D02*
X671467Y567086D01*
X671465Y567087D02*
X671465Y567087D01*
X660500Y570522D02*
X660500D01*
X264487Y575974D02*
Y575974D01*
X244727Y587316D02*
X244727Y587316D01*
X244727Y587316D02*
X244729Y587312D01*
X205022Y583262D02*
X205022Y583262D01*
X205022D02*
X205022Y583264D01*
X187964Y568161D02*
X187964Y568161D01*
X138772Y561599D02*
Y561599D01*
X59523Y501491D02*
X59523Y501491D01*
X59525Y501493D01*
X46788Y487948D02*
X46793Y487951D01*
X44702Y486226D02*
X44702Y486226D01*
X44702Y486226D02*
X44705Y486228D01*
X14577Y449307D02*
X14579Y449310D01*
X12977Y441162D02*
X22193Y402911D01*
X75865Y363913D02*
X75865D01*
X75865D02*
X75867Y363912D01*
X80565Y362683D02*
X80565D01*
X80570Y362682D02*
X80780Y362680D01*
X80780D02*
X81103Y362674D01*
X81103Y362674D02*
X81104Y362674D01*
X81103Y362674D02*
X81104Y362674D01*
X81425Y362665D01*
X81426Y362665D01*
X81426D01*
X81749Y362653D01*
X81749Y362653D02*
X82072Y362637D01*
X82072Y362637D02*
X82395Y362620D01*
X82396Y362620D02*
X82719Y362599D01*
X82720Y362599D02*
X83041Y362575D01*
X83043Y362575D02*
X83365Y362549D01*
X83366Y362549D02*
X83367Y362548D01*
X83366Y362549D02*
X83367Y362548D01*
X83688Y362519D01*
X83689Y362519D02*
Y362519D01*
X84012Y362487D01*
Y362487D02*
Y362487D01*
X84013Y362487D02*
X84335Y362452D01*
X84336Y362452D02*
X84337Y362452D01*
X84336Y362452D02*
X84337Y362452D01*
X84658Y362414D01*
X84659Y362414D02*
X84660Y362413D01*
X84981Y362373D01*
X84982Y362373D01*
X84982Y362373D01*
X85305Y362329D01*
X85306Y362329D02*
X85626Y362282D01*
X85628Y362282D02*
Y362282D01*
Y362282D02*
X85629Y362282D01*
X85949Y362233D01*
X85950Y362233D02*
X86272Y362181D01*
X86272Y362180D02*
X86594Y362125D01*
X86594Y362125D02*
X86595Y362125D01*
X86594Y362125D02*
X86595Y362125D01*
X86915Y362067D01*
X86916Y362067D01*
X86916Y362067D01*
X86917Y362067D01*
X87237Y362006D01*
X87238Y362006D01*
X87237Y362006D02*
X87237Y362006D01*
X87238Y362006D02*
X87239Y362006D01*
X87238Y362006D02*
X87239Y362006D01*
X87557Y361943D01*
X87559Y361943D02*
X87879Y361876D01*
X87879D02*
X87879Y361876D01*
X87880Y361876D02*
X88199Y361807D01*
X88199Y361807D01*
X88200Y361807D01*
X88199Y361807D02*
X88199Y361807D01*
X88200Y361807D02*
X88519Y361735D01*
X88519Y361735D01*
X88520Y361735D01*
X88839Y361660D01*
X88839Y361660D02*
X89158Y361582D01*
X89159Y361582D02*
X89476Y361501D01*
X89477Y361501D01*
X89477Y361501D01*
X89795Y361418D01*
X89795Y361418D02*
X90112Y361332D01*
X90113Y361331D02*
X90428Y361243D01*
X90430Y361242D02*
X90430Y361242D01*
X90745Y361151D01*
X90746Y361151D02*
X90747Y361151D01*
X91061Y361057D01*
X91061Y361056D01*
X91062Y361056D01*
X91377Y360959D01*
D58*
X160260Y24283D02*
D03*
D03*
X36909Y115465D02*
D03*
D03*
X36909D02*
D03*
X36909D02*
D03*
X6219Y149947D02*
D03*
X30568Y190397D02*
D03*
X149426Y269639D02*
D03*
X729368Y61693D02*
D03*
X729153Y61690D02*
D03*
X727540Y61630D02*
D03*
X725604Y61462D02*
D03*
X725279Y61424D02*
D03*
X725279Y61424D02*
D03*
X724635Y61340D02*
D03*
X722066Y60888D02*
D03*
D03*
X722065Y60887D02*
D03*
X721106Y60671D02*
D03*
X717943Y59769D02*
D03*
X717009Y59445D02*
D03*
X717010Y59445D02*
D03*
D03*
X711563Y56997D02*
D03*
X711270Y56836D02*
D03*
X709829Y55997D02*
D03*
X708699Y55281D02*
D03*
X708700Y55282D02*
D03*
D03*
X708423Y55098D02*
D03*
X707866Y54719D02*
D03*
D03*
X706509Y53736D02*
D03*
X704423Y52048D02*
D03*
X704422Y52047D02*
D03*
X703420Y51151D02*
D03*
X703420Y51151D02*
D03*
X702449Y50223D02*
D03*
X701739Y49504D02*
D03*
X701508Y49262D02*
D03*
X700159Y47767D02*
D03*
X247971Y23445D02*
D03*
X93253Y360318D02*
D03*
X94795Y359709D02*
D03*
X96614Y358891D02*
D03*
X97212Y358598D02*
D03*
X98395Y357980D02*
D03*
X100983Y356445D02*
D03*
X102097Y355699D02*
D03*
X102372Y355507D02*
D03*
X104514Y353887D02*
D03*
X105799Y352803D02*
D03*
X108231Y350478D02*
D03*
X108464Y350235D02*
D03*
X762083Y414545D02*
D03*
X768970Y495468D02*
D03*
X80780Y362680D02*
D03*
X81749Y362653D02*
D03*
X82072Y362637D02*
D03*
X87879Y361876D02*
D03*
X88839Y361660D02*
D03*
X89795Y361418D02*
D03*
M02*
