M48
;Layer_Color=9474304
;FILE_FORMAT=4:4
METRIC,LZ
;TYPE=PLATED
T1F00S00C0.3000
T2F00S00C0.3048
T4F00S00C0.5000
T5F00S00C0.9000
T6F00S00C1.2000
T7F00S00C3.0000
%
T01
X00291827Y00753507
X00326827Y00877007
X00352827Y00878007
X00351827Y00862007
X00377327Y00862507
X00378827Y00878007
X00404327
X00402577Y00862007
X00426827
X00403827Y00822007
X00461827Y00792007
X00469827Y00799007
X00549498Y00799007
X00550827Y00792007
X00542827Y00750007
X00538827Y00704007
X00484827Y00717007
X00491827Y00882007
X00557827Y00799007
X00528347Y01392426
X00520847
X00524597Y01399926
X00528347Y01407426
X00520847
T02
X00145967Y00151288
X00171967Y00146288
X00199967Y00147288
X00228967Y00145288
X00251967Y00128288
X00257967Y00098288
X00259967Y00069288
X00261967Y00049288
X00293967Y00052288
X00332967Y00055288
X00323967Y00078288
X00362967Y00058288
X00421967Y00068288
X00427967Y00111288
X00413967Y00149288
X00410967Y00160288
X00397967Y00156288
X00340967Y00133288
X00325967Y00140288
X00285967Y00148288
X00290967Y00105288
X00479967Y00119288
X00508967Y00127288
X00537967Y00158288
X00491967Y00080288
X00564967Y00088288
X00629967Y00094288
X00665967Y00101288
X00702967Y00106288
X00757967Y00124288
X00766967Y00116288
X00767967Y00091288
X00761967Y00142288
X00816965Y00132287
X00798967Y00172288
X00783967Y00180288
X00766967
X00753967Y00202288
X00735967Y00217288
X00695967Y00198288
X00661967Y00179288
X00625967Y00173288
X00597967Y00175288
X00589967Y00212288
Y00219288
X00602967Y00222288
X00562967Y00199288
X00559967Y00256288
X00601967Y00306288
X00590967Y00349288
X00584967Y00366288
X00575967Y00368288
X00566967Y00348288
X00557967Y00351288
X00624967Y00411288
X00632967Y00417288
X00640965Y00407287
X00650965Y00408287
X00669967Y00421288
X00735967Y00423288
X00722967Y00387288
X00706967Y00374288
X00764967Y00383288
X00821967Y00375288
X00823967Y00336288
X00802967Y00325288
X00786967Y00320288
X00746967Y00321288
X00763967Y00284288
X00715967Y00275288
X00699967Y00255288
X00690967Y00305288
Y00321288
X00679967Y00312288
X00663967Y00294288
X00655967
X00644967Y00273288
X00637967Y00273288
X00821967Y00274288
X00820967Y00250288
Y00219288
Y00187288
Y00303288
X00822967Y00416288
Y00455288
X00821967Y00489288
X00820967Y00523288
X00818967Y00544288
X00797967Y00547288
X00768967Y00496288
X00680967Y00491288
X00682967Y00512288
Y00519288
Y00526288
Y00533288
X00696967Y00545288
X00723418Y00557288
X00647967Y00548288
X00566967Y00559288
X00559967Y00515288
X00568967Y00481288
X00595967Y00478288
X00589967Y00463288
X00628967Y00464288
X00534967Y00480288
X00488967Y00474288
X00489967Y00421288
X00503967Y00403288
X00497967Y00395288
X00526965Y00395287
X00532965Y00403287
X00526967Y00410288
X00511967
X00538967Y00381288
X00530967Y00372288
X00534967Y00315288
X00500967Y00320288
X00462967Y00325288
X00466967Y00295288
X00462967Y00240288
X00502967Y00228288
X00536967Y00210288
X00534967Y00194288
X00551967Y00170288
X00425967Y00182288
X00397967Y00178288
X00383967Y00187288
X00354967Y00192288
X00309967Y00175503
X00300967
X00288967Y00187288
X00297967Y00219288
X00326967Y00240288
X00367967Y00264288
X00364967Y00273288
X00363967Y00286288
X00393967Y00298288
X00383967Y00336288
X00395967Y00346288
X00421967Y00342288
X00433967Y00410288
X00452967Y00411288
X00455967Y00394288
X00463965Y00381287
X00467967Y00432288
X00436967Y00444288
X00412967
X00409967Y00416288
X00374967Y00400288
X00365967Y00390288
X00356967Y00421288
X00354967Y00448288
X00349967Y00478288
X00342967Y00471288
X00333967Y00463288
X00326967Y00456288
X00319967Y00449288
X00312967Y00442288
X00305967Y00435288
X00297967Y00427288
X00290967Y00419288
Y00410288
Y00400288
X00289967Y00391288
X00282967Y00384288
X00275967Y00377288
X00267967Y00370288
X00256967Y00366288
X00245967
X00238967Y00359288
X00230967Y00353288
X00221967
X00211967
X00201967
X00191967
X00180967
X00170967Y00352288
X00163967Y00345288
X00156967Y00338288
X00216967Y00332288
X00210967Y00303288
X00186967Y00294288
X00175967Y00273288
X00209967Y00266288
X00247318Y00278937
X00253967Y00279209
X00260967Y00298288
X00295967Y00307288
X00306967Y00381288
Y00388288
X00331967Y00396288
X00356967Y00486288
X00363967Y00493288
X00370967Y00500288
X00378967Y00507288
X00385967Y00514288
X00392967Y00521288
X00400967Y00529288
X00408967Y00537288
X00418967Y00543288
X00453967Y00548288
X00450967Y00519288
X00495967Y00523288
X00518967Y00524288
Y00536288
X00499967Y00552288
X00536967Y00557288
X00409967Y00482288
X00402967
X00239967Y00232288
Y00226288
X00207967Y00214288
X00175967Y00228288
X00148967Y00206288
X00122967Y00167288
X00096967Y00191288
X00093967Y00223288
X00070967Y00249288
X00062967Y00241288
X00053967Y00233288
X00078967Y00258288
X00086967Y00266288
X00093967Y00274288
X00101967Y00282288
X00110967Y00290288
X00118967Y00298288
X00125967Y00306288
X00133967Y00314288
X00141967Y00322288
X00149967Y00331288
X00134967Y00299288
X00103967Y00266288
X00607967Y00564288
X00646967Y00567288
X00678967Y00570288
X00706967Y00572288
X00741967Y00574288
X00772967Y00566288
X00761847Y01099176
X00787347Y01127426
X00779597Y01163676
X00811597Y01155926
X00815347Y01193926
X00803347Y01221426
X00780347Y01211426
X00790597Y01245676
X00775347Y01265426
X00742847Y01269426
X00730347Y01237176
X00713847Y01251926
X00711597Y01296426
X00688347Y01319426
X00661097Y01344676
X00658347Y01351926
X00642097Y01290426
X00603597Y01288426
X00583847Y01313676
X00559347Y01228926
X00597347Y01213676
X00598347Y01196926
X00607597Y01195426
X00621847Y01196676
X00623097Y01229926
X00657347Y01206676
X00697097Y01198676
X00708847Y01200676
X00732597Y01144926
X00676597Y01132676
X00641597Y01132926
X00639097Y01102426
X00650347Y01066926
X00694097
X00730347Y01075426
X00596597Y01092676
X00590347
X00584097
X00608597Y01142426
X00559347Y01154426
X00612347Y01027426
X00605097Y00996926
X00600597Y00966676
X00561597Y00974926
X00667097Y01268426
X00543097Y01215926
X00519097Y01203676
X00531847Y01186926
X00528597Y01154426
X00531097Y01125176
X00526347Y01056176
X00551597Y01028426
X00491597Y01017426
X00507097Y00978676
X00485222Y01071301
X00482597Y01084176
X00469472Y01075551
X00463654Y01068702
X00457097Y01062426
X00445097Y01060676
X00471847Y01063676
X00454097Y01134176
X00482097Y01155676
X00492847Y01212676
X00487847Y01236676
X00492847Y01254176
X00452904Y01259211
X00452847Y01227176
X00444347Y01223176
X00434347
X00424847Y01189676
X00403597Y01189926
X00387847Y01215676
X00379347Y01216426
X00378847Y01224676
X00391847Y01243426
X00392347Y01251676
X00399097Y01254426
X00398597Y01246926
Y01239926
X00419347Y01262676
X00339847Y01274426
X00333597Y01324426
X00364097Y01325176
X00386597Y01350676
X00521597Y01342926
X00548097Y01346926
X00511347Y01297926
X00286347Y01281176
X00243347Y01282176
X00256847Y01262926
X00264347Y01309676
X00248097Y01325426
X00198847Y01299176
X00199847Y01277676
X00163847Y01281676
X00167347Y01329176
X00212597Y01236926
X00202597Y01216676
X00197847Y01220926
X00228847Y01208926
X00227597Y01189426
X00234847
X00245847Y01169426
X00253847
X00283097Y01137676
X00297847Y01115426
X00284597Y01100176
X00265597Y01115926
X00239097Y01106676
X00224097Y01090176
X00185097Y01090426
X00204097Y01113426
X00192097Y01037676
Y01023926
X00215347Y01014676
X00267097Y01025176
X00292847Y01025426
X00297597Y01004176
X00324097Y01025676
X00333597Y01079926
X00340347Y01088176
X00327097Y01089926
X00346347Y01073426
X00358899Y01094953
X00365097Y01102426
X00372847Y01123676
X00392347Y01122176
X00390597Y01115676
X00385097Y01111676
X00421097Y01105426
X00329347Y01201176
X00328347Y01219926
X00285347Y01228176
X00168847Y01177926
X00147347Y01218926
X00129097Y01200926
X00112347Y01184676
X00086847Y01190176
X00056597Y01169426
Y01162176
X00055347Y01113926
X00075847Y01097926
X00103097Y01080676
X00131597Y01078926
X00130847Y01035176
X00150097
X00099597Y01018926
X00058347Y01024676
X00068347Y01045426
X00079097Y01237676
X00092097Y01300676
X00110347Y01299926
X00114847Y01281676
X00139222Y01303551
X00139597Y01345176
X00143347Y01379426
X00091597Y01409676
X00073847Y01410926
X00053597Y01370176
X00055347Y01455926
X00108097Y01484426
X00195347Y01480676
X00204597Y01443426
X00217597Y01414176
X00167347Y01412426
X00179847Y01373176
X00247347Y01388676
X00288847Y01397426
X00313347
X00312597Y01369426
X00345847Y01362176
X00439347Y01367676
X00459597Y01355676
X00431847Y01418426
X00487347Y01420676
X00464097Y01444926
X00370097Y01447926
X00313597Y01449676
X00259847Y01473176
X00552097Y01393426
X00667847Y01385426
X00653347Y01356676
T04
X00146827Y00814507
X00171827Y00839507
X00204327Y00842007
X00194327Y00779507
X00228577Y00775507
X00228827Y00788007
X00201827Y00737007
X00226827Y00684507
X00209327Y00642007
X00244327Y00627007
X00279327Y00622007
X00346827Y00604507
X00381827
X00421827
X00461827
X00506827
X00546827
X00548827Y00665007
X00503827
X00461827Y00672007
X00421827Y00677007
X00379327Y00674507
Y00714507
X00349327Y00752007
X00311827Y00749507
X00326577Y00807007
X00345577Y00812007
X00309327Y00822007
X00284327Y00857007
X00291827Y00897007
X00349327Y00917007
X00404327Y00914507
X00506827Y00904757
X00479327Y00874507
X00487077Y00828757
X00486827Y00782007
X00449327Y00794507
X00548827Y00859007
X00164327Y00684507
X00579327Y00704507
X00590827Y00665007
X00634827
X00656827Y00662007
X00676827Y00672007
X00691827Y00677007
Y00692007
Y00707007
Y00722007
Y00737007
Y00752007
Y00767007
Y00782007
Y00797007
Y00812007
Y00827007
Y00842007
Y00857007
Y00872007
Y00887007
X00684327Y00899507
X00666827Y00902007
X00596827Y00909507
X00583827Y00864507
X00570577Y00867507
X00568577Y00822757
X00581827Y00794507
X00646827Y00804507
X00649327Y00757007
X00622577Y00868507
X00636827Y00619507
X00589327Y00604507
T05
X00603347Y01044426
Y01102926
T06
X00176827Y00719507
Y00759507
Y00799507
X00314327Y00632007
X00356827
X00399327
X00441827
X00484327
X00526827
X00569327
X00611827
T07
X00200807Y00675079
X00649384Y00851983
M30
