G04 Layer_Color=16711935*
%FSLAX44Y44*%
%MOMM*%
G71*
G01*
G75*
%ADD47C,0.6096*%
%ADD94R,1.3032X1.1032*%
%ADD95R,1.1032X1.3032*%
%ADD98R,2.2032X2.7032*%
G04:AMPARAMS|DCode=102|XSize=0.5032mm|YSize=1.9032mm|CornerRadius=0mm|HoleSize=0mm|Usage=FLASHONLY|Rotation=135.000|XOffset=0mm|YOffset=0mm|HoleType=Round|Shape=Round|*
%AMOVALD102*
21,1,1.4000,0.5032,0.0000,0.0000,225.0*
1,1,0.5032,0.4950,0.4950*
1,1,0.5032,-0.4950,-0.4950*
%
%ADD102OVALD102*%

G04:AMPARAMS|DCode=103|XSize=0.5032mm|YSize=1.9032mm|CornerRadius=0mm|HoleSize=0mm|Usage=FLASHONLY|Rotation=45.000|XOffset=0mm|YOffset=0mm|HoleType=Round|Shape=Round|*
%AMOVALD103*
21,1,1.4000,0.5032,0.0000,0.0000,135.0*
1,1,0.5032,0.4950,-0.4950*
1,1,0.5032,-0.4950,0.4950*
%
%ADD103OVALD103*%

%ADD105R,0.9532X1.3532*%
%ADD106R,2.9532X1.7532*%
%ADD118C,2.7032*%
%ADD119C,0.2032*%
G04:AMPARAMS|DCode=120|XSize=1.9192mm|YSize=1.0612mm|CornerRadius=0mm|HoleSize=0mm|Usage=FLASHONLY|Rotation=352.000|XOffset=0mm|YOffset=0mm|HoleType=Round|Shape=Round|*
%AMOVALD120*
21,1,0.8580,1.0612,0.0000,0.0000,352.0*
1,1,1.0612,-0.4248,0.0597*
1,1,1.0612,0.4248,-0.0597*
%
%ADD120OVALD120*%

G04:AMPARAMS|DCode=121|XSize=2.2192mm|YSize=1.2112mm|CornerRadius=0mm|HoleSize=0mm|Usage=FLASHONLY|Rotation=82.000|XOffset=0mm|YOffset=0mm|HoleType=Round|Shape=Round|*
%AMOVALD121*
21,1,1.0080,1.2112,0.0000,0.0000,82.0*
1,1,1.2112,-0.0701,-0.4991*
1,1,1.2112,0.0701,0.4991*
%
%ADD121OVALD121*%

G04:AMPARAMS|DCode=122|XSize=2.4032mm|YSize=1.3032mm|CornerRadius=0mm|HoleSize=0mm|Usage=FLASHONLY|Rotation=82.000|XOffset=0mm|YOffset=0mm|HoleType=Round|Shape=Round|*
%AMOVALD122*
21,1,1.1000,1.3032,0.0000,0.0000,82.0*
1,1,1.3032,-0.0766,-0.5446*
1,1,1.3032,0.0766,0.5446*
%
%ADD122OVALD122*%

%ADD123C,0.7032*%
%ADD124R,1.5032X1.9032*%
%ADD125R,2.3532X2.3032*%
%ADD126R,1.7532X2.9532*%
%ADD127O,0.8032X2.2032*%
%ADD128P,1.4187X4X311.0*%
%ADD129P,1.4187X4X312.0*%
%ADD130R,2.4532X4.6032*%
%ADD131O,1.7272X0.5032*%
%ADD132R,2.2032X2.2032*%
G04:AMPARAMS|DCode=133|XSize=1.0032mm|YSize=0.5032mm|CornerRadius=0mm|HoleSize=0mm|Usage=FLASHONLY|Rotation=82.000|XOffset=0mm|YOffset=0mm|HoleType=Round|Shape=Rectangle|*
%AMROTATEDRECTD133*
4,1,4,0.1793,-0.5317,-0.3190,-0.4617,-0.1793,0.5317,0.3190,0.4617,0.1793,-0.5317,0.0*
%
%ADD133ROTATEDRECTD133*%

%ADD134R,1.3532X0.9532*%
%ADD135R,3.2032X2.2032*%
%ADD136R,1.7932X2.6032*%
%ADD137O,0.8532X0.5532*%
%ADD138R,0.5032X2.0032*%
%ADD139R,0.8600X0.3600*%
%ADD140R,0.8600X0.4600*%
%ADD141R,0.3600X1.2100*%
%ADD142R,1.9032X1.5032*%
G04:AMPARAMS|DCode=143|XSize=1.0032mm|YSize=2.2032mm|CornerRadius=0.3016mm|HoleSize=0mm|Usage=FLASHONLY|Rotation=90.000|XOffset=0mm|YOffset=0mm|HoleType=Round|Shape=RoundedRectangle|*
%AMROUNDEDRECTD143*
21,1,1.0032,1.6000,0,0,90.0*
21,1,0.4000,2.2032,0,0,90.0*
1,1,0.6032,0.8000,0.2000*
1,1,0.6032,0.8000,-0.2000*
1,1,0.6032,-0.8000,-0.2000*
1,1,0.6032,-0.8000,0.2000*
%
%ADD143ROUNDEDRECTD143*%
G04:AMPARAMS|DCode=144|XSize=2.2032mm|YSize=2.2032mm|CornerRadius=0.6016mm|HoleSize=0mm|Usage=FLASHONLY|Rotation=90.000|XOffset=0mm|YOffset=0mm|HoleType=Round|Shape=RoundedRectangle|*
%AMROUNDEDRECTD144*
21,1,2.2032,1.0000,0,0,90.0*
21,1,1.0000,2.2032,0,0,90.0*
1,1,1.2032,0.5000,0.5000*
1,1,1.2032,0.5000,-0.5000*
1,1,1.2032,-0.5000,-0.5000*
1,1,1.2032,-0.5000,0.5000*
%
%ADD144ROUNDEDRECTD144*%
%ADD145O,3.2032X0.9032*%
G04:AMPARAMS|DCode=146|XSize=0.9032mm|YSize=3.2032mm|CornerRadius=0mm|HoleSize=0mm|Usage=FLASHONLY|Rotation=262.000|XOffset=0mm|YOffset=0mm|HoleType=Round|Shape=Round|*
%AMOVALD146*
21,1,2.3000,0.9032,0.0000,0.0000,352.0*
1,1,0.9032,-1.1388,0.1600*
1,1,0.9032,1.1388,-0.1600*
%
%ADD146OVALD146*%

%ADD147P,3.1158X4X307.0*%
G04:AMPARAMS|DCode=148|XSize=2.2032mm|YSize=2.7032mm|CornerRadius=0mm|HoleSize=0mm|Usage=FLASHONLY|Rotation=140.000|XOffset=0mm|YOffset=0mm|HoleType=Round|Shape=Rectangle|*
%AMROTATEDRECTD148*
4,1,4,1.7127,0.3273,-0.0249,-1.7435,-1.7127,-0.3273,0.0249,1.7435,1.7127,0.3273,0.0*
%
%ADD148ROTATEDRECTD148*%

%ADD149O,1.9032X0.8032*%
%ADD150R,1.0032X1.4732*%
%ADD151R,1.7032X2.7032*%
G04:AMPARAMS|DCode=152|XSize=1.2032mm|YSize=3.2032mm|CornerRadius=0mm|HoleSize=0mm|Usage=FLASHONLY|Rotation=230.000|XOffset=0mm|YOffset=0mm|HoleType=Round|Shape=Round|*
%AMOVALD152*
21,1,2.0000,1.2032,0.0000,0.0000,320.0*
1,1,1.2032,-0.7660,0.6428*
1,1,1.2032,0.7660,-0.6428*
%
%ADD152OVALD152*%

G04:AMPARAMS|DCode=153|XSize=1.2032mm|YSize=1.4732mm|CornerRadius=0mm|HoleSize=0mm|Usage=FLASHONLY|Rotation=188.000|XOffset=0mm|YOffset=0mm|HoleType=Round|Shape=Rectangle|*
%AMROTATEDRECTD153*
4,1,4,0.4932,0.8132,0.6983,-0.6457,-0.4932,-0.8132,-0.6983,0.6457,0.4932,0.8132,0.0*
%
%ADD153ROTATEDRECTD153*%

G04:AMPARAMS|DCode=154|XSize=1.2032mm|YSize=1.7032mm|CornerRadius=0mm|HoleSize=0mm|Usage=FLASHONLY|Rotation=98.000|XOffset=0mm|YOffset=0mm|HoleType=Round|Shape=Rectangle|*
%AMROTATEDRECTD154*
4,1,4,0.9270,-0.4772,-0.7596,-0.7143,-0.9270,0.4772,0.7596,0.7143,0.9270,-0.4772,0.0*
%
%ADD154ROTATEDRECTD154*%

%ADD155R,1.4032X1.2032*%
G04:AMPARAMS|DCode=156|XSize=1.3032mm|YSize=1.1032mm|CornerRadius=0mm|HoleSize=0mm|Usage=FLASHONLY|Rotation=225.000|XOffset=0mm|YOffset=0mm|HoleType=Round|Shape=Rectangle|*
%AMROTATEDRECTD156*
4,1,4,0.0707,0.8508,0.8508,0.0707,-0.0707,-0.8508,-0.8508,-0.0707,0.0707,0.8508,0.0*
%
%ADD156ROTATEDRECTD156*%

G04:AMPARAMS|DCode=157|XSize=2.2032mm|YSize=2.7032mm|CornerRadius=0.6016mm|HoleSize=0mm|Usage=FLASHONLY|Rotation=180.000|XOffset=0mm|YOffset=0mm|HoleType=Round|Shape=RoundedRectangle|*
%AMROUNDEDRECTD157*
21,1,2.2032,1.5000,0,0,180.0*
21,1,1.0000,2.7032,0,0,180.0*
1,1,1.2032,-0.5000,0.7500*
1,1,1.2032,0.5000,0.7500*
1,1,1.2032,0.5000,-0.7500*
1,1,1.2032,-0.5000,-0.7500*
%
%ADD157ROUNDEDRECTD157*%
%ADD158P,1.4187X4X137.0*%
%ADD159P,1.4187X4X138.0*%
G04:AMPARAMS|DCode=160|XSize=0.9032mm|YSize=3.2032mm|CornerRadius=0mm|HoleSize=0mm|Usage=FLASHONLY|Rotation=98.000|XOffset=0mm|YOffset=0mm|HoleType=Round|Shape=Round|*
%AMOVALD160*
21,1,2.3000,0.9032,0.0000,0.0000,188.0*
1,1,0.9032,1.1388,0.1600*
1,1,0.9032,-1.1388,-0.1600*
%
%ADD160OVALD160*%

%ADD161P,3.1158X4X143.0*%
G36*
X510354Y1008221D02*
X510798Y1008193D01*
X511658Y1008054D01*
X512380Y1007832D01*
X512713Y1007721D01*
X513019Y1007582D01*
X513296Y1007471D01*
X513518Y1007332D01*
X513741Y1007221D01*
X513907Y1007138D01*
X514046Y1007027D01*
X514129Y1006971D01*
X514185Y1006943D01*
X514213Y1006916D01*
X514518Y1006638D01*
X514796Y1006360D01*
X515045Y1006027D01*
X515267Y1005666D01*
X515601Y1004945D01*
X515878Y1004250D01*
X515962Y1003890D01*
X516045Y1003584D01*
X516128Y1003307D01*
X516156Y1003057D01*
X516211Y1002835D01*
Y1002696D01*
X516239Y1002585D01*
Y1002557D01*
X512575Y1002196D01*
X512519Y1002751D01*
X512408Y1003223D01*
X512297Y1003640D01*
X512158Y1003945D01*
X512047Y1004195D01*
X511936Y1004361D01*
X511853Y1004473D01*
X511825Y1004500D01*
X511547Y1004722D01*
X511242Y1004889D01*
X510937Y1005028D01*
X510631Y1005111D01*
X510381Y1005167D01*
X510159Y1005194D01*
X509965D01*
X509548Y1005167D01*
X509188Y1005083D01*
X508882Y1004972D01*
X508605Y1004861D01*
X508410Y1004750D01*
X508244Y1004639D01*
X508160Y1004556D01*
X508133Y1004528D01*
X507910Y1004250D01*
X507744Y1003945D01*
X507633Y1003640D01*
X507550Y1003334D01*
X507494Y1003057D01*
X507466Y1002807D01*
Y1002668D01*
Y1002640D01*
Y1002613D01*
X507494Y1002196D01*
X507577Y1001807D01*
X507716Y1001419D01*
X507855Y1001086D01*
X507994Y1000780D01*
X508133Y1000558D01*
X508216Y1000419D01*
X508244Y1000364D01*
X508355Y1000197D01*
X508521Y1000003D01*
X508743Y999753D01*
X508965Y999531D01*
X509465Y999003D01*
X509965Y998476D01*
X510465Y997976D01*
X510687Y997754D01*
X510909Y997588D01*
X511075Y997421D01*
X511186Y997310D01*
X511270Y997227D01*
X511297Y997199D01*
X511853Y996671D01*
X512352Y996172D01*
X512825Y995700D01*
X513241Y995283D01*
X513630Y994867D01*
X513963Y994478D01*
X514268Y994145D01*
X514518Y993812D01*
X514740Y993534D01*
X514934Y993284D01*
X515101Y993090D01*
X515212Y992896D01*
X515323Y992785D01*
X515379Y992674D01*
X515434Y992618D01*
Y992590D01*
X515795Y991952D01*
X516073Y991285D01*
X516295Y990675D01*
X516461Y990119D01*
X516572Y989620D01*
X516600Y989426D01*
X516628Y989259D01*
X516656Y989120D01*
X516683Y989009D01*
Y988953D01*
Y988926D01*
X503774D01*
Y992340D01*
X511103D01*
X510881Y992701D01*
X510631Y993007D01*
X510520Y993146D01*
X510437Y993257D01*
X510381Y993312D01*
X510354Y993340D01*
X510243Y993451D01*
X510131Y993590D01*
X509798Y993895D01*
X509437Y994256D01*
X509077Y994617D01*
X508716Y994950D01*
X508410Y995228D01*
X508299Y995339D01*
X508216Y995422D01*
X508160Y995450D01*
X508133Y995478D01*
X507522Y996061D01*
X507022Y996533D01*
X506606Y996977D01*
X506273Y997310D01*
X506023Y997588D01*
X505856Y997782D01*
X505745Y997921D01*
X505717Y997948D01*
X505356Y998420D01*
X505051Y998865D01*
X504801Y999281D01*
X504607Y999642D01*
X504440Y999947D01*
X504329Y1000197D01*
X504274Y1000336D01*
X504246Y1000391D01*
X504079Y1000836D01*
X503968Y1001280D01*
X503885Y1001696D01*
X503829Y1002085D01*
X503802Y1002390D01*
X503774Y1002640D01*
Y1002807D01*
Y1002862D01*
X503802Y1003279D01*
X503857Y1003695D01*
X503913Y1004084D01*
X504024Y1004445D01*
X504301Y1005083D01*
X504579Y1005639D01*
X504746Y1005888D01*
X504884Y1006083D01*
X505023Y1006277D01*
X505162Y1006416D01*
X505273Y1006527D01*
X505329Y1006638D01*
X505384Y1006666D01*
X505412Y1006693D01*
X505717Y1006971D01*
X506078Y1007221D01*
X506411Y1007415D01*
X506800Y1007582D01*
X507522Y1007860D01*
X508244Y1008054D01*
X508577Y1008109D01*
X508882Y1008165D01*
X509160Y1008193D01*
X509410Y1008221D01*
X509604Y1008248D01*
X509882D01*
X510354Y1008221D01*
D02*
G37*
G36*
X487672Y1007610D02*
X488033Y1007027D01*
X488422Y1006471D01*
X488810Y1006027D01*
X489143Y1005666D01*
X489449Y1005389D01*
X489560Y1005278D01*
X489643Y1005194D01*
X489698Y1005167D01*
X489726Y1005139D01*
X490337Y1004695D01*
X490920Y1004306D01*
X491448Y1004001D01*
X491920Y1003779D01*
X492308Y1003612D01*
X492586Y1003473D01*
X492697Y1003445D01*
X492780Y1003418D01*
X492808Y1003390D01*
X492836D01*
Y1000058D01*
X491836Y1000447D01*
X490948Y1000863D01*
X490531Y1001086D01*
X490143Y1001335D01*
X489782Y1001557D01*
X489449Y1001780D01*
X489143Y1002002D01*
X488866Y1002196D01*
X488644Y1002363D01*
X488449Y1002529D01*
X488283Y1002668D01*
X488172Y1002751D01*
X488116Y1002807D01*
X488088Y1002835D01*
Y988926D01*
X484396D01*
Y1008248D01*
X487394D01*
X487672Y1007610D01*
D02*
G37*
G36*
X534035Y988926D02*
X530703D01*
X525179Y1002862D01*
X528954D01*
X531619Y995727D01*
X531786Y995311D01*
X531897Y994922D01*
X531953Y994784D01*
X531980Y994672D01*
X532008Y994589D01*
Y994561D01*
X532036Y994423D01*
X532091Y994256D01*
X532230Y993840D01*
X532286Y993673D01*
X532341Y993506D01*
X532369Y993395D01*
X532397Y993368D01*
X533146Y995727D01*
X535784Y1002862D01*
X539643D01*
X534035Y988926D01*
D02*
G37*
G36*
X547971Y1003140D02*
X548443Y1003084D01*
X548915Y1002973D01*
X549332Y1002862D01*
X549748Y1002723D01*
X550109Y1002557D01*
X550470Y1002363D01*
X550775Y1002196D01*
X551053Y1002002D01*
X551303Y1001807D01*
X551525Y1001641D01*
X551692Y1001502D01*
X551830Y1001391D01*
X551941Y1001280D01*
X551997Y1001224D01*
X552025Y1001197D01*
X552330Y1000808D01*
X552608Y1000391D01*
X552858Y999975D01*
X553080Y999531D01*
X553246Y999059D01*
X553385Y998615D01*
X553607Y997754D01*
X553690Y997338D01*
X553746Y996977D01*
X553774Y996644D01*
X553801Y996366D01*
X553829Y996116D01*
Y995922D01*
Y995811D01*
Y995783D01*
X553801Y995256D01*
X553774Y994728D01*
X553690Y994256D01*
X553607Y993812D01*
X553524Y993368D01*
X553385Y992979D01*
X553274Y992618D01*
X553135Y992285D01*
X553024Y991980D01*
X552885Y991730D01*
X552774Y991508D01*
X552691Y991313D01*
X552580Y991174D01*
X552524Y991063D01*
X552497Y991008D01*
X552469Y990980D01*
X552108Y990564D01*
X551747Y990203D01*
X551331Y989897D01*
X550886Y989620D01*
X550442Y989398D01*
X549998Y989203D01*
X549554Y989037D01*
X549110Y988926D01*
X548721Y988815D01*
X548332Y988759D01*
X547971Y988704D01*
X547666Y988648D01*
X547416D01*
X547250Y988620D01*
X547083D01*
X546278Y988676D01*
X545528Y988787D01*
X544890Y988953D01*
X544334Y989148D01*
X544085Y989259D01*
X543890Y989342D01*
X543696Y989426D01*
X543557Y989509D01*
X543446Y989592D01*
X543335Y989620D01*
X543307Y989675D01*
X543280D01*
X542752Y990119D01*
X542280Y990592D01*
X541892Y991119D01*
X541586Y991619D01*
X541336Y992063D01*
X541253Y992257D01*
X541170Y992424D01*
X541114Y992563D01*
X541059Y992674D01*
X541031Y992729D01*
Y992757D01*
X544696Y993368D01*
X544834Y993007D01*
X544973Y992674D01*
X545112Y992424D01*
X545279Y992202D01*
X545390Y992035D01*
X545501Y991924D01*
X545584Y991869D01*
X545612Y991841D01*
X545834Y991674D01*
X546084Y991563D01*
X546333Y991480D01*
X546555Y991424D01*
X546750Y991397D01*
X546916Y991369D01*
X547055D01*
X547499Y991397D01*
X547916Y991508D01*
X548304Y991646D01*
X548610Y991813D01*
X548860Y991980D01*
X549026Y992118D01*
X549165Y992229D01*
X549193Y992257D01*
X549471Y992618D01*
X549665Y993035D01*
X549832Y993479D01*
X549943Y993867D01*
X549998Y994256D01*
X550026Y994534D01*
X550054Y994645D01*
Y994728D01*
Y994784D01*
Y994811D01*
X540836D01*
Y995589D01*
X540892Y996283D01*
X540975Y996949D01*
X541086Y997560D01*
X541225Y998143D01*
X541364Y998643D01*
X541531Y999115D01*
X541697Y999531D01*
X541864Y999892D01*
X542030Y1000225D01*
X542169Y1000475D01*
X542308Y1000697D01*
X542419Y1000863D01*
X542502Y1001002D01*
X542558Y1001058D01*
X542585Y1001086D01*
X542919Y1001447D01*
X543307Y1001780D01*
X543696Y1002057D01*
X544085Y1002279D01*
X544501Y1002501D01*
X544918Y1002668D01*
X545306Y1002807D01*
X545695Y1002918D01*
X546056Y1003001D01*
X546389Y1003057D01*
X546694Y1003112D01*
X546944Y1003140D01*
X547166Y1003168D01*
X547472D01*
X547971Y1003140D01*
D02*
G37*
G36*
X572097Y988926D02*
X568210D01*
Y996949D01*
X566961D01*
X566572Y996921D01*
X566239Y996893D01*
X565961Y996838D01*
X565739Y996810D01*
X565600Y996755D01*
X565517Y996727D01*
X565489D01*
X565267Y996616D01*
X565045Y996505D01*
X564851Y996366D01*
X564656Y996255D01*
X564518Y996116D01*
X564407Y996005D01*
X564351Y995950D01*
X564323Y995922D01*
X564212Y995783D01*
X564073Y995644D01*
X563768Y995228D01*
X563435Y994784D01*
X563074Y994284D01*
X562769Y993840D01*
X562630Y993617D01*
X562519Y993451D01*
X562408Y993312D01*
X562324Y993201D01*
X562297Y993118D01*
X562269Y993090D01*
X559493Y988926D01*
X554829D01*
X557188Y992674D01*
X557438Y993062D01*
X557688Y993451D01*
X557910Y993784D01*
X558132Y994090D01*
X558327Y994367D01*
X558493Y994645D01*
X558826Y995061D01*
X559076Y995394D01*
X559243Y995616D01*
X559382Y995755D01*
X559409Y995783D01*
X559715Y996116D01*
X560076Y996422D01*
X560409Y996671D01*
X560742Y996921D01*
X561020Y997116D01*
X561242Y997254D01*
X561408Y997365D01*
X561436Y997393D01*
X561464D01*
X560992Y997477D01*
X560575Y997588D01*
X560187Y997699D01*
X559798Y997837D01*
X559465Y997976D01*
X559160Y998115D01*
X558854Y998254D01*
X558604Y998420D01*
X558382Y998559D01*
X558188Y998698D01*
X558021Y998837D01*
X557910Y998948D01*
X557799Y999031D01*
X557716Y999115D01*
X557688Y999142D01*
X557660Y999170D01*
X557438Y999448D01*
X557244Y999725D01*
X556911Y1000336D01*
X556689Y1000919D01*
X556550Y1001502D01*
X556439Y1002002D01*
X556411Y1002196D01*
Y1002390D01*
X556383Y1002529D01*
Y1002668D01*
Y1002723D01*
Y1002751D01*
X556411Y1003362D01*
X556522Y1003945D01*
X556661Y1004445D01*
X556800Y1004889D01*
X556966Y1005250D01*
X557105Y1005527D01*
X557161Y1005611D01*
X557216Y1005694D01*
X557244Y1005722D01*
Y1005750D01*
X557577Y1006222D01*
X557938Y1006610D01*
X558299Y1006916D01*
X558660Y1007193D01*
X558993Y1007360D01*
X559243Y1007499D01*
X559409Y1007582D01*
X559437Y1007610D01*
X559465D01*
X559743Y1007693D01*
X560048Y1007776D01*
X560742Y1007915D01*
X561492Y1007998D01*
X562213Y1008082D01*
X562574D01*
X562880Y1008109D01*
X563185D01*
X563435Y1008137D01*
X572097D01*
Y988926D01*
D02*
G37*
G36*
X500498D02*
X496806D01*
Y992618D01*
X500498D01*
Y988926D01*
D02*
G37*
G36*
X630224Y160583D02*
X630668Y160555D01*
X631529Y160417D01*
X632250Y160194D01*
X632583Y160083D01*
X632889Y159945D01*
X633166Y159833D01*
X633388Y159695D01*
X633611Y159584D01*
X633777Y159500D01*
X633916Y159389D01*
X633999Y159334D01*
X634055Y159306D01*
X634083Y159278D01*
X634388Y159001D01*
X634666Y158723D01*
X634915Y158390D01*
X635137Y158029D01*
X635471Y157307D01*
X635748Y156613D01*
X635832Y156252D01*
X635915Y155947D01*
X635998Y155669D01*
X636026Y155419D01*
X636082Y155197D01*
Y155058D01*
X636109Y154947D01*
Y154920D01*
X632445Y154559D01*
X632389Y155114D01*
X632278Y155586D01*
X632167Y156002D01*
X632028Y156308D01*
X631917Y156558D01*
X631806Y156724D01*
X631723Y156835D01*
X631695Y156863D01*
X631417Y157085D01*
X631112Y157252D01*
X630807Y157390D01*
X630501Y157474D01*
X630251Y157529D01*
X630029Y157557D01*
X629835D01*
X629418Y157529D01*
X629058Y157446D01*
X628752Y157335D01*
X628475Y157224D01*
X628280Y157113D01*
X628114Y157002D01*
X628030Y156918D01*
X628003Y156891D01*
X627781Y156613D01*
X627614Y156308D01*
X627503Y156002D01*
X627420Y155697D01*
X627364Y155419D01*
X627336Y155169D01*
Y155031D01*
Y155003D01*
Y154975D01*
X627364Y154559D01*
X627447Y154170D01*
X627586Y153781D01*
X627725Y153448D01*
X627864Y153143D01*
X628003Y152921D01*
X628086Y152782D01*
X628114Y152726D01*
X628225Y152560D01*
X628391Y152366D01*
X628613Y152116D01*
X628835Y151894D01*
X629335Y151366D01*
X629835Y150839D01*
X630335Y150339D01*
X630557Y150117D01*
X630779Y149950D01*
X630945Y149784D01*
X631057Y149672D01*
X631140Y149589D01*
X631167Y149562D01*
X631723Y149034D01*
X632223Y148534D01*
X632695Y148062D01*
X633111Y147646D01*
X633500Y147229D01*
X633833Y146841D01*
X634138Y146508D01*
X634388Y146174D01*
X634610Y145897D01*
X634804Y145647D01*
X634971Y145453D01*
X635082Y145258D01*
X635193Y145147D01*
X635249Y145036D01*
X635304Y144981D01*
Y144953D01*
X635665Y144314D01*
X635943Y143648D01*
X636165Y143037D01*
X636331Y142482D01*
X636442Y141982D01*
X636470Y141788D01*
X636498Y141622D01*
X636526Y141483D01*
X636553Y141372D01*
Y141316D01*
Y141288D01*
X623644D01*
Y144703D01*
X630973D01*
X630751Y145064D01*
X630501Y145369D01*
X630390Y145508D01*
X630307Y145619D01*
X630251Y145675D01*
X630224Y145703D01*
X630113Y145814D01*
X630001Y145952D01*
X629668Y146258D01*
X629308Y146619D01*
X628947Y146980D01*
X628586Y147313D01*
X628280Y147590D01*
X628169Y147701D01*
X628086Y147785D01*
X628030Y147812D01*
X628003Y147840D01*
X627392Y148423D01*
X626892Y148895D01*
X626476Y149339D01*
X626143Y149672D01*
X625893Y149950D01*
X625726Y150145D01*
X625615Y150283D01*
X625587Y150311D01*
X625226Y150783D01*
X624921Y151227D01*
X624671Y151644D01*
X624477Y152005D01*
X624310Y152310D01*
X624199Y152560D01*
X624144Y152699D01*
X624116Y152754D01*
X623949Y153198D01*
X623838Y153643D01*
X623755Y154059D01*
X623699Y154448D01*
X623672Y154753D01*
X623644Y155003D01*
Y155169D01*
Y155225D01*
X623672Y155641D01*
X623727Y156058D01*
X623783Y156447D01*
X623894Y156807D01*
X624171Y157446D01*
X624449Y158001D01*
X624616Y158251D01*
X624754Y158445D01*
X624893Y158640D01*
X625032Y158778D01*
X625143Y158890D01*
X625199Y159001D01*
X625254Y159028D01*
X625282Y159056D01*
X625587Y159334D01*
X625948Y159584D01*
X626281Y159778D01*
X626670Y159945D01*
X627392Y160222D01*
X628114Y160417D01*
X628447Y160472D01*
X628752Y160528D01*
X629030Y160555D01*
X629280Y160583D01*
X629474Y160611D01*
X629752D01*
X630224Y160583D01*
D02*
G37*
G36*
X607542Y159972D02*
X607903Y159389D01*
X608292Y158834D01*
X608680Y158390D01*
X609013Y158029D01*
X609319Y157751D01*
X609430Y157640D01*
X609513Y157557D01*
X609569Y157529D01*
X609596Y157501D01*
X610207Y157057D01*
X610790Y156669D01*
X611318Y156363D01*
X611790Y156141D01*
X612178Y155975D01*
X612456Y155836D01*
X612567Y155808D01*
X612650Y155780D01*
X612678Y155752D01*
X612706D01*
Y152421D01*
X611706Y152810D01*
X610818Y153226D01*
X610401Y153448D01*
X610013Y153698D01*
X609652Y153920D01*
X609319Y154142D01*
X609013Y154364D01*
X608736Y154559D01*
X608514Y154725D01*
X608319Y154892D01*
X608153Y155031D01*
X608042Y155114D01*
X607986Y155169D01*
X607958Y155197D01*
Y141288D01*
X604266D01*
Y160611D01*
X607264D01*
X607542Y159972D01*
D02*
G37*
G36*
X653905Y141288D02*
X650573D01*
X645049Y155225D01*
X648824D01*
X651489Y148090D01*
X651656Y147674D01*
X651767Y147285D01*
X651823Y147146D01*
X651850Y147035D01*
X651878Y146952D01*
Y146924D01*
X651906Y146785D01*
X651961Y146619D01*
X652100Y146202D01*
X652156Y146036D01*
X652211Y145869D01*
X652239Y145758D01*
X652267Y145730D01*
X653016Y148090D01*
X655654Y155225D01*
X659513D01*
X653905Y141288D01*
D02*
G37*
G36*
X667841Y155503D02*
X668313Y155447D01*
X668785Y155336D01*
X669202Y155225D01*
X669618Y155086D01*
X669979Y154920D01*
X670340Y154725D01*
X670645Y154559D01*
X670923Y154364D01*
X671173Y154170D01*
X671395Y154003D01*
X671562Y153865D01*
X671700Y153754D01*
X671811Y153643D01*
X671867Y153587D01*
X671895Y153559D01*
X672200Y153171D01*
X672478Y152754D01*
X672728Y152338D01*
X672950Y151894D01*
X673116Y151422D01*
X673255Y150977D01*
X673477Y150117D01*
X673560Y149700D01*
X673616Y149339D01*
X673644Y149006D01*
X673671Y148729D01*
X673699Y148479D01*
Y148284D01*
Y148173D01*
Y148146D01*
X673671Y147618D01*
X673644Y147091D01*
X673560Y146619D01*
X673477Y146174D01*
X673394Y145730D01*
X673255Y145342D01*
X673144Y144981D01*
X673005Y144648D01*
X672894Y144342D01*
X672755Y144092D01*
X672644Y143870D01*
X672561Y143676D01*
X672450Y143537D01*
X672394Y143426D01*
X672367Y143371D01*
X672339Y143343D01*
X671978Y142926D01*
X671617Y142565D01*
X671201Y142260D01*
X670756Y141982D01*
X670312Y141760D01*
X669868Y141566D01*
X669424Y141399D01*
X668980Y141288D01*
X668591Y141177D01*
X668202Y141122D01*
X667841Y141066D01*
X667536Y141011D01*
X667286D01*
X667120Y140983D01*
X666953D01*
X666148Y141039D01*
X665398Y141150D01*
X664760Y141316D01*
X664205Y141510D01*
X663955Y141622D01*
X663760Y141705D01*
X663566Y141788D01*
X663427Y141871D01*
X663316Y141955D01*
X663205Y141982D01*
X663177Y142038D01*
X663150D01*
X662622Y142482D01*
X662150Y142954D01*
X661761Y143482D01*
X661456Y143981D01*
X661206Y144425D01*
X661123Y144620D01*
X661040Y144786D01*
X660984Y144925D01*
X660929Y145036D01*
X660901Y145092D01*
Y145119D01*
X664566Y145730D01*
X664704Y145369D01*
X664843Y145036D01*
X664982Y144786D01*
X665148Y144564D01*
X665259Y144398D01*
X665371Y144287D01*
X665454Y144231D01*
X665482Y144203D01*
X665704Y144037D01*
X665954Y143926D01*
X666203Y143842D01*
X666425Y143787D01*
X666620Y143759D01*
X666786Y143731D01*
X666925D01*
X667370Y143759D01*
X667786Y143870D01*
X668175Y144009D01*
X668480Y144176D01*
X668730Y144342D01*
X668896Y144481D01*
X669035Y144592D01*
X669063Y144620D01*
X669341Y144981D01*
X669535Y145397D01*
X669702Y145841D01*
X669812Y146230D01*
X669868Y146619D01*
X669896Y146896D01*
X669924Y147007D01*
Y147091D01*
Y147146D01*
Y147174D01*
X660706D01*
Y147951D01*
X660762Y148645D01*
X660845Y149312D01*
X660956Y149922D01*
X661095Y150505D01*
X661234Y151005D01*
X661401Y151477D01*
X661567Y151894D01*
X661734Y152254D01*
X661900Y152588D01*
X662039Y152837D01*
X662178Y153060D01*
X662289Y153226D01*
X662372Y153365D01*
X662428Y153420D01*
X662456Y153448D01*
X662789Y153809D01*
X663177Y154142D01*
X663566Y154420D01*
X663955Y154642D01*
X664371Y154864D01*
X664788Y155031D01*
X665176Y155169D01*
X665565Y155281D01*
X665926Y155364D01*
X666259Y155419D01*
X666564Y155475D01*
X666814Y155503D01*
X667036Y155530D01*
X667342D01*
X667841Y155503D01*
D02*
G37*
G36*
X691967Y141288D02*
X688080D01*
Y149312D01*
X686831D01*
X686442Y149284D01*
X686109Y149256D01*
X685831Y149201D01*
X685609Y149173D01*
X685470Y149117D01*
X685387Y149089D01*
X685359D01*
X685137Y148979D01*
X684915Y148867D01*
X684721Y148729D01*
X684527Y148618D01*
X684388Y148479D01*
X684277Y148368D01*
X684221Y148312D01*
X684193Y148284D01*
X684082Y148146D01*
X683943Y148007D01*
X683638Y147590D01*
X683305Y147146D01*
X682944Y146646D01*
X682639Y146202D01*
X682500Y145980D01*
X682389Y145814D01*
X682278Y145675D01*
X682195Y145564D01*
X682167Y145480D01*
X682139Y145453D01*
X679363Y141288D01*
X674699D01*
X677058Y145036D01*
X677308Y145425D01*
X677558Y145814D01*
X677780Y146147D01*
X678002Y146452D01*
X678197Y146730D01*
X678363Y147007D01*
X678696Y147424D01*
X678946Y147757D01*
X679113Y147979D01*
X679252Y148118D01*
X679279Y148146D01*
X679585Y148479D01*
X679946Y148784D01*
X680279Y149034D01*
X680612Y149284D01*
X680890Y149478D01*
X681112Y149617D01*
X681278Y149728D01*
X681306Y149756D01*
X681334D01*
X680862Y149839D01*
X680445Y149950D01*
X680057Y150061D01*
X679668Y150200D01*
X679335Y150339D01*
X679030Y150478D01*
X678724Y150617D01*
X678474Y150783D01*
X678252Y150922D01*
X678058Y151061D01*
X677891Y151200D01*
X677780Y151311D01*
X677669Y151394D01*
X677586Y151477D01*
X677558Y151505D01*
X677530Y151533D01*
X677308Y151810D01*
X677114Y152088D01*
X676781Y152699D01*
X676559Y153282D01*
X676420Y153865D01*
X676309Y154364D01*
X676281Y154559D01*
Y154753D01*
X676253Y154892D01*
Y155031D01*
Y155086D01*
Y155114D01*
X676281Y155725D01*
X676392Y156308D01*
X676531Y156807D01*
X676670Y157252D01*
X676836Y157612D01*
X676975Y157890D01*
X677031Y157973D01*
X677086Y158057D01*
X677114Y158084D01*
Y158112D01*
X677447Y158584D01*
X677808Y158973D01*
X678169Y159278D01*
X678530Y159556D01*
X678863Y159722D01*
X679113Y159861D01*
X679279Y159945D01*
X679307Y159972D01*
X679335D01*
X679613Y160056D01*
X679918Y160139D01*
X680612Y160278D01*
X681362Y160361D01*
X682083Y160444D01*
X682444D01*
X682750Y160472D01*
X683055D01*
X683305Y160500D01*
X691967D01*
Y141288D01*
D02*
G37*
G36*
X620368D02*
X616676D01*
Y144981D01*
X620368D01*
Y141288D01*
D02*
G37*
%LPC*%
G36*
X547444Y1000336D02*
X547250D01*
X546833Y1000308D01*
X546472Y1000197D01*
X546139Y1000058D01*
X545862Y999920D01*
X545639Y999753D01*
X545473Y999614D01*
X545362Y999503D01*
X545334Y999475D01*
X545084Y999142D01*
X544862Y998754D01*
X544723Y998337D01*
X544612Y997948D01*
X544557Y997615D01*
X544529Y997310D01*
X544501Y997199D01*
Y997143D01*
Y997088D01*
Y997060D01*
X549998D01*
X549970Y997588D01*
X549887Y998059D01*
X549776Y998476D01*
X549609Y998809D01*
X549471Y999087D01*
X549332Y999281D01*
X549249Y999420D01*
X549221Y999448D01*
X548915Y999753D01*
X548582Y999975D01*
X548249Y1000114D01*
X547944Y1000225D01*
X547666Y1000281D01*
X547444Y1000336D01*
D02*
G37*
G36*
X568210Y1004889D02*
X563768D01*
X563518Y1004861D01*
X562907D01*
X562658Y1004834D01*
X562491D01*
X562408Y1004806D01*
X562380D01*
X562047Y1004722D01*
X561741Y1004611D01*
X561492Y1004500D01*
X561297Y1004361D01*
X561131Y1004223D01*
X560992Y1004139D01*
X560936Y1004056D01*
X560909Y1004028D01*
X560742Y1003806D01*
X560603Y1003529D01*
X560520Y1003279D01*
X560437Y1003029D01*
X560409Y1002807D01*
X560381Y1002640D01*
Y1002529D01*
Y1002474D01*
X560409Y1002168D01*
X560437Y1001891D01*
X560520Y1001641D01*
X560575Y1001419D01*
X560659Y1001252D01*
X560742Y1001141D01*
X560770Y1001058D01*
X560798Y1001030D01*
X560964Y1000836D01*
X561131Y1000669D01*
X561492Y1000419D01*
X561630Y1000336D01*
X561769Y1000281D01*
X561852Y1000225D01*
X561880D01*
X562019Y1000197D01*
X562241Y1000142D01*
X562463Y1000114D01*
X562713Y1000086D01*
X563296Y1000058D01*
X563879Y1000031D01*
X564434Y1000003D01*
X568210D01*
Y1004889D01*
D02*
G37*
G36*
X667314Y152699D02*
X667120D01*
X666703Y152671D01*
X666342Y152560D01*
X666009Y152421D01*
X665732Y152282D01*
X665509Y152116D01*
X665343Y151977D01*
X665232Y151866D01*
X665204Y151838D01*
X664954Y151505D01*
X664732Y151116D01*
X664593Y150700D01*
X664482Y150311D01*
X664427Y149978D01*
X664399Y149672D01*
X664371Y149562D01*
Y149506D01*
Y149451D01*
Y149423D01*
X669868D01*
X669840Y149950D01*
X669757Y150422D01*
X669646Y150839D01*
X669479Y151172D01*
X669341Y151449D01*
X669202Y151644D01*
X669118Y151783D01*
X669091Y151810D01*
X668785Y152116D01*
X668452Y152338D01*
X668119Y152477D01*
X667814Y152588D01*
X667536Y152643D01*
X667314Y152699D01*
D02*
G37*
G36*
X688080Y157252D02*
X683638D01*
X683388Y157224D01*
X682777D01*
X682528Y157196D01*
X682361D01*
X682278Y157168D01*
X682250D01*
X681917Y157085D01*
X681611Y156974D01*
X681362Y156863D01*
X681167Y156724D01*
X681001Y156585D01*
X680862Y156502D01*
X680806Y156419D01*
X680779Y156391D01*
X680612Y156169D01*
X680473Y155891D01*
X680390Y155641D01*
X680307Y155392D01*
X680279Y155169D01*
X680251Y155003D01*
Y154892D01*
Y154836D01*
X680279Y154531D01*
X680307Y154253D01*
X680390Y154003D01*
X680445Y153781D01*
X680529Y153615D01*
X680612Y153504D01*
X680640Y153420D01*
X680667Y153393D01*
X680834Y153198D01*
X681001Y153032D01*
X681362Y152782D01*
X681500Y152699D01*
X681639Y152643D01*
X681722Y152588D01*
X681750D01*
X681889Y152560D01*
X682111Y152504D01*
X682333Y152477D01*
X682583Y152449D01*
X683166Y152421D01*
X683749Y152393D01*
X684304Y152366D01*
X688080D01*
Y157252D01*
D02*
G37*
%LPD*%
D47*
X398597Y1239926D02*
D03*
Y1246926D02*
D03*
X399097Y1254426D02*
D03*
X392347Y1251676D02*
D03*
X391847Y1243426D02*
D03*
X492847Y1212676D02*
D03*
X518967Y536288D02*
D03*
Y524288D02*
D03*
D94*
X391827Y862007D02*
D03*
Y878007D02*
D03*
X416827Y862007D02*
D03*
Y878007D02*
D03*
X365827Y862007D02*
D03*
Y878007D02*
D03*
X339827Y862007D02*
D03*
Y878007D02*
D03*
X406847Y1379926D02*
D03*
X406847Y1395926D02*
D03*
X407347Y1347426D02*
D03*
Y1363426D02*
D03*
X337097Y1386676D02*
D03*
Y1370676D02*
D03*
X427097Y1347176D02*
D03*
Y1363176D02*
D03*
X510347Y1267926D02*
D03*
Y1283926D02*
D03*
X360347Y1136176D02*
D03*
Y1152176D02*
D03*
X112097Y1047176D02*
D03*
Y1031176D02*
D03*
X91847Y1047176D02*
D03*
Y1031176D02*
D03*
X380347Y1152176D02*
D03*
Y1136176D02*
D03*
X420347Y1152176D02*
D03*
Y1136176D02*
D03*
X400347Y1152176D02*
D03*
Y1136176D02*
D03*
X535347Y1356926D02*
D03*
Y1372926D02*
D03*
X513347D02*
D03*
Y1356926D02*
D03*
X187847Y1446426D02*
D03*
Y1430426D02*
D03*
X199097Y1402676D02*
D03*
Y1386676D02*
D03*
X364967Y237288D02*
D03*
Y253288D02*
D03*
X426967Y497288D02*
D03*
Y481288D02*
D03*
X734967Y286288D02*
D03*
Y270288D02*
D03*
X380967Y228288D02*
D03*
Y244288D02*
D03*
X476967Y227288D02*
D03*
Y243288D02*
D03*
Y400288D02*
D03*
Y384288D02*
D03*
X453967Y481288D02*
D03*
Y465288D02*
D03*
D95*
X232838Y759506D02*
D03*
X215317D02*
D03*
X230338Y719506D02*
D03*
X212817D02*
D03*
X101847Y1287676D02*
D03*
X85847D02*
D03*
X474097Y1341176D02*
D03*
X490097D02*
D03*
X474097Y1379676D02*
D03*
X490097D02*
D03*
X737097Y1207926D02*
D03*
X721097D02*
D03*
X695097D02*
D03*
X679097D02*
D03*
X700097Y1139676D02*
D03*
X716097D02*
D03*
X490097Y1360426D02*
D03*
X474097D02*
D03*
X490097Y1399176D02*
D03*
X474097D02*
D03*
X364597Y1426426D02*
D03*
X380597D02*
D03*
X536847Y1273426D02*
D03*
X552847D02*
D03*
X512347Y1314926D02*
D03*
X496347D02*
D03*
X129597Y1407676D02*
D03*
X113597D02*
D03*
X91347Y1395426D02*
D03*
X75347D02*
D03*
X100097Y1335176D02*
D03*
X116097D02*
D03*
X359097Y1191926D02*
D03*
X343097D02*
D03*
X153097Y1172926D02*
D03*
X137097D02*
D03*
X375097Y1172676D02*
D03*
X359097D02*
D03*
X112597Y1172926D02*
D03*
X96597D02*
D03*
X116347Y1113926D02*
D03*
X132347D02*
D03*
X343097Y1229926D02*
D03*
X359097D02*
D03*
Y1210926D02*
D03*
X343097D02*
D03*
X472097Y1146176D02*
D03*
X456097D02*
D03*
Y1164926D02*
D03*
X472097D02*
D03*
X144097Y1287676D02*
D03*
X128097D02*
D03*
X123597Y1225676D02*
D03*
X107597Y1225675D02*
D03*
X328847Y1172676D02*
D03*
X344847D02*
D03*
X472097Y1198926D02*
D03*
X456097D02*
D03*
X472097Y1182426D02*
D03*
X456097D02*
D03*
X418847Y1119926D02*
D03*
X402847D02*
D03*
X427597Y1230176D02*
D03*
X411597D02*
D03*
X456097Y1217176D02*
D03*
X472097D02*
D03*
X217097Y1451176D02*
D03*
X233097D02*
D03*
X695967Y557288D02*
D03*
X711967D02*
D03*
X799635Y123620D02*
D03*
X783635D02*
D03*
X727967Y123288D02*
D03*
X743967D02*
D03*
X718967Y250288D02*
D03*
X734967D02*
D03*
X718967Y318288D02*
D03*
X734967D02*
D03*
X758967D02*
D03*
X774967D02*
D03*
X795967Y436288D02*
D03*
X811967D02*
D03*
X811967Y418288D02*
D03*
X795967D02*
D03*
X811967Y402288D02*
D03*
X795967D02*
D03*
X319967Y161288D02*
D03*
X335967D02*
D03*
X693967Y413288D02*
D03*
X677967D02*
D03*
X677967Y394288D02*
D03*
X693967D02*
D03*
X392967Y269288D02*
D03*
X408967D02*
D03*
X563967Y332288D02*
D03*
X547967D02*
D03*
X403967Y208288D02*
D03*
X419967D02*
D03*
X377967Y287288D02*
D03*
X393967D02*
D03*
X528967Y147288D02*
D03*
X512967D02*
D03*
D98*
X437096Y1093426D02*
D03*
X402097Y1093426D02*
D03*
X628346Y1307927D02*
D03*
X663345Y1307926D02*
D03*
X436847Y1251675D02*
D03*
X401848D02*
D03*
X751467Y511287D02*
D03*
X716468Y511287D02*
D03*
D102*
X527171Y323602D02*
D03*
X523636Y327138D02*
D03*
X520100Y330673D02*
D03*
X516565Y334209D02*
D03*
X513029Y337744D02*
D03*
X509494Y341280D02*
D03*
X505958Y344815D02*
D03*
X502423Y348351D02*
D03*
X498887Y351886D02*
D03*
X495351Y355422D02*
D03*
X491816Y358957D02*
D03*
X488280Y362493D02*
D03*
X426762Y300975D02*
D03*
X430298Y297439D02*
D03*
X433833Y293904D02*
D03*
X437369Y290368D02*
D03*
X440904Y286833D02*
D03*
X444440Y283297D02*
D03*
X447975Y279761D02*
D03*
X451511Y276226D02*
D03*
X455047Y272690D02*
D03*
X458582Y269155D02*
D03*
X462118Y265619D02*
D03*
X465653Y262084D02*
D03*
D103*
X488280D02*
D03*
X491816Y265619D02*
D03*
X495351Y269155D02*
D03*
X498887Y272690D02*
D03*
X502423Y276226D02*
D03*
X505958Y279761D02*
D03*
X509494Y283297D02*
D03*
X513029Y286833D02*
D03*
X516565Y290368D02*
D03*
X520100Y293904D02*
D03*
X523636Y297439D02*
D03*
X527171Y300975D02*
D03*
X465653Y362493D02*
D03*
X462118Y358957D02*
D03*
X458582Y355422D02*
D03*
X455046Y351886D02*
D03*
X451511Y348351D02*
D03*
X447975Y344815D02*
D03*
X444440Y341280D02*
D03*
X440904Y337744D02*
D03*
X437369Y334209D02*
D03*
X433833Y330673D02*
D03*
X430298Y327138D02*
D03*
X426762Y323602D02*
D03*
D105*
X73847Y1373676D02*
D03*
X92847D02*
D03*
X83347Y1348176D02*
D03*
X95097Y1153676D02*
D03*
X114097D02*
D03*
X104597Y1128176D02*
D03*
X555347Y1291426D02*
D03*
X536347D02*
D03*
X545847Y1316926D02*
D03*
X719097Y1187176D02*
D03*
X738097D02*
D03*
X728597Y1161676D02*
D03*
X678097Y1187176D02*
D03*
X697097D02*
D03*
X687597Y1161676D02*
D03*
X374097Y1367676D02*
D03*
X355097D02*
D03*
X364597Y1393176D02*
D03*
X112097Y1387426D02*
D03*
X131097D02*
D03*
X121597Y1361926D02*
D03*
X135847Y1153676D02*
D03*
X154847D02*
D03*
X145347Y1128176D02*
D03*
X463597Y1126426D02*
D03*
X482597D02*
D03*
X473097Y1100926D02*
D03*
X85097Y1266926D02*
D03*
X104097D02*
D03*
X94597Y1241426D02*
D03*
X126847Y1266926D02*
D03*
X145847D02*
D03*
X136347Y1241426D02*
D03*
X156347Y1423426D02*
D03*
X165847Y1448926D02*
D03*
X146847D02*
D03*
X772467Y238538D02*
D03*
X753467D02*
D03*
X762967Y264038D02*
D03*
X776467Y339538D02*
D03*
X757467D02*
D03*
X766967Y365038D02*
D03*
X736467Y339788D02*
D03*
X717467D02*
D03*
X726967Y365288D02*
D03*
X375467Y132788D02*
D03*
X356467D02*
D03*
X365967Y158288D02*
D03*
D106*
X260847Y1069176D02*
D03*
X295347D02*
D03*
X613717Y526288D02*
D03*
X648217D02*
D03*
D118*
X176827Y719507D02*
D03*
X314327Y632007D02*
D03*
X176827Y799507D02*
D03*
Y759507D02*
D03*
X399327Y632007D02*
D03*
X441827D02*
D03*
X484327D02*
D03*
X526827D02*
D03*
X569327D02*
D03*
X356827D02*
D03*
X611827D02*
D03*
D119*
X649384Y851983D02*
D03*
X200807Y675079D02*
D03*
X603347Y1044426D02*
D03*
Y1102926D02*
D03*
D120*
X352626Y1034089D02*
D03*
X435630Y1022424D02*
D03*
D121*
X349663Y1038798D02*
D03*
X439777Y1026133D02*
D03*
D122*
X329728Y998985D02*
D03*
X447966Y982367D02*
D03*
D123*
X528347Y1407426D02*
D03*
X520847D02*
D03*
X524597Y1399926D02*
D03*
X528347Y1392426D02*
D03*
X520847D02*
D03*
D124*
X291827Y797007D02*
D03*
Y827487D02*
D03*
X693967Y471768D02*
D03*
Y441288D02*
D03*
D125*
X259327Y697007D02*
D03*
Y737007D02*
D03*
X504827Y685007D02*
D03*
Y725007D02*
D03*
X547827Y685007D02*
D03*
Y725007D02*
D03*
X633827Y685007D02*
D03*
Y725007D02*
D03*
X590827Y685007D02*
D03*
Y725007D02*
D03*
X399827Y685007D02*
D03*
Y725007D02*
D03*
X314827Y685007D02*
D03*
Y725007D02*
D03*
X442327Y685007D02*
D03*
Y725007D02*
D03*
X357327Y685007D02*
D03*
Y725007D02*
D03*
X349847Y1294426D02*
D03*
X349847Y1254426D02*
D03*
X632597Y1357926D02*
D03*
X632597Y1397926D02*
D03*
X788967Y470288D02*
D03*
Y510288D02*
D03*
D126*
X259327Y772257D02*
D03*
Y806757D02*
D03*
D127*
X327877Y841507D02*
D03*
X340577D02*
D03*
X353277Y841507D02*
D03*
X365977Y841507D02*
D03*
X378677D02*
D03*
X391377Y841507D02*
D03*
X404077Y841507D02*
D03*
X416777D02*
D03*
X327877Y773507D02*
D03*
X340577Y773507D02*
D03*
X353277Y773507D02*
D03*
X365977D02*
D03*
X378677D02*
D03*
X391377D02*
D03*
X404077Y773507D02*
D03*
X416777Y773507D02*
D03*
X517877Y841507D02*
D03*
X530577Y841507D02*
D03*
X543277Y841507D02*
D03*
X555977Y841507D02*
D03*
X568677Y841507D02*
D03*
X581377D02*
D03*
X594077Y841507D02*
D03*
X606777Y841507D02*
D03*
X517877Y773507D02*
D03*
X530577Y773507D02*
D03*
X543277Y773507D02*
D03*
X555977D02*
D03*
X568677D02*
D03*
X581377D02*
D03*
X594077Y773507D02*
D03*
X606777Y773507D02*
D03*
D128*
X126137Y1006077D02*
D03*
X142597Y1004926D02*
D03*
D129*
X57473Y1008877D02*
D03*
X73951Y1008014D02*
D03*
D130*
X426847Y1296926D02*
D03*
X385347D02*
D03*
D131*
X282597Y1381676D02*
D03*
Y1376676D02*
D03*
Y1371676D02*
D03*
Y1366676D02*
D03*
Y1361676D02*
D03*
Y1356676D02*
D03*
Y1351676D02*
D03*
Y1346676D02*
D03*
Y1341676D02*
D03*
Y1336676D02*
D03*
Y1331676D02*
D03*
Y1326676D02*
D03*
Y1321676D02*
D03*
Y1316676D02*
D03*
Y1311676D02*
D03*
Y1306676D02*
D03*
X607467Y390788D02*
D03*
Y395788D02*
D03*
Y400788D02*
D03*
X607467Y405788D02*
D03*
Y410788D02*
D03*
Y415788D02*
D03*
X607467Y420788D02*
D03*
Y425788D02*
D03*
Y430788D02*
D03*
Y435788D02*
D03*
X607467Y440788D02*
D03*
Y445788D02*
D03*
X607467Y450788D02*
D03*
Y455788D02*
D03*
Y460788D02*
D03*
Y465788D02*
D03*
D132*
X267597Y1404176D02*
D03*
Y1284176D02*
D03*
X256597Y1141426D02*
D03*
Y1237426D02*
D03*
X632967Y215288D02*
D03*
Y311288D02*
D03*
X622467Y368288D02*
D03*
X622467Y488288D02*
D03*
D133*
X423329Y1020466D02*
D03*
X418377Y1021163D02*
D03*
X413426Y1021858D02*
D03*
X408474Y1022554D02*
D03*
X403523Y1023250D02*
D03*
X398572Y1023946D02*
D03*
X388669Y1025338D02*
D03*
X383718Y1026034D02*
D03*
X378767Y1026730D02*
D03*
X373815Y1027425D02*
D03*
X368864Y1028121D02*
D03*
X363912Y1028817D02*
D03*
X368058Y1040352D02*
D03*
X373009Y1039656D02*
D03*
X377961Y1038960D02*
D03*
X382912Y1038265D02*
D03*
X387863Y1037569D02*
D03*
X392815Y1036873D02*
D03*
X397766Y1036177D02*
D03*
X402718Y1035481D02*
D03*
X407669Y1034786D02*
D03*
X412620Y1034090D02*
D03*
X417571Y1033394D02*
D03*
X422523Y1032698D02*
D03*
D134*
X492347Y1285676D02*
D03*
Y1266676D02*
D03*
X466847Y1276176D02*
D03*
X400597Y1426426D02*
D03*
Y1445426D02*
D03*
X426097Y1435926D02*
D03*
X154347Y1394676D02*
D03*
X179847Y1385176D02*
D03*
Y1404176D02*
D03*
D135*
X580847Y1408176D02*
D03*
Y1363176D02*
D03*
D136*
X524597Y1399926D02*
D03*
D137*
X541097Y1389926D02*
D03*
X541097Y1394926D02*
D03*
Y1399926D02*
D03*
Y1404926D02*
D03*
X541097Y1409926D02*
D03*
X508097D02*
D03*
Y1404926D02*
D03*
Y1399926D02*
D03*
Y1394926D02*
D03*
Y1389926D02*
D03*
D138*
X424847Y1207676D02*
D03*
X419347Y1207676D02*
D03*
X402847Y1207676D02*
D03*
X408347Y1207676D02*
D03*
X413847Y1207676D02*
D03*
D139*
X433347Y1193676D02*
D03*
X433347Y1197676D02*
D03*
X433347Y1201676D02*
D03*
X394347D02*
D03*
Y1197676D02*
D03*
Y1193676D02*
D03*
X433347Y1189676D02*
D03*
Y1185676D02*
D03*
X394347Y1185676D02*
D03*
X394347Y1189676D02*
D03*
D140*
X433347Y1206676D02*
D03*
X394347D02*
D03*
X433347Y1180676D02*
D03*
X394347Y1180676D02*
D03*
D141*
X413847Y1175926D02*
D03*
X409597Y1176176D02*
D03*
X405347Y1176176D02*
D03*
X401347Y1176176D02*
D03*
X417847Y1175926D02*
D03*
X421847D02*
D03*
X425847D02*
D03*
D142*
X596337Y1335676D02*
D03*
X565857Y1335676D02*
D03*
D143*
X616347Y1092676D02*
D03*
Y1080176D02*
D03*
Y1067426D02*
D03*
Y1054676D02*
D03*
D144*
X583847Y1031176D02*
D03*
Y1117176D02*
D03*
D145*
X278597Y1209426D02*
D03*
Y1189426D02*
D03*
Y1169426D02*
D03*
Y1179426D02*
D03*
Y1199426D02*
D03*
X610967Y253288D02*
D03*
Y273288D02*
D03*
Y283288D02*
D03*
Y263288D02*
D03*
Y243288D02*
D03*
D146*
X564301Y1181497D02*
D03*
X567085Y1201302D02*
D03*
X568476Y1211205D02*
D03*
X565693Y1191400D02*
D03*
D147*
X582755Y1151133D02*
D03*
X594585Y1235306D02*
D03*
D148*
X399372Y453041D02*
D03*
X372561Y475538D02*
D03*
D149*
X774467Y441338D02*
D03*
Y428638D02*
D03*
Y415938D02*
D03*
Y403238D02*
D03*
X717467Y441338D02*
D03*
Y428638D02*
D03*
Y415938D02*
D03*
Y403238D02*
D03*
D150*
X734868Y557288D02*
D03*
X755068Y557287D02*
D03*
D151*
X719967Y475288D02*
D03*
X749967D02*
D03*
D152*
X396200Y390614D02*
D03*
X388037Y380886D02*
D03*
X379873Y371157D02*
D03*
X371710Y361428D02*
D03*
X363546Y351700D02*
D03*
X355383Y341971D02*
D03*
X347220Y332242D02*
D03*
X339056Y322513D02*
D03*
D153*
X441922Y86100D02*
D03*
X399836Y80185D02*
D03*
X584922Y105100D02*
D03*
X542836Y99185D02*
D03*
D154*
X457084Y68034D02*
D03*
X390241Y58640D02*
D03*
X600084Y87034D02*
D03*
X533241Y77640D02*
D03*
D155*
X419467Y228788D02*
D03*
X402467Y228788D02*
D03*
X419467Y241788D02*
D03*
X402467Y241788D02*
D03*
D156*
X524624Y235632D02*
D03*
X513310Y246945D02*
D03*
D157*
X557967Y300288D02*
D03*
Y372288D02*
D03*
X509967Y195288D02*
D03*
X477967D02*
D03*
X445967D02*
D03*
X518967Y531288D02*
D03*
X514967Y487288D02*
D03*
D158*
X794622Y93169D02*
D03*
X811111Y93745D02*
D03*
D159*
X724556Y89794D02*
D03*
X741034Y90658D02*
D03*
D160*
X287587Y293318D02*
D03*
X290371Y273512D02*
D03*
X291763Y263610D02*
D03*
X288979Y283415D02*
D03*
D161*
X261479Y317418D02*
D03*
X273309Y233246D02*
D03*
M02*
