G04 Layer_Color=128*
%FSLAX44Y44*%
%MOMM*%
G71*
G01*
G75*
%ADD163C,0.0508*%
D163*
X170827Y719507D02*
X182827D01*
X176827Y713507D02*
Y725507D01*
X634384Y851983D02*
X664384D01*
X649384Y836983D02*
Y866983D01*
X185807Y675079D02*
X215807D01*
X200807Y660079D02*
Y690079D01*
X308327Y632007D02*
X320327D01*
X314327Y626007D02*
Y638007D01*
X170827Y799507D02*
X182827D01*
X176827Y793507D02*
Y805507D01*
X170827Y759507D02*
X182827D01*
X176827Y753507D02*
Y765507D01*
X393327Y632007D02*
X405327D01*
X399327Y626007D02*
Y638007D01*
X435827Y632007D02*
X447827D01*
X441827Y626007D02*
Y638007D01*
X478327Y632007D02*
X490327D01*
X484327Y626007D02*
Y638007D01*
X520827Y632007D02*
X532827D01*
X526827Y626007D02*
Y638007D01*
X563327Y632007D02*
X575327D01*
X569327Y626007D02*
Y638007D01*
X350827Y632007D02*
X362827D01*
X356827Y626007D02*
Y638007D01*
X605827Y632007D02*
X617827D01*
X611827Y626007D02*
Y638007D01*
X546327Y859007D02*
X551327D01*
X548827Y856507D02*
Y861507D01*
X483327Y717007D02*
X486327D01*
X484827Y715507D02*
Y718507D01*
X547998Y799007D02*
X550998D01*
X549498Y797507D02*
Y800507D01*
X402327Y822007D02*
X405327D01*
X403827Y820507D02*
Y823507D01*
X581327Y864507D02*
X586327D01*
X583827Y862007D02*
Y867007D01*
X490327Y882007D02*
X493327D01*
X491827Y880507D02*
Y883507D01*
X402827Y878007D02*
X405827D01*
X404327Y876507D02*
Y879507D01*
X351327Y878007D02*
X354327D01*
X352827Y876507D02*
Y879507D01*
X377327Y878007D02*
X380327D01*
X378827Y876507D02*
Y879507D01*
X226077Y775507D02*
X231077D01*
X228577Y773007D02*
Y778007D01*
X226327Y788007D02*
X231327D01*
X228827Y785507D02*
Y790507D01*
X401077Y862007D02*
X404077D01*
X402577Y860507D02*
Y863507D01*
X375827Y862507D02*
X378827D01*
X377327Y861007D02*
Y864007D01*
X566077Y822757D02*
X571077D01*
X568577Y820257D02*
Y825257D01*
X484577Y828757D02*
X489577D01*
X487077Y826257D02*
Y831257D01*
X689327Y872007D02*
X694327D01*
X691827Y869507D02*
Y874507D01*
X689327Y797007D02*
X694327D01*
X691827Y794507D02*
Y799507D01*
X689327Y782007D02*
X694327D01*
X691827Y779507D02*
Y784507D01*
X689327Y767007D02*
X694327D01*
X691827Y764507D02*
Y769507D01*
X689327Y692007D02*
X694327D01*
X691827Y689507D02*
Y694507D01*
X290327Y753507D02*
X293327D01*
X291827Y752007D02*
Y755007D01*
X541327Y750007D02*
X544327D01*
X542827Y748507D02*
Y751507D01*
X537327Y704007D02*
X540327D01*
X538827Y702507D02*
Y705507D01*
X549327Y792007D02*
X552327D01*
X550827Y790507D02*
Y793507D01*
X556327Y799007D02*
X559327D01*
X557827Y797507D02*
Y800507D01*
X460327Y792007D02*
X463327D01*
X461827Y790507D02*
Y793507D01*
X468327Y799007D02*
X471327D01*
X469827Y797507D02*
Y800507D01*
X325327Y877007D02*
X328327D01*
X326827Y875507D02*
Y878507D01*
X281827Y857007D02*
X286827D01*
X284327Y854507D02*
Y859507D01*
X169327Y839507D02*
X174327D01*
X171827Y837007D02*
Y842007D01*
X206827Y642007D02*
X211827D01*
X209327Y639507D02*
Y644507D01*
X350327Y862007D02*
X353327D01*
X351827Y860507D02*
Y863507D01*
X425327Y862007D02*
X428327D01*
X426827Y860507D02*
Y863507D01*
X594327Y909507D02*
X599327D01*
X596827Y907007D02*
Y912007D01*
X646827Y757007D02*
X651827D01*
X649327Y754507D02*
Y759507D01*
X344327Y604507D02*
X349327D01*
X346827Y602007D02*
Y607007D01*
X681827Y899507D02*
X686827D01*
X684327Y897007D02*
Y902007D01*
X689327Y887007D02*
X694327D01*
X691827Y884507D02*
Y889507D01*
X689327Y857007D02*
X694327D01*
X691827Y854507D02*
Y859507D01*
X689327Y842007D02*
X694327D01*
X691827Y839507D02*
Y844507D01*
X689327Y827007D02*
X694327D01*
X691827Y824507D02*
Y829507D01*
X689327Y812007D02*
X694327D01*
X691827Y809507D02*
Y814507D01*
X689327Y752007D02*
X694327D01*
X691827Y749507D02*
Y754507D01*
X689327Y737007D02*
X694327D01*
X691827Y734507D02*
Y739507D01*
X689327Y722007D02*
X694327D01*
X691827Y719507D02*
Y724507D01*
X689327Y707007D02*
X694327D01*
X691827Y704507D02*
Y709507D01*
X689327Y677007D02*
X694327D01*
X691827Y674507D02*
Y679507D01*
X484327Y782007D02*
X489327D01*
X486827Y779507D02*
Y784507D01*
X579327Y794507D02*
X584327D01*
X581827Y792007D02*
Y797007D01*
X674327Y672007D02*
X679327D01*
X676827Y669507D02*
Y674507D01*
X586827Y604507D02*
X591827D01*
X589327Y602007D02*
Y607007D01*
X504327Y604507D02*
X509327D01*
X506827Y602007D02*
Y607007D01*
X568077Y867507D02*
X573077D01*
X570577Y865007D02*
Y870007D01*
X544327Y604507D02*
X549327D01*
X546827Y602007D02*
Y607007D01*
X459327Y604507D02*
X464327D01*
X461827Y602007D02*
Y607007D01*
X664327Y902007D02*
X669327D01*
X666827Y899507D02*
Y904507D01*
X620077Y868507D02*
X625077D01*
X622577Y866007D02*
Y871007D01*
X346827Y917007D02*
X351827D01*
X349327Y914507D02*
Y919507D01*
X289327Y897007D02*
X294327D01*
X291827Y894507D02*
Y899507D01*
X161827Y684507D02*
X166827D01*
X164327Y682007D02*
Y687007D01*
X199327Y737007D02*
X204327D01*
X201827Y734507D02*
Y739507D01*
X376827Y714507D02*
X381827D01*
X379327Y712007D02*
Y717007D01*
X309327Y749507D02*
X314327D01*
X311827Y747007D02*
Y752007D01*
X241827Y627007D02*
X246827D01*
X244327Y624507D02*
Y629507D01*
X191827Y779507D02*
X196827D01*
X194327Y777007D02*
Y782007D01*
X576827Y704507D02*
X581827D01*
X579327Y702007D02*
Y707007D01*
X654327Y662007D02*
X659327D01*
X656827Y659507D02*
Y664507D01*
X634327Y619507D02*
X639327D01*
X636827Y617007D02*
Y622007D01*
X644327Y804507D02*
X649327D01*
X646827Y802007D02*
Y807007D01*
X504327Y904757D02*
X509327D01*
X506827Y902257D02*
Y907257D01*
X324077Y807007D02*
X329077D01*
X326577Y804507D02*
Y809507D01*
X401827Y914507D02*
X406827D01*
X404327Y912007D02*
Y917007D01*
X343077Y812007D02*
X348077D01*
X345577Y809507D02*
Y814507D01*
X376827Y674507D02*
X381827D01*
X379327Y672007D02*
Y677007D01*
X459327Y672007D02*
X464327D01*
X461827Y669507D02*
Y674507D01*
X419327Y604507D02*
X424327D01*
X421827Y602007D02*
Y607007D01*
X419327Y677007D02*
X424327D01*
X421827Y674507D02*
Y679507D01*
X346827Y752007D02*
X351827D01*
X349327Y749507D02*
Y754507D01*
X379327Y604507D02*
X384327D01*
X381827Y602007D02*
Y607007D01*
X144327Y814507D02*
X149327D01*
X146827Y812007D02*
Y817007D01*
X276827Y622007D02*
X281827D01*
X279327Y619507D02*
Y624507D01*
X306827Y822007D02*
X311827D01*
X309327Y819507D02*
Y824507D01*
X446827Y794507D02*
X451827D01*
X449327Y792007D02*
Y797007D01*
X476827Y874507D02*
X481827D01*
X479327Y872007D02*
Y877007D01*
X201827Y842007D02*
X206827D01*
X204327Y839507D02*
Y844507D01*
X224327Y684507D02*
X229327D01*
X226827Y682007D02*
Y687007D01*
X501327Y665007D02*
X506327D01*
X503827Y662507D02*
Y667507D01*
X546327Y665007D02*
X551327D01*
X548827Y662507D02*
Y667507D01*
X588327Y665007D02*
X593327D01*
X590827Y662507D02*
Y667507D01*
X632327Y665007D02*
X637327D01*
X634827Y662507D02*
Y667507D01*
X350626Y1034089D02*
X354626D01*
X352626Y1032089D02*
Y1036089D01*
X347663Y1038798D02*
X351663D01*
X349663Y1036797D02*
Y1040798D01*
X433630Y1022424D02*
X437630D01*
X435630Y1020424D02*
Y1024424D01*
X437777Y1026133D02*
X441777D01*
X439777Y1024133D02*
Y1028132D01*
X327728Y998985D02*
X331728D01*
X329728Y996984D02*
Y1000984D01*
X445966Y982367D02*
X449966D01*
X447966Y980367D02*
Y984367D01*
X526847Y1407426D02*
X529847D01*
X528347Y1405926D02*
Y1408926D01*
X519347Y1407426D02*
X522347D01*
X520847Y1405926D02*
Y1408926D01*
X523097Y1399926D02*
X526097D01*
X524597Y1398426D02*
Y1401426D01*
X526847Y1392426D02*
X529847D01*
X528347Y1390926D02*
Y1393926D01*
X519347Y1392426D02*
X522347D01*
X520847Y1390926D02*
Y1393926D01*
X598847Y1044426D02*
X607847D01*
X603347Y1039926D02*
Y1048926D01*
X598847Y1102926D02*
X607847D01*
X603347Y1098426D02*
Y1107426D01*
X371323Y1123676D02*
X374371D01*
X372847Y1122152D02*
Y1125200D01*
X778823Y1211426D02*
X781871D01*
X780347Y1209902D02*
Y1212950D01*
X778073Y1163676D02*
X781121D01*
X779597Y1162152D02*
Y1165200D01*
X707323Y1200676D02*
X710371D01*
X708847Y1199152D02*
Y1202200D01*
X621573Y1229926D02*
X624621D01*
X623097Y1228402D02*
Y1231450D01*
X470323Y1063676D02*
X473371D01*
X471847Y1062152D02*
Y1065200D01*
X85323Y1190176D02*
X88371D01*
X86847Y1188652D02*
Y1191700D01*
X241823Y1282176D02*
X244871D01*
X243347Y1280652D02*
Y1283700D01*
X281573Y1137676D02*
X284621D01*
X283097Y1136152D02*
Y1139200D01*
X325573Y1089926D02*
X328621D01*
X327097Y1088402D02*
Y1091450D01*
X262823Y1309676D02*
X265871D01*
X264347Y1308152D02*
Y1311200D01*
X541573Y1215926D02*
X544621D01*
X543097Y1214402D02*
Y1217450D01*
X167323Y1177926D02*
X170371D01*
X168847Y1176402D02*
Y1179450D01*
X397073Y1239926D02*
X400121D01*
X398597Y1238402D02*
Y1241450D01*
X485823Y1420676D02*
X488871D01*
X487347Y1419152D02*
Y1422200D01*
X550573Y1393426D02*
X553621D01*
X552097Y1391902D02*
Y1394950D01*
X377323Y1224676D02*
X380371D01*
X378847Y1223152D02*
Y1226200D01*
X377823Y1216426D02*
X380871D01*
X379347Y1214902D02*
Y1217950D01*
X386323Y1215676D02*
X389371D01*
X387847Y1214152D02*
Y1217200D01*
X383573Y1111676D02*
X386621D01*
X385097Y1110152D02*
Y1113200D01*
X390823Y1122176D02*
X393871D01*
X392347Y1120652D02*
Y1123700D01*
X389073Y1115676D02*
X392121D01*
X390597Y1114152D02*
Y1117200D01*
X417823Y1262676D02*
X420871D01*
X419347Y1261152D02*
Y1264200D01*
X311073Y1369426D02*
X314121D01*
X312597Y1367902D02*
Y1370950D01*
X311823Y1397426D02*
X314871D01*
X313347Y1395902D02*
Y1398950D01*
X197323Y1299176D02*
X200371D01*
X198847Y1297652D02*
Y1300700D01*
X483698Y1071301D02*
X486746D01*
X485222Y1069777D02*
Y1072825D01*
X467948Y1075551D02*
X470996D01*
X469472Y1074027D02*
Y1077075D01*
X462130Y1068702D02*
X465178D01*
X463654Y1067178D02*
Y1070226D01*
X455573Y1062426D02*
X458621D01*
X457097Y1060902D02*
Y1063950D01*
X443573Y1060676D02*
X446621D01*
X445097Y1059152D02*
Y1062200D01*
X108823Y1299926D02*
X111871D01*
X110347Y1298402D02*
Y1301450D01*
X55073Y1162176D02*
X58121D01*
X56597Y1160652D02*
Y1163700D01*
X55073Y1169426D02*
X58121D01*
X56597Y1167902D02*
Y1170950D01*
X344823Y1073426D02*
X347871D01*
X346347Y1071902D02*
Y1074950D01*
X363573Y1102426D02*
X366621D01*
X365097Y1100902D02*
Y1103950D01*
X332073Y1079926D02*
X335121D01*
X333597Y1078402D02*
Y1081450D01*
X190573Y1023926D02*
X193621D01*
X192097Y1022402D02*
Y1025450D01*
X599073Y966676D02*
X602121D01*
X600597Y965152D02*
Y968200D01*
X686823Y1319426D02*
X689871D01*
X688347Y1317902D02*
Y1320950D01*
X789073Y1245676D02*
X792121D01*
X790597Y1244152D02*
Y1247200D01*
X710073Y1296426D02*
X713121D01*
X711597Y1294902D02*
Y1297950D01*
X801823Y1221426D02*
X804871D01*
X803347Y1219902D02*
Y1222950D01*
X741323Y1269426D02*
X744371D01*
X742847Y1267902D02*
Y1270950D01*
X813823Y1193926D02*
X816871D01*
X815347Y1192402D02*
Y1195450D01*
X773823Y1265426D02*
X776871D01*
X775347Y1263902D02*
Y1266950D01*
X810073Y1155926D02*
X813121D01*
X811597Y1154402D02*
Y1157450D01*
X785823Y1127426D02*
X788871D01*
X787347Y1125902D02*
Y1128950D01*
X760323Y1099176D02*
X763371D01*
X761847Y1097652D02*
Y1100700D01*
X728823Y1075426D02*
X731871D01*
X730347Y1073902D02*
Y1076950D01*
X692573Y1066926D02*
X695621D01*
X694097Y1065402D02*
Y1068450D01*
X648823Y1066926D02*
X651871D01*
X650347Y1065402D02*
Y1068450D01*
X610823Y1027426D02*
X613871D01*
X612347Y1025902D02*
Y1028950D01*
X603573Y996926D02*
X606621D01*
X605097Y995402D02*
Y998450D01*
X560073Y974926D02*
X563121D01*
X561597Y973402D02*
Y976450D01*
X505573Y978676D02*
X508621D01*
X507097Y977152D02*
Y980200D01*
X582323Y1313676D02*
X585371D01*
X583847Y1312152D02*
Y1315200D01*
X665573Y1268426D02*
X668621D01*
X667097Y1266902D02*
Y1269950D01*
X640573Y1290426D02*
X643621D01*
X642097Y1288902D02*
Y1291950D01*
X602073Y1288426D02*
X605121D01*
X603597Y1286902D02*
Y1289950D01*
X712323Y1251926D02*
X715371D01*
X713847Y1250402D02*
Y1253450D01*
X728823Y1237176D02*
X731871D01*
X730347Y1235652D02*
Y1238700D01*
X655823Y1206676D02*
X658871D01*
X657347Y1205152D02*
Y1208200D01*
X620323Y1196676D02*
X623371D01*
X621847Y1195152D02*
Y1198200D01*
X595823Y1213676D02*
X598871D01*
X597347Y1212152D02*
Y1215200D01*
X731073Y1144926D02*
X734121D01*
X732597Y1143402D02*
Y1146450D01*
X675073Y1132676D02*
X678121D01*
X676597Y1131152D02*
Y1134200D01*
X640073Y1132926D02*
X643121D01*
X641597Y1131402D02*
Y1134450D01*
X607073Y1142426D02*
X610121D01*
X608597Y1140902D02*
Y1143950D01*
X557823Y1228926D02*
X560871D01*
X559347Y1227402D02*
Y1230450D01*
X530323Y1186926D02*
X533371D01*
X531847Y1185402D02*
Y1188450D01*
X557823Y1154426D02*
X560871D01*
X559347Y1152902D02*
Y1155950D01*
X527073Y1154426D02*
X530121D01*
X528597Y1152902D02*
Y1155950D01*
X529573Y1125176D02*
X532621D01*
X531097Y1123652D02*
Y1126700D01*
X637573Y1102426D02*
X640621D01*
X639097Y1100902D02*
Y1103950D01*
X550073Y1028426D02*
X553121D01*
X551597Y1026902D02*
Y1029950D01*
X509823Y1297926D02*
X512871D01*
X511347Y1296402D02*
Y1299450D01*
X546573Y1346926D02*
X549621D01*
X548097Y1345402D02*
Y1348450D01*
X520073Y1342926D02*
X523121D01*
X521597Y1341402D02*
Y1344450D01*
X462573Y1444926D02*
X465621D01*
X464097Y1443402D02*
Y1446450D01*
X430323Y1418426D02*
X433371D01*
X431847Y1416902D02*
Y1419950D01*
X437823Y1367676D02*
X440871D01*
X439347Y1366152D02*
Y1369200D01*
X385073Y1350676D02*
X388121D01*
X386597Y1349152D02*
Y1352200D01*
X491323Y1254176D02*
X494371D01*
X492847Y1252652D02*
Y1255700D01*
X480573Y1155676D02*
X483621D01*
X482097Y1154152D02*
Y1157200D01*
X452573Y1134176D02*
X455621D01*
X454097Y1132652D02*
Y1135700D01*
X481073Y1084176D02*
X484121D01*
X482597Y1082652D02*
Y1085700D01*
X419573Y1105426D02*
X422621D01*
X421097Y1103902D02*
Y1106950D01*
X524823Y1056176D02*
X527871D01*
X526347Y1054652D02*
Y1057700D01*
X490073Y1017426D02*
X493121D01*
X491597Y1015902D02*
Y1018950D01*
X368573Y1447926D02*
X371621D01*
X370097Y1446402D02*
Y1449450D01*
X312073Y1449676D02*
X315121D01*
X313597Y1448152D02*
Y1451200D01*
X245823Y1388676D02*
X248871D01*
X247347Y1387152D02*
Y1390200D01*
X258323Y1473176D02*
X261371D01*
X259847Y1471652D02*
Y1474700D01*
X141823Y1379426D02*
X144871D01*
X143347Y1377902D02*
Y1380950D01*
X287323Y1397426D02*
X290371D01*
X288847Y1395902D02*
Y1398950D01*
X193823Y1480676D02*
X196871D01*
X195347Y1479152D02*
Y1482200D01*
X246573Y1325426D02*
X249621D01*
X248097Y1323902D02*
Y1326950D01*
X216073Y1414176D02*
X219121D01*
X217597Y1412652D02*
Y1415700D01*
X203073Y1443426D02*
X206121D01*
X204597Y1441902D02*
Y1444950D01*
X362573Y1325176D02*
X365621D01*
X364097Y1323652D02*
Y1326700D01*
X332073Y1324426D02*
X335121D01*
X333597Y1322902D02*
Y1325950D01*
X338323Y1274426D02*
X341371D01*
X339847Y1272902D02*
Y1275950D01*
X284823Y1281176D02*
X287871D01*
X286347Y1279652D02*
Y1282700D01*
X106573Y1484426D02*
X109621D01*
X108097Y1482902D02*
Y1485950D01*
X53823Y1455926D02*
X56871D01*
X55347Y1454402D02*
Y1457450D01*
X72323Y1410926D02*
X75371D01*
X73847Y1409402D02*
Y1412450D01*
X52073Y1370176D02*
X55121D01*
X53597Y1368652D02*
Y1371700D01*
X138073Y1345176D02*
X141121D01*
X139597Y1343652D02*
Y1346700D01*
X165823Y1329176D02*
X168871D01*
X167347Y1327652D02*
Y1330700D01*
X90573Y1300676D02*
X93621D01*
X92097Y1299152D02*
Y1302200D01*
X198323Y1277676D02*
X201371D01*
X199847Y1276152D02*
Y1279200D01*
X162323Y1281676D02*
X165371D01*
X163847Y1280152D02*
Y1283200D01*
X113323Y1281676D02*
X116371D01*
X114847Y1280152D02*
Y1283200D01*
X145823Y1218926D02*
X148871D01*
X147347Y1217402D02*
Y1220450D01*
X77573Y1237676D02*
X80621D01*
X79097Y1236152D02*
Y1239200D01*
X127573Y1200926D02*
X130621D01*
X129097Y1199402D02*
Y1202450D01*
X255323Y1262926D02*
X258371D01*
X256847Y1261402D02*
Y1264450D01*
X227323Y1208926D02*
X230371D01*
X228847Y1207402D02*
Y1210450D01*
X283823Y1228176D02*
X286871D01*
X285347Y1226652D02*
Y1229700D01*
X326823Y1219926D02*
X329871D01*
X328347Y1218402D02*
Y1221450D01*
X327823Y1201176D02*
X330871D01*
X329347Y1199652D02*
Y1202700D01*
X296323Y1115426D02*
X299371D01*
X297847Y1113902D02*
Y1116950D01*
X264073Y1115926D02*
X267121D01*
X265597Y1114402D02*
Y1117450D01*
X237573Y1106676D02*
X240621D01*
X239097Y1105152D02*
Y1108200D01*
X202573Y1113426D02*
X205621D01*
X204097Y1111902D02*
Y1114950D01*
X283073Y1100176D02*
X286121D01*
X284597Y1098652D02*
Y1101700D01*
X322573Y1025676D02*
X325621D01*
X324097Y1024152D02*
Y1027200D01*
X291323Y1025426D02*
X294371D01*
X292847Y1023902D02*
Y1026950D01*
X265573Y1025176D02*
X268621D01*
X267097Y1023652D02*
Y1026700D01*
X296073Y1004176D02*
X299121D01*
X297597Y1002652D02*
Y1005700D01*
X213823Y1014676D02*
X216871D01*
X215347Y1013152D02*
Y1016200D01*
X190573Y1037676D02*
X193621D01*
X192097Y1036152D02*
Y1039200D01*
X148573Y1035176D02*
X151621D01*
X150097Y1033652D02*
Y1036700D01*
X129323Y1035176D02*
X132371D01*
X130847Y1033652D02*
Y1036700D01*
X66823Y1045426D02*
X69871D01*
X68347Y1043902D02*
Y1046950D01*
X98073Y1018926D02*
X101121D01*
X99597Y1017402D02*
Y1020450D01*
X53823Y1113926D02*
X56871D01*
X55347Y1112402D02*
Y1115450D01*
X74323Y1097926D02*
X77371D01*
X75847Y1096402D02*
Y1099450D01*
X101573Y1080676D02*
X104621D01*
X103097Y1079152D02*
Y1082200D01*
X130073Y1078926D02*
X133121D01*
X131597Y1077402D02*
Y1080450D01*
X222573Y1090176D02*
X225621D01*
X224097Y1088652D02*
Y1091700D01*
X183573Y1090426D02*
X186621D01*
X185097Y1088902D02*
Y1091950D01*
X666323Y1385426D02*
X669371D01*
X667847Y1383902D02*
Y1386950D01*
X344323Y1362176D02*
X347371D01*
X345847Y1360652D02*
Y1363700D01*
X442823Y1223176D02*
X445871D01*
X444347Y1221652D02*
Y1224700D01*
X432823Y1223176D02*
X435871D01*
X434347Y1221652D02*
Y1224700D01*
X402073Y1189926D02*
X405121D01*
X403597Y1188402D02*
Y1191450D01*
X423323Y1189676D02*
X426371D01*
X424847Y1188152D02*
Y1191200D01*
X451380Y1259211D02*
X454428D01*
X452904Y1257687D02*
Y1260735D01*
X165823Y1412426D02*
X168871D01*
X167347Y1410902D02*
Y1413950D01*
X90073Y1409676D02*
X93121D01*
X91597Y1408152D02*
Y1411200D01*
X226073Y1189426D02*
X229121D01*
X227597Y1187902D02*
Y1190950D01*
X233323Y1189426D02*
X236371D01*
X234847Y1187902D02*
Y1190950D01*
X137698Y1303551D02*
X140746D01*
X139222Y1302027D02*
Y1305075D01*
X110823Y1184676D02*
X113871D01*
X112347Y1183152D02*
Y1186200D01*
X695573Y1198676D02*
X698621D01*
X697097Y1197152D02*
Y1200200D01*
X458073Y1355676D02*
X461121D01*
X459597Y1354152D02*
Y1357200D01*
X651823Y1356676D02*
X654871D01*
X653347Y1355152D02*
Y1358200D01*
X656823Y1351926D02*
X659871D01*
X658347Y1350402D02*
Y1353450D01*
X659573Y1344676D02*
X662621D01*
X661097Y1343152D02*
Y1346200D01*
X582573Y1092676D02*
X585621D01*
X584097Y1091152D02*
Y1094200D01*
X588823Y1092676D02*
X591871D01*
X590347Y1091152D02*
Y1094200D01*
X595073Y1092676D02*
X598121D01*
X596597Y1091152D02*
Y1094200D01*
X397073Y1246926D02*
X400121D01*
X398597Y1245402D02*
Y1248450D01*
X397573Y1254426D02*
X400621D01*
X399097Y1252902D02*
Y1255950D01*
X390823Y1251676D02*
X393871D01*
X392347Y1250152D02*
Y1253200D01*
X390323Y1243426D02*
X393371D01*
X391847Y1241902D02*
Y1244950D01*
X491323Y1212676D02*
X494371D01*
X492847Y1211152D02*
Y1214200D01*
X517573Y1203676D02*
X520621D01*
X519097Y1202152D02*
Y1205200D01*
X451323Y1227176D02*
X454371D01*
X452847Y1225652D02*
Y1228700D01*
X486323Y1236676D02*
X489371D01*
X487847Y1235152D02*
Y1238200D01*
X211073Y1236926D02*
X214121D01*
X212597Y1235402D02*
Y1238450D01*
X201073Y1216676D02*
X204121D01*
X202597Y1215152D02*
Y1218200D01*
X196323Y1220926D02*
X199371D01*
X197847Y1219402D02*
Y1222450D01*
X244323Y1169426D02*
X247371D01*
X245847Y1167902D02*
Y1170950D01*
X252323Y1169426D02*
X255371D01*
X253847Y1167902D02*
Y1170950D01*
X357375Y1094953D02*
X360423D01*
X358899Y1093429D02*
Y1096477D01*
X606073Y1195426D02*
X609121D01*
X607597Y1193902D02*
Y1196950D01*
X596823Y1196926D02*
X599871D01*
X598347Y1195402D02*
Y1198450D01*
X338823Y1088176D02*
X341871D01*
X340347Y1086652D02*
Y1089700D01*
X178323Y1373176D02*
X181371D01*
X179847Y1371652D02*
Y1374700D01*
X56823Y1024676D02*
X59871D01*
X58347Y1023152D02*
Y1026200D01*
X535443Y210288D02*
X538491D01*
X536967Y208764D02*
Y211812D01*
X588443Y463288D02*
X591491D01*
X589967Y461764D02*
Y464812D01*
X366443Y264288D02*
X369491D01*
X367967Y262764D02*
Y265812D01*
X408443Y482288D02*
X411491D01*
X409967Y480764D02*
Y483812D01*
X401443Y482288D02*
X404491D01*
X402967Y480764D02*
Y483812D01*
X392443Y298288D02*
X395491D01*
X393967Y296764D02*
Y299812D01*
X461443Y240288D02*
X464491D01*
X462967Y238764D02*
Y241812D01*
X556443Y351288D02*
X559491D01*
X557967Y349764D02*
Y352812D01*
X462441Y381287D02*
X465489D01*
X463965Y379763D02*
Y382811D01*
X681443Y519288D02*
X684491D01*
X682967Y517764D02*
Y520812D01*
X681443Y533288D02*
X684491D01*
X682967Y531764D02*
Y534812D01*
X681443Y526288D02*
X684491D01*
X682967Y524764D02*
Y527812D01*
X681443Y512288D02*
X684491D01*
X682967Y510764D02*
Y513812D01*
X695443Y545288D02*
X698491D01*
X696967Y543764D02*
Y546812D01*
X299443Y175503D02*
X302491D01*
X300967Y173979D02*
Y177027D01*
X308443Y175503D02*
X311491D01*
X309967Y173979D02*
Y177027D01*
X305443Y388288D02*
X308491D01*
X306967Y386764D02*
Y389812D01*
X305443Y381288D02*
X308491D01*
X306967Y379764D02*
Y382812D01*
X517443Y536288D02*
X520491D01*
X518967Y534764D02*
Y537812D01*
X517443Y524288D02*
X520491D01*
X518967Y522764D02*
Y525812D01*
X668443Y421288D02*
X671491D01*
X669967Y419764D02*
Y422812D01*
X588443Y219288D02*
X591491D01*
X589967Y217764D02*
Y220812D01*
X238443Y232288D02*
X241491D01*
X239967Y230764D02*
Y233812D01*
X238443Y226288D02*
X241491D01*
X239967Y224764D02*
Y227812D01*
X588443Y212288D02*
X591491D01*
X589967Y210764D02*
Y213812D01*
X507443Y127288D02*
X510491D01*
X508967Y125764D02*
Y128812D01*
X496443Y395288D02*
X499491D01*
X497967Y393764D02*
Y396812D01*
X502443Y403288D02*
X505491D01*
X503967Y401764D02*
Y404812D01*
X339443Y133288D02*
X342491D01*
X340967Y131764D02*
Y134812D01*
X373443Y400288D02*
X376491D01*
X374967Y398764D02*
Y401812D01*
X353443Y448288D02*
X356491D01*
X354967Y446764D02*
Y449812D01*
X362443Y286288D02*
X365491D01*
X363967Y284764D02*
Y287812D01*
X454443Y394288D02*
X457491D01*
X455967Y392764D02*
Y395812D01*
X394443Y346288D02*
X397491D01*
X395967Y344764D02*
Y347812D01*
X408443Y416288D02*
X411491D01*
X409967Y414764D02*
Y417812D01*
X355443Y421288D02*
X358491D01*
X356967Y419764D02*
Y422812D01*
X330443Y396288D02*
X333491D01*
X331967Y394764D02*
Y397812D01*
X364443Y390288D02*
X367491D01*
X365967Y388764D02*
Y391812D01*
X420443Y342288D02*
X423491D01*
X421967Y340764D02*
Y343812D01*
X382443Y336288D02*
X385491D01*
X383967Y334764D02*
Y337812D01*
X649441Y408287D02*
X652489D01*
X650965Y406763D02*
Y409811D01*
X435443Y444288D02*
X438491D01*
X436967Y442764D02*
Y445812D01*
X411443Y444288D02*
X414491D01*
X412967Y442764D02*
Y445812D01*
X525443Y410288D02*
X528491D01*
X526967Y408764D02*
Y411812D01*
X531441Y403287D02*
X534489D01*
X532965Y401763D02*
Y404811D01*
X525441Y395287D02*
X528489D01*
X526965Y393763D02*
Y396811D01*
X510443Y410288D02*
X513491D01*
X511967Y408764D02*
Y411812D01*
X488443Y421288D02*
X491491D01*
X489967Y419764D02*
Y422812D01*
X574443Y368288D02*
X577491D01*
X575967Y366764D02*
Y369812D01*
X583443Y366288D02*
X586491D01*
X584967Y364764D02*
Y367812D01*
X529443Y372288D02*
X532491D01*
X530967Y370764D02*
Y373812D01*
X363443Y273288D02*
X366491D01*
X364967Y271764D02*
Y274812D01*
X396443Y156288D02*
X399491D01*
X397967Y154764D02*
Y157812D01*
X409443Y160288D02*
X412491D01*
X410967Y158764D02*
Y161812D01*
X396443Y178288D02*
X399491D01*
X397967Y176764D02*
Y179812D01*
X382443Y187288D02*
X385491D01*
X383967Y185764D02*
Y188812D01*
X451443Y411288D02*
X454491D01*
X452967Y409764D02*
Y412812D01*
X432443Y410288D02*
X435491D01*
X433967Y408764D02*
Y411812D01*
X721894Y557288D02*
X724942D01*
X723418Y555764D02*
Y558812D01*
X639441Y407287D02*
X642489D01*
X640965Y405763D02*
Y408811D01*
X623443Y411288D02*
X626491D01*
X624967Y409764D02*
Y412812D01*
X631443Y417288D02*
X634491D01*
X632967Y415764D02*
Y418812D01*
X678443Y312288D02*
X681491D01*
X679967Y310764D02*
Y313812D01*
X689443Y305288D02*
X692491D01*
X690967Y303764D02*
Y306812D01*
X797443Y172288D02*
X800491D01*
X798967Y170764D02*
Y173812D01*
X765443Y116288D02*
X768491D01*
X766967Y114764D02*
Y117812D01*
X662443Y294288D02*
X665491D01*
X663967Y292764D02*
Y295812D01*
X643443Y273288D02*
X646491D01*
X644967Y271764D02*
Y274812D01*
X550443Y170288D02*
X553491D01*
X551967Y168764D02*
Y171812D01*
X245794Y278937D02*
X248842D01*
X247318Y277413D02*
Y280461D01*
X765443Y180288D02*
X768491D01*
X766967Y178764D02*
Y181812D01*
X636443Y273288D02*
X639491D01*
X637967Y271764D02*
Y274812D01*
X252443Y279209D02*
X255491D01*
X253967Y277685D02*
Y280733D01*
X426443Y111288D02*
X429491D01*
X427967Y109764D02*
Y112812D01*
X654443Y294288D02*
X657491D01*
X655967Y292764D02*
Y295812D01*
X281443Y384288D02*
X284491D01*
X282967Y382764D02*
Y385812D01*
X288443Y391288D02*
X291491D01*
X289967Y389764D02*
Y392812D01*
X289443Y400288D02*
X292491D01*
X290967Y398764D02*
Y401812D01*
X289443Y410288D02*
X292491D01*
X290967Y408764D02*
Y411812D01*
X289443Y419288D02*
X292491D01*
X290967Y417764D02*
Y420812D01*
X296443Y427288D02*
X299491D01*
X297967Y425764D02*
Y428812D01*
X304443Y435288D02*
X307491D01*
X305967Y433764D02*
Y436812D01*
X311443Y442288D02*
X314491D01*
X312967Y440764D02*
Y443812D01*
X325443Y456288D02*
X328491D01*
X326967Y454764D02*
Y457812D01*
X332443Y463288D02*
X335491D01*
X333967Y461764D02*
Y464812D01*
X348443Y478288D02*
X351491D01*
X349967Y476764D02*
Y479812D01*
X355443Y486288D02*
X358491D01*
X356967Y484764D02*
Y487812D01*
X362443Y493288D02*
X365491D01*
X363967Y491764D02*
Y494812D01*
X369443Y500288D02*
X372491D01*
X370967Y498764D02*
Y501812D01*
X377443Y507288D02*
X380491D01*
X378967Y505764D02*
Y508812D01*
X384443Y514288D02*
X387491D01*
X385967Y512764D02*
Y515812D01*
X391443Y521288D02*
X394491D01*
X392967Y519764D02*
Y522812D01*
X399443Y529288D02*
X402491D01*
X400967Y527764D02*
Y530812D01*
X274443Y377288D02*
X277491D01*
X275967Y375764D02*
Y378812D01*
X266443Y370288D02*
X269491D01*
X267967Y368764D02*
Y371812D01*
X255443Y366288D02*
X258491D01*
X256967Y364764D02*
Y367812D01*
X244443Y366288D02*
X247491D01*
X245967Y364764D02*
Y367812D01*
X237443Y359288D02*
X240491D01*
X238967Y357764D02*
Y360812D01*
X229443Y353288D02*
X232491D01*
X230967Y351764D02*
Y354812D01*
X220443Y353288D02*
X223491D01*
X221967Y351764D02*
Y354812D01*
X210443Y353288D02*
X213491D01*
X211967Y351764D02*
Y354812D01*
X200443Y353288D02*
X203491D01*
X201967Y351764D02*
Y354812D01*
X190443Y353288D02*
X193491D01*
X191967Y351764D02*
Y354812D01*
X179443Y353288D02*
X182491D01*
X180967Y351764D02*
Y354812D01*
X169443Y352288D02*
X172491D01*
X170967Y350764D02*
Y353812D01*
X162443Y345288D02*
X165491D01*
X163967Y343764D02*
Y346812D01*
X155443Y338288D02*
X158491D01*
X156967Y336764D02*
Y339812D01*
X132443Y314288D02*
X135491D01*
X133967Y312764D02*
Y315812D01*
X117443Y298288D02*
X120491D01*
X118967Y296764D02*
Y299812D01*
X100443Y282288D02*
X103491D01*
X101967Y280764D02*
Y283812D01*
X77443Y258288D02*
X80491D01*
X78967Y256764D02*
Y259812D01*
X69443Y249288D02*
X72491D01*
X70967Y247764D02*
Y250812D01*
X61443Y241288D02*
X64491D01*
X62967Y239764D02*
Y242812D01*
X185443Y294288D02*
X188491D01*
X186967Y292764D02*
Y295812D01*
X52443Y233288D02*
X55491D01*
X53967Y231764D02*
Y234812D01*
X102443Y266288D02*
X105491D01*
X103967Y264764D02*
Y267812D01*
X95443Y191288D02*
X98491D01*
X96967Y189764D02*
Y192812D01*
X121443Y167288D02*
X124491D01*
X122967Y165764D02*
Y168812D01*
X144443Y151288D02*
X147491D01*
X145967Y149764D02*
Y152812D01*
X170443Y146288D02*
X173491D01*
X171967Y144764D02*
Y147812D01*
X198443Y147288D02*
X201491D01*
X199967Y145764D02*
Y148812D01*
X227443Y145288D02*
X230491D01*
X228967Y143764D02*
Y146812D01*
X250443Y128288D02*
X253491D01*
X251967Y126764D02*
Y129812D01*
X256443Y98288D02*
X259491D01*
X257967Y96764D02*
Y99812D01*
X258443Y69288D02*
X261491D01*
X259967Y67764D02*
Y70812D01*
X260443Y49288D02*
X263491D01*
X261967Y47764D02*
Y50812D01*
X292443Y52288D02*
X295491D01*
X293967Y50764D02*
Y53812D01*
X331443Y55288D02*
X334491D01*
X332967Y53764D02*
Y56812D01*
X361443Y58288D02*
X364491D01*
X362967Y56764D02*
Y59812D01*
X420443Y68288D02*
X423491D01*
X421967Y66764D02*
Y69812D01*
X490443Y80288D02*
X493491D01*
X491967Y78764D02*
Y81812D01*
X563443Y88288D02*
X566491D01*
X564967Y86764D02*
Y89812D01*
X628443Y94288D02*
X631491D01*
X629967Y92764D02*
Y95812D01*
X664443Y101288D02*
X667491D01*
X665967Y99764D02*
Y102812D01*
X701443Y106288D02*
X704491D01*
X702967Y104764D02*
Y107812D01*
X766443Y91288D02*
X769491D01*
X767967Y89764D02*
Y92812D01*
X819443Y187288D02*
X822491D01*
X820967Y185764D02*
Y188812D01*
X819443Y219288D02*
X822491D01*
X820967Y217764D02*
Y220812D01*
X819443Y250288D02*
X822491D01*
X820967Y248764D02*
Y251812D01*
X820443Y274288D02*
X823491D01*
X821967Y272764D02*
Y275812D01*
X819443Y303288D02*
X822491D01*
X820967Y301764D02*
Y304812D01*
X822443Y336288D02*
X825491D01*
X823967Y334764D02*
Y337812D01*
X820443Y375288D02*
X823491D01*
X821967Y373764D02*
Y376812D01*
X821443Y416288D02*
X824491D01*
X822967Y414764D02*
Y417812D01*
X821443Y455288D02*
X824491D01*
X822967Y453764D02*
Y456812D01*
X820443Y489288D02*
X823491D01*
X821967Y487764D02*
Y490812D01*
X819443Y523288D02*
X822491D01*
X820967Y521764D02*
Y524812D01*
X817443Y544288D02*
X820491D01*
X818967Y542764D02*
Y545812D01*
X796443Y547288D02*
X799491D01*
X797967Y545764D02*
Y548812D01*
X771443Y566288D02*
X774491D01*
X772967Y564764D02*
Y567812D01*
X740443Y574288D02*
X743491D01*
X741967Y572764D02*
Y575812D01*
X705443Y572288D02*
X708491D01*
X706967Y570764D02*
Y573812D01*
X646443Y548288D02*
X649491D01*
X647967Y546764D02*
Y549812D01*
X407443Y537288D02*
X410491D01*
X408967Y535764D02*
Y538812D01*
X417443Y543288D02*
X420491D01*
X418967Y541764D02*
Y544812D01*
X452443Y548288D02*
X455491D01*
X453967Y546764D02*
Y549812D01*
X498443Y552288D02*
X501491D01*
X499967Y550764D02*
Y553812D01*
X535443Y557288D02*
X538491D01*
X536967Y555764D02*
Y558812D01*
X565443Y559288D02*
X568491D01*
X566967Y557764D02*
Y560812D01*
X606443Y564288D02*
X609491D01*
X607967Y562764D02*
Y565812D01*
X645443Y567288D02*
X648491D01*
X646967Y565764D02*
Y568812D01*
X677443Y570288D02*
X680491D01*
X678967Y568764D02*
Y571812D01*
X109443Y290288D02*
X112491D01*
X110967Y288764D02*
Y291812D01*
X92443Y274288D02*
X95491D01*
X93967Y272764D02*
Y275812D01*
X92443Y223288D02*
X95491D01*
X93967Y221764D02*
Y224812D01*
X140443Y322288D02*
X143491D01*
X141967Y320764D02*
Y323812D01*
X133443Y299288D02*
X136491D01*
X134967Y297764D02*
Y300812D01*
X148443Y331288D02*
X151491D01*
X149967Y329764D02*
Y332812D01*
X124443Y306288D02*
X127491D01*
X125967Y304764D02*
Y307812D01*
X174443Y273288D02*
X177491D01*
X175967Y271764D02*
Y274812D01*
X174443Y228288D02*
X177491D01*
X175967Y226764D02*
Y229812D01*
X206443Y214288D02*
X209491D01*
X207967Y212764D02*
Y215812D01*
X147443Y206288D02*
X150491D01*
X148967Y204764D02*
Y207812D01*
X287443Y187288D02*
X290491D01*
X288967Y185764D02*
Y188812D01*
X284443Y148288D02*
X287491D01*
X285967Y146764D02*
Y149812D01*
X289443Y105288D02*
X292491D01*
X290967Y103764D02*
Y106812D01*
X322443Y78288D02*
X325491D01*
X323967Y76764D02*
Y79812D01*
X208443Y266288D02*
X211491D01*
X209967Y264764D02*
Y267812D01*
X209443Y303288D02*
X212491D01*
X210967Y301764D02*
Y304812D01*
X215443Y332288D02*
X218491D01*
X216967Y330764D02*
Y333812D01*
X259443Y298288D02*
X262491D01*
X260967Y296764D02*
Y299812D01*
X294443Y307288D02*
X297491D01*
X295967Y305764D02*
Y308812D01*
X296443Y219288D02*
X299491D01*
X297967Y217764D02*
Y220812D01*
X318443Y449288D02*
X321491D01*
X319967Y447764D02*
Y450812D01*
X341443Y471288D02*
X344491D01*
X342967Y469764D02*
Y472812D01*
X85443Y266288D02*
X88491D01*
X86967Y264764D02*
Y267812D01*
X461443Y325288D02*
X464491D01*
X462967Y323764D02*
Y326812D01*
X499443Y320288D02*
X502491D01*
X500967Y318764D02*
Y321812D01*
X465443Y295288D02*
X468491D01*
X466967Y293764D02*
Y296812D01*
X324443Y140288D02*
X327491D01*
X325967Y138764D02*
Y141812D01*
X325443Y240288D02*
X328491D01*
X326967Y238764D02*
Y241812D01*
X353443Y192288D02*
X356491D01*
X354967Y190764D02*
Y193812D01*
X424443Y182288D02*
X427491D01*
X425967Y180764D02*
Y183812D01*
X533443Y194288D02*
X536491D01*
X534967Y192764D02*
Y195812D01*
X501443Y228288D02*
X504491D01*
X502967Y226764D02*
Y229812D01*
X558443Y256288D02*
X561491D01*
X559967Y254764D02*
Y257812D01*
X561443Y199288D02*
X564491D01*
X562967Y197764D02*
Y200812D01*
X449443Y519288D02*
X452491D01*
X450967Y517764D02*
Y520812D01*
X494443Y523288D02*
X497491D01*
X495967Y521764D02*
Y524812D01*
X558443Y515288D02*
X561491D01*
X559967Y513764D02*
Y516812D01*
X567443Y481288D02*
X570491D01*
X568967Y479764D02*
Y482812D01*
X533443Y480288D02*
X536491D01*
X534967Y478764D02*
Y481812D01*
X487443Y474288D02*
X490491D01*
X488967Y472764D02*
Y475812D01*
X466443Y432288D02*
X469491D01*
X467967Y430764D02*
Y433812D01*
X627443Y464288D02*
X630491D01*
X628967Y462764D02*
Y465812D01*
X594443Y478288D02*
X597491D01*
X595967Y476764D02*
Y479812D01*
X537443Y381288D02*
X540491D01*
X538967Y379764D02*
Y382812D01*
X533443Y315288D02*
X536491D01*
X534967Y313764D02*
Y316812D01*
X600443Y306288D02*
X603491D01*
X601967Y304764D02*
Y307812D01*
X601443Y222288D02*
X604491D01*
X602967Y220764D02*
Y223812D01*
X698443Y255288D02*
X701491D01*
X699967Y253764D02*
Y256812D01*
X536443Y158288D02*
X539491D01*
X537967Y156764D02*
Y159812D01*
X478443Y119288D02*
X481491D01*
X479967Y117764D02*
Y120812D01*
X596443Y175288D02*
X599491D01*
X597967Y173764D02*
Y176812D01*
X412443Y149288D02*
X415491D01*
X413967Y147764D02*
Y150812D01*
X624443Y173288D02*
X627491D01*
X625967Y171764D02*
Y174812D01*
X660443Y179288D02*
X663491D01*
X661967Y177764D02*
Y180812D01*
X694443Y198288D02*
X697491D01*
X695967Y196764D02*
Y199812D01*
X752443Y202288D02*
X755491D01*
X753967Y200764D02*
Y203812D01*
X762443Y284288D02*
X765491D01*
X763967Y282764D02*
Y285812D01*
X734443Y217288D02*
X737491D01*
X735967Y215764D02*
Y218812D01*
X714443Y275288D02*
X717491D01*
X715967Y273764D02*
Y276812D01*
X782443Y180288D02*
X785491D01*
X783967Y178764D02*
Y181812D01*
X760443Y142288D02*
X763491D01*
X761967Y140764D02*
Y143812D01*
X756443Y124288D02*
X759491D01*
X757967Y122764D02*
Y125812D01*
X705443Y374288D02*
X708491D01*
X706967Y372764D02*
Y375812D01*
X721443Y387288D02*
X724491D01*
X722967Y385764D02*
Y388812D01*
X763443Y383288D02*
X766491D01*
X764967Y381764D02*
Y384812D01*
X801443Y325288D02*
X804491D01*
X802967Y323764D02*
Y326812D01*
X785443Y320288D02*
X788491D01*
X786967Y318764D02*
Y321812D01*
X745443Y321288D02*
X748491D01*
X746967Y319764D02*
Y322812D01*
X689443Y321288D02*
X692491D01*
X690967Y319764D02*
Y322812D01*
X734443Y423288D02*
X737491D01*
X735967Y421764D02*
Y424812D01*
X679443Y491288D02*
X682491D01*
X680967Y489764D02*
Y492812D01*
X767443Y496288D02*
X770491D01*
X768967Y494764D02*
Y497812D01*
X589443Y349288D02*
X592491D01*
X590967Y347764D02*
Y350812D01*
X565443Y348288D02*
X568491D01*
X566967Y346764D02*
Y349812D01*
X815441Y132287D02*
X818489D01*
X816965Y130763D02*
Y133811D01*
M02*
