G04 Layer_Color=16711935*
%FSLAX44Y44*%
%MOMM*%
G71*
G01*
G75*
%ADD17C,0.3000*%
%ADD91C,0.2540*%
D17*
X615609Y110026D02*
G03*
X621919Y104034I6000J0D01*
G01*
X621299Y121308D02*
G03*
X615609Y115316I310J-5992D01*
G01*
X632939Y115591D02*
G03*
X626630Y121583I-6000J0D01*
G01*
X627249Y104310D02*
G03*
X632939Y110302I-310J5992D01*
G01*
X831287Y555416D02*
G03*
X826029Y560409I-5000J0D01*
G01*
X779909Y579518D02*
G03*
X774587Y584508I-5000J0D01*
G01*
X774587Y584511D02*
G03*
X324072Y537446I368530J-5707399D01*
G01*
X779909Y579085D02*
G03*
X800942Y559112I20000J0D01*
G01*
X831287Y133071D02*
G03*
X820548Y115344I9261J-17727D01*
G01*
X781937Y548847D02*
G03*
X777562Y554622I-6000J0D01*
G01*
D02*
G03*
X775627Y554838I-1626J-5776D01*
G01*
X406323Y499950D02*
G03*
X412013Y505942I-310J5992D01*
G01*
X394682Y505666D02*
G03*
X400992Y499674I6000J0D01*
G01*
X400372Y516948D02*
G03*
X394682Y510956I310J-5992D01*
G01*
X412013Y511232D02*
G03*
X405703Y517224I-6000J0D01*
G01*
X764606Y543281D02*
G03*
X770916Y537289I6000J0D01*
G01*
X770296Y554563D02*
G03*
X764606Y548571I310J-5992D01*
G01*
X776246Y537564D02*
G03*
X781937Y543556I-310J5992D01*
G01*
X324074Y537454D02*
G03*
X192601Y504643I97084J-668836D01*
G01*
X192599Y504647D02*
G03*
X185976Y495234I3377J-9413D01*
G01*
X177139Y417589D02*
G03*
X185976Y439667I-23164J22078D01*
G01*
X116536Y366696D02*
G03*
X138047Y376575I-1653J31957D01*
G01*
X87295Y365183D02*
G03*
X79140Y360178I516J-9987D01*
G01*
X140488Y134893D02*
G03*
X147208Y132750I6203J7843D01*
G01*
X242492Y102927D02*
G03*
X207788Y135883I-33000J0D01*
G01*
X242492Y41945D02*
G03*
X253817Y32034I10000J0D01*
G01*
X621918Y104034D02*
X627249Y104310D01*
X615609Y110026D02*
Y115316D01*
X621299Y121308D02*
X626630Y121583D01*
X632939Y110302D02*
Y115591D01*
X800942Y559112D02*
X826029Y560409D01*
X831287Y133071D02*
Y555416D01*
X779909Y579085D02*
Y579518D01*
X400992Y499674D02*
X406323Y499950D01*
X820548Y84037D02*
Y115344D01*
X394682Y505666D02*
Y510956D01*
X400372Y516948D02*
X405703Y517224D01*
X412013Y505942D02*
Y511232D01*
X770916Y537289D02*
X776246Y537564D01*
X764606Y543281D02*
Y548571D01*
X770296Y554563D02*
X775627Y554838D01*
X781936Y543556D02*
Y548847D01*
X185976Y439667D02*
Y495234D01*
X138047Y376575D02*
X177139Y417589D01*
X87295Y365183D02*
X116536Y366696D01*
X76700Y355897D02*
X79140Y360178D01*
X73546Y350257D02*
X76700Y355897D01*
X70440Y344583D02*
X73546Y350257D01*
X67382Y338873D02*
X70440Y344583D01*
X63976Y332360D02*
X67382Y338873D01*
X60637Y325807D02*
X63976Y332360D01*
X57375Y319226D02*
X60637Y325807D01*
X55695Y315758D02*
X57375Y319226D01*
X54043Y312289D02*
X55695Y315758D01*
X52579Y309161D02*
X54043Y312289D01*
X51142Y306036D02*
X52579Y309161D01*
X49171Y301649D02*
X51142Y306036D01*
X47266Y297278D02*
X49171Y301649D01*
X45436Y292928D02*
X47266Y297278D01*
X43953Y289270D02*
X45436Y292928D01*
X42537Y285636D02*
X43953Y289270D01*
X41196Y282030D02*
X42537Y285636D01*
X39938Y278463D02*
X41196Y282030D01*
X38720Y274771D02*
X39938Y278463D01*
X38139Y272900D02*
X38720Y274771D01*
X37593Y271055D02*
X38139Y272900D01*
X37112Y269341D02*
X37593Y271055D01*
X36665Y267656D02*
X37112Y269341D01*
X36079Y265265D02*
X36665Y267656D01*
X35575Y262957D02*
X36079Y265265D01*
X35158Y260749D02*
X35575Y262957D01*
X34831Y258653D02*
X35158Y260749D01*
X34581Y256567D02*
X34831Y258653D01*
X34430Y254621D02*
X34581Y256567D01*
X34376Y252808D02*
X34430Y254621D01*
X34376Y252808D02*
X34393Y251633D01*
X34455Y250503D01*
X34562Y249406D01*
X34717Y248326D01*
X35010Y246850D01*
X35405Y245343D01*
X35909Y243775D01*
X36533Y242120D01*
X37351Y240213D01*
X38316Y238202D01*
X39422Y236100D01*
X40667Y233915D01*
X42042Y231660D01*
X42957Y230231D01*
X43917Y228781D01*
X44936Y227292D01*
X45996Y225787D01*
X48213Y222766D01*
X49640Y220895D01*
X51110Y219019D01*
X52618Y217142D01*
X54158Y215268D01*
X55729Y213396D01*
X57327Y211529D01*
X60597Y207810D01*
X62705Y205475D01*
X64843Y203150D01*
X67035Y200808D01*
X69253Y198476D01*
X73736Y193866D01*
X78304Y189291D01*
X80992Y186648D01*
X83702Y184018D01*
X86608Y181235D01*
X89532Y178469D01*
X95247Y173156D01*
X101011Y167917D01*
X106814Y162756D01*
X112361Y157927D01*
X117942Y153168D01*
X123566Y148474D01*
X129244Y143835D01*
X134991Y139241D01*
X140488Y134893D01*
X147208Y132750D02*
X207788Y135882D01*
X242492Y41945D02*
Y102927D01*
X253817Y32034D02*
X712001Y93306D01*
X721338Y78906D01*
X820548Y84037D01*
X474705Y1425161D02*
G03*
X469015Y1431153I-6000J0D01*
G01*
X468396Y1413879D02*
G03*
X474705Y1419871I310J5992D01*
G01*
X457375Y1420147D02*
G03*
X463065Y1414155I6000J0D01*
G01*
X247469Y1018239D02*
G03*
X253779Y1024230I310J5992D01*
G01*
X236448Y1024506D02*
G03*
X242138Y1018514I6000J0D01*
G01*
X242758Y1035788D02*
G03*
X236448Y1029796I-310J-5992D01*
G01*
X253779Y1029520D02*
G03*
X248089Y1035512I-6000J0D01*
G01*
X98472Y1451493D02*
G03*
X104782Y1457485I310J5992D01*
G01*
X87451Y1457761D02*
G03*
X93141Y1451769I6000J0D01*
G01*
X93761Y1469043D02*
G03*
X87451Y1463051I-310J-5992D01*
G01*
X104782Y1462775D02*
G03*
X99091Y1468767I-6000J0D01*
G01*
X731340Y1290779D02*
G03*
X752851Y1280900I23164J22078D01*
G01*
X661600Y1050087D02*
G03*
X626895Y1017131I-1704J-32956D01*
G01*
X48839Y1029549D02*
G03*
X38100Y1047276I-20000J0D01*
G01*
X48616Y1480286D02*
G03*
X38100Y1470299I-516J-9987D01*
G01*
X722179Y1046954D02*
G03*
X728899Y1049098I516J9987D01*
G01*
X615570Y946238D02*
G03*
X626895Y956150I1326J9912D01*
G01*
X790247Y1274383D02*
G03*
X782093Y1279388I-8671J-4981D01*
G01*
X676787Y1418848D02*
G03*
X545317Y1451658I-228558J-636025D01*
G01*
X683412Y1409439D02*
G03*
X676789Y1418852I-10000J0D01*
G01*
X545316Y1451651D02*
G03*
X101477Y1498281I-819147J-5661244D01*
G01*
X68367Y1479264D02*
G03*
X91918Y1492851I1291J24967D01*
G01*
X101477Y1498278D02*
G03*
X91918Y1492851I-655J-9979D01*
G01*
X683412Y1353872D02*
G03*
X692248Y1331794I32000J0D01*
G01*
X463684Y1431429D02*
G03*
X457375Y1425437I-310J-5992D01*
G01*
X163659Y1006672D02*
G03*
X153943Y1002200I-1326J-9912D01*
G01*
X463685Y1431429D02*
X469015Y1431153D01*
X474705Y1419871D02*
Y1425161D01*
X463065Y1414155D02*
X468396Y1413879D01*
X253779Y1024230D02*
Y1029520D01*
X242138Y1018514D02*
X247469Y1018239D01*
X236448Y1024506D02*
Y1029796D01*
X242758Y1035788D02*
X248089Y1035512D01*
X104782Y1457485D02*
Y1462775D01*
X93141Y1451769D02*
X98472Y1451493D01*
X87451Y1457761D02*
Y1463051D01*
X93761Y1469043D02*
X99091Y1468767D01*
X48839Y998242D02*
X148049Y993111D01*
X48839Y998242D02*
Y1029549D01*
X38100Y1047276D02*
Y1470299D01*
X48616Y1480286D02*
X68367Y1479264D01*
X728899Y1049098D02*
X734396Y1053445D01*
X661600Y1050087D02*
X722179Y1046954D01*
X626895Y956150D02*
Y1017131D01*
X734396Y1053445D02*
X740144Y1058040D01*
X745821Y1062678D01*
X751445Y1067373D01*
X757027Y1072132D01*
X762573Y1076960D01*
X768376Y1082121D01*
X774140Y1087361D01*
X779856Y1092674D01*
X782780Y1095440D01*
X785685Y1098223D01*
X788395Y1100853D01*
X791084Y1103495D01*
X795651Y1108071D01*
X800134Y1112681D01*
X802352Y1115013D01*
X804544Y1117355D01*
X806683Y1119680D01*
X808791Y1122015D01*
X812060Y1125734D01*
X813658Y1127601D01*
X815229Y1129472D01*
X816770Y1131347D01*
X818277Y1133223D01*
X819747Y1135099D01*
X821175Y1136970D01*
X823391Y1139991D01*
X824451Y1141496D01*
X825470Y1142986D01*
X826430Y1144435D01*
X827346Y1145864D01*
X828721Y1148120D01*
X829965Y1150304D01*
X831072Y1152407D01*
X832036Y1154417D01*
X832855Y1156325D01*
X833478Y1157980D01*
X833982Y1159548D01*
X834377Y1161054D01*
X834670Y1162531D01*
X834825Y1163611D01*
X834933Y1164708D01*
X834995Y1165838D01*
X835012Y1167012D01*
X834957Y1168826D02*
X835012Y1167012D01*
X834806Y1170772D02*
X834957Y1168826D01*
X834557Y1172858D02*
X834806Y1170772D01*
X834229Y1174954D02*
X834557Y1172858D01*
X833812Y1177162D02*
X834229Y1174954D01*
X833308Y1179470D02*
X833812Y1177162D01*
X832723Y1181861D02*
X833308Y1179470D01*
X832276Y1183545D02*
X832723Y1181861D01*
X831794Y1185259D02*
X832276Y1183545D01*
X831248Y1187105D02*
X831794Y1185259D01*
X830668Y1188975D02*
X831248Y1187105D01*
X829449Y1192668D02*
X830668Y1188975D01*
X828192Y1196235D02*
X829449Y1192668D01*
X826850Y1199840D02*
X828192Y1196235D01*
X825434Y1203475D02*
X826850Y1199840D01*
X823951Y1207133D02*
X825434Y1203475D01*
X822121Y1211483D02*
X823951Y1207133D01*
X820216Y1215854D02*
X822121Y1211483D01*
X818246Y1220240D02*
X820216Y1215854D01*
X816808Y1223366D02*
X818246Y1220240D01*
X815344Y1226494D02*
X816808Y1223366D01*
X813692Y1229963D02*
X815344Y1226494D01*
X812012Y1233430D02*
X813692Y1229963D01*
X808751Y1240012D02*
X812012Y1233430D01*
X805412Y1246564D02*
X808751Y1240012D01*
X802005Y1253078D02*
X805412Y1246564D01*
X798947Y1258788D02*
X802005Y1253078D01*
X795842Y1264462D02*
X798947Y1258788D01*
X792687Y1270102D02*
X795842Y1264462D01*
X790247Y1274383D02*
X792687Y1270102D01*
X752851Y1280900D02*
X782093Y1279388D01*
X683412Y1353872D02*
Y1409439D01*
X434937Y970394D02*
X615570Y946238D01*
X692248Y1331794D02*
X731340Y1290779D01*
X457375Y1420147D02*
Y1425437D01*
X340044Y983084D02*
X345735Y1024708D01*
X434937Y970394D02*
X440537Y1011352D01*
X345735Y1024708D02*
X440537Y1011352D01*
X163659Y1006672D02*
X340044Y983084D01*
X148049Y993111D02*
X153943Y1002200D01*
X687270Y663530D02*
G03*
X653020Y629280I0J-34250D01*
G01*
X128270Y717466D02*
G03*
X145467Y679731I50000J0D01*
G01*
Y836829D02*
G03*
X128270Y799094I32803J-37736D01*
G01*
X171581Y853030D02*
G03*
X158460Y848124I0J-20000D01*
G01*
X243270Y853030D02*
G03*
X277520Y887280I0J34250D01*
G01*
X802270Y799094D02*
G03*
X785073Y836829I-50000J0D01*
G01*
Y679731D02*
G03*
X802270Y717466I-32803J37736D01*
G01*
X758958Y663530D02*
G03*
X772079Y668436I0J20000D01*
G01*
X212511Y621450D02*
G03*
X258435Y604280I45924J52830D01*
G01*
X718029Y895110D02*
G03*
X672105Y912280I-45924J-52830D01*
G01*
X287520D02*
G03*
X277520Y902280I0J-10000D01*
G01*
X643020Y604280D02*
G03*
X653020Y614280I0J10000D01*
G01*
X128270Y798545D02*
G03*
X133270Y793545I5000J0D01*
G01*
Y723015D02*
G03*
X128270Y718015I0J-5000D01*
G01*
X148770Y788545D02*
G03*
X143770Y793545I-5000J0D01*
G01*
Y723015D02*
G03*
X148770Y728015I0J5000D01*
G01*
X687270Y663530D02*
X758958D01*
X600270Y589280D02*
X611865Y604280D01*
X567770Y589280D02*
X600270D01*
X458270D02*
X567770D01*
X362770D02*
X458270D01*
X330270D02*
X362770D01*
X318675Y604280D02*
X330270Y589280D01*
X145467Y836829D02*
X158460Y848124D01*
X171581Y853030D02*
X243270D01*
X330270Y927280D02*
X465270D01*
X600270D01*
X611865Y912280D01*
X802270Y758280D02*
Y799094D01*
Y717466D02*
Y758280D01*
X772079Y668436D02*
X785073Y679731D01*
X258435Y604280D02*
X318675D01*
X145467Y679731D02*
X212511Y621450D01*
X611865Y912280D02*
X672105D01*
X718029Y895110D02*
X785073Y836829D01*
X277520Y887280D02*
Y902280D01*
X653020Y614280D02*
Y629280D01*
X611865Y604280D02*
X643020D01*
X128270Y798545D02*
Y799094D01*
Y717466D02*
Y718015D01*
X148770Y758280D02*
Y788545D01*
X133270Y793545D02*
X143770D01*
X133270Y723015D02*
X143770D01*
X148770Y728015D02*
Y758280D01*
X287520Y912280D02*
X318675D01*
X330270Y927280D01*
D91*
X0Y0D02*
Y1527810D01*
X873760D01*
Y0D02*
Y1527810D01*
X0Y0D02*
X873760D01*
M02*
