G04 Layer_Color=36540*
%FSLAX44Y44*%
%MOMM*%
G71*
G01*
G75*
%ADD40C,0.6096*%
G04:AMPARAMS|DCode=41|XSize=1.716mm|YSize=0.858mm|CornerRadius=0mm|HoleSize=0mm|Usage=FLASHONLY|Rotation=352.000|XOffset=0mm|YOffset=0mm|HoleType=Round|Shape=Round|*
%AMOVALD41*
21,1,0.8580,0.8580,0.0000,0.0000,352.0*
1,1,0.8580,-0.4248,0.0597*
1,1,0.8580,0.4248,-0.0597*
%
%ADD41OVALD41*%

G04:AMPARAMS|DCode=42|XSize=2.016mm|YSize=1.008mm|CornerRadius=0mm|HoleSize=0mm|Usage=FLASHONLY|Rotation=82.000|XOffset=0mm|YOffset=0mm|HoleType=Round|Shape=Round|*
%AMOVALD42*
21,1,1.0080,1.0080,0.0000,0.0000,82.0*
1,1,1.0080,-0.0701,-0.4991*
1,1,1.0080,0.0701,0.4991*
%
%ADD42OVALD42*%

G04:AMPARAMS|DCode=43|XSize=2.2mm|YSize=1.1mm|CornerRadius=0mm|HoleSize=0mm|Usage=FLASHONLY|Rotation=82.000|XOffset=0mm|YOffset=0mm|HoleType=Round|Shape=Round|*
%AMOVALD43*
21,1,1.1000,1.1000,0.0000,0.0000,82.0*
1,1,1.1000,-0.0766,-0.5446*
1,1,1.1000,0.0766,0.5446*
%
%ADD43OVALD43*%

%ADD46C,1.0000*%
G36*
X106453Y1495446D02*
X182362Y1489878D01*
X258189Y1483301D01*
X333923Y1475714D01*
X409549Y1467121D01*
X485053Y1457521D01*
X544946Y1449094D01*
X544949Y1449116D01*
X548585Y1448638D01*
X573410Y1444420D01*
X598061Y1439276D01*
X622501Y1433215D01*
X646699Y1426244D01*
X670618Y1418373D01*
X675911Y1416409D01*
X675904Y1416387D01*
X675904Y1416387D01*
X677130Y1415879D01*
X678670Y1414698D01*
X679852Y1413157D01*
X680554Y1411462D01*
X680115Y1410805D01*
X679843Y1409439D01*
Y1353872D01*
X680115Y1352506D01*
X680888Y1351349D01*
X681010Y1351267D01*
X681231Y1348458D01*
X682499Y1343178D01*
X684577Y1338161D01*
X687414Y1333531D01*
X688710Y1332013D01*
X688680Y1331879D01*
X688919Y1330508D01*
X689665Y1329332D01*
X728757Y1288317D01*
X729896Y1287516D01*
X731255Y1287212D01*
X731383Y1287234D01*
X734163Y1284860D01*
X738793Y1282023D01*
X743810Y1279945D01*
X749090Y1278677D01*
X750152Y1278593D01*
X750201Y1278511D01*
X751317Y1277678D01*
X752667Y1277337D01*
X781908Y1275824D01*
X783286Y1276025D01*
X783928Y1276408D01*
X785295Y1275842D01*
X786762Y1274716D01*
X786707Y1273937D01*
X787147Y1272616D01*
X789578Y1268350D01*
X792718Y1262735D01*
X795810Y1257087D01*
X798851Y1251408D01*
X802241Y1244927D01*
X805563Y1238408D01*
X808807Y1231861D01*
X810475Y1228418D01*
X812118Y1224968D01*
X813571Y1221864D01*
X814997Y1218762D01*
X816952Y1214411D01*
X818840Y1210078D01*
X820654Y1205769D01*
X822118Y1202156D01*
X823515Y1198570D01*
X824837Y1195018D01*
X826072Y1191515D01*
X827269Y1187887D01*
X827833Y1186069D01*
X828365Y1184271D01*
X828833Y1182605D01*
X829265Y1180979D01*
X829831Y1178665D01*
X830315Y1176450D01*
X830712Y1174347D01*
X831021Y1172370D01*
X831254Y1170422D01*
X831393Y1168634D01*
X831442Y1166985D01*
X831427Y1165962D01*
X831374Y1164979D01*
X831281Y1164037D01*
X831152Y1163132D01*
X830898Y1161855D01*
X830555Y1160547D01*
X830107Y1159156D01*
X829544Y1157658D01*
X828786Y1155893D01*
X827883Y1154011D01*
X826835Y1152019D01*
X825646Y1149932D01*
X824319Y1147755D01*
X823440Y1146383D01*
X822510Y1144980D01*
X821520Y1143532D01*
X820493Y1142074D01*
X818318Y1139109D01*
X816925Y1137283D01*
X815481Y1135441D01*
X814001Y1133598D01*
X812484Y1131752D01*
X810937Y1129909D01*
X809365Y1128073D01*
X806126Y1124388D01*
X804046Y1122084D01*
X801930Y1119784D01*
X799754Y1117459D01*
X797561Y1115153D01*
X793110Y1110576D01*
X788569Y1106027D01*
X785902Y1103406D01*
X783208Y1100792D01*
X780318Y1098024D01*
X777415Y1095277D01*
X771726Y1089989D01*
X765990Y1084775D01*
X760216Y1079640D01*
X754698Y1074836D01*
X749145Y1070101D01*
X743548Y1065429D01*
X737901Y1060816D01*
X732172Y1056236D01*
X726685Y1051897D01*
X725783Y1050836D01*
X725560Y1050147D01*
X724620Y1049758D01*
X724326Y1049719D01*
X723713Y1050176D01*
X722364Y1050518D01*
X661784Y1053651D01*
X660406Y1053450D01*
X659210Y1052737D01*
X659170Y1052684D01*
X654325Y1052302D01*
X648891Y1050998D01*
X643729Y1048860D01*
X638965Y1045940D01*
X634715Y1042311D01*
X631087Y1038062D01*
X628167Y1033298D01*
X626029Y1028135D01*
X624724Y1022702D01*
X624490Y1019734D01*
X624372Y1019654D01*
X623599Y1018497D01*
X623327Y1017131D01*
Y956150D01*
X623599Y954784D01*
X624038Y954127D01*
X623336Y952432D01*
X622154Y950891D01*
X620614Y949710D01*
X618820Y948967D01*
X617904Y948846D01*
X617361Y949325D01*
X616043Y949775D01*
X454723Y971348D01*
X454056Y972719D01*
X454665Y973752D01*
X455231Y975792D01*
X455819Y979981D01*
X447789Y981109D01*
X447966Y982367D01*
X446708Y982544D01*
X448579Y995855D01*
X447743Y995862D01*
X445693Y995332D01*
X443851Y994290D01*
X442969Y993424D01*
X441770Y994025D01*
X444073Y1010868D01*
X444031Y1011558D01*
X443992Y1012244D01*
X443989Y1012251D01*
X443988Y1012258D01*
X443686Y1012879D01*
X443388Y1013498D01*
X443380Y1013508D01*
X443379Y1013510D01*
X443558Y1014968D01*
X443677Y1015036D01*
X445100Y1016435D01*
X446113Y1018154D01*
X446647Y1020078D01*
X447171Y1023811D01*
X439600Y1024875D01*
X439777Y1026133D01*
X438519Y1026309D01*
X440262Y1038706D01*
X439547Y1038712D01*
X437614Y1038212D01*
X435877Y1037229D01*
X434454Y1035831D01*
X433441Y1034111D01*
X432907Y1032188D01*
X432573Y1029810D01*
X432341Y1029843D01*
X430542Y1029858D01*
X428801Y1029408D01*
X427236Y1028523D01*
X425953Y1027262D01*
X425041Y1025713D01*
X424902Y1025214D01*
X435807Y1023681D01*
X435454Y1021166D01*
X424549Y1022699D01*
X424544Y1022181D01*
X424995Y1020440D01*
X425880Y1018875D01*
X426533Y1018211D01*
X425929Y1017013D01*
X360493Y1026233D01*
X360243Y1027551D01*
X361020Y1027990D01*
X362303Y1029251D01*
X363216Y1030800D01*
X363354Y1031299D01*
X352449Y1032831D01*
X352803Y1035347D01*
X363708Y1033814D01*
X363712Y1034332D01*
X363262Y1036073D01*
X362376Y1037638D01*
X361116Y1038921D01*
X359566Y1039833D01*
X357833Y1040314D01*
X357601Y1040347D01*
X357935Y1042724D01*
X357953Y1044720D01*
X357453Y1046652D01*
X356470Y1048390D01*
X355071Y1049813D01*
X353352Y1050826D01*
X352663Y1051017D01*
X350921Y1038621D01*
X349663Y1038798D01*
X349486Y1037540D01*
X341915Y1038604D01*
X341390Y1034871D01*
X341373Y1032875D01*
X341873Y1030943D01*
X342856Y1029205D01*
X343339Y1028714D01*
X343577Y1027550D01*
X343122Y1027036D01*
X342661Y1026520D01*
X342659Y1026513D01*
X342654Y1026508D01*
X342429Y1025857D01*
X342201Y1025206D01*
X342202Y1025199D01*
X342200Y1025191D01*
X339620Y1006325D01*
X338328Y1006249D01*
X338012Y1007469D01*
X336970Y1009311D01*
X335486Y1010821D01*
X333662Y1011896D01*
X332856Y1012119D01*
X330985Y998808D01*
X329728Y998985D01*
X329551Y997727D01*
X321521Y998855D01*
X320932Y994667D01*
X320914Y992550D01*
X321444Y990500D01*
X321554Y990304D01*
X320843Y989252D01*
X164132Y1010209D01*
X162743Y1010120D01*
X161493Y1009507D01*
X161243Y1009224D01*
X159071Y1008938D01*
X156030Y1007679D01*
X153443Y1005694D01*
X153199Y1005691D01*
X151920Y1005140D01*
X150949Y1004142D01*
X146176Y996781D01*
X52408Y1001630D01*
Y1029549D01*
X52136Y1030915D01*
X51363Y1032073D01*
X51188Y1032189D01*
X51014Y1033960D01*
X49727Y1038201D01*
X47638Y1042110D01*
X44826Y1045536D01*
X41669Y1048127D01*
Y1470299D01*
X41397Y1471665D01*
X40958Y1472322D01*
X41660Y1474017D01*
X42842Y1475558D01*
X44382Y1476739D01*
X46175Y1477482D01*
X46469Y1477521D01*
X47082Y1477064D01*
X48432Y1476722D01*
X68183Y1475701D01*
X69560Y1475901D01*
X70756Y1476614D01*
X70850Y1476740D01*
X73973Y1476986D01*
X78182Y1477996D01*
X82181Y1479653D01*
X85872Y1481914D01*
X89164Y1484725D01*
X91975Y1488017D01*
X94217Y1491676D01*
X94236Y1491666D01*
X94277Y1491765D01*
X94896Y1492688D01*
X95563Y1493558D01*
X97104Y1494740D01*
X98897Y1495483D01*
X100078Y1495638D01*
X101306Y1495672D01*
D01*
X102546Y1495680D01*
X106453Y1495446D01*
D02*
G37*
G36*
X609042Y910098D02*
X609215Y909947D01*
X609342Y909757D01*
X609735Y909494D01*
X610092Y909183D01*
X610309Y909110D01*
X610500Y908983D01*
X610964Y908891D01*
X611412Y908740D01*
X611641Y908756D01*
X611865Y908711D01*
X672105D01*
X672286Y908747D01*
X679548Y908340D01*
X686898Y907091D01*
X694061Y905027D01*
X700465Y902374D01*
X700183Y667099D01*
X687270D01*
Y667147D01*
X681346Y666681D01*
X675568Y665293D01*
X670079Y663019D01*
X665012Y659915D01*
X660494Y656056D01*
X656635Y651537D01*
X653530Y646471D01*
X651256Y640981D01*
X649869Y635204D01*
X649403Y629280D01*
X649451D01*
Y614280D01*
X649485Y614113D01*
X649023Y611793D01*
X647615Y609685D01*
X645507Y608277D01*
X643187Y607815D01*
X643020Y607849D01*
X611865D01*
X611641Y607804D01*
X611412Y607820D01*
X610964Y607669D01*
X610500Y607577D01*
X610309Y607450D01*
X610092Y607377D01*
X609735Y607066D01*
X609342Y606803D01*
X609215Y606613D01*
X609042Y606463D01*
X598518Y592849D01*
X332022D01*
X321498Y606463D01*
X321325Y606613D01*
X321198Y606803D01*
X320804Y607066D01*
X320448Y607377D01*
X320231Y607450D01*
X320040Y607577D01*
X319576Y607669D01*
X319128Y607820D01*
X318899Y607804D01*
X318675Y607849D01*
X258435D01*
X258254Y607813D01*
X250992Y608220D01*
X243642Y609469D01*
X236479Y611533D01*
X229592Y614386D01*
X223067Y617992D01*
X216987Y622306D01*
X214886Y624183D01*
X214852Y624144D01*
X147808Y682424D01*
X147846Y682468D01*
X145409Y684605D01*
X141401Y689176D01*
X138024Y694230D01*
X135335Y699682D01*
X133381Y705438D01*
X132195Y711400D01*
X131808Y717311D01*
X131839Y717466D01*
Y718015D01*
X131821Y718104D01*
X132219Y719066D01*
X133181Y719464D01*
X133270Y719446D01*
X143770D01*
Y719442D01*
X145989Y719734D01*
X148056Y720590D01*
X149832Y721953D01*
X151195Y723728D01*
X152051Y725796D01*
X152343Y728015D01*
X152338D01*
Y758280D01*
Y788545D01*
X152343D01*
X152051Y790764D01*
X151195Y792832D01*
X149832Y794607D01*
X148056Y795970D01*
X145989Y796826D01*
X143770Y797118D01*
Y797113D01*
X133270D01*
X133181Y797096D01*
X132219Y797494D01*
X131821Y798456D01*
X131839Y798545D01*
Y799094D01*
X131808Y799249D01*
X132195Y805160D01*
X133381Y811122D01*
X135335Y816878D01*
X138024Y822330D01*
X141401Y827384D01*
X145409Y831955D01*
X147846Y834092D01*
X147808Y834136D01*
X160802Y845431D01*
X160835Y845392D01*
X162441Y846710D01*
X165285Y848230D01*
X168372Y849166D01*
X171511Y849475D01*
X171581Y849461D01*
X243270D01*
Y849413D01*
X249194Y849880D01*
X254971Y851267D01*
X260461Y853540D01*
X265527Y856645D01*
X270046Y860504D01*
X273905Y865023D01*
X277010Y870089D01*
X279283Y875579D01*
X280671Y881356D01*
X281137Y887280D01*
X281089D01*
X281088Y887281D01*
Y902280D01*
X281055Y902447D01*
X281517Y904767D01*
X282925Y906875D01*
X285033Y908283D01*
X287353Y908745D01*
X287520Y908711D01*
X318675D01*
X318899Y908756D01*
X319128Y908740D01*
X319576Y908891D01*
X320040Y908983D01*
X320231Y909110D01*
X320448Y909183D01*
X320804Y909494D01*
X321198Y909757D01*
X321325Y909947D01*
X321498Y910098D01*
X332022Y923711D01*
X598518D01*
X609042Y910098D01*
D02*
G37*
G36*
X774755Y581907D02*
X774909Y581938D01*
X775835Y581753D01*
X776620Y581229D01*
X777144Y580444D01*
X777172Y580303D01*
X777300Y579085D01*
X777300D01*
X777735Y574675D01*
X779021Y570433D01*
X781111Y566525D01*
X783922Y563098D01*
X787348Y560287D01*
X791257Y558198D01*
X795498Y556911D01*
X799909Y556477D01*
X800973Y556581D01*
X801074Y556567D01*
X826108Y557861D01*
X826163Y557811D01*
Y557811D01*
X827325Y557576D01*
X827998Y557127D01*
X828523Y556342D01*
X828707Y555416D01*
X828738D01*
X828738Y555416D01*
Y134544D01*
X827987Y134143D01*
X824561Y131331D01*
X821750Y127905D01*
X819660Y123996D01*
X818374Y119755D01*
X817939Y115344D01*
X817999D01*
Y86458D01*
X722676Y81528D01*
X714140Y94693D01*
X713836Y95005D01*
X713548Y95331D01*
X713491Y95360D01*
X713446Y95406D01*
X713046Y95578D01*
X712655Y95769D01*
X712591Y95773D01*
X712533Y95799D01*
X712098Y95805D01*
X711663Y95832D01*
X253480Y34560D01*
X253469Y34637D01*
X252492Y34509D01*
X250567Y34762D01*
X248774Y35505D01*
X247233Y36687D01*
X246052Y38227D01*
X245309Y40021D01*
X245055Y41945D01*
X245041D01*
Y102927D01*
X245102D01*
X244663Y108497D01*
X243359Y113931D01*
X241220Y119093D01*
X238301Y123857D01*
X234672Y128106D01*
X230423Y131735D01*
X225658Y134655D01*
X220496Y136793D01*
X215063Y138098D01*
X209492Y138536D01*
X207817Y138405D01*
X207656Y138428D01*
X148345Y135361D01*
X147074Y135350D01*
X147074Y135350D01*
X145850Y135410D01*
X144767Y135553D01*
X143132Y136230D01*
X142118Y136953D01*
X141074Y137680D01*
X136575Y141238D01*
X130846Y145818D01*
X125189Y150440D01*
X119586Y155116D01*
X114023Y159859D01*
X108499Y164668D01*
X102714Y169813D01*
X96973Y175032D01*
X91276Y180328D01*
X88366Y183081D01*
X85471Y185854D01*
X82774Y188471D01*
X80100Y191099D01*
X75552Y195655D01*
X71091Y200242D01*
X68888Y202558D01*
X66710Y204885D01*
X64590Y207190D01*
X62501Y209504D01*
X59253Y213199D01*
X57673Y215045D01*
X56119Y216896D01*
X54596Y218749D01*
X53106Y220604D01*
X51656Y222455D01*
X50254Y224292D01*
X48066Y227275D01*
X47030Y228745D01*
X46033Y230204D01*
X45093Y231622D01*
X44784Y232105D01*
X142967Y330288D01*
X152967Y341288D01*
X169967Y358288D01*
X228967D01*
X241967Y371288D01*
X261967D01*
X285967Y395288D01*
Y422288D01*
X286967Y423288D01*
X334967Y471288D01*
X412198Y546859D01*
X459847Y552917D01*
X535460Y561509D01*
X611182Y569094D01*
X686997Y575671D01*
X762894Y581238D01*
X774752Y581949D01*
X774755Y581907D01*
D02*
G37*
%LPC*%
G36*
X93945Y1472607D02*
X92567Y1472406D01*
X91371Y1471694D01*
X91044Y1471254D01*
X89164Y1470476D01*
X87389Y1469113D01*
X86026Y1467338D01*
X85437Y1465915D01*
X84927Y1465574D01*
X84154Y1464417D01*
X83882Y1463051D01*
Y1457761D01*
X84154Y1456396D01*
X84927Y1455238D01*
X85437Y1454897D01*
X86026Y1453474D01*
X87389Y1451699D01*
X89164Y1450336D01*
X90168Y1449921D01*
X90491Y1449379D01*
X91607Y1448547D01*
X92957Y1448205D01*
X98287Y1447930D01*
X99665Y1448130D01*
X100861Y1448843D01*
X101189Y1449282D01*
X103068Y1450061D01*
X104844Y1451423D01*
X106206Y1453199D01*
X106796Y1454622D01*
X107305Y1454962D01*
X108078Y1456120D01*
X108350Y1457485D01*
Y1462775D01*
X108078Y1464141D01*
X107305Y1465299D01*
X106796Y1465639D01*
X106206Y1467062D01*
X104844Y1468838D01*
X103068Y1470200D01*
X102064Y1470616D01*
X101742Y1471157D01*
X100625Y1471989D01*
X99276Y1472331D01*
X93945Y1472607D01*
D02*
G37*
G36*
X487347Y1424803D02*
X485767Y1424489D01*
X484428Y1423594D01*
X483534Y1422255D01*
X483219Y1420676D01*
X483534Y1419096D01*
X484428Y1417757D01*
X485767Y1416863D01*
X487347Y1416548D01*
X488926Y1416863D01*
X490265Y1417757D01*
X491160Y1419096D01*
X491474Y1420676D01*
X491160Y1422255D01*
X490265Y1423594D01*
X488926Y1424489D01*
X487347Y1424803D01*
D02*
G37*
G36*
X463869Y1434993D02*
X462491Y1434792D01*
X461295Y1434079D01*
X460967Y1433640D01*
X459088Y1432861D01*
X457312Y1431499D01*
X455950Y1429724D01*
X455360Y1428300D01*
X454851Y1427960D01*
X454078Y1426802D01*
X453806Y1425437D01*
Y1420147D01*
X454078Y1418781D01*
X454851Y1417623D01*
X455360Y1417283D01*
X455950Y1415860D01*
X457312Y1414084D01*
X459088Y1412722D01*
X460092Y1412306D01*
X460415Y1411765D01*
X461531Y1410933D01*
X462881Y1410591D01*
X468211Y1410315D01*
X469589Y1410516D01*
X470785Y1411229D01*
X471113Y1411668D01*
X472992Y1412446D01*
X474768Y1413809D01*
X476130Y1415584D01*
X476720Y1417007D01*
X477229Y1417348D01*
X478002Y1418505D01*
X478274Y1419871D01*
Y1425161D01*
X478002Y1426527D01*
X477229Y1427684D01*
X476720Y1428025D01*
X476130Y1429448D01*
X474768Y1431223D01*
X472992Y1432586D01*
X471988Y1433002D01*
X471666Y1433543D01*
X470549Y1434375D01*
X469200Y1434717D01*
X463869Y1434993D01*
D02*
G37*
G36*
X528347Y1410994D02*
X526981Y1410723D01*
X525823Y1409949D01*
X525302Y1409169D01*
X525170Y1409126D01*
X524024D01*
X523891Y1409169D01*
X523370Y1409949D01*
X522212Y1410723D01*
X520847Y1410994D01*
X519481Y1410723D01*
X518323Y1409949D01*
X517550Y1408791D01*
X517278Y1407426D01*
X517550Y1406060D01*
X518323Y1404902D01*
X519481Y1404129D01*
X520847Y1403857D01*
X522212Y1404129D01*
X523370Y1404902D01*
X523891Y1405682D01*
X524024Y1405726D01*
X525170D01*
X525302Y1405682D01*
X525823Y1404902D01*
X526981Y1404129D01*
X528347Y1403857D01*
X529712Y1404129D01*
X530870Y1404902D01*
X531644Y1406060D01*
X531915Y1407426D01*
X531644Y1408791D01*
X530870Y1409949D01*
X529712Y1410723D01*
X528347Y1410994D01*
D02*
G37*
G36*
X91597Y1413803D02*
X90017Y1413489D01*
X88678Y1412594D01*
X87784Y1411255D01*
X87469Y1409676D01*
X87784Y1408096D01*
X88678Y1406757D01*
X90017Y1405863D01*
X91597Y1405548D01*
X93176Y1405863D01*
X94515Y1406757D01*
X95410Y1408096D01*
X95724Y1409676D01*
X95410Y1411255D01*
X94515Y1412594D01*
X93176Y1413489D01*
X91597Y1413803D01*
D02*
G37*
G36*
X524597Y1403494D02*
X523231Y1403223D01*
X522073Y1402449D01*
X521300Y1401291D01*
X521028Y1399926D01*
X521300Y1398560D01*
X522073Y1397402D01*
X523231Y1396629D01*
X524597Y1396357D01*
X525962Y1396629D01*
X527120Y1397402D01*
X527894Y1398560D01*
X528165Y1399926D01*
X527894Y1401291D01*
X527120Y1402449D01*
X525962Y1403223D01*
X524597Y1403494D01*
D02*
G37*
G36*
X528347Y1395994D02*
X526981Y1395723D01*
X525823Y1394949D01*
X525302Y1394169D01*
X525170Y1394126D01*
X524024D01*
X523891Y1394169D01*
X523370Y1394949D01*
X522212Y1395723D01*
X520847Y1395994D01*
X519481Y1395723D01*
X518323Y1394949D01*
X517550Y1393791D01*
X517278Y1392426D01*
X517550Y1391060D01*
X518323Y1389902D01*
X519481Y1389129D01*
X520847Y1388857D01*
X522212Y1389129D01*
X523370Y1389902D01*
X523891Y1390682D01*
X524024Y1390725D01*
X525170D01*
X525302Y1390682D01*
X525823Y1389902D01*
X526981Y1389129D01*
X528347Y1388857D01*
X529712Y1389129D01*
X530870Y1389902D01*
X531644Y1391060D01*
X531915Y1392426D01*
X531644Y1393791D01*
X530870Y1394949D01*
X529712Y1395723D01*
X528347Y1395994D01*
D02*
G37*
G36*
X313347Y1401553D02*
X311767Y1401239D01*
X310428Y1400344D01*
X309534Y1399005D01*
X309219Y1397426D01*
X309534Y1395846D01*
X310428Y1394507D01*
X311767Y1393613D01*
X313347Y1393298D01*
X314926Y1393613D01*
X316265Y1394507D01*
X317160Y1395846D01*
X317474Y1397426D01*
X317160Y1399005D01*
X316265Y1400344D01*
X314926Y1401239D01*
X313347Y1401553D01*
D02*
G37*
G36*
X552097Y1397553D02*
X550517Y1397239D01*
X549178Y1396344D01*
X548284Y1395005D01*
X547970Y1393426D01*
X548284Y1391846D01*
X549178Y1390507D01*
X550517Y1389613D01*
X552097Y1389298D01*
X553676Y1389613D01*
X555015Y1390507D01*
X555910Y1391846D01*
X556224Y1393426D01*
X555910Y1395005D01*
X555015Y1396344D01*
X553676Y1397239D01*
X552097Y1397553D01*
D02*
G37*
G36*
X179847Y1377303D02*
X178267Y1376989D01*
X176928Y1376094D01*
X176034Y1374755D01*
X175720Y1373176D01*
X176034Y1371596D01*
X176928Y1370257D01*
X178267Y1369363D01*
X179847Y1369048D01*
X181426Y1369363D01*
X182765Y1370257D01*
X183660Y1371596D01*
X183974Y1373176D01*
X183660Y1374755D01*
X182765Y1376094D01*
X181426Y1376989D01*
X179847Y1377303D01*
D02*
G37*
G36*
X312597Y1373553D02*
X311017Y1373239D01*
X309678Y1372344D01*
X308784Y1371005D01*
X308470Y1369426D01*
X308784Y1367846D01*
X309678Y1366507D01*
X311017Y1365613D01*
X312597Y1365298D01*
X314176Y1365613D01*
X315515Y1366507D01*
X316410Y1367846D01*
X316724Y1369426D01*
X316410Y1371005D01*
X315515Y1372344D01*
X314176Y1373239D01*
X312597Y1373553D01*
D02*
G37*
G36*
X459597Y1359803D02*
X458017Y1359489D01*
X456678Y1358594D01*
X455784Y1357255D01*
X455469Y1355676D01*
X455784Y1354096D01*
X456678Y1352757D01*
X458017Y1351863D01*
X459597Y1351548D01*
X461176Y1351863D01*
X462515Y1352757D01*
X463410Y1354096D01*
X463724Y1355676D01*
X463410Y1357255D01*
X462515Y1358594D01*
X461176Y1359489D01*
X459597Y1359803D01*
D02*
G37*
G36*
X653347Y1360803D02*
X651767Y1360489D01*
X650428Y1359594D01*
X649534Y1358255D01*
X649220Y1356676D01*
X649534Y1355096D01*
X650428Y1353757D01*
X651767Y1352863D01*
X653347Y1352548D01*
X654315Y1351446D01*
X654534Y1350346D01*
X655428Y1349007D01*
X656767Y1348113D01*
X656970Y1348072D01*
X657555Y1346661D01*
X657284Y1346255D01*
X656970Y1344676D01*
X657284Y1343096D01*
X658178Y1341757D01*
X659517Y1340863D01*
X661097Y1340548D01*
X662676Y1340863D01*
X664015Y1341757D01*
X664910Y1343096D01*
X665224Y1344676D01*
X664910Y1346255D01*
X664015Y1347594D01*
X662676Y1348489D01*
X662473Y1348529D01*
X661889Y1349940D01*
X662160Y1350346D01*
X662474Y1351926D01*
X662160Y1353505D01*
X661265Y1354844D01*
X659926Y1355739D01*
X658347Y1356053D01*
X657379Y1357155D01*
X657160Y1358255D01*
X656265Y1359594D01*
X654926Y1360489D01*
X653347Y1360803D01*
D02*
G37*
G36*
X264347Y1313803D02*
X262767Y1313489D01*
X261428Y1312594D01*
X260534Y1311255D01*
X260219Y1309676D01*
X260534Y1308096D01*
X261428Y1306757D01*
X262767Y1305863D01*
X264347Y1305548D01*
X265926Y1305863D01*
X267265Y1306757D01*
X268160Y1308096D01*
X268474Y1309676D01*
X268160Y1311255D01*
X267265Y1312594D01*
X265926Y1313489D01*
X264347Y1313803D01*
D02*
G37*
G36*
X139222Y1307678D02*
X137642Y1307364D01*
X136303Y1306469D01*
X135409Y1305130D01*
X135094Y1303551D01*
X135409Y1301971D01*
X136303Y1300632D01*
X137642Y1299738D01*
X139222Y1299423D01*
X140801Y1299738D01*
X142140Y1300632D01*
X143035Y1301971D01*
X143349Y1303551D01*
X143035Y1305130D01*
X142140Y1306469D01*
X140801Y1307364D01*
X139222Y1307678D01*
D02*
G37*
G36*
X110347Y1304053D02*
X108767Y1303739D01*
X107428Y1302844D01*
X106534Y1301505D01*
X106219Y1299926D01*
X106534Y1298346D01*
X107428Y1297007D01*
X108767Y1296113D01*
X110347Y1295798D01*
X111926Y1296113D01*
X113265Y1297007D01*
X114160Y1298346D01*
X114474Y1299926D01*
X114160Y1301505D01*
X113265Y1302844D01*
X111926Y1303739D01*
X110347Y1304053D01*
D02*
G37*
G36*
X198847Y1303303D02*
X197267Y1302989D01*
X195928Y1302094D01*
X195034Y1300755D01*
X194719Y1299176D01*
X195034Y1297596D01*
X195928Y1296257D01*
X197267Y1295363D01*
X198847Y1295048D01*
X200426Y1295363D01*
X201765Y1296257D01*
X202660Y1297596D01*
X202974Y1299176D01*
X202660Y1300755D01*
X201765Y1302094D01*
X200426Y1302989D01*
X198847Y1303303D01*
D02*
G37*
G36*
X419347Y1266803D02*
X417767Y1266489D01*
X416428Y1265594D01*
X415534Y1264255D01*
X415219Y1262676D01*
X415534Y1261096D01*
X416428Y1259757D01*
X417767Y1258863D01*
X419347Y1258548D01*
X420926Y1258863D01*
X422265Y1259757D01*
X423160Y1261096D01*
X423474Y1262676D01*
X423160Y1264255D01*
X422265Y1265594D01*
X420926Y1266489D01*
X419347Y1266803D01*
D02*
G37*
G36*
X399097Y1258553D02*
X397517Y1258239D01*
X396178Y1257344D01*
X395332Y1256077D01*
X395062Y1255789D01*
X394083Y1255384D01*
X393926Y1255489D01*
X392347Y1255803D01*
X390767Y1255489D01*
X389428Y1254594D01*
X388534Y1253255D01*
X388219Y1251676D01*
X388534Y1250096D01*
X389428Y1248757D01*
X389928Y1248423D01*
X389978Y1248248D01*
X389841Y1246954D01*
X388928Y1246344D01*
X388034Y1245005D01*
X387719Y1243426D01*
X388034Y1241846D01*
X388928Y1240507D01*
X390267Y1239613D01*
X391847Y1239298D01*
X393426Y1239613D01*
X394670Y1238916D01*
X394784Y1238346D01*
X395678Y1237007D01*
X397017Y1236113D01*
X398597Y1235798D01*
X400176Y1236113D01*
X401515Y1237007D01*
X402410Y1238346D01*
X402724Y1239926D01*
X402410Y1241505D01*
X401515Y1242844D01*
Y1244007D01*
X402410Y1245346D01*
X402724Y1246926D01*
X402410Y1248505D01*
X401515Y1249844D01*
X401664Y1251272D01*
X402015Y1251507D01*
X402910Y1252846D01*
X403224Y1254426D01*
X402910Y1256005D01*
X402015Y1257344D01*
X400676Y1258239D01*
X399097Y1258553D01*
D02*
G37*
G36*
X452904Y1263339D02*
X451324Y1263024D01*
X449985Y1262130D01*
X449091Y1260791D01*
X448776Y1259211D01*
X449091Y1257632D01*
X449985Y1256293D01*
X451324Y1255398D01*
X452904Y1255084D01*
X454483Y1255398D01*
X455822Y1256293D01*
X456717Y1257632D01*
X457031Y1259211D01*
X456717Y1260791D01*
X455822Y1262130D01*
X454483Y1263024D01*
X452904Y1263339D01*
D02*
G37*
G36*
X212597Y1241053D02*
X211017Y1240739D01*
X209678Y1239844D01*
X208784Y1238505D01*
X208470Y1236926D01*
X208784Y1235346D01*
X209678Y1234007D01*
X211017Y1233113D01*
X212597Y1232798D01*
X214176Y1233113D01*
X215515Y1234007D01*
X216410Y1235346D01*
X216724Y1236926D01*
X216410Y1238505D01*
X215515Y1239844D01*
X214176Y1240739D01*
X212597Y1241053D01*
D02*
G37*
G36*
X487847Y1240803D02*
X486267Y1240489D01*
X484928Y1239594D01*
X484034Y1238255D01*
X483719Y1236676D01*
X484034Y1235096D01*
X484928Y1233757D01*
X486267Y1232863D01*
X487847Y1232548D01*
X489426Y1232863D01*
X490765Y1233757D01*
X491660Y1235096D01*
X491974Y1236676D01*
X491660Y1238255D01*
X490765Y1239594D01*
X489426Y1240489D01*
X487847Y1240803D01*
D02*
G37*
G36*
X197847Y1225053D02*
X196267Y1224739D01*
X194928Y1223844D01*
X194034Y1222505D01*
X193720Y1220926D01*
X194034Y1219346D01*
X194928Y1218007D01*
X196267Y1217113D01*
X197847Y1216798D01*
X198670Y1215667D01*
X198784Y1215096D01*
X199678Y1213757D01*
X201017Y1212863D01*
X202597Y1212548D01*
X204176Y1212863D01*
X205515Y1213757D01*
X206410Y1215096D01*
X206724Y1216676D01*
X206410Y1218255D01*
X205515Y1219594D01*
X204176Y1220489D01*
X202597Y1220803D01*
X201773Y1221934D01*
X201660Y1222505D01*
X200765Y1223844D01*
X199426Y1224739D01*
X197847Y1225053D01*
D02*
G37*
G36*
X543097Y1220053D02*
X541517Y1219739D01*
X540178Y1218844D01*
X539284Y1217505D01*
X538969Y1215926D01*
X539284Y1214346D01*
X540178Y1213007D01*
X541517Y1212113D01*
X543097Y1211798D01*
X544676Y1212113D01*
X546015Y1213007D01*
X546910Y1214346D01*
X547224Y1215926D01*
X546910Y1217505D01*
X546015Y1218844D01*
X544676Y1219739D01*
X543097Y1220053D01*
D02*
G37*
G36*
X378847Y1228803D02*
X377267Y1228489D01*
X375928Y1227594D01*
X375034Y1226255D01*
X374720Y1224676D01*
X375034Y1223096D01*
X375928Y1221757D01*
X376841Y1221147D01*
X376978Y1219853D01*
X376928Y1219678D01*
X376428Y1219344D01*
X375534Y1218005D01*
X375219Y1216426D01*
X375534Y1214846D01*
X376428Y1213507D01*
X377767Y1212613D01*
X379347Y1212298D01*
X380926Y1212613D01*
X382265Y1213507D01*
X382720Y1214189D01*
X383483Y1214135D01*
X384110Y1213982D01*
X384928Y1212757D01*
X386267Y1211863D01*
X387847Y1211548D01*
X389426Y1211863D01*
X390765Y1212757D01*
X391660Y1214096D01*
X391974Y1215676D01*
X391660Y1217255D01*
X390765Y1218594D01*
X389426Y1219489D01*
X387847Y1219803D01*
X386267Y1219489D01*
X384928Y1218594D01*
X384473Y1217913D01*
X383711Y1217967D01*
X383084Y1218119D01*
X382265Y1219344D01*
X381353Y1219954D01*
X381215Y1221248D01*
X381265Y1221423D01*
X381765Y1221757D01*
X382660Y1223096D01*
X382974Y1224676D01*
X382660Y1226255D01*
X381765Y1227594D01*
X380426Y1228489D01*
X378847Y1228803D01*
D02*
G37*
G36*
X492847Y1216803D02*
X491267Y1216489D01*
X489928Y1215594D01*
X489034Y1214255D01*
X488719Y1212676D01*
X489034Y1211096D01*
X489928Y1209757D01*
X491267Y1208863D01*
X492847Y1208548D01*
X494426Y1208863D01*
X495765Y1209757D01*
X496660Y1211096D01*
X496974Y1212676D01*
X496660Y1214255D01*
X495765Y1215594D01*
X494426Y1216489D01*
X492847Y1216803D01*
D02*
G37*
G36*
X697097Y1202803D02*
X695517Y1202489D01*
X694178Y1201594D01*
X693284Y1200255D01*
X692970Y1198676D01*
X693284Y1197096D01*
X694178Y1195757D01*
X695517Y1194863D01*
X697097Y1194548D01*
X698676Y1194863D01*
X700015Y1195757D01*
X700910Y1197096D01*
X701224Y1198676D01*
X700910Y1200255D01*
X700015Y1201594D01*
X698676Y1202489D01*
X697097Y1202803D01*
D02*
G37*
G36*
X234847Y1193553D02*
X233267Y1193239D01*
X231928Y1192344D01*
X231857Y1192237D01*
X230587D01*
X230515Y1192344D01*
X229176Y1193239D01*
X227597Y1193553D01*
X226017Y1193239D01*
X224678Y1192344D01*
X223784Y1191005D01*
X223470Y1189426D01*
X223784Y1187846D01*
X224678Y1186507D01*
X226017Y1185613D01*
X227597Y1185298D01*
X229176Y1185613D01*
X230515Y1186507D01*
X230587Y1186614D01*
X231857D01*
X231928Y1186507D01*
X233267Y1185613D01*
X234847Y1185298D01*
X236426Y1185613D01*
X237765Y1186507D01*
X238660Y1187846D01*
X238974Y1189426D01*
X238660Y1191005D01*
X237765Y1192344D01*
X236426Y1193239D01*
X234847Y1193553D01*
D02*
G37*
G36*
X598347Y1201053D02*
X596767Y1200739D01*
X595428Y1199844D01*
X594534Y1198505D01*
X594220Y1196926D01*
X594534Y1195346D01*
X595428Y1194007D01*
X596767Y1193113D01*
X598347Y1192798D01*
X599926Y1193113D01*
X601265Y1194007D01*
X602160Y1195346D01*
X602224Y1195671D01*
X603470Y1195426D01*
X603784Y1193846D01*
X604678Y1192507D01*
X606017Y1191613D01*
X607597Y1191298D01*
X609176Y1191613D01*
X610515Y1192507D01*
X611410Y1193846D01*
X611724Y1195426D01*
X611410Y1197005D01*
X610515Y1198344D01*
X609176Y1199239D01*
X607597Y1199553D01*
X606017Y1199239D01*
X604678Y1198344D01*
X603784Y1197005D01*
X603719Y1196681D01*
X602474Y1196926D01*
X602160Y1198505D01*
X601265Y1199844D01*
X599926Y1200739D01*
X598347Y1201053D01*
D02*
G37*
G36*
X112347Y1188803D02*
X110767Y1188489D01*
X109428Y1187594D01*
X108534Y1186255D01*
X108219Y1184676D01*
X108534Y1183096D01*
X109428Y1181757D01*
X110767Y1180863D01*
X112347Y1180548D01*
X113926Y1180863D01*
X115265Y1181757D01*
X116160Y1183096D01*
X116474Y1184676D01*
X116160Y1186255D01*
X115265Y1187594D01*
X113926Y1188489D01*
X112347Y1188803D01*
D02*
G37*
G36*
X168847Y1182053D02*
X167267Y1181739D01*
X165928Y1180844D01*
X165034Y1179505D01*
X164720Y1177926D01*
X165034Y1176346D01*
X165928Y1175007D01*
X167267Y1174113D01*
X168847Y1173798D01*
X170426Y1174113D01*
X171765Y1175007D01*
X172660Y1176346D01*
X172974Y1177926D01*
X172660Y1179505D01*
X171765Y1180844D01*
X170426Y1181739D01*
X168847Y1182053D01*
D02*
G37*
G36*
X253847Y1173553D02*
X252267Y1173239D01*
X250928Y1172344D01*
X250611Y1171869D01*
X249083D01*
X248765Y1172344D01*
X247426Y1173239D01*
X245847Y1173553D01*
X244267Y1173239D01*
X242928Y1172344D01*
X242034Y1171005D01*
X241719Y1169426D01*
X242034Y1167846D01*
X242928Y1166507D01*
X244267Y1165613D01*
X245847Y1165298D01*
X247426Y1165613D01*
X248765Y1166507D01*
X249083Y1166983D01*
X250611D01*
X250928Y1166507D01*
X252267Y1165613D01*
X253847Y1165298D01*
X255426Y1165613D01*
X256765Y1166507D01*
X257660Y1167846D01*
X257974Y1169426D01*
X257660Y1171005D01*
X256765Y1172344D01*
X255426Y1173239D01*
X253847Y1173553D01*
D02*
G37*
G36*
X56597D02*
X55017Y1173239D01*
X53678Y1172344D01*
X52784Y1171005D01*
X52470Y1169426D01*
X52784Y1167846D01*
X53678Y1166507D01*
X53785Y1166436D01*
Y1165166D01*
X53678Y1165094D01*
X52784Y1163755D01*
X52470Y1162176D01*
X52784Y1160596D01*
X53678Y1159257D01*
X55017Y1158363D01*
X56597Y1158048D01*
X58176Y1158363D01*
X59515Y1159257D01*
X60410Y1160596D01*
X60724Y1162176D01*
X60410Y1163755D01*
X59515Y1165094D01*
X59408Y1165166D01*
Y1166436D01*
X59515Y1166507D01*
X60410Y1167846D01*
X60724Y1169426D01*
X60410Y1171005D01*
X59515Y1172344D01*
X58176Y1173239D01*
X56597Y1173553D01*
D02*
G37*
G36*
X392347Y1126303D02*
X390767Y1125989D01*
X389428Y1125094D01*
X388534Y1123755D01*
X388219Y1122176D01*
X388534Y1120596D01*
X389115Y1119726D01*
X389017Y1119489D01*
X387678Y1118594D01*
X386784Y1117255D01*
X386689Y1116781D01*
X385254Y1115772D01*
X385097Y1115803D01*
X383517Y1115489D01*
X382178Y1114594D01*
X381284Y1113255D01*
X380970Y1111676D01*
X381284Y1110096D01*
X382178Y1108757D01*
X383517Y1107863D01*
X385097Y1107548D01*
X386676Y1107863D01*
X388015Y1108757D01*
X388910Y1110096D01*
X389004Y1110570D01*
X390439Y1111580D01*
X390597Y1111548D01*
X392176Y1111863D01*
X393515Y1112757D01*
X394410Y1114096D01*
X394724Y1115676D01*
X394410Y1117255D01*
X393828Y1118126D01*
X393926Y1118363D01*
X395265Y1119257D01*
X396160Y1120596D01*
X396474Y1122176D01*
X396160Y1123755D01*
X395265Y1125094D01*
X393926Y1125989D01*
X392347Y1126303D01*
D02*
G37*
G36*
X603558Y1108576D02*
X603347Y1108533D01*
X603136Y1108576D01*
X601380Y1108226D01*
X601201Y1108107D01*
X600990Y1108065D01*
X599501Y1107070D01*
X599381Y1106891D01*
X599202Y1106771D01*
X598208Y1105283D01*
X598166Y1105072D01*
X598046Y1104893D01*
X597697Y1103137D01*
X597719Y1103028D01*
X597676Y1102926D01*
X597719Y1102823D01*
X597697Y1102715D01*
X598046Y1100959D01*
X598166Y1100780D01*
X598208Y1100569D01*
X599202Y1099080D01*
X599381Y1098960D01*
X599501Y1098781D01*
X600990Y1097787D01*
X601201Y1097745D01*
X601380Y1097625D01*
X603136Y1097276D01*
X603347Y1097318D01*
X603558Y1097276D01*
X605314Y1097625D01*
X605493Y1097745D01*
X605704Y1097787D01*
X607192Y1098781D01*
X607312Y1098960D01*
X607491Y1099080D01*
X608486Y1100569D01*
X608528Y1100780D01*
X608647Y1100959D01*
X608997Y1102715D01*
X608975Y1102823D01*
X609017Y1102926D01*
X608975Y1103028D01*
X608997Y1103137D01*
X608647Y1104893D01*
X608528Y1105072D01*
X608486Y1105283D01*
X607491Y1106771D01*
X607312Y1106891D01*
X607192Y1107070D01*
X605704Y1108065D01*
X605493Y1108107D01*
X605314Y1108226D01*
X603558Y1108576D01*
D02*
G37*
G36*
X365097Y1106553D02*
X363517Y1106239D01*
X362178Y1105344D01*
X361284Y1104005D01*
X360970Y1102426D01*
X361284Y1100846D01*
X362178Y1099507D01*
X363517Y1098613D01*
X365097Y1098298D01*
X366676Y1098613D01*
X368015Y1099507D01*
X368910Y1100846D01*
X369224Y1102426D01*
X368910Y1104005D01*
X368015Y1105344D01*
X366676Y1106239D01*
X365097Y1106553D01*
D02*
G37*
G36*
X596597Y1096803D02*
X595017Y1096489D01*
X593678Y1095594D01*
X593265D01*
X591926Y1096489D01*
X590347Y1096803D01*
X588767Y1096489D01*
X587428Y1095594D01*
X587015D01*
X585676Y1096489D01*
X584097Y1096803D01*
X582517Y1096489D01*
X581178Y1095594D01*
X580284Y1094255D01*
X579969Y1092676D01*
X580284Y1091096D01*
X581178Y1089757D01*
X582517Y1088863D01*
X584097Y1088548D01*
X585676Y1088863D01*
X587015Y1089757D01*
X587428D01*
X588767Y1088863D01*
X590347Y1088548D01*
X591926Y1088863D01*
X593265Y1089757D01*
X593678D01*
X595017Y1088863D01*
X596597Y1088548D01*
X598176Y1088863D01*
X599515Y1089757D01*
X600410Y1091096D01*
X600724Y1092676D01*
X600410Y1094255D01*
X599515Y1095594D01*
X598176Y1096489D01*
X596597Y1096803D01*
D02*
G37*
G36*
X358899Y1099081D02*
X357320Y1098766D01*
X355981Y1097872D01*
X355086Y1096533D01*
X354772Y1094953D01*
X355086Y1093374D01*
X355981Y1092035D01*
X357320Y1091140D01*
X358899Y1090826D01*
X360479Y1091140D01*
X361818Y1092035D01*
X362712Y1093374D01*
X363026Y1094953D01*
X362712Y1096533D01*
X361818Y1097872D01*
X360479Y1098766D01*
X358899Y1099081D01*
D02*
G37*
G36*
X340347Y1092303D02*
X338767Y1091989D01*
X337428Y1091094D01*
X336534Y1089755D01*
X336219Y1088176D01*
X336534Y1086596D01*
X337428Y1085257D01*
X338767Y1084363D01*
X340347Y1084048D01*
X341926Y1084363D01*
X343265Y1085257D01*
X344160Y1086596D01*
X344474Y1088176D01*
X344160Y1089755D01*
X343265Y1091094D01*
X341926Y1091989D01*
X340347Y1092303D01*
D02*
G37*
G36*
X333597Y1084053D02*
X332017Y1083739D01*
X330678Y1082844D01*
X329784Y1081505D01*
X329469Y1079926D01*
X329784Y1078346D01*
X330678Y1077007D01*
X332017Y1076113D01*
X333597Y1075798D01*
X335176Y1076113D01*
X336515Y1077007D01*
X337410Y1078346D01*
X337724Y1079926D01*
X337410Y1081505D01*
X336515Y1082844D01*
X335176Y1083739D01*
X333597Y1084053D01*
D02*
G37*
G36*
X469472Y1079678D02*
X467892Y1079364D01*
X466553Y1078469D01*
X465659Y1077130D01*
X465345Y1075551D01*
X465659Y1073971D01*
X465924Y1073574D01*
X465466Y1072872D01*
X465084Y1072545D01*
X463654Y1072829D01*
X462075Y1072515D01*
X460736Y1071620D01*
X459841Y1070282D01*
X459527Y1068702D01*
X459841Y1067123D01*
X460004Y1066879D01*
X459088Y1065964D01*
X458676Y1066239D01*
X457097Y1066553D01*
X455517Y1066239D01*
X454178Y1065344D01*
X453284Y1064005D01*
X452970Y1062426D01*
X453284Y1060846D01*
X454178Y1059507D01*
X455517Y1058613D01*
X457097Y1058298D01*
X458676Y1058613D01*
X460015Y1059507D01*
X460910Y1060846D01*
X461224Y1062426D01*
X460910Y1064005D01*
X460747Y1064249D01*
X461663Y1065164D01*
X462075Y1064889D01*
X463654Y1064575D01*
X465234Y1064889D01*
X466573Y1065784D01*
X467467Y1067123D01*
X467781Y1068702D01*
X467467Y1070282D01*
X467202Y1070679D01*
X467660Y1071381D01*
X468042Y1071708D01*
X469472Y1071423D01*
X471051Y1071738D01*
X472390Y1072632D01*
X473285Y1073971D01*
X473599Y1075551D01*
X473285Y1077130D01*
X472390Y1078469D01*
X471051Y1079364D01*
X469472Y1079678D01*
D02*
G37*
G36*
X346347Y1077553D02*
X344767Y1077239D01*
X343428Y1076344D01*
X342534Y1075005D01*
X342220Y1073426D01*
X342534Y1071846D01*
X343428Y1070507D01*
X344767Y1069613D01*
X346347Y1069298D01*
X347926Y1069613D01*
X349265Y1070507D01*
X350160Y1071846D01*
X350474Y1073426D01*
X350160Y1075005D01*
X349265Y1076344D01*
X347926Y1077239D01*
X346347Y1077553D01*
D02*
G37*
G36*
X485222Y1075428D02*
X483642Y1075114D01*
X482303Y1074219D01*
X481409Y1072880D01*
X481094Y1071301D01*
X481409Y1069721D01*
X482303Y1068382D01*
X483642Y1067488D01*
X485222Y1067173D01*
X486801Y1067488D01*
X488140Y1068382D01*
X489035Y1069721D01*
X489349Y1071301D01*
X489035Y1072880D01*
X488140Y1074219D01*
X486801Y1075114D01*
X485222Y1075428D01*
D02*
G37*
G36*
X445097Y1064803D02*
X443517Y1064489D01*
X442178Y1063594D01*
X441284Y1062255D01*
X440970Y1060676D01*
X441284Y1059096D01*
X442178Y1057757D01*
X443517Y1056863D01*
X445097Y1056548D01*
X446676Y1056863D01*
X448015Y1057757D01*
X448910Y1059096D01*
X449224Y1060676D01*
X448910Y1062255D01*
X448015Y1063594D01*
X446676Y1064489D01*
X445097Y1064803D01*
D02*
G37*
G36*
X603558Y1050076D02*
X603347Y1050033D01*
X603136Y1050076D01*
X601380Y1049726D01*
X601201Y1049607D01*
X600990Y1049565D01*
X599501Y1048570D01*
X599381Y1048391D01*
X599202Y1048271D01*
X598208Y1046783D01*
X598166Y1046572D01*
X598046Y1046393D01*
X597697Y1044637D01*
X597719Y1044528D01*
X597676Y1044426D01*
X597719Y1044323D01*
X597697Y1044214D01*
X598046Y1042459D01*
X598166Y1042280D01*
X598208Y1042069D01*
X599202Y1040580D01*
X599381Y1040461D01*
X599501Y1040281D01*
X600990Y1039287D01*
X601201Y1039245D01*
X601380Y1039125D01*
X603136Y1038776D01*
X603347Y1038818D01*
X603558Y1038776D01*
X605314Y1039125D01*
X605493Y1039245D01*
X605704Y1039287D01*
X607192Y1040281D01*
X607312Y1040461D01*
X607491Y1040580D01*
X608486Y1042069D01*
X608528Y1042280D01*
X608647Y1042459D01*
X608997Y1044214D01*
X608975Y1044323D01*
X609017Y1044426D01*
X608975Y1044528D01*
X608997Y1044637D01*
X608647Y1046393D01*
X608528Y1046572D01*
X608486Y1046783D01*
X607491Y1048271D01*
X607312Y1048391D01*
X607192Y1048570D01*
X605704Y1049565D01*
X605493Y1049607D01*
X605314Y1049726D01*
X603558Y1050076D01*
D02*
G37*
G36*
X349433Y1051377D02*
X347500Y1050877D01*
X345763Y1049894D01*
X344340Y1048495D01*
X343327Y1046776D01*
X342793Y1044853D01*
X342269Y1041119D01*
X348582Y1040232D01*
X350148Y1051371D01*
X349433Y1051377D01*
D02*
G37*
G36*
X442777Y1038352D02*
X441211Y1027214D01*
X447525Y1026326D01*
X448049Y1030060D01*
X448067Y1032055D01*
X447567Y1033988D01*
X446584Y1035725D01*
X445185Y1037148D01*
X443466Y1038161D01*
X442777Y1038352D01*
D02*
G37*
G36*
X58347Y1028803D02*
X56767Y1028489D01*
X55428Y1027594D01*
X54534Y1026255D01*
X54219Y1024676D01*
X54534Y1023096D01*
X55428Y1021757D01*
X56767Y1020863D01*
X58347Y1020548D01*
X59926Y1020863D01*
X61265Y1021757D01*
X62160Y1023096D01*
X62474Y1024676D01*
X62160Y1026255D01*
X61265Y1027594D01*
X59926Y1028489D01*
X58347Y1028803D01*
D02*
G37*
G36*
X192097Y1028053D02*
X190517Y1027739D01*
X189178Y1026844D01*
X188284Y1025505D01*
X187969Y1023926D01*
X188284Y1022346D01*
X189178Y1021007D01*
X190517Y1020113D01*
X192097Y1019798D01*
X193676Y1020113D01*
X195015Y1021007D01*
X195910Y1022346D01*
X196224Y1023926D01*
X195910Y1025505D01*
X195015Y1026844D01*
X193676Y1027739D01*
X192097Y1028053D01*
D02*
G37*
G36*
X242942Y1039352D02*
X241564Y1039151D01*
X240368Y1038438D01*
X240041Y1037999D01*
X238161Y1037221D01*
X236386Y1035858D01*
X235023Y1034083D01*
X234434Y1032660D01*
X233925Y1032319D01*
X233151Y1031162D01*
X232879Y1029796D01*
Y1024506D01*
X233151Y1023140D01*
X233925Y1021983D01*
X234434Y1021643D01*
X235023Y1020219D01*
X236386Y1018444D01*
X238161Y1017081D01*
X239165Y1016665D01*
X239488Y1016124D01*
X240604Y1015292D01*
X241954Y1014950D01*
X247285Y1014675D01*
X248662Y1014875D01*
X249858Y1015588D01*
X250186Y1016027D01*
X252065Y1016806D01*
X253841Y1018168D01*
X255203Y1019944D01*
X255793Y1021367D01*
X256302Y1021707D01*
X257076Y1022865D01*
X257347Y1024230D01*
Y1029520D01*
X257076Y1030886D01*
X256302Y1032044D01*
X255793Y1032384D01*
X255203Y1033807D01*
X253841Y1035583D01*
X252065Y1036945D01*
X251061Y1037361D01*
X250739Y1037902D01*
X249623Y1038735D01*
X248273Y1039076D01*
X242942Y1039352D01*
D02*
G37*
G36*
X329505Y1012480D02*
X327455Y1011950D01*
X325613Y1010907D01*
X324103Y1009424D01*
X323029Y1007599D01*
X322463Y1005560D01*
X321874Y1001371D01*
X328647Y1000419D01*
X330341Y1012473D01*
X329505Y1012480D01*
D02*
G37*
G36*
X451094Y995502D02*
X449400Y983448D01*
X456173Y982496D01*
X456762Y986685D01*
X456780Y988802D01*
X456250Y990851D01*
X455207Y992694D01*
X453724Y994204D01*
X451900Y995278D01*
X451094Y995502D01*
D02*
G37*
G36*
X491827Y887105D02*
X489876Y886717D01*
X488222Y885611D01*
X487117Y883958D01*
X486729Y882007D01*
X487117Y880056D01*
X488222Y878402D01*
X489876Y877297D01*
X491827Y876909D01*
X493778Y877297D01*
X495432Y878402D01*
X496537Y880056D01*
X496925Y882007D01*
X496537Y883958D01*
X495432Y885611D01*
X493778Y886717D01*
X491827Y887105D01*
D02*
G37*
G36*
X404327Y883105D02*
X402376Y882717D01*
X400722Y881611D01*
X399617Y879958D01*
X399229Y878007D01*
X399617Y876056D01*
X400722Y874402D01*
X402376Y873297D01*
X404327Y872909D01*
X406278Y873297D01*
X407932Y874402D01*
X409037Y876056D01*
X409425Y878007D01*
X409037Y879958D01*
X407932Y881611D01*
X406278Y882717D01*
X404327Y883105D01*
D02*
G37*
G36*
X378827D02*
X376876Y882717D01*
X375222Y881611D01*
X374117Y879958D01*
X373729Y878007D01*
X374117Y876056D01*
X375222Y874402D01*
X376876Y873297D01*
X378827Y872909D01*
X380778Y873297D01*
X382432Y874402D01*
X383537Y876056D01*
X383925Y878007D01*
X383537Y879958D01*
X382432Y881611D01*
X380778Y882717D01*
X378827Y883105D01*
D02*
G37*
G36*
X352827D02*
X350876Y882717D01*
X349222Y881611D01*
X348117Y879958D01*
X347729Y878007D01*
X348117Y876056D01*
X349222Y874402D01*
X350876Y873297D01*
X352827Y872909D01*
X354778Y873297D01*
X356432Y874402D01*
X357537Y876056D01*
X357925Y878007D01*
X357537Y879958D01*
X356432Y881611D01*
X354778Y882717D01*
X352827Y883105D01*
D02*
G37*
G36*
X326827Y882105D02*
X324876Y881717D01*
X323222Y880611D01*
X322117Y878958D01*
X321729Y877007D01*
X322117Y875056D01*
X323222Y873402D01*
X324876Y872297D01*
X326827Y871909D01*
X328778Y872297D01*
X330432Y873402D01*
X331537Y875056D01*
X331925Y877007D01*
X331537Y878958D01*
X330432Y880611D01*
X328778Y881717D01*
X326827Y882105D01*
D02*
G37*
G36*
X649384Y869095D02*
X649284Y869075D01*
X649184Y869085D01*
X646243Y868796D01*
X646051Y868737D01*
X645851Y868718D01*
X643024Y867860D01*
X642847Y867765D01*
X642654Y867707D01*
X640048Y866314D01*
X639893Y866187D01*
X639716Y866092D01*
X637432Y864218D01*
X637305Y864062D01*
X637149Y863935D01*
X635275Y861651D01*
X635180Y861474D01*
X635053Y861319D01*
X633660Y858713D01*
X633602Y858521D01*
X633507Y858343D01*
X632649Y855516D01*
X632630Y855316D01*
X632571Y855124D01*
X632282Y852183D01*
X632301Y851983D01*
X632282Y851784D01*
X632571Y848843D01*
X632630Y848651D01*
X632649Y848451D01*
X633507Y845623D01*
X633602Y845446D01*
X633660Y845254D01*
X635053Y842648D01*
X635180Y842493D01*
X635275Y842316D01*
X637149Y840032D01*
X637305Y839904D01*
X637432Y839749D01*
X639716Y837875D01*
X639893Y837780D01*
X640048Y837653D01*
X642654Y836260D01*
X642847Y836202D01*
X643024Y836107D01*
X645851Y835249D01*
X646051Y835229D01*
X646243Y835171D01*
X649184Y834882D01*
X649284Y834892D01*
X649384Y834872D01*
X649483Y834892D01*
X649583Y834882D01*
X652524Y835171D01*
X652716Y835229D01*
X652916Y835249D01*
X655743Y836107D01*
X655921Y836202D01*
X656113Y836260D01*
X658719Y837653D01*
X658874Y837780D01*
X659051Y837875D01*
X661335Y839749D01*
X661462Y839904D01*
X661618Y840032D01*
X663492Y842316D01*
X663587Y842493D01*
X663714Y842648D01*
X665107Y845254D01*
X665165Y845446D01*
X665260Y845623D01*
X666118Y848451D01*
X666138Y848651D01*
X666196Y848843D01*
X666486Y851784D01*
X666466Y851983D01*
X666486Y852183D01*
X666196Y855124D01*
X666138Y855316D01*
X666118Y855516D01*
X665260Y858343D01*
X665165Y858521D01*
X665107Y858713D01*
X663714Y861319D01*
X663587Y861474D01*
X663492Y861651D01*
X661618Y863935D01*
X661462Y864062D01*
X661335Y864218D01*
X659051Y866092D01*
X658874Y866187D01*
X658719Y866314D01*
X656113Y867707D01*
X655921Y867765D01*
X655743Y867860D01*
X652916Y868718D01*
X652716Y868737D01*
X652524Y868796D01*
X649583Y869085D01*
X649483Y869075D01*
X649384Y869095D01*
D02*
G37*
G36*
X583827Y871567D02*
X581999Y871327D01*
X580297Y870621D01*
X578834Y869499D01*
X577712Y868037D01*
X577007Y866334D01*
X576766Y864507D01*
X577007Y862679D01*
X577712Y860976D01*
X578834Y859514D01*
X580297Y858392D01*
X581999Y857687D01*
X583827Y857446D01*
X585654Y857687D01*
X587357Y858392D01*
X588819Y859514D01*
X589941Y860976D01*
X590647Y862679D01*
X590887Y864507D01*
X590647Y866334D01*
X589941Y868037D01*
X588819Y869499D01*
X587357Y870621D01*
X585654Y871327D01*
X583827Y871567D01*
D02*
G37*
G36*
X377327Y867605D02*
X375376Y867217D01*
X373722Y866112D01*
X372617Y864458D01*
X372229Y862507D01*
X372617Y860556D01*
X373722Y858902D01*
X375376Y857797D01*
X377327Y857409D01*
X379278Y857797D01*
X380932Y858902D01*
X382037Y860556D01*
X382425Y862507D01*
X382037Y864458D01*
X380932Y866112D01*
X379278Y867217D01*
X377327Y867605D01*
D02*
G37*
G36*
X426827Y867105D02*
X424876Y866717D01*
X423222Y865611D01*
X422117Y863958D01*
X421729Y862007D01*
X422117Y860056D01*
X423222Y858402D01*
X424876Y857297D01*
X426827Y856909D01*
X428778Y857297D01*
X430432Y858402D01*
X431537Y860056D01*
X431925Y862007D01*
X431537Y863958D01*
X430432Y865611D01*
X428778Y866717D01*
X426827Y867105D01*
D02*
G37*
G36*
X402577D02*
X400626Y866717D01*
X398972Y865611D01*
X397867Y863958D01*
X397479Y862007D01*
X397867Y860056D01*
X398972Y858402D01*
X400626Y857297D01*
X402577Y856909D01*
X404528Y857297D01*
X406182Y858402D01*
X407287Y860056D01*
X407675Y862007D01*
X407287Y863958D01*
X406182Y865611D01*
X404528Y866717D01*
X402577Y867105D01*
D02*
G37*
G36*
X351827D02*
X349876Y866717D01*
X348222Y865611D01*
X347117Y863958D01*
X346729Y862007D01*
X347117Y860056D01*
X348222Y858402D01*
X349876Y857297D01*
X351827Y856909D01*
X353778Y857297D01*
X355432Y858402D01*
X356537Y860056D01*
X356925Y862007D01*
X356537Y863958D01*
X355432Y865611D01*
X353778Y866717D01*
X351827Y867105D01*
D02*
G37*
G36*
X548827Y866067D02*
X546999Y865826D01*
X545297Y865121D01*
X543834Y863999D01*
X542712Y862537D01*
X542007Y860834D01*
X541766Y859007D01*
X542007Y857179D01*
X542712Y855477D01*
X543834Y854014D01*
X545297Y852892D01*
X546999Y852187D01*
X548827Y851946D01*
X550654Y852187D01*
X552357Y852892D01*
X553819Y854014D01*
X554941Y855477D01*
X555647Y857179D01*
X555887Y859007D01*
X555647Y860834D01*
X554941Y862537D01*
X553819Y863999D01*
X552357Y865121D01*
X550654Y865826D01*
X548827Y866067D01*
D02*
G37*
G36*
X403827Y827105D02*
X401876Y826717D01*
X400222Y825611D01*
X399117Y823958D01*
X398729Y822007D01*
X399117Y820056D01*
X400222Y818402D01*
X401876Y817297D01*
X403827Y816909D01*
X405778Y817297D01*
X407432Y818402D01*
X408537Y820056D01*
X408925Y822007D01*
X408537Y823958D01*
X407432Y825611D01*
X405778Y826717D01*
X403827Y827105D01*
D02*
G37*
G36*
X557827Y804105D02*
X555876Y803717D01*
X554222Y802611D01*
X553103D01*
X551449Y803717D01*
X549498Y804105D01*
X547547Y803717D01*
X545894Y802611D01*
X544789Y800958D01*
X544400Y799007D01*
X544789Y797056D01*
X545894Y795402D01*
X546715Y794853D01*
X546117Y793958D01*
X545729Y792007D01*
X546117Y790056D01*
X547222Y788402D01*
X548876Y787297D01*
X550827Y786909D01*
X552778Y787297D01*
X554432Y788402D01*
X555537Y790056D01*
X555925Y792007D01*
X555721Y793033D01*
X556801Y794113D01*
X557827Y793909D01*
X559778Y794297D01*
X561432Y795402D01*
X562537Y797056D01*
X562925Y799007D01*
X562537Y800958D01*
X561432Y802611D01*
X559778Y803717D01*
X557827Y804105D01*
D02*
G37*
G36*
X469827D02*
X467876Y803717D01*
X466222Y802611D01*
X465117Y800958D01*
X464729Y799007D01*
X465050Y797394D01*
X464157Y796617D01*
X464020Y796554D01*
X463778Y796717D01*
X461827Y797105D01*
X459876Y796717D01*
X458222Y795611D01*
X457117Y793958D01*
X456729Y792007D01*
X457117Y790056D01*
X458222Y788402D01*
X459876Y787297D01*
X461827Y786909D01*
X463778Y787297D01*
X465432Y788402D01*
X466537Y790056D01*
X466925Y792007D01*
X466604Y793619D01*
X467496Y794396D01*
X467633Y794459D01*
X467876Y794297D01*
X469827Y793909D01*
X471778Y794297D01*
X473432Y795402D01*
X474537Y797056D01*
X474925Y799007D01*
X474537Y800958D01*
X473432Y802611D01*
X471778Y803717D01*
X469827Y804105D01*
D02*
G37*
G36*
X176827Y814132D02*
X173041Y813633D01*
X169514Y812172D01*
X166485Y809848D01*
X164161Y806819D01*
X162700Y803292D01*
X162202Y799507D01*
X162700Y795722D01*
X164161Y792194D01*
X166485Y789165D01*
X169514Y786841D01*
X173041Y785380D01*
X176827Y784882D01*
X180612Y785380D01*
X184139Y786841D01*
X187168Y789165D01*
X189492Y792194D01*
X190954Y795722D01*
X191452Y799507D01*
X190954Y803292D01*
X189492Y806819D01*
X187168Y809848D01*
X184139Y812172D01*
X180612Y813633D01*
X176827Y814132D01*
D02*
G37*
G36*
X228827Y795067D02*
X226999Y794827D01*
X225297Y794121D01*
X223834Y792999D01*
X222712Y791537D01*
X222007Y789834D01*
X221766Y788007D01*
X222007Y786179D01*
X222712Y784476D01*
X223834Y783014D01*
X224320Y782641D01*
X224305Y781052D01*
X223584Y780499D01*
X222462Y779037D01*
X221757Y777334D01*
X221516Y775507D01*
X221757Y773679D01*
X222462Y771976D01*
X223584Y770514D01*
X225047Y769392D01*
X226749Y768687D01*
X228577Y768446D01*
X230404Y768687D01*
X232107Y769392D01*
X233569Y770514D01*
X234691Y771976D01*
X235397Y773679D01*
X235637Y775507D01*
X235397Y777334D01*
X234691Y779037D01*
X233569Y780499D01*
X233083Y780872D01*
X233098Y782461D01*
X233819Y783014D01*
X234941Y784476D01*
X235647Y786179D01*
X235887Y788007D01*
X235647Y789834D01*
X234941Y791537D01*
X233819Y792999D01*
X232357Y794121D01*
X230654Y794827D01*
X228827Y795067D01*
D02*
G37*
G36*
X291827Y758605D02*
X289876Y758217D01*
X288222Y757112D01*
X287117Y755458D01*
X286729Y753507D01*
X287117Y751556D01*
X288222Y749902D01*
X289876Y748797D01*
X291827Y748409D01*
X293778Y748797D01*
X295432Y749902D01*
X296537Y751556D01*
X296925Y753507D01*
X296537Y755458D01*
X295432Y757112D01*
X293778Y758217D01*
X291827Y758605D01*
D02*
G37*
G36*
X542827Y755105D02*
X540876Y754717D01*
X539222Y753612D01*
X538117Y751958D01*
X537729Y750007D01*
X538117Y748056D01*
X539222Y746402D01*
X540876Y745297D01*
X542827Y744909D01*
X544778Y745297D01*
X546432Y746402D01*
X547537Y748056D01*
X547925Y750007D01*
X547537Y751958D01*
X546432Y753612D01*
X544778Y754717D01*
X542827Y755105D01*
D02*
G37*
G36*
X176827Y774132D02*
X173041Y773633D01*
X169514Y772172D01*
X166485Y769848D01*
X164161Y766819D01*
X162700Y763292D01*
X162202Y759507D01*
X162700Y755722D01*
X164161Y752194D01*
X166485Y749165D01*
X169514Y746841D01*
X173041Y745380D01*
X176827Y744882D01*
X180612Y745380D01*
X184139Y746841D01*
X187168Y749165D01*
X189492Y752194D01*
X190954Y755722D01*
X191452Y759507D01*
X190954Y763292D01*
X189492Y766819D01*
X187168Y769848D01*
X184139Y772172D01*
X180612Y773633D01*
X176827Y774132D01*
D02*
G37*
G36*
X484827Y722105D02*
X482876Y721717D01*
X481222Y720611D01*
X480117Y718958D01*
X479729Y717007D01*
X480117Y715056D01*
X481222Y713402D01*
X482876Y712297D01*
X484827Y711909D01*
X486778Y712297D01*
X488432Y713402D01*
X489537Y715056D01*
X489925Y717007D01*
X489537Y718958D01*
X488432Y720611D01*
X486778Y721717D01*
X484827Y722105D01*
D02*
G37*
G36*
X176827Y734132D02*
X173041Y733633D01*
X169514Y732172D01*
X166485Y729848D01*
X164161Y726819D01*
X162700Y723292D01*
X162202Y719507D01*
X162700Y715722D01*
X164161Y712194D01*
X166485Y709165D01*
X169514Y706841D01*
X173041Y705380D01*
X176827Y704882D01*
X180612Y705380D01*
X184139Y706841D01*
X187168Y709165D01*
X189492Y712194D01*
X190954Y715722D01*
X191452Y719507D01*
X190954Y723292D01*
X189492Y726819D01*
X187168Y729848D01*
X184139Y732172D01*
X180612Y733633D01*
X176827Y734132D01*
D02*
G37*
G36*
X538827Y709105D02*
X536876Y708717D01*
X535222Y707611D01*
X534117Y705958D01*
X533729Y704007D01*
X534117Y702056D01*
X535222Y700402D01*
X536876Y699297D01*
X538827Y698909D01*
X540778Y699297D01*
X542432Y700402D01*
X543537Y702056D01*
X543925Y704007D01*
X543537Y705958D01*
X542432Y707611D01*
X540778Y708717D01*
X538827Y709105D01*
D02*
G37*
G36*
X200807Y692190D02*
X200708Y692171D01*
X200607Y692181D01*
X197667Y691891D01*
X197475Y691833D01*
X197275Y691813D01*
X194447Y690955D01*
X194270Y690861D01*
X194078Y690802D01*
X191472Y689410D01*
X191317Y689282D01*
X191140Y689187D01*
X188856Y687313D01*
X188728Y687158D01*
X188573Y687030D01*
X186699Y684746D01*
X186604Y684569D01*
X186477Y684414D01*
X185084Y681808D01*
X185025Y681616D01*
X184931Y681439D01*
X184073Y678611D01*
X184053Y678411D01*
X183995Y678219D01*
X183705Y675279D01*
X183725Y675079D01*
X183705Y674879D01*
X183995Y671938D01*
X184053Y671746D01*
X184073Y671546D01*
X184931Y668719D01*
X185025Y668542D01*
X185084Y668350D01*
X186477Y665744D01*
X186604Y665588D01*
X186699Y665411D01*
X188573Y663127D01*
X188728Y663000D01*
X188856Y662844D01*
X191140Y660970D01*
X191317Y660875D01*
X191472Y660748D01*
X194078Y659355D01*
X194270Y659297D01*
X194447Y659202D01*
X197275Y658344D01*
X197475Y658325D01*
X197667Y658267D01*
X200607Y657977D01*
X200708Y657987D01*
X200807Y657967D01*
X200907Y657987D01*
X201007Y657977D01*
X203948Y658267D01*
X204140Y658325D01*
X204340Y658344D01*
X207167Y659202D01*
X207344Y659297D01*
X207537Y659355D01*
X210142Y660748D01*
X210298Y660875D01*
X210475Y660970D01*
X212759Y662844D01*
X212886Y663000D01*
X213042Y663127D01*
X214916Y665411D01*
X215011Y665588D01*
X215138Y665744D01*
X216531Y668350D01*
X216589Y668542D01*
X216684Y668719D01*
X217542Y671546D01*
X217561Y671746D01*
X217620Y671938D01*
X217909Y674879D01*
X217890Y675079D01*
X217909Y675279D01*
X217620Y678219D01*
X217561Y678411D01*
X217542Y678611D01*
X216684Y681439D01*
X216589Y681616D01*
X216531Y681808D01*
X215138Y684414D01*
X215011Y684569D01*
X214916Y684746D01*
X213042Y687030D01*
X212886Y687158D01*
X212759Y687313D01*
X210475Y689187D01*
X210298Y689282D01*
X210142Y689410D01*
X207537Y690802D01*
X207344Y690861D01*
X207167Y690955D01*
X204340Y691813D01*
X204140Y691833D01*
X203948Y691891D01*
X201007Y692181D01*
X200907Y692171D01*
X200807Y692190D01*
D02*
G37*
G36*
X634827Y672067D02*
X632999Y671826D01*
X631297Y671121D01*
X629834Y669999D01*
X628712Y668537D01*
X628007Y666834D01*
X627766Y665007D01*
X628007Y663179D01*
X628712Y661477D01*
X629834Y660014D01*
X631297Y658892D01*
X632999Y658187D01*
X634827Y657946D01*
X636654Y658187D01*
X638357Y658892D01*
X639819Y660014D01*
X640941Y661477D01*
X641647Y663179D01*
X641887Y665007D01*
X641647Y666834D01*
X640941Y668537D01*
X639819Y669999D01*
X638357Y671121D01*
X636654Y671826D01*
X634827Y672067D01*
D02*
G37*
G36*
X590827D02*
X588999Y671826D01*
X587297Y671121D01*
X585834Y669999D01*
X584712Y668537D01*
X584007Y666834D01*
X583766Y665007D01*
X584007Y663179D01*
X584712Y661477D01*
X585834Y660014D01*
X587297Y658892D01*
X588999Y658187D01*
X590827Y657946D01*
X592654Y658187D01*
X594357Y658892D01*
X595819Y660014D01*
X596941Y661477D01*
X597647Y663179D01*
X597887Y665007D01*
X597647Y666834D01*
X596941Y668537D01*
X595819Y669999D01*
X594357Y671121D01*
X592654Y671826D01*
X590827Y672067D01*
D02*
G37*
G36*
X548827D02*
X546999Y671826D01*
X545297Y671121D01*
X543834Y669999D01*
X542712Y668537D01*
X542007Y666834D01*
X541766Y665007D01*
X542007Y663179D01*
X542712Y661477D01*
X543834Y660014D01*
X545297Y658892D01*
X546999Y658187D01*
X548827Y657946D01*
X550654Y658187D01*
X552357Y658892D01*
X553819Y660014D01*
X554941Y661477D01*
X555647Y663179D01*
X555887Y665007D01*
X555647Y666834D01*
X554941Y668537D01*
X553819Y669999D01*
X552357Y671121D01*
X550654Y671826D01*
X548827Y672067D01*
D02*
G37*
G36*
X503827D02*
X501999Y671826D01*
X500297Y671121D01*
X498834Y669999D01*
X497712Y668537D01*
X497007Y666834D01*
X496766Y665007D01*
X497007Y663179D01*
X497712Y661477D01*
X498834Y660014D01*
X500297Y658892D01*
X501999Y658187D01*
X503827Y657946D01*
X505654Y658187D01*
X507357Y658892D01*
X508819Y660014D01*
X509941Y661477D01*
X510647Y663179D01*
X510887Y665007D01*
X510647Y666834D01*
X509941Y668537D01*
X508819Y669999D01*
X507357Y671121D01*
X505654Y671826D01*
X503827Y672067D01*
D02*
G37*
G36*
X611827Y646632D02*
X608041Y646133D01*
X604514Y644672D01*
X601485Y642348D01*
X599161Y639319D01*
X597700Y635792D01*
X597202Y632007D01*
X597700Y628222D01*
X599161Y624694D01*
X601485Y621665D01*
X604514Y619341D01*
X608041Y617880D01*
X611827Y617382D01*
X615612Y617880D01*
X619139Y619341D01*
X622168Y621665D01*
X624492Y624694D01*
X625953Y628222D01*
X626452Y632007D01*
X625953Y635792D01*
X624492Y639319D01*
X622168Y642348D01*
X619139Y644672D01*
X615612Y646133D01*
X611827Y646632D01*
D02*
G37*
G36*
X569327D02*
X565541Y646133D01*
X562014Y644672D01*
X558985Y642348D01*
X556661Y639319D01*
X555200Y635792D01*
X554702Y632007D01*
X555200Y628222D01*
X556661Y624694D01*
X558985Y621665D01*
X562014Y619341D01*
X565541Y617880D01*
X569327Y617382D01*
X573112Y617880D01*
X576639Y619341D01*
X579668Y621665D01*
X581992Y624694D01*
X583453Y628222D01*
X583952Y632007D01*
X583453Y635792D01*
X581992Y639319D01*
X579668Y642348D01*
X576639Y644672D01*
X573112Y646133D01*
X569327Y646632D01*
D02*
G37*
G36*
X526827D02*
X523041Y646133D01*
X519514Y644672D01*
X516485Y642348D01*
X514161Y639319D01*
X512700Y635792D01*
X512202Y632007D01*
X512700Y628222D01*
X514161Y624694D01*
X516485Y621665D01*
X519514Y619341D01*
X523041Y617880D01*
X526827Y617382D01*
X530612Y617880D01*
X534139Y619341D01*
X537168Y621665D01*
X539492Y624694D01*
X540953Y628222D01*
X541452Y632007D01*
X540953Y635792D01*
X539492Y639319D01*
X537168Y642348D01*
X534139Y644672D01*
X530612Y646133D01*
X526827Y646632D01*
D02*
G37*
G36*
X484327D02*
X480541Y646133D01*
X477014Y644672D01*
X473985Y642348D01*
X471661Y639319D01*
X470200Y635792D01*
X469702Y632007D01*
X470200Y628222D01*
X471661Y624694D01*
X473985Y621665D01*
X477014Y619341D01*
X480541Y617880D01*
X484327Y617382D01*
X488112Y617880D01*
X491639Y619341D01*
X494668Y621665D01*
X496992Y624694D01*
X498453Y628222D01*
X498952Y632007D01*
X498453Y635792D01*
X496992Y639319D01*
X494668Y642348D01*
X491639Y644672D01*
X488112Y646133D01*
X484327Y646632D01*
D02*
G37*
G36*
X441827D02*
X438041Y646133D01*
X434514Y644672D01*
X431485Y642348D01*
X429161Y639319D01*
X427700Y635792D01*
X427202Y632007D01*
X427700Y628222D01*
X429161Y624694D01*
X431485Y621665D01*
X434514Y619341D01*
X438041Y617880D01*
X441827Y617382D01*
X445612Y617880D01*
X449139Y619341D01*
X452168Y621665D01*
X454492Y624694D01*
X455953Y628222D01*
X456452Y632007D01*
X455953Y635792D01*
X454492Y639319D01*
X452168Y642348D01*
X449139Y644672D01*
X445612Y646133D01*
X441827Y646632D01*
D02*
G37*
G36*
X399327D02*
X395541Y646133D01*
X392014Y644672D01*
X388985Y642348D01*
X386661Y639319D01*
X385200Y635792D01*
X384702Y632007D01*
X385200Y628222D01*
X386661Y624694D01*
X388985Y621665D01*
X392014Y619341D01*
X395541Y617880D01*
X399327Y617382D01*
X403112Y617880D01*
X406639Y619341D01*
X409668Y621665D01*
X411992Y624694D01*
X413453Y628222D01*
X413952Y632007D01*
X413453Y635792D01*
X411992Y639319D01*
X409668Y642348D01*
X406639Y644672D01*
X403112Y646133D01*
X399327Y646632D01*
D02*
G37*
G36*
X356827D02*
X353041Y646133D01*
X349514Y644672D01*
X346485Y642348D01*
X344161Y639319D01*
X342700Y635792D01*
X342202Y632007D01*
X342700Y628222D01*
X344161Y624694D01*
X346485Y621665D01*
X349514Y619341D01*
X353041Y617880D01*
X356827Y617382D01*
X360612Y617880D01*
X364139Y619341D01*
X367168Y621665D01*
X369492Y624694D01*
X370953Y628222D01*
X371452Y632007D01*
X370953Y635792D01*
X369492Y639319D01*
X367168Y642348D01*
X364139Y644672D01*
X360612Y646133D01*
X356827Y646632D01*
D02*
G37*
G36*
X314327D02*
X310541Y646133D01*
X307014Y644672D01*
X303985Y642348D01*
X301661Y639319D01*
X300200Y635792D01*
X299702Y632007D01*
X300200Y628222D01*
X301661Y624694D01*
X303985Y621665D01*
X307014Y619341D01*
X310541Y617880D01*
X314327Y617382D01*
X318112Y617880D01*
X321639Y619341D01*
X324668Y621665D01*
X326992Y624694D01*
X328453Y628222D01*
X328952Y632007D01*
X328453Y635792D01*
X326992Y639319D01*
X324668Y642348D01*
X321639Y644672D01*
X318112Y646133D01*
X314327Y646632D01*
D02*
G37*
G36*
X775937Y557420D02*
X775576Y557372D01*
X775495Y557384D01*
X770164Y557108D01*
X769980Y557062D01*
X768387Y556852D01*
X766319Y555995D01*
X765949Y555712D01*
X765427Y555471D01*
X765031Y555184D01*
X764632Y554902D01*
X763044Y553229D01*
X762782Y552816D01*
X762516Y552406D01*
X761661Y550264D01*
X761572Y549783D01*
X761477Y549304D01*
Y548151D01*
X761477Y548151D01*
Y542861D01*
X761477Y542860D01*
Y541627D01*
X761480Y541610D01*
X761477Y541594D01*
X761578Y541115D01*
X761674Y540636D01*
X761683Y540622D01*
X761687Y540605D01*
X762661Y538338D01*
X762670Y538324D01*
X762674Y538307D01*
X762956Y537908D01*
X763233Y537505D01*
X763247Y537495D01*
X763257Y537482D01*
X765046Y535782D01*
X765061Y535773D01*
X765070Y535760D01*
X765487Y535504D01*
X765900Y535243D01*
X765917Y535240D01*
X765932Y535231D01*
X768246Y534376D01*
X768263Y534373D01*
X768278Y534364D01*
X768762Y534294D01*
X769244Y534217D01*
X769261Y534221D01*
X769278Y534219D01*
X775841Y534558D01*
X775841Y534558D01*
X776992Y534618D01*
X777467Y534738D01*
X777942Y534852D01*
X780037Y535816D01*
X780433Y536103D01*
X780832Y536385D01*
X781579Y537172D01*
X781999Y537494D01*
X783361Y539270D01*
X784218Y541337D01*
X784510Y543556D01*
X784485D01*
X784485Y543557D01*
Y548846D01*
X784485Y548847D01*
X784510D01*
X784218Y551065D01*
X783361Y553133D01*
X781999Y554909D01*
X780223Y556271D01*
X778568Y556957D01*
X778538Y556977D01*
X778502Y556984D01*
X778156Y557128D01*
X775937Y557420D01*
D02*
G37*
G36*
X723418Y562985D02*
X721237Y562551D01*
X719389Y561316D01*
X718154Y559468D01*
X717720Y557288D01*
X718154Y555107D01*
X719389Y553259D01*
X721237Y552024D01*
X723418Y551590D01*
X725598Y552024D01*
X727446Y553259D01*
X728681Y555107D01*
X729115Y557288D01*
X728681Y559468D01*
X727446Y561316D01*
X725598Y562551D01*
X723418Y562985D01*
D02*
G37*
G36*
X647967Y553986D02*
X645786Y553552D01*
X643938Y552317D01*
X642703Y550469D01*
X642269Y548288D01*
X642703Y546108D01*
X643938Y544260D01*
X645786Y543025D01*
X647967Y542591D01*
X650147Y543025D01*
X651995Y544260D01*
X653231Y546108D01*
X653664Y548288D01*
X653231Y550469D01*
X651995Y552317D01*
X650147Y553552D01*
X647967Y553986D01*
D02*
G37*
G36*
X696967Y550986D02*
X694786Y550552D01*
X692938Y549317D01*
X691703Y547469D01*
X691269Y545288D01*
X691703Y543108D01*
X692938Y541260D01*
X694786Y540025D01*
X696967Y539591D01*
X699147Y540025D01*
X700995Y541260D01*
X702231Y543108D01*
X702664Y545288D01*
X702231Y547469D01*
X700995Y549317D01*
X699147Y550552D01*
X696967Y550986D01*
D02*
G37*
G36*
X406013Y519805D02*
X405652Y519758D01*
X405571Y519770D01*
X400241Y519494D01*
X400057Y519447D01*
X398463Y519238D01*
X396395Y518381D01*
X396026Y518097D01*
X395503Y517857D01*
X395107Y517570D01*
X394708Y517288D01*
X393120Y515615D01*
X392858Y515201D01*
X392592Y514792D01*
X391737Y512650D01*
X391648Y512169D01*
X391553Y511690D01*
Y510537D01*
X391553Y510536D01*
Y505246D01*
X391553Y505246D01*
Y504013D01*
X391556Y503996D01*
X391553Y503979D01*
X391655Y503501D01*
X391750Y503022D01*
X391759Y503007D01*
X391763Y502991D01*
X392737Y500723D01*
X392746Y500709D01*
X392750Y500693D01*
X393032Y500293D01*
X393309Y499891D01*
X393323Y499881D01*
X393333Y499867D01*
X395122Y498168D01*
X395137Y498159D01*
X395147Y498145D01*
X395564Y497889D01*
X395977Y497629D01*
X395993Y497626D01*
X396008Y497617D01*
X398323Y496762D01*
X398339Y496759D01*
X398354Y496750D01*
X398838Y496680D01*
X399321Y496603D01*
X399337Y496607D01*
X399354Y496604D01*
X400586Y496668D01*
X400586Y496668D01*
X407069Y497004D01*
X407544Y497124D01*
X408018Y497237D01*
X410113Y498202D01*
X410510Y498490D01*
X410908Y498771D01*
X411655Y499557D01*
X412075Y499880D01*
X413437Y501655D01*
X414294Y503723D01*
X414586Y505942D01*
X414562D01*
Y511232D01*
X414586D01*
X414294Y513451D01*
X413437Y515519D01*
X412075Y517294D01*
X410299Y518657D01*
X408232Y519513D01*
X406013Y519805D01*
D02*
G37*
G36*
X518967Y541986D02*
X516786Y541552D01*
X514938Y540317D01*
X513703Y538469D01*
X513269Y536288D01*
X513703Y534108D01*
X514938Y532260D01*
X516786Y531025D01*
X517233Y530936D01*
Y529641D01*
X516786Y529552D01*
X514938Y528317D01*
X513703Y526469D01*
X513269Y524288D01*
X513703Y522108D01*
X514938Y520260D01*
X516786Y519025D01*
X518967Y518591D01*
X521147Y519025D01*
X522995Y520260D01*
X524230Y522108D01*
X524664Y524288D01*
X524230Y526469D01*
X522995Y528317D01*
X521147Y529552D01*
X520701Y529641D01*
Y530936D01*
X521147Y531025D01*
X522995Y532260D01*
X524230Y534108D01*
X524664Y536288D01*
X524230Y538469D01*
X522995Y540317D01*
X521147Y541552D01*
X518967Y541986D01*
D02*
G37*
G36*
X682967Y538986D02*
X680786Y538552D01*
X678938Y537317D01*
X677703Y535469D01*
X677269Y533288D01*
X677703Y531108D01*
X678585Y529788D01*
X677703Y528469D01*
X677269Y526288D01*
X677703Y524108D01*
X678585Y522788D01*
X677703Y521469D01*
X677269Y519288D01*
X677703Y517108D01*
X678585Y515788D01*
X677703Y514469D01*
X677269Y512288D01*
X677703Y510108D01*
X678938Y508260D01*
X680786Y507025D01*
X682967Y506591D01*
X685147Y507025D01*
X686995Y508260D01*
X688231Y510108D01*
X688664Y512288D01*
X688231Y514469D01*
X687349Y515788D01*
X688231Y517108D01*
X688664Y519288D01*
X688231Y521469D01*
X687349Y522788D01*
X688231Y524108D01*
X688664Y526288D01*
X688231Y528469D01*
X687349Y529788D01*
X688231Y531108D01*
X688664Y533288D01*
X688231Y535469D01*
X686995Y537317D01*
X685147Y538552D01*
X682967Y538986D01*
D02*
G37*
G36*
X409967Y487986D02*
X407786Y487552D01*
X406467Y486670D01*
X405147Y487552D01*
X402967Y487986D01*
X400786Y487552D01*
X398938Y486317D01*
X397703Y484469D01*
X397269Y482288D01*
X397703Y480108D01*
X398938Y478260D01*
X400786Y477025D01*
X402967Y476591D01*
X405147Y477025D01*
X406467Y477906D01*
X407786Y477025D01*
X409967Y476591D01*
X412147Y477025D01*
X413996Y478260D01*
X415230Y480108D01*
X415664Y482288D01*
X415230Y484469D01*
X413996Y486317D01*
X412147Y487552D01*
X409967Y487986D01*
D02*
G37*
G36*
X436967Y449986D02*
X434786Y449552D01*
X432938Y448317D01*
X431703Y446469D01*
X431269Y444288D01*
X431703Y442108D01*
X432938Y440260D01*
X434786Y439025D01*
X436967Y438591D01*
X439147Y439025D01*
X440995Y440260D01*
X442230Y442108D01*
X442664Y444288D01*
X442230Y446469D01*
X440995Y448317D01*
X439147Y449552D01*
X436967Y449986D01*
D02*
G37*
G36*
X412967D02*
X410786Y449552D01*
X408938Y448317D01*
X407703Y446469D01*
X407269Y444288D01*
X407703Y442108D01*
X408938Y440260D01*
X410786Y439025D01*
X412967Y438591D01*
X415147Y439025D01*
X416996Y440260D01*
X418231Y442108D01*
X418664Y444288D01*
X418231Y446469D01*
X416996Y448317D01*
X415147Y449552D01*
X412967Y449986D01*
D02*
G37*
G36*
X632967Y422986D02*
X630786Y422552D01*
X628938Y421317D01*
X627703Y419469D01*
X627269Y417288D01*
X626079Y416765D01*
X624967Y416986D01*
X622786Y416552D01*
X620938Y415317D01*
X619703Y413469D01*
X619269Y411288D01*
X619703Y409108D01*
X620938Y407260D01*
X622786Y406025D01*
X624967Y405591D01*
X627147Y406025D01*
X628996Y407260D01*
X630230Y409108D01*
X630664Y411288D01*
X631855Y411812D01*
X632967Y411591D01*
X635147Y412025D01*
X636996Y413260D01*
X638231Y415108D01*
X638664Y417288D01*
X638231Y419469D01*
X636996Y421317D01*
X635147Y422552D01*
X632967Y422986D01*
D02*
G37*
G36*
X669967Y426986D02*
X667786Y426552D01*
X665938Y425317D01*
X664703Y423469D01*
X664269Y421288D01*
X664703Y419108D01*
X665938Y417260D01*
X667786Y416025D01*
X669967Y415591D01*
X672147Y416025D01*
X673996Y417260D01*
X675231Y419108D01*
X675664Y421288D01*
X675231Y423469D01*
X673996Y425317D01*
X672147Y426552D01*
X669967Y426986D01*
D02*
G37*
G36*
X489967D02*
X487786Y426552D01*
X485938Y425317D01*
X484703Y423469D01*
X484269Y421288D01*
X484703Y419108D01*
X485938Y417260D01*
X487786Y416025D01*
X489967Y415591D01*
X492147Y416025D01*
X493996Y417260D01*
X495230Y419108D01*
X495664Y421288D01*
X495230Y423469D01*
X493996Y425317D01*
X492147Y426552D01*
X489967Y426986D01*
D02*
G37*
G36*
X650965Y413984D02*
X648785Y413551D01*
X646936Y412316D01*
X646395Y411505D01*
X644994Y411316D01*
X643145Y412551D01*
X640965Y412984D01*
X638785Y412551D01*
X636936Y411316D01*
X635701Y409467D01*
X635267Y407287D01*
X635701Y405107D01*
X636936Y403258D01*
X638785Y402023D01*
X640965Y401589D01*
X643145Y402023D01*
X644994Y403258D01*
X645535Y404069D01*
X646936Y404258D01*
X648785Y403023D01*
X650965Y402589D01*
X653145Y403023D01*
X654994Y404258D01*
X656229Y406107D01*
X656662Y408287D01*
X656229Y410467D01*
X654994Y412316D01*
X653145Y413551D01*
X650965Y413984D01*
D02*
G37*
G36*
X511967Y415986D02*
X509786Y415552D01*
X507938Y414317D01*
X506703Y412469D01*
X506269Y410288D01*
X506366Y409804D01*
X505286Y408723D01*
X503967Y408986D01*
X501786Y408552D01*
X499938Y407317D01*
X498703Y405469D01*
X498269Y403288D01*
X498490Y402177D01*
X497967Y400986D01*
X495786Y400552D01*
X493938Y399317D01*
X492703Y397469D01*
X492269Y395288D01*
X492703Y393108D01*
X493938Y391260D01*
X495786Y390025D01*
X497967Y389591D01*
X500147Y390025D01*
X501996Y391260D01*
X503231Y393108D01*
X503664Y395288D01*
X503443Y396400D01*
X503967Y397591D01*
X506147Y398025D01*
X507995Y399260D01*
X509231Y401108D01*
X509664Y403288D01*
X509568Y403773D01*
X510648Y404853D01*
X511967Y404591D01*
X514147Y405025D01*
X515995Y406260D01*
X517230Y408108D01*
X517664Y410288D01*
X517230Y412469D01*
X515995Y414317D01*
X514147Y415552D01*
X511967Y415986D01*
D02*
G37*
G36*
X452967Y416986D02*
X450786Y416552D01*
X448938Y415317D01*
X447703Y413469D01*
X447269Y411288D01*
X447703Y409108D01*
X448938Y407260D01*
X450786Y406025D01*
X452967Y405591D01*
X455147Y406025D01*
X456996Y407260D01*
X458231Y409108D01*
X458664Y411288D01*
X458231Y413469D01*
X456996Y415317D01*
X455147Y416552D01*
X452967Y416986D01*
D02*
G37*
G36*
X433967Y415986D02*
X431786Y415552D01*
X429938Y414317D01*
X428703Y412469D01*
X428269Y410288D01*
X428703Y408108D01*
X429938Y406260D01*
X431786Y405025D01*
X433967Y404591D01*
X436147Y405025D01*
X437995Y406260D01*
X439230Y408108D01*
X439664Y410288D01*
X439230Y412469D01*
X437995Y414317D01*
X436147Y415552D01*
X433967Y415986D01*
D02*
G37*
G36*
X526967D02*
X524786Y415552D01*
X522938Y414317D01*
X521703Y412469D01*
X521269Y410288D01*
X521703Y408108D01*
X522938Y406260D01*
X524786Y405025D01*
X526967Y404591D01*
X527434Y404123D01*
X527268Y403287D01*
X527489Y402175D01*
X526965Y400984D01*
X524785Y400551D01*
X522936Y399316D01*
X521701Y397467D01*
X521268Y395287D01*
X521701Y393107D01*
X522936Y391258D01*
X524785Y390023D01*
X526965Y389589D01*
X529146Y390023D01*
X530994Y391258D01*
X532229Y393107D01*
X532663Y395287D01*
X532441Y396399D01*
X532965Y397589D01*
X535145Y398023D01*
X536994Y399258D01*
X538229Y401107D01*
X538663Y403287D01*
X538229Y405467D01*
X536994Y407316D01*
X535145Y408551D01*
X532965Y408984D01*
X532498Y409452D01*
X532664Y410288D01*
X532230Y412469D01*
X530995Y414317D01*
X529147Y415552D01*
X526967Y415986D01*
D02*
G37*
G36*
X306967Y393986D02*
X304786Y393552D01*
X302938Y392317D01*
X301703Y390469D01*
X301269Y388288D01*
X301703Y386108D01*
X302585Y384788D01*
X301703Y383469D01*
X301269Y381288D01*
X301703Y379108D01*
X302938Y377260D01*
X304786Y376025D01*
X306967Y375591D01*
X309147Y376025D01*
X310996Y377260D01*
X312230Y379108D01*
X312664Y381288D01*
X312230Y383469D01*
X311349Y384788D01*
X312230Y386108D01*
X312664Y388288D01*
X312230Y390469D01*
X310996Y392317D01*
X309147Y393552D01*
X306967Y393986D01*
D02*
G37*
G36*
X463965Y386984D02*
X461785Y386550D01*
X459936Y385316D01*
X458701Y383467D01*
X458268Y381287D01*
X458701Y379106D01*
X459936Y377258D01*
X461785Y376023D01*
X463965Y375589D01*
X466146Y376023D01*
X467994Y377258D01*
X469229Y379106D01*
X469663Y381287D01*
X469229Y383467D01*
X467994Y385316D01*
X466146Y386550D01*
X463965Y386984D01*
D02*
G37*
G36*
X530967Y377986D02*
X528786Y377552D01*
X526938Y376317D01*
X525703Y374469D01*
X525269Y372288D01*
X525703Y370108D01*
X526938Y368260D01*
X528786Y367025D01*
X530967Y366591D01*
X533147Y367025D01*
X534995Y368260D01*
X536231Y370108D01*
X536664Y372288D01*
X536231Y374469D01*
X534995Y376317D01*
X533147Y377552D01*
X530967Y377986D01*
D02*
G37*
G36*
X575967Y373986D02*
X573786Y373552D01*
X571938Y372317D01*
X570703Y370469D01*
X570269Y368288D01*
X570703Y366108D01*
X571938Y364260D01*
X573786Y363025D01*
X575967Y362591D01*
X578147Y363025D01*
X579723Y364078D01*
X580938Y362260D01*
X582786Y361025D01*
X584967Y360591D01*
X587147Y361025D01*
X588996Y362260D01*
X590230Y364108D01*
X590664Y366288D01*
X590230Y368469D01*
X588996Y370317D01*
X587147Y371552D01*
X584967Y371986D01*
X582786Y371552D01*
X581210Y370499D01*
X579995Y372317D01*
X578147Y373552D01*
X575967Y373986D01*
D02*
G37*
G36*
X557967Y356986D02*
X555786Y356552D01*
X553938Y355317D01*
X552703Y353469D01*
X552269Y351288D01*
X552703Y349108D01*
X553938Y347260D01*
X555786Y346025D01*
X557967Y345591D01*
X560147Y346025D01*
X561996Y347260D01*
X563231Y349108D01*
X563664Y351288D01*
X563231Y353469D01*
X561996Y355317D01*
X560147Y356552D01*
X557967Y356986D01*
D02*
G37*
G36*
X421967Y347986D02*
X419786Y347552D01*
X417938Y346317D01*
X416703Y344469D01*
X416269Y342288D01*
X416703Y340108D01*
X417938Y338260D01*
X419786Y337025D01*
X421967Y336591D01*
X424147Y337025D01*
X425995Y338260D01*
X427230Y340108D01*
X427664Y342288D01*
X427230Y344469D01*
X425995Y346317D01*
X424147Y347552D01*
X421967Y347986D01*
D02*
G37*
G36*
X383967Y341986D02*
X381786Y341552D01*
X379938Y340317D01*
X378703Y338469D01*
X378269Y336288D01*
X378703Y334108D01*
X379938Y332260D01*
X381786Y331025D01*
X383967Y330591D01*
X386147Y331025D01*
X387995Y332260D01*
X389230Y334108D01*
X389664Y336288D01*
X389230Y338469D01*
X387995Y340317D01*
X386147Y341552D01*
X383967Y341986D01*
D02*
G37*
G36*
X679967Y317986D02*
X677786Y317552D01*
X675938Y316317D01*
X674703Y314469D01*
X674269Y312288D01*
X674703Y310108D01*
X675938Y308260D01*
X677786Y307025D01*
X679967Y306591D01*
X682147Y307025D01*
X683996Y308260D01*
X685230Y310108D01*
X685664Y312288D01*
X685230Y314469D01*
X683996Y316317D01*
X682147Y317552D01*
X679967Y317986D01*
D02*
G37*
G36*
X690967Y310986D02*
X688786Y310552D01*
X686938Y309317D01*
X685703Y307469D01*
X685269Y305288D01*
X685703Y303108D01*
X686938Y301260D01*
X688786Y300025D01*
X690967Y299591D01*
X693147Y300025D01*
X694995Y301260D01*
X696230Y303108D01*
X696664Y305288D01*
X696230Y307469D01*
X694995Y309317D01*
X693147Y310552D01*
X690967Y310986D01*
D02*
G37*
G36*
X663967Y299986D02*
X661786Y299552D01*
X659967Y298336D01*
X658147Y299552D01*
X655967Y299986D01*
X653786Y299552D01*
X651938Y298317D01*
X650703Y296469D01*
X650269Y294288D01*
X650703Y292108D01*
X651938Y290260D01*
X653786Y289025D01*
X655967Y288591D01*
X658147Y289025D01*
X659967Y290240D01*
X661786Y289025D01*
X663967Y288591D01*
X666147Y289025D01*
X667996Y290260D01*
X669230Y292108D01*
X669664Y294288D01*
X669230Y296469D01*
X667996Y298317D01*
X666147Y299552D01*
X663967Y299986D01*
D02*
G37*
G36*
X393967Y303986D02*
X391786Y303552D01*
X389938Y302317D01*
X388703Y300469D01*
X388269Y298288D01*
X388703Y296108D01*
X389938Y294260D01*
X391786Y293025D01*
X393967Y292591D01*
X396147Y293025D01*
X397995Y294260D01*
X399230Y296108D01*
X399664Y298288D01*
X399230Y300469D01*
X397995Y302317D01*
X396147Y303552D01*
X393967Y303986D01*
D02*
G37*
G36*
X253967Y284907D02*
X251786Y284473D01*
X250439Y283572D01*
X249498Y284201D01*
X247318Y284634D01*
X245138Y284201D01*
X243289Y282966D01*
X242054Y281117D01*
X241621Y278937D01*
X242054Y276757D01*
X243289Y274908D01*
X245138Y273673D01*
X247318Y273240D01*
X249498Y273673D01*
X250846Y274574D01*
X251786Y273945D01*
X253967Y273512D01*
X256147Y273945D01*
X257995Y275180D01*
X259230Y277029D01*
X259664Y279209D01*
X259230Y281389D01*
X257995Y283238D01*
X256147Y284473D01*
X253967Y284907D01*
D02*
G37*
G36*
X364967Y278986D02*
X362786Y278552D01*
X360938Y277317D01*
X359703Y275469D01*
X359269Y273288D01*
X359703Y271108D01*
X360938Y269260D01*
X362786Y268025D01*
X364967Y267591D01*
X367147Y268025D01*
X368996Y269260D01*
X370231Y271108D01*
X370664Y273288D01*
X370231Y275469D01*
X368996Y277317D01*
X367147Y278552D01*
X364967Y278986D01*
D02*
G37*
G36*
X637967D02*
X635786Y278552D01*
X633938Y277317D01*
X632703Y275469D01*
X632269Y273288D01*
X632703Y271108D01*
X633938Y269260D01*
X635786Y268025D01*
X637967Y267591D01*
X640147Y268025D01*
X641467Y268906D01*
X642786Y268025D01*
X644967Y267591D01*
X647147Y268025D01*
X648996Y269260D01*
X650230Y271108D01*
X650664Y273288D01*
X650230Y275469D01*
X648996Y277317D01*
X647147Y278552D01*
X644967Y278986D01*
X642786Y278552D01*
X641467Y277670D01*
X640147Y278552D01*
X637967Y278986D01*
D02*
G37*
G36*
X462967Y245986D02*
X460786Y245552D01*
X458938Y244317D01*
X457703Y242469D01*
X457269Y240288D01*
X457703Y238108D01*
X458938Y236260D01*
X460786Y235025D01*
X462967Y234591D01*
X465147Y235025D01*
X466996Y236260D01*
X468231Y238108D01*
X468664Y240288D01*
X468231Y242469D01*
X466996Y244317D01*
X465147Y245552D01*
X462967Y245986D01*
D02*
G37*
G36*
X239967Y237986D02*
X237786Y237552D01*
X235938Y236317D01*
X234703Y234469D01*
X234269Y232288D01*
X234703Y230108D01*
X235251Y229288D01*
X234703Y228469D01*
X234269Y226288D01*
X234703Y224108D01*
X235938Y222260D01*
X237786Y221025D01*
X239967Y220591D01*
X242147Y221025D01*
X243995Y222260D01*
X245231Y224108D01*
X245664Y226288D01*
X245231Y228469D01*
X244683Y229288D01*
X245231Y230108D01*
X245664Y232288D01*
X245231Y234469D01*
X243995Y236317D01*
X242147Y237552D01*
X239967Y237986D01*
D02*
G37*
G36*
X589967Y224986D02*
X587786Y224552D01*
X585938Y223317D01*
X584703Y221469D01*
X584269Y219288D01*
X584703Y217108D01*
X585585Y215788D01*
X584703Y214469D01*
X584269Y212288D01*
X584703Y210108D01*
X585938Y208260D01*
X587786Y207025D01*
X589967Y206591D01*
X592147Y207025D01*
X593996Y208260D01*
X595230Y210108D01*
X595664Y212288D01*
X595230Y214469D01*
X594349Y215788D01*
X595230Y217108D01*
X595664Y219288D01*
X595230Y221469D01*
X593996Y223317D01*
X592147Y224552D01*
X589967Y224986D01*
D02*
G37*
G36*
X383967Y192986D02*
X381786Y192552D01*
X379938Y191317D01*
X378703Y189469D01*
X378269Y187288D01*
X378703Y185108D01*
X379938Y183260D01*
X381786Y182025D01*
X383967Y181591D01*
X386147Y182025D01*
X387995Y183260D01*
X389230Y185108D01*
X389664Y187288D01*
X389230Y189469D01*
X387995Y191317D01*
X386147Y192552D01*
X383967Y192986D01*
D02*
G37*
G36*
X309967Y181201D02*
X307786Y180767D01*
X306342Y179802D01*
X305467Y179627D01*
X304591Y179802D01*
X303147Y180767D01*
X300967Y181201D01*
X298786Y180767D01*
X296938Y179532D01*
X295703Y177684D01*
X295269Y175503D01*
X295703Y173323D01*
X296938Y171475D01*
X298786Y170240D01*
X300967Y169806D01*
X303147Y170240D01*
X304591Y171204D01*
X305467Y171380D01*
X306342Y171204D01*
X307786Y170240D01*
X309967Y169806D01*
X312147Y170240D01*
X313995Y171475D01*
X315231Y173323D01*
X315664Y175503D01*
X315231Y177684D01*
X313995Y179532D01*
X312147Y180767D01*
X309967Y181201D01*
D02*
G37*
G36*
X766967Y185986D02*
X764786Y185552D01*
X762938Y184317D01*
X761703Y182469D01*
X761269Y180288D01*
X761703Y178108D01*
X762938Y176260D01*
X764786Y175025D01*
X766967Y174591D01*
X769147Y175025D01*
X770995Y176260D01*
X772231Y178108D01*
X772664Y180288D01*
X772231Y182469D01*
X770995Y184317D01*
X769147Y185552D01*
X766967Y185986D01*
D02*
G37*
G36*
X397967Y183986D02*
X395786Y183552D01*
X393938Y182317D01*
X392703Y180469D01*
X392269Y178288D01*
X392703Y176108D01*
X393938Y174260D01*
X395786Y173025D01*
X397967Y172591D01*
X400147Y173025D01*
X401996Y174260D01*
X403231Y176108D01*
X403664Y178288D01*
X403231Y180469D01*
X401996Y182317D01*
X400147Y183552D01*
X397967Y183986D01*
D02*
G37*
G36*
X798967Y177986D02*
X796786Y177552D01*
X794938Y176317D01*
X793703Y174469D01*
X793269Y172288D01*
X793703Y170108D01*
X794938Y168260D01*
X796786Y167025D01*
X798967Y166591D01*
X801147Y167025D01*
X802996Y168260D01*
X804230Y170108D01*
X804664Y172288D01*
X804230Y174469D01*
X802996Y176317D01*
X801147Y177552D01*
X798967Y177986D01*
D02*
G37*
G36*
X551967Y175986D02*
X549786Y175552D01*
X547938Y174317D01*
X546703Y172469D01*
X546269Y170288D01*
X546703Y168108D01*
X547938Y166260D01*
X549786Y165025D01*
X551967Y164591D01*
X554147Y165025D01*
X555995Y166260D01*
X557230Y168108D01*
X557664Y170288D01*
X557230Y172469D01*
X555995Y174317D01*
X554147Y175552D01*
X551967Y175986D01*
D02*
G37*
G36*
X410967Y165986D02*
X408786Y165552D01*
X406938Y164317D01*
X405703Y162469D01*
X405269Y160288D01*
X405703Y158108D01*
X406938Y156260D01*
X408786Y155025D01*
X410967Y154591D01*
X413147Y155025D01*
X414995Y156260D01*
X416231Y158108D01*
X416664Y160288D01*
X416231Y162469D01*
X414995Y164317D01*
X413147Y165552D01*
X410967Y165986D01*
D02*
G37*
G36*
X397967Y161986D02*
X395786Y161552D01*
X393938Y160317D01*
X392703Y158469D01*
X392269Y156288D01*
X392703Y154108D01*
X393938Y152260D01*
X395786Y151025D01*
X397967Y150591D01*
X400147Y151025D01*
X401996Y152260D01*
X403231Y154108D01*
X403664Y156288D01*
X403231Y158469D01*
X401996Y160317D01*
X400147Y161552D01*
X397967Y161986D01*
D02*
G37*
G36*
X340967Y138986D02*
X338786Y138552D01*
X336938Y137317D01*
X335703Y135469D01*
X335269Y133288D01*
X335703Y131108D01*
X336938Y129260D01*
X338786Y128025D01*
X340967Y127591D01*
X343147Y128025D01*
X344995Y129260D01*
X346231Y131108D01*
X346664Y133288D01*
X346231Y135469D01*
X344995Y137317D01*
X343147Y138552D01*
X340967Y138986D01*
D02*
G37*
G36*
X626939Y124165D02*
X626578Y124117D01*
X626498Y124129D01*
X621167Y123853D01*
X620983Y123807D01*
X619390Y123597D01*
X617322Y122741D01*
X616953Y122457D01*
X616429Y122216D01*
X616034Y121929D01*
X615635Y121647D01*
X614046Y119975D01*
X613785Y119561D01*
X613519Y119151D01*
X612664Y117009D01*
X612575Y116528D01*
X612479Y116049D01*
Y114896D01*
X612480Y114896D01*
Y109606D01*
X612479Y109606D01*
Y108372D01*
X612483Y108355D01*
X612480Y108339D01*
X612581Y107860D01*
X612677Y107381D01*
X612686Y107367D01*
X612690Y107350D01*
X613663Y105083D01*
X613673Y105069D01*
X613677Y105052D01*
X613959Y104653D01*
X614235Y104250D01*
X614250Y104241D01*
X614260Y104227D01*
X616049Y102528D01*
X616063Y102518D01*
X616073Y102505D01*
X616490Y102249D01*
X616903Y101988D01*
X616920Y101985D01*
X616935Y101976D01*
X619249Y101121D01*
X619266Y101118D01*
X619281Y101110D01*
X619764Y101039D01*
X620247Y100962D01*
X620264Y100966D01*
X620281Y100964D01*
X621513Y101028D01*
X621513Y101028D01*
X627995Y101363D01*
X628470Y101483D01*
X628945Y101597D01*
X631040Y102561D01*
X631436Y102849D01*
X631835Y103130D01*
X632581Y103916D01*
X633002Y104239D01*
X634364Y106015D01*
X635221Y108083D01*
X635513Y110302D01*
X635488D01*
Y115591D01*
X635513D01*
X635221Y117810D01*
X634364Y119878D01*
X633002Y121654D01*
X631226Y123016D01*
X629158Y123873D01*
X626939Y124165D01*
D02*
G37*
G36*
X508967Y132986D02*
X506786Y132552D01*
X504938Y131317D01*
X503703Y129469D01*
X503269Y127288D01*
X503703Y125108D01*
X504938Y123260D01*
X506786Y122025D01*
X508967Y121591D01*
X511147Y122025D01*
X512995Y123260D01*
X514230Y125108D01*
X514664Y127288D01*
X514230Y129469D01*
X512995Y131317D01*
X511147Y132552D01*
X508967Y132986D01*
D02*
G37*
G36*
X766967Y121986D02*
X764786Y121552D01*
X762938Y120317D01*
X761703Y118469D01*
X761269Y116288D01*
X761703Y114108D01*
X762938Y112260D01*
X764786Y111025D01*
X766967Y110591D01*
X769147Y111025D01*
X770995Y112260D01*
X772231Y114108D01*
X772664Y116288D01*
X772231Y118469D01*
X770995Y120317D01*
X769147Y121552D01*
X766967Y121986D01*
D02*
G37*
G36*
X427967Y116986D02*
X425786Y116552D01*
X423938Y115317D01*
X422703Y113469D01*
X422269Y111288D01*
X422703Y109108D01*
X423938Y107260D01*
X425786Y106025D01*
X427967Y105591D01*
X430147Y106025D01*
X431996Y107260D01*
X433231Y109108D01*
X433664Y111288D01*
X433231Y113469D01*
X431996Y115317D01*
X430147Y116552D01*
X427967Y116986D01*
D02*
G37*
%LPD*%
D40*
X239967Y232288D02*
D03*
Y226288D02*
D03*
X374967Y400288D02*
D03*
X354967Y448288D02*
D03*
X363967Y286288D02*
D03*
X455967Y394288D02*
D03*
X395967Y346288D02*
D03*
X409967Y416288D02*
D03*
X356967Y421288D02*
D03*
X331967Y396288D02*
D03*
X365967Y390288D02*
D03*
X282967Y384288D02*
D03*
X289967Y391288D02*
D03*
X290967Y400288D02*
D03*
Y410288D02*
D03*
Y419288D02*
D03*
X297967Y427288D02*
D03*
X305967Y435288D02*
D03*
X312967Y442288D02*
D03*
X326967Y456288D02*
D03*
X333967Y463288D02*
D03*
X349967Y478288D02*
D03*
X356967Y486288D02*
D03*
X363967Y493288D02*
D03*
X370967Y500288D02*
D03*
X378967Y507288D02*
D03*
X385967Y514288D02*
D03*
X392967Y521288D02*
D03*
X400967Y529288D02*
D03*
X275967Y377288D02*
D03*
X267967Y370288D02*
D03*
X256967Y366288D02*
D03*
X245967D02*
D03*
X238967Y359288D02*
D03*
X230967Y353288D02*
D03*
X221967D02*
D03*
X211967D02*
D03*
X201967D02*
D03*
X191967D02*
D03*
X180967D02*
D03*
X170967Y352288D02*
D03*
X163967Y345288D02*
D03*
X156967Y338288D02*
D03*
X133967Y314288D02*
D03*
X118967Y298288D02*
D03*
X101967Y282288D02*
D03*
X78967Y258288D02*
D03*
X70967Y249288D02*
D03*
X62967Y241288D02*
D03*
X186967Y294288D02*
D03*
X53967Y233288D02*
D03*
X103967Y266288D02*
D03*
X96967Y191288D02*
D03*
X122967Y167288D02*
D03*
X145967Y151288D02*
D03*
X171967Y146288D02*
D03*
X199967Y147288D02*
D03*
X228967Y145288D02*
D03*
X251967Y128288D02*
D03*
X257967Y98288D02*
D03*
X259967Y69288D02*
D03*
X261967Y49288D02*
D03*
X293967Y52288D02*
D03*
X332967Y55288D02*
D03*
X362967Y58288D02*
D03*
X421967Y68288D02*
D03*
X491967Y80288D02*
D03*
X564967Y88288D02*
D03*
X629967Y94288D02*
D03*
X665967Y101288D02*
D03*
X702967Y106288D02*
D03*
X767967Y91288D02*
D03*
X820967Y187288D02*
D03*
Y219288D02*
D03*
Y250288D02*
D03*
X821967Y274288D02*
D03*
X820967Y303288D02*
D03*
X823967Y336288D02*
D03*
X821967Y375288D02*
D03*
X822967Y416288D02*
D03*
Y455288D02*
D03*
X821967Y489288D02*
D03*
X820967Y523288D02*
D03*
X818967Y544288D02*
D03*
X797967Y547288D02*
D03*
X772967Y566288D02*
D03*
X741967Y574288D02*
D03*
X706967Y572288D02*
D03*
X408967Y537288D02*
D03*
X418967Y543288D02*
D03*
X453967Y548288D02*
D03*
X499967Y552288D02*
D03*
X536967Y557288D02*
D03*
X566967Y559288D02*
D03*
X607967Y564288D02*
D03*
X646967Y567288D02*
D03*
X678967Y570288D02*
D03*
X110967Y290288D02*
D03*
X93967Y274288D02*
D03*
Y223288D02*
D03*
X141967Y322288D02*
D03*
X134967Y299288D02*
D03*
X149967Y331288D02*
D03*
X125967Y306288D02*
D03*
X175967Y273288D02*
D03*
Y228288D02*
D03*
X207967Y214288D02*
D03*
X148967Y206288D02*
D03*
X288967Y187288D02*
D03*
X285967Y148288D02*
D03*
X290967Y105288D02*
D03*
X323967Y78288D02*
D03*
X209967Y266288D02*
D03*
X210967Y303288D02*
D03*
X216967Y332288D02*
D03*
X260967Y298288D02*
D03*
X295967Y307288D02*
D03*
X297967Y219288D02*
D03*
X319967Y449288D02*
D03*
X342967Y471288D02*
D03*
X86967Y266288D02*
D03*
X462967Y325288D02*
D03*
X500967Y320288D02*
D03*
X466967Y295288D02*
D03*
X367967Y261288D02*
D03*
X325967Y140288D02*
D03*
X326967Y240288D02*
D03*
X354967Y192288D02*
D03*
X425967Y182288D02*
D03*
X535967Y203288D02*
D03*
X502967Y228288D02*
D03*
X559967Y256288D02*
D03*
X562967Y199288D02*
D03*
X450967Y519288D02*
D03*
X495967Y523288D02*
D03*
X559967Y515288D02*
D03*
X568967Y481288D02*
D03*
X534967Y480288D02*
D03*
X488967Y474288D02*
D03*
X467967Y432288D02*
D03*
X628967Y464288D02*
D03*
X595967Y478288D02*
D03*
X538967Y381288D02*
D03*
X534967Y315288D02*
D03*
X601967Y306288D02*
D03*
X602967Y222288D02*
D03*
X699967Y255288D02*
D03*
X537967Y158288D02*
D03*
X479967Y119288D02*
D03*
X597967Y175288D02*
D03*
X413967Y149288D02*
D03*
X625967Y173288D02*
D03*
X661967Y179288D02*
D03*
X695967Y198288D02*
D03*
X753967Y202288D02*
D03*
X763967Y284288D02*
D03*
X735967Y217288D02*
D03*
X715967Y275288D02*
D03*
X783967Y180288D02*
D03*
X761967Y142288D02*
D03*
X757967Y124288D02*
D03*
X706967Y374288D02*
D03*
X722967Y387288D02*
D03*
X764967Y383288D02*
D03*
X802967Y325288D02*
D03*
X786967Y320288D02*
D03*
X746967Y321288D02*
D03*
X690967D02*
D03*
X735967Y423288D02*
D03*
X680967Y491288D02*
D03*
X768967Y496288D02*
D03*
X590967Y349288D02*
D03*
X566967Y348288D02*
D03*
X816965Y132287D02*
D03*
X372847Y1123676D02*
D03*
X780347Y1211426D02*
D03*
X779597Y1163676D02*
D03*
X708847Y1200676D02*
D03*
X623097Y1229926D02*
D03*
X471847Y1063676D02*
D03*
X86847Y1190176D02*
D03*
X243347Y1282176D02*
D03*
X283097Y1137676D02*
D03*
X327097Y1089926D02*
D03*
X600597Y966676D02*
D03*
X688347Y1319426D02*
D03*
X790597Y1245676D02*
D03*
X711597Y1296426D02*
D03*
X803347Y1221426D02*
D03*
X742847Y1269426D02*
D03*
X815347Y1193926D02*
D03*
X775347Y1265426D02*
D03*
X811597Y1155926D02*
D03*
X787347Y1127426D02*
D03*
X761847Y1099176D02*
D03*
X730347Y1075426D02*
D03*
X694097Y1066926D02*
D03*
X650347D02*
D03*
X612347Y1027426D02*
D03*
X605097Y996926D02*
D03*
X561597Y974926D02*
D03*
X507097Y978676D02*
D03*
X583847Y1313676D02*
D03*
X667097Y1268426D02*
D03*
X642097Y1290426D02*
D03*
X603597Y1288426D02*
D03*
X713847Y1251926D02*
D03*
X730347Y1237176D02*
D03*
X657347Y1206676D02*
D03*
X621847Y1196676D02*
D03*
X597347Y1213676D02*
D03*
X732597Y1144926D02*
D03*
X676597Y1132676D02*
D03*
X641597Y1132926D02*
D03*
X608597Y1142426D02*
D03*
X559347Y1228926D02*
D03*
X531847Y1186926D02*
D03*
X559347Y1154426D02*
D03*
X528597D02*
D03*
X531097Y1125176D02*
D03*
X639097Y1102426D02*
D03*
X551597Y1028426D02*
D03*
X511347Y1297926D02*
D03*
X548097Y1346926D02*
D03*
X521597Y1342926D02*
D03*
X464097Y1444926D02*
D03*
X431847Y1418426D02*
D03*
X439347Y1367676D02*
D03*
X386597Y1350676D02*
D03*
X492847Y1254176D02*
D03*
X482097Y1155676D02*
D03*
X454097Y1134176D02*
D03*
X482597Y1084176D02*
D03*
X421097Y1105426D02*
D03*
X526347Y1056176D02*
D03*
X491597Y1017426D02*
D03*
X370097Y1447926D02*
D03*
X313597Y1449676D02*
D03*
X247347Y1388676D02*
D03*
X259847Y1473176D02*
D03*
X143347Y1379426D02*
D03*
X288847Y1397426D02*
D03*
X195347Y1480676D02*
D03*
X248097Y1325426D02*
D03*
X217597Y1414176D02*
D03*
X204597Y1443426D02*
D03*
X364097Y1325176D02*
D03*
X333597Y1324426D02*
D03*
X339847Y1274426D02*
D03*
X286347Y1281176D02*
D03*
X108097Y1484426D02*
D03*
X55347Y1455926D02*
D03*
X73847Y1410926D02*
D03*
X53597Y1370176D02*
D03*
X139597Y1345176D02*
D03*
X167347Y1329176D02*
D03*
X92097Y1300676D02*
D03*
X199847Y1277676D02*
D03*
X163847Y1281676D02*
D03*
X114847D02*
D03*
X147347Y1218926D02*
D03*
X79097Y1237676D02*
D03*
X129097Y1200926D02*
D03*
X256847Y1262926D02*
D03*
X228847Y1208926D02*
D03*
X285347Y1228176D02*
D03*
X328347Y1219926D02*
D03*
X329347Y1201176D02*
D03*
X297847Y1115426D02*
D03*
X265597Y1115926D02*
D03*
X239097Y1106676D02*
D03*
X204097Y1113426D02*
D03*
X284597Y1100176D02*
D03*
X324097Y1025676D02*
D03*
X292847Y1025426D02*
D03*
X267097Y1025176D02*
D03*
X297597Y1004176D02*
D03*
X215347Y1014676D02*
D03*
X192097Y1037676D02*
D03*
X150097Y1035176D02*
D03*
X130847D02*
D03*
X68347Y1045426D02*
D03*
X99597Y1018926D02*
D03*
X55347Y1113926D02*
D03*
X75847Y1097926D02*
D03*
X103097Y1080676D02*
D03*
X131597Y1078926D02*
D03*
X224097Y1090176D02*
D03*
X185097Y1090426D02*
D03*
X667847Y1385426D02*
D03*
X345847Y1362176D02*
D03*
X444347Y1223176D02*
D03*
X434347D02*
D03*
X403597Y1189926D02*
D03*
X424847Y1189676D02*
D03*
X167347Y1412426D02*
D03*
X519097Y1203676D02*
D03*
X452847Y1227176D02*
D03*
D41*
X352626Y1034089D02*
D03*
X435630Y1022424D02*
D03*
D42*
X349663Y1038798D02*
D03*
X439777Y1026133D02*
D03*
D43*
X329728Y998985D02*
D03*
X447966Y982367D02*
D03*
D46*
X568577Y822757D02*
D03*
X487077Y828757D02*
D03*
X691827Y872007D02*
D03*
Y797007D02*
D03*
Y782007D02*
D03*
Y767007D02*
D03*
Y692007D02*
D03*
X284327Y857007D02*
D03*
X171827Y839507D02*
D03*
X209327Y642007D02*
D03*
X596827Y909507D02*
D03*
X649327Y757007D02*
D03*
X346827Y604507D02*
D03*
X684327Y899507D02*
D03*
X691827Y887007D02*
D03*
Y857007D02*
D03*
Y842007D02*
D03*
Y827007D02*
D03*
Y812007D02*
D03*
Y752007D02*
D03*
Y737007D02*
D03*
Y722007D02*
D03*
Y707007D02*
D03*
Y677007D02*
D03*
X486827Y782007D02*
D03*
X581827Y794507D02*
D03*
X676827Y672007D02*
D03*
X589327Y604507D02*
D03*
X506827D02*
D03*
X570577Y867507D02*
D03*
X546827Y604507D02*
D03*
X461827D02*
D03*
X666827Y902007D02*
D03*
X622577Y868507D02*
D03*
X349327Y917007D02*
D03*
X291827Y897007D02*
D03*
X164327Y684507D02*
D03*
X201827Y737007D02*
D03*
X379327Y714507D02*
D03*
X311827Y749507D02*
D03*
X244327Y627007D02*
D03*
X194327Y779507D02*
D03*
X579327Y704507D02*
D03*
X656827Y662007D02*
D03*
X636827Y619507D02*
D03*
X646827Y804507D02*
D03*
X506827Y904757D02*
D03*
X326577Y807007D02*
D03*
X404327Y914507D02*
D03*
X345577Y812007D02*
D03*
X379327Y674507D02*
D03*
X461827Y672007D02*
D03*
X421827Y604507D02*
D03*
Y677007D02*
D03*
X349327Y752007D02*
D03*
X381827Y604507D02*
D03*
X146827Y814507D02*
D03*
X279327Y622007D02*
D03*
X309327Y822007D02*
D03*
X449327Y794507D02*
D03*
X479327Y874507D02*
D03*
X204327Y842007D02*
D03*
X226827Y684507D02*
D03*
M02*
