G04 Layer_Color=8388736*
%FSLAX44Y44*%
%MOMM*%
G71*
G01*
G75*
%ADD40C,0.6096*%
G04:AMPARAMS|DCode=94|XSize=2.6032mm|YSize=1.7032mm|CornerRadius=0mm|HoleSize=0mm|Usage=FLASHONLY|Rotation=273.000|XOffset=0mm|YOffset=0mm|HoleType=Round|Shape=Rectangle|*
%AMROTATEDRECTD94*
4,1,4,-0.9186,1.2552,0.7823,1.3444,0.9186,-1.2552,-0.7823,-1.3444,-0.9186,1.2552,0.0*
%
%ADD94ROTATEDRECTD94*%

%ADD95R,1.1032X1.3032*%
G04:AMPARAMS|DCode=96|XSize=2.6032mm|YSize=1.7032mm|CornerRadius=0mm|HoleSize=0mm|Usage=FLASHONLY|Rotation=274.000|XOffset=0mm|YOffset=0mm|HoleType=Round|Shape=Rectangle|*
%AMROTATEDRECTD96*
4,1,4,-0.9403,1.2390,0.7587,1.3578,0.9403,-1.2390,-0.7587,-1.3578,-0.9403,1.2390,0.0*
%
%ADD96ROTATEDRECTD96*%

G04:AMPARAMS|DCode=97|XSize=2.6032mm|YSize=1.7032mm|CornerRadius=0mm|HoleSize=0mm|Usage=FLASHONLY|Rotation=103.000|XOffset=0mm|YOffset=0mm|HoleType=Round|Shape=Rectangle|*
%AMROTATEDRECTD97*
4,1,4,1.1226,-1.0767,-0.5370,-1.4598,-1.1226,1.0767,0.5370,1.4598,1.1226,-1.0767,0.0*
%
%ADD97ROTATEDRECTD97*%

%ADD98R,1.3032X1.1032*%
G04:AMPARAMS|DCode=99|XSize=2.6032mm|YSize=1.7032mm|CornerRadius=0mm|HoleSize=0mm|Usage=FLASHONLY|Rotation=132.000|XOffset=0mm|YOffset=0mm|HoleType=Round|Shape=Rectangle|*
%AMROTATEDRECTD99*
4,1,4,1.5038,-0.3974,0.2381,-1.5371,-1.5038,0.3974,-0.2381,1.5371,1.5038,-0.3974,0.0*
%
%ADD99ROTATEDRECTD99*%

G04:AMPARAMS|DCode=100|XSize=2.6032mm|YSize=1.7032mm|CornerRadius=0mm|HoleSize=0mm|Usage=FLASHONLY|Rotation=87.000|XOffset=0mm|YOffset=0mm|HoleType=Round|Shape=Rectangle|*
%AMROTATEDRECTD100*
4,1,4,0.7823,-1.3444,-0.9186,-1.2552,-0.7823,1.3444,0.9186,1.2552,0.7823,-1.3444,0.0*
%
%ADD100ROTATEDRECTD100*%

G04:AMPARAMS|DCode=101|XSize=2.6032mm|YSize=1.7032mm|CornerRadius=0mm|HoleSize=0mm|Usage=FLASHONLY|Rotation=256.000|XOffset=0mm|YOffset=0mm|HoleType=Round|Shape=Rectangle|*
%AMROTATEDRECTD101*
4,1,4,-0.5114,1.4690,1.1412,1.0569,0.5114,-1.4690,-1.1412,-1.0569,-0.5114,1.4690,0.0*
%
%ADD101ROTATEDRECTD101*%

G04:AMPARAMS|DCode=102|XSize=2.6032mm|YSize=1.7032mm|CornerRadius=0mm|HoleSize=0mm|Usage=FLASHONLY|Rotation=88.000|XOffset=0mm|YOffset=0mm|HoleType=Round|Shape=Rectangle|*
%AMROTATEDRECTD102*
4,1,4,0.8057,-1.3305,-0.8965,-1.2711,-0.8057,1.3305,0.8965,1.2711,0.8057,-1.3305,0.0*
%
%ADD102ROTATEDRECTD102*%

G04:AMPARAMS|DCode=103|XSize=2.6032mm|YSize=1.7032mm|CornerRadius=0mm|HoleSize=0mm|Usage=FLASHONLY|Rotation=86.000|XOffset=0mm|YOffset=0mm|HoleType=Round|Shape=Rectangle|*
%AMROTATEDRECTD103*
4,1,4,0.7587,-1.3578,-0.9403,-1.2390,-0.7587,1.3578,0.9403,1.2390,0.7587,-1.3578,0.0*
%
%ADD103ROTATEDRECTD103*%

%ADD104R,2.7032X1.7032*%
%ADD105R,2.7032X2.2032*%
%ADD106R,2.2032X2.7032*%
G04:AMPARAMS|DCode=107|XSize=1.3032mm|YSize=1.1032mm|CornerRadius=0mm|HoleSize=0mm|Usage=FLASHONLY|Rotation=315.000|XOffset=0mm|YOffset=0mm|HoleType=Round|Shape=Rectangle|*
%AMROTATEDRECTD107*
4,1,4,-0.8508,0.0707,-0.0707,0.8508,0.8508,-0.0707,0.0707,-0.8508,-0.8508,0.0707,0.0*
%
%ADD107ROTATEDRECTD107*%

G04:AMPARAMS|DCode=108|XSize=1.7032mm|YSize=2.2032mm|CornerRadius=0.4766mm|HoleSize=0mm|Usage=FLASHONLY|Rotation=90.000|XOffset=0mm|YOffset=0mm|HoleType=Round|Shape=RoundedRectangle|*
%AMROUNDEDRECTD108*
21,1,1.7032,1.2500,0,0,90.0*
21,1,0.7500,2.2032,0,0,90.0*
1,1,0.9532,0.6250,0.3750*
1,1,0.9532,0.6250,-0.3750*
1,1,0.9532,-0.6250,-0.3750*
1,1,0.9532,-0.6250,0.3750*
%
%ADD108ROUNDEDRECTD108*%
G04:AMPARAMS|DCode=109|XSize=2.2032mm|YSize=3.2032mm|CornerRadius=0.6016mm|HoleSize=0mm|Usage=FLASHONLY|Rotation=90.000|XOffset=0mm|YOffset=0mm|HoleType=Round|Shape=RoundedRectangle|*
%AMROUNDEDRECTD109*
21,1,2.2032,2.0000,0,0,90.0*
21,1,1.0000,3.2032,0,0,90.0*
1,1,1.2032,1.0000,0.5000*
1,1,1.2032,1.0000,-0.5000*
1,1,1.2032,-1.0000,-0.5000*
1,1,1.2032,-1.0000,0.5000*
%
%ADD109ROUNDEDRECTD109*%
G04:AMPARAMS|DCode=110|XSize=0.5032mm|YSize=1.9032mm|CornerRadius=0mm|HoleSize=0mm|Usage=FLASHONLY|Rotation=135.000|XOffset=0mm|YOffset=0mm|HoleType=Round|Shape=Round|*
%AMOVALD110*
21,1,1.4000,0.5032,0.0000,0.0000,225.0*
1,1,0.5032,0.4950,0.4950*
1,1,0.5032,-0.4950,-0.4950*
%
%ADD110OVALD110*%

G04:AMPARAMS|DCode=111|XSize=0.5032mm|YSize=1.9032mm|CornerRadius=0mm|HoleSize=0mm|Usage=FLASHONLY|Rotation=45.000|XOffset=0mm|YOffset=0mm|HoleType=Round|Shape=Round|*
%AMOVALD111*
21,1,1.4000,0.5032,0.0000,0.0000,135.0*
1,1,0.5032,0.4950,-0.4950*
1,1,0.5032,-0.4950,0.4950*
%
%ADD111OVALD111*%

G04:AMPARAMS|DCode=112|XSize=1.2032mm|YSize=1.4032mm|CornerRadius=0mm|HoleSize=0mm|Usage=FLASHONLY|Rotation=225.000|XOffset=0mm|YOffset=0mm|HoleType=Round|Shape=Rectangle|*
%AMROTATEDRECTD112*
4,1,4,-0.0707,0.9215,0.9215,-0.0707,0.0707,-0.9215,-0.9215,0.0707,-0.0707,0.9215,0.0*
%
%ADD112ROTATEDRECTD112*%

%ADD113R,0.9532X1.3532*%
%ADD114R,2.9532X1.7532*%
%ADD115R,2.3032X2.3532*%
%ADD116O,0.8032X1.9032*%
%ADD117O,3.2032X1.2032*%
G04:AMPARAMS|DCode=118|XSize=1.9192mm|YSize=1.0612mm|CornerRadius=0mm|HoleSize=0mm|Usage=FLASHONLY|Rotation=352.000|XOffset=0mm|YOffset=0mm|HoleType=Round|Shape=Round|*
%AMOVALD118*
21,1,0.8580,1.0612,0.0000,0.0000,352.0*
1,1,1.0612,-0.4248,0.0597*
1,1,1.0612,0.4248,-0.0597*
%
%ADD118OVALD118*%

G04:AMPARAMS|DCode=119|XSize=2.2192mm|YSize=1.2112mm|CornerRadius=0mm|HoleSize=0mm|Usage=FLASHONLY|Rotation=82.000|XOffset=0mm|YOffset=0mm|HoleType=Round|Shape=Round|*
%AMOVALD119*
21,1,1.0080,1.2112,0.0000,0.0000,82.0*
1,1,1.2112,-0.0701,-0.4991*
1,1,1.2112,0.0701,0.4991*
%
%ADD119OVALD119*%

G04:AMPARAMS|DCode=120|XSize=2.4032mm|YSize=1.3032mm|CornerRadius=0mm|HoleSize=0mm|Usage=FLASHONLY|Rotation=82.000|XOffset=0mm|YOffset=0mm|HoleType=Round|Shape=Round|*
%AMOVALD120*
21,1,1.1000,1.3032,0.0000,0.0000,82.0*
1,1,1.3032,-0.0766,-0.5446*
1,1,1.3032,0.0766,0.5446*
%
%ADD120OVALD120*%

%ADD121C,0.7032*%
%ADD122C,0.2032*%
%ADD123C,2.7032*%
G36*
X445514Y724302D02*
X445764Y724274D01*
X446041Y724246D01*
X446347Y724190D01*
X446680Y724135D01*
X447402Y723941D01*
X448124Y723663D01*
X448512Y723496D01*
X448845Y723302D01*
X449206Y723052D01*
X449512Y722775D01*
X449539Y722747D01*
X449595Y722719D01*
X449650Y722608D01*
X449761Y722497D01*
X449900Y722358D01*
X450039Y722164D01*
X450178Y721969D01*
X450344Y721720D01*
X450622Y721164D01*
X450900Y720526D01*
X451011Y720165D01*
X451066Y719776D01*
X451122Y719360D01*
X451149Y718943D01*
Y718888D01*
Y718721D01*
X451122Y718471D01*
X451094Y718166D01*
X451039Y717777D01*
X450955Y717361D01*
X450844Y716917D01*
X450678Y716472D01*
X450650Y716417D01*
X450594Y716278D01*
X450483Y716028D01*
X450317Y715723D01*
X450122Y715362D01*
X449873Y714946D01*
X449567Y714501D01*
X449206Y714029D01*
X449178Y714002D01*
X449067Y713863D01*
X448901Y713669D01*
X448651Y713391D01*
X448318Y713058D01*
X447901Y712614D01*
X447402Y712142D01*
X446791Y711559D01*
X446763Y711531D01*
X446708Y711503D01*
X446624Y711420D01*
X446513Y711309D01*
X446208Y711031D01*
X445847Y710698D01*
X445486Y710337D01*
X445125Y709976D01*
X444792Y709671D01*
X444681Y709532D01*
X444570Y709421D01*
X444542Y709393D01*
X444487Y709338D01*
X444403Y709227D01*
X444292Y709088D01*
X444042Y708782D01*
X443820Y708421D01*
X451149D01*
Y705007D01*
X438240D01*
Y705034D01*
Y705090D01*
X438268Y705201D01*
X438296Y705340D01*
X438323Y705507D01*
X438351Y705701D01*
X438462Y706200D01*
X438629Y706756D01*
X438851Y707366D01*
X439128Y708033D01*
X439489Y708671D01*
Y708699D01*
X439545Y708755D01*
X439600Y708866D01*
X439711Y708977D01*
X439823Y709171D01*
X439989Y709365D01*
X440183Y709615D01*
X440406Y709893D01*
X440655Y710226D01*
X440961Y710559D01*
X441294Y710948D01*
X441683Y711364D01*
X442099Y711781D01*
X442571Y712253D01*
X443071Y712752D01*
X443626Y713280D01*
X443654Y713308D01*
X443737Y713391D01*
X443848Y713502D01*
X444015Y713669D01*
X444237Y713835D01*
X444459Y714057D01*
X444959Y714557D01*
X445458Y715084D01*
X445958Y715612D01*
X446180Y715834D01*
X446402Y716084D01*
X446569Y716278D01*
X446680Y716445D01*
X446708Y716500D01*
X446791Y716639D01*
X446930Y716861D01*
X447068Y717167D01*
X447207Y717500D01*
X447346Y717888D01*
X447429Y718277D01*
X447457Y718693D01*
Y718721D01*
Y718749D01*
Y718888D01*
X447429Y719138D01*
X447374Y719415D01*
X447291Y719721D01*
X447179Y720026D01*
X447013Y720331D01*
X446791Y720609D01*
X446763Y720637D01*
X446680Y720720D01*
X446513Y720831D01*
X446319Y720942D01*
X446041Y721053D01*
X445736Y721164D01*
X445375Y721248D01*
X444959Y721275D01*
X444764D01*
X444542Y721248D01*
X444292Y721192D01*
X443987Y721109D01*
X443681Y720970D01*
X443376Y720803D01*
X443098Y720581D01*
X443071Y720554D01*
X442988Y720443D01*
X442876Y720276D01*
X442765Y720026D01*
X442626Y719721D01*
X442515Y719304D01*
X442404Y718832D01*
X442349Y718277D01*
X438684Y718638D01*
Y718666D01*
X438712Y718777D01*
Y718916D01*
X438768Y719138D01*
X438795Y719388D01*
X438879Y719665D01*
X438962Y719971D01*
X439045Y720331D01*
X439323Y721025D01*
X439656Y721747D01*
X439878Y722108D01*
X440128Y722441D01*
X440406Y722719D01*
X440711Y722997D01*
X440739Y723024D01*
X440794Y723052D01*
X440877Y723108D01*
X441016Y723219D01*
X441183Y723302D01*
X441405Y723413D01*
X441627Y723552D01*
X441905Y723663D01*
X442210Y723802D01*
X442543Y723913D01*
X443265Y724135D01*
X444126Y724274D01*
X444570Y724302D01*
X445042Y724329D01*
X445320D01*
X445514Y724302D01*
D02*
G37*
G36*
X458118Y705007D02*
X454426D01*
Y708699D01*
X458118D01*
Y705007D01*
D02*
G37*
G36*
X407979Y719221D02*
X408229Y719193D01*
X408535Y719138D01*
X408868Y719082D01*
X409229Y718999D01*
X409617Y718888D01*
X410006Y718749D01*
X410422Y718583D01*
X410839Y718360D01*
X411227Y718138D01*
X411616Y717861D01*
X412005Y717527D01*
X412338Y717167D01*
X412366Y717139D01*
X412421Y717083D01*
X412505Y716945D01*
X412616Y716778D01*
X412754Y716556D01*
X412893Y716306D01*
X413060Y715973D01*
X413226Y715612D01*
X413393Y715195D01*
X413559Y714724D01*
X413698Y714224D01*
X413837Y713641D01*
X413948Y713030D01*
X414031Y712364D01*
X414087Y711670D01*
Y710892D01*
X404870D01*
Y710865D01*
Y710809D01*
Y710726D01*
X404898Y710615D01*
X404925Y710337D01*
X404981Y709948D01*
X405092Y709560D01*
X405259Y709116D01*
X405453Y708699D01*
X405731Y708338D01*
X405758Y708310D01*
X405897Y708199D01*
X406064Y708061D01*
X406314Y707894D01*
X406619Y707727D01*
X407008Y707589D01*
X407424Y707478D01*
X407868Y707450D01*
X408007D01*
X408174Y707478D01*
X408368Y707505D01*
X408590Y707561D01*
X408840Y707644D01*
X409090Y707755D01*
X409312Y707922D01*
X409340Y707950D01*
X409423Y708005D01*
X409534Y708116D01*
X409645Y708283D01*
X409812Y708505D01*
X409950Y708755D01*
X410089Y709088D01*
X410228Y709449D01*
X413893Y708838D01*
Y708810D01*
X413865Y708755D01*
X413809Y708644D01*
X413754Y708505D01*
X413671Y708338D01*
X413587Y708144D01*
X413337Y707700D01*
X413032Y707200D01*
X412643Y706673D01*
X412171Y706200D01*
X411644Y705756D01*
X411616D01*
X411588Y705701D01*
X411477Y705673D01*
X411366Y705590D01*
X411227Y705507D01*
X411033Y705423D01*
X410839Y705340D01*
X410589Y705229D01*
X410034Y705034D01*
X409395Y704868D01*
X408646Y704757D01*
X407840Y704701D01*
X407674D01*
X407507Y704729D01*
X407257D01*
X406952Y704785D01*
X406591Y704840D01*
X406203Y704896D01*
X405814Y705007D01*
X405370Y705118D01*
X404925Y705284D01*
X404481Y705479D01*
X404037Y705701D01*
X403593Y705978D01*
X403176Y706284D01*
X402816Y706645D01*
X402455Y707061D01*
X402427Y707089D01*
X402399Y707144D01*
X402344Y707255D01*
X402233Y707394D01*
X402149Y707589D01*
X402038Y707811D01*
X401899Y708061D01*
X401788Y708366D01*
X401650Y708699D01*
X401539Y709060D01*
X401400Y709449D01*
X401316Y709893D01*
X401233Y710337D01*
X401150Y710809D01*
X401122Y711337D01*
X401094Y711864D01*
Y711892D01*
Y712003D01*
Y712197D01*
X401122Y712447D01*
X401150Y712725D01*
X401178Y713058D01*
X401233Y713419D01*
X401316Y713835D01*
X401539Y714696D01*
X401677Y715140D01*
X401844Y715612D01*
X402066Y716056D01*
X402316Y716472D01*
X402593Y716889D01*
X402899Y717278D01*
X402927Y717305D01*
X402982Y717361D01*
X403093Y717472D01*
X403232Y717583D01*
X403399Y717722D01*
X403621Y717888D01*
X403871Y718083D01*
X404148Y718277D01*
X404454Y718444D01*
X404814Y718638D01*
X405175Y718805D01*
X405592Y718943D01*
X406008Y719054D01*
X406480Y719165D01*
X406952Y719221D01*
X407452Y719249D01*
X407757D01*
X407979Y719221D01*
D02*
G37*
G36*
X391738Y724190D02*
X392044D01*
X392349Y724163D01*
X392710D01*
X393432Y724079D01*
X394182Y723996D01*
X394876Y723857D01*
X395181Y723774D01*
X395459Y723691D01*
X395486D01*
X395514Y723663D01*
X395681Y723580D01*
X395930Y723441D01*
X396264Y723274D01*
X396625Y722997D01*
X396986Y722691D01*
X397346Y722303D01*
X397679Y721831D01*
Y721803D01*
X397707Y721775D01*
X397763Y721692D01*
X397818Y721609D01*
X397957Y721331D01*
X398124Y720970D01*
X398263Y720526D01*
X398401Y720026D01*
X398512Y719443D01*
X398540Y718832D01*
Y718805D01*
Y718749D01*
Y718610D01*
X398512Y718471D01*
Y718277D01*
X398485Y718083D01*
X398374Y717583D01*
X398235Y717000D01*
X398013Y716417D01*
X397679Y715806D01*
X397485Y715529D01*
X397263Y715251D01*
X397235Y715223D01*
X397208Y715195D01*
X397124Y715112D01*
X397013Y715029D01*
X396902Y714918D01*
X396736Y714779D01*
X396541Y714640D01*
X396319Y714501D01*
X396069Y714335D01*
X395764Y714196D01*
X395459Y714057D01*
X395125Y713918D01*
X394737Y713780D01*
X394348Y713669D01*
X393932Y713558D01*
X393460Y713474D01*
X393488D01*
X393515Y713447D01*
X393682Y713335D01*
X393904Y713197D01*
X394182Y713002D01*
X394515Y712752D01*
X394848Y712503D01*
X395209Y712197D01*
X395514Y711864D01*
X395542Y711836D01*
X395681Y711697D01*
X395847Y711475D01*
X396097Y711142D01*
X396430Y710726D01*
X396597Y710448D01*
X396791Y710171D01*
X397013Y709865D01*
X397235Y709532D01*
X397485Y709143D01*
X397735Y708755D01*
X400095Y705007D01*
X395431D01*
X392655Y709171D01*
X392627Y709199D01*
X392599Y709282D01*
X392516Y709393D01*
X392405Y709532D01*
X392294Y709699D01*
X392155Y709921D01*
X391850Y710365D01*
X391489Y710865D01*
X391155Y711309D01*
X390850Y711725D01*
X390711Y711864D01*
X390600Y712003D01*
X390572Y712031D01*
X390517Y712086D01*
X390406Y712197D01*
X390267Y712336D01*
X390073Y712447D01*
X389878Y712586D01*
X389656Y712697D01*
X389434Y712808D01*
X389406D01*
X389323Y712836D01*
X389184Y712891D01*
X388962Y712919D01*
X388685Y712974D01*
X388351Y713002D01*
X387963Y713030D01*
X386713D01*
Y705007D01*
X382827D01*
Y724218D01*
X391489D01*
X391738Y724190D01*
D02*
G37*
G36*
X424220Y705007D02*
X420889D01*
X415281Y718943D01*
X419140D01*
X421777Y711808D01*
X422527Y709449D01*
X422555Y709476D01*
X422582Y709587D01*
X422638Y709754D01*
X422693Y709921D01*
X422832Y710337D01*
X422888Y710504D01*
X422915Y710642D01*
Y710670D01*
X422943Y710753D01*
X422971Y710865D01*
X423026Y711003D01*
X423138Y711392D01*
X423304Y711808D01*
X425969Y718943D01*
X429745D01*
X424220Y705007D01*
D02*
G37*
G36*
X470528D02*
X466835D01*
Y718916D01*
X466807Y718888D01*
X466752Y718832D01*
X466641Y718749D01*
X466474Y718610D01*
X466280Y718444D01*
X466058Y718277D01*
X465780Y718083D01*
X465475Y717861D01*
X465142Y717638D01*
X464781Y717416D01*
X464392Y717167D01*
X463976Y716945D01*
X463087Y716528D01*
X462088Y716139D01*
Y719471D01*
X462116D01*
X462143Y719499D01*
X462227Y719526D01*
X462338Y719554D01*
X462615Y719693D01*
X463004Y719859D01*
X463476Y720082D01*
X464003Y720387D01*
X464586Y720776D01*
X465197Y721220D01*
X465225Y721248D01*
X465280Y721275D01*
X465364Y721359D01*
X465475Y721470D01*
X465780Y721747D01*
X466113Y722108D01*
X466502Y722552D01*
X466891Y723108D01*
X467252Y723691D01*
X467529Y724329D01*
X470528D01*
Y705007D01*
D02*
G37*
%LPC*%
G36*
X407674Y716417D02*
X407480D01*
X407257Y716361D01*
X406980Y716306D01*
X406674Y716195D01*
X406341Y716056D01*
X406008Y715834D01*
X405703Y715529D01*
X405675Y715501D01*
X405592Y715362D01*
X405453Y715168D01*
X405314Y714890D01*
X405148Y714557D01*
X405037Y714140D01*
X404953Y713669D01*
X404925Y713141D01*
X410422D01*
Y713169D01*
Y713224D01*
Y713280D01*
X410395Y713391D01*
X410367Y713696D01*
X410311Y714029D01*
X410200Y714418D01*
X410061Y714835D01*
X409839Y715223D01*
X409590Y715556D01*
X409562Y715584D01*
X409451Y715695D01*
X409284Y715834D01*
X409062Y716001D01*
X408784Y716139D01*
X408451Y716278D01*
X408090Y716389D01*
X407674Y716417D01*
D02*
G37*
G36*
X391155Y720970D02*
X386713D01*
Y716084D01*
X390489D01*
X391044Y716112D01*
X391627Y716139D01*
X392210Y716167D01*
X392460Y716195D01*
X392682Y716223D01*
X392904Y716278D01*
X393043Y716306D01*
X393071D01*
X393154Y716361D01*
X393293Y716417D01*
X393432Y716500D01*
X393793Y716750D01*
X393959Y716917D01*
X394126Y717111D01*
X394154Y717139D01*
X394182Y717222D01*
X394265Y717333D01*
X394348Y717500D01*
X394404Y717722D01*
X394487Y717972D01*
X394515Y718249D01*
X394542Y718555D01*
Y718610D01*
Y718721D01*
X394515Y718888D01*
X394487Y719110D01*
X394404Y719360D01*
X394320Y719610D01*
X394182Y719887D01*
X394015Y720109D01*
X393987Y720137D01*
X393932Y720220D01*
X393793Y720304D01*
X393626Y720443D01*
X393432Y720581D01*
X393182Y720692D01*
X392877Y720803D01*
X392543Y720887D01*
X392516D01*
X392433Y720915D01*
X392266D01*
X392016Y720942D01*
X391405D01*
X391155Y720970D01*
D02*
G37*
%LPD*%
D40*
X518967Y536288D02*
D03*
Y524288D02*
D03*
D94*
X307946Y343073D02*
D03*
X277987Y341503D02*
D03*
X783987Y155503D02*
D03*
X813946Y157073D02*
D03*
X671987Y149503D02*
D03*
X701946Y151073D02*
D03*
X558987Y143503D02*
D03*
X588946Y145073D02*
D03*
X368946Y177073D02*
D03*
X338987Y175503D02*
D03*
X474946Y143073D02*
D03*
X444987Y141503D02*
D03*
X595987Y502503D02*
D03*
X625946Y504073D02*
D03*
X191946Y253073D02*
D03*
X161987Y251503D02*
D03*
X311946Y263073D02*
D03*
X281987Y261503D02*
D03*
X431946Y262073D02*
D03*
X401987Y260503D02*
D03*
X187946Y317073D02*
D03*
X157987Y315503D02*
D03*
X425946Y367073D02*
D03*
X395987Y365503D02*
D03*
X553946Y233073D02*
D03*
X523987Y231503D02*
D03*
X673946Y240073D02*
D03*
X643987Y238503D02*
D03*
X793946Y236073D02*
D03*
X763987Y234503D02*
D03*
X548946Y333073D02*
D03*
X518987Y331503D02*
D03*
X787946Y345073D02*
D03*
X757987Y343503D02*
D03*
X754987Y517504D02*
D03*
X784946Y519073D02*
D03*
X781967Y455288D02*
D03*
X752008Y453718D02*
D03*
D95*
X449967Y291288D02*
D03*
X433967D02*
D03*
X459967Y348288D02*
D03*
X443967D02*
D03*
X801967Y390288D02*
D03*
X785967D02*
D03*
X801967Y409288D02*
D03*
X785967D02*
D03*
X801967Y286288D02*
D03*
X785967D02*
D03*
X384967Y463288D02*
D03*
X400967D02*
D03*
X317347Y1098926D02*
D03*
X301347D02*
D03*
X359847Y1061676D02*
D03*
X375847Y1061676D02*
D03*
X481597Y1375176D02*
D03*
X465597D02*
D03*
X402597Y1296176D02*
D03*
X418597D02*
D03*
X58597Y1203426D02*
D03*
X74597D02*
D03*
X59097Y1293426D02*
D03*
X75097D02*
D03*
X59097Y1330426D02*
D03*
X75097D02*
D03*
X414597Y1138676D02*
D03*
X430597D02*
D03*
X535827Y841007D02*
D03*
X551827D02*
D03*
X403827Y809007D02*
D03*
X387827D02*
D03*
X366827Y899007D02*
D03*
X382827D02*
D03*
X321827Y843007D02*
D03*
X305827D02*
D03*
X325827Y793007D02*
D03*
X341827D02*
D03*
X291827D02*
D03*
X307827D02*
D03*
D96*
X667894Y340381D02*
D03*
X637967Y338288D02*
D03*
X662930Y440335D02*
D03*
X633003Y438242D02*
D03*
X542967Y432288D02*
D03*
X513040Y430196D02*
D03*
D97*
X433967Y480288D02*
D03*
X463198Y487037D02*
D03*
D98*
X521967Y153288D02*
D03*
Y137288D02*
D03*
X500967Y153288D02*
D03*
Y137288D02*
D03*
X451327Y726257D02*
D03*
Y710257D02*
D03*
X471827Y726007D02*
D03*
Y710007D02*
D03*
X340827Y845007D02*
D03*
Y829007D02*
D03*
X320827Y691007D02*
D03*
Y675007D02*
D03*
X340827Y691007D02*
D03*
Y675007D02*
D03*
X359827Y691007D02*
D03*
Y675007D02*
D03*
D99*
X313672Y417215D02*
D03*
X335967Y437288D02*
D03*
D100*
X394617Y1057711D02*
D03*
X424576Y1056141D02*
D03*
X565076Y1343141D02*
D03*
X535117Y1344711D02*
D03*
X273576Y1418141D02*
D03*
X243617Y1419711D02*
D03*
X557867Y1177711D02*
D03*
X587826Y1176141D02*
D03*
X677367Y1167211D02*
D03*
X707326Y1165641D02*
D03*
X442867Y1281461D02*
D03*
X472826Y1279891D02*
D03*
X561617Y1257461D02*
D03*
X591576Y1255891D02*
D03*
X680617Y1232461D02*
D03*
X710576Y1230891D02*
D03*
X75638Y1149996D02*
D03*
X105597Y1148426D02*
D03*
X195888Y1153996D02*
D03*
X225847Y1152426D02*
D03*
X315617Y1147961D02*
D03*
X345576Y1146391D02*
D03*
X201138Y1253996D02*
D03*
X231097Y1252426D02*
D03*
X85867Y1369461D02*
D03*
X115826Y1367890D02*
D03*
X326138Y1348246D02*
D03*
X356097Y1346676D02*
D03*
X437367Y1176461D02*
D03*
X467326Y1174891D02*
D03*
X197076Y1063891D02*
D03*
X167117Y1065461D02*
D03*
X310076Y1058141D02*
D03*
X280117Y1059711D02*
D03*
X84556Y1070355D02*
D03*
X54597Y1071926D02*
D03*
X500117Y1091711D02*
D03*
X530077Y1090140D02*
D03*
X114306Y1432105D02*
D03*
X84347Y1433676D02*
D03*
D101*
X434651Y1395297D02*
D03*
X405542Y1402555D02*
D03*
D102*
X321106Y1247699D02*
D03*
X351088Y1246652D02*
D03*
X81356Y1260199D02*
D03*
X111338Y1259152D02*
D03*
D103*
X206383Y1354473D02*
D03*
X236310Y1352379D02*
D03*
D104*
X262077Y746757D02*
D03*
Y776757D02*
D03*
D105*
X225328Y779505D02*
D03*
Y744506D02*
D03*
D106*
X612326Y844756D02*
D03*
X577326D02*
D03*
D107*
X500170Y873350D02*
D03*
X511484Y884664D02*
D03*
X377835Y745199D02*
D03*
X389149Y756513D02*
D03*
X428827Y717007D02*
D03*
X417513Y705693D02*
D03*
X541170Y807350D02*
D03*
X552484Y818664D02*
D03*
D108*
X390827Y777007D02*
D03*
X364827Y789007D02*
D03*
X363827Y815007D02*
D03*
D109*
X628827Y893007D02*
D03*
X591827Y879007D02*
D03*
X549327Y879507D02*
D03*
X466827Y897007D02*
D03*
D110*
X424622Y791693D02*
D03*
X428158Y788158D02*
D03*
X431693Y784622D02*
D03*
X435229Y781086D02*
D03*
X438764Y777551D02*
D03*
X442300Y774015D02*
D03*
X445835Y770480D02*
D03*
X449371Y766944D02*
D03*
X452906Y763409D02*
D03*
X456442Y759873D02*
D03*
X459978Y756338D02*
D03*
X463513Y752802D02*
D03*
X525031Y814320D02*
D03*
X521496Y817856D02*
D03*
X517960Y821392D02*
D03*
X514425Y824927D02*
D03*
X510889Y828463D02*
D03*
X507354Y831998D02*
D03*
X503818Y835534D02*
D03*
X500283Y839069D02*
D03*
X496747Y842605D02*
D03*
X493212Y846140D02*
D03*
X489676Y849676D02*
D03*
X486141Y853211D02*
D03*
D111*
X486141Y752802D02*
D03*
X489676Y756338D02*
D03*
X493212Y759873D02*
D03*
X496747Y763409D02*
D03*
X500283Y766944D02*
D03*
X503818Y770480D02*
D03*
X507354Y774015D02*
D03*
X510889Y777551D02*
D03*
X514425Y781086D02*
D03*
X517960Y784622D02*
D03*
X521496Y788158D02*
D03*
X525031Y791693D02*
D03*
X463513Y853211D02*
D03*
X459978Y849676D02*
D03*
X456442Y846140D02*
D03*
X452906Y842605D02*
D03*
X449371Y839069D02*
D03*
X445835Y835534D02*
D03*
X442300Y831998D02*
D03*
X438764Y828463D02*
D03*
X435229Y824927D02*
D03*
X431693Y821392D02*
D03*
X428158Y817856D02*
D03*
X424622Y814320D02*
D03*
D112*
X414605Y729643D02*
D03*
X402584Y741664D02*
D03*
X405412Y720450D02*
D03*
X393392Y732471D02*
D03*
D113*
X314327Y889507D02*
D03*
X323827Y864007D02*
D03*
X304827D02*
D03*
D114*
X282327Y829007D02*
D03*
X247827D02*
D03*
D115*
X229327Y714507D02*
D03*
X269327D02*
D03*
D116*
X335877Y770507D02*
D03*
X323177Y770507D02*
D03*
X310477D02*
D03*
X297777D02*
D03*
X335877Y713507D02*
D03*
X323177D02*
D03*
X310477D02*
D03*
X297777D02*
D03*
D117*
X606227Y714207D02*
D03*
Y726907D02*
D03*
Y739607D02*
D03*
Y752307D02*
D03*
Y765007D02*
D03*
Y777707D02*
D03*
Y790407D02*
D03*
Y803107D02*
D03*
D118*
X352626Y1034089D02*
D03*
X435630Y1022424D02*
D03*
D119*
X349663Y1038798D02*
D03*
X439777Y1026133D02*
D03*
D120*
X329728Y998985D02*
D03*
X447966Y982367D02*
D03*
D121*
X528347Y1407426D02*
D03*
X520847D02*
D03*
X524597Y1399926D02*
D03*
X528347Y1392426D02*
D03*
X520847D02*
D03*
D122*
X603347Y1044426D02*
D03*
Y1102926D02*
D03*
X649384Y851983D02*
D03*
X200807Y675079D02*
D03*
D123*
X176827Y719507D02*
D03*
X314327Y632007D02*
D03*
X176827Y799507D02*
D03*
Y759507D02*
D03*
X399327Y632007D02*
D03*
X441827D02*
D03*
X484327D02*
D03*
X526827D02*
D03*
X569327D02*
D03*
X356827D02*
D03*
X611827D02*
D03*
M02*
