G04 Layer_Physical_Order=2*
G04 Layer_Color=16711680*
%FSLAX44Y44*%
%MOMM*%
G71*
G01*
G75*
%ADD23C,0.7000*%
%ADD30C,1.2000*%
%ADD31O,3.0000X0.7000*%
%ADD32R,2.0000X2.0000*%
G36*
X229036Y595457D02*
X232341Y594454D01*
X235386Y592827D01*
X238055Y590636D01*
X240245Y587967D01*
X241434Y585743D01*
X241434Y585743D01*
X241665Y585405D01*
X241772Y585291D01*
X243111Y582787D01*
X246059Y579194D01*
X249652Y576246D01*
X253750Y574055D01*
X258198Y572706D01*
X262823Y572250D01*
X263517Y572319D01*
X264787Y572364D01*
X266029Y572459D01*
X300565Y575101D01*
X345143Y577535D01*
X389764Y578996D01*
X434406Y579483D01*
X479048Y578996D01*
X523669Y577535D01*
X568247Y575101D01*
X612761Y571696D01*
X657191Y567320D01*
X660104Y566968D01*
X660097Y566890D01*
X661290Y566796D01*
X661345Y566788D01*
X665343Y565828D01*
X668616Y564473D01*
X669735Y563896D01*
X670862Y563309D01*
X739269Y526239D01*
X739270Y526236D01*
X739262Y526220D01*
X742218Y524409D01*
X745363Y521722D01*
X748050Y518577D01*
X748126Y518453D01*
X748152Y518394D01*
X766033Y493369D01*
X766252Y493164D01*
X766418Y492915D01*
X766510Y492854D01*
X766953Y492277D01*
X768748Y490899D01*
X770839Y490033D01*
X773082Y489738D01*
X773122Y489743D01*
X773130Y489742D01*
X773150Y489746D01*
X773165Y489743D01*
X775244Y489763D01*
X775249Y489762D01*
X775254Y489763D01*
X775282Y489763D01*
X775348Y489777D01*
X776365Y489190D01*
Y489190D01*
X777123Y488170D01*
X800939Y454840D01*
X800939Y454836D01*
X800921Y454824D01*
X801205Y454138D01*
X801189Y454060D01*
X801205Y453983D01*
X800885Y453212D01*
X800884Y453211D01*
X774009Y420553D01*
X773934Y420414D01*
X773069Y420056D01*
X773023Y420065D01*
X773003Y420061D01*
X772985Y420064D01*
X765903Y419997D01*
X765828Y419981D01*
X763742Y419707D01*
X761652Y418841D01*
X759856Y417463D01*
X759623Y417159D01*
X759531Y417098D01*
X759433Y416951D01*
X759296Y416839D01*
X701312Y346380D01*
X701237Y346373D01*
X701237Y346373D01*
Y346372D01*
X699582Y344435D01*
X696436Y341748D01*
X694126Y340333D01*
X693070Y339688D01*
X691939Y339153D01*
X685604Y336157D01*
X676697Y332970D01*
X667521Y330672D01*
X658164Y329284D01*
X649739Y328870D01*
X649670Y328884D01*
X649650Y328880D01*
X649635Y328882D01*
X635348Y328746D01*
X634078Y328757D01*
Y328757D01*
X629679Y328324D01*
X625231Y326975D01*
X621133Y324784D01*
X617540Y321836D01*
X614591Y318243D01*
X614151Y317419D01*
X613449Y316374D01*
X613448Y316372D01*
X612683Y314940D01*
X610493Y312271D01*
X607823Y310081D01*
X604778Y308453D01*
X601474Y307451D01*
X598037Y307112D01*
X594601Y307451D01*
X591297Y308453D01*
X588252Y310081D01*
X585583Y312271D01*
X583392Y314940D01*
X582784Y316078D01*
X582784Y316078D01*
X582085Y317143D01*
X581865Y317554D01*
X578917Y321147D01*
X575324Y324095D01*
X571226Y326286D01*
X566778Y327635D01*
X563170Y327990D01*
X562153Y328091D01*
X561927Y328068D01*
X561927Y328046D01*
X561925Y328045D01*
X224029Y324818D01*
X208272Y326058D01*
X190292Y328425D01*
X172460Y331730D01*
X154826Y335963D01*
X137437Y341114D01*
X120342Y347168D01*
X115012Y349376D01*
D01*
X113935Y349954D01*
X113459Y350272D01*
X112562Y351097D01*
X112045Y351664D01*
X111716Y352025D01*
X111694Y352049D01*
X111387Y352393D01*
X111386Y352394D01*
X111386Y352394D01*
X111384Y352396D01*
X111381Y352399D01*
X111379Y352402D01*
X111376Y352405D01*
X111345Y352429D01*
X111324Y352462D01*
X111094Y352707D01*
X111081Y352716D01*
X111073Y352729D01*
X110840Y352972D01*
X110828Y352981D01*
X110820Y352994D01*
X110585Y353235D01*
X110565Y353255D01*
X110564Y353256D01*
X110552Y353269D01*
X110549Y353273D01*
X110467Y353354D01*
X110329Y353495D01*
X110316Y353507D01*
X110313Y353512D01*
X110151Y353671D01*
X110069Y353754D01*
X110047Y353775D01*
X110047Y353775D01*
X110033Y353789D01*
X109833Y353985D01*
X109543Y354265D01*
X109543Y354265D01*
X109520Y354286D01*
X109283Y354512D01*
X109277Y354517D01*
X109276Y354518D01*
X109255Y354538D01*
X109013Y354764D01*
X109011Y354766D01*
X109009Y354767D01*
X108987Y354787D01*
X108914Y354854D01*
X108741Y355013D01*
X108727Y355022D01*
X108718Y355034D01*
X108468Y355259D01*
X108455Y355267D01*
X108446Y355279D01*
X108195Y355502D01*
X108181Y355510D01*
X108172Y355522D01*
X107919Y355743D01*
X107905Y355751D01*
X107895Y355764D01*
X107642Y355981D01*
X107633Y355986D01*
X107626Y355994D01*
X107626Y355995D01*
X107621Y355998D01*
X107618Y356002D01*
X107363Y356217D01*
X107349Y356225D01*
X107339Y356237D01*
X107080Y356451D01*
X107066Y356459D01*
X107057Y356471D01*
X106797Y356683D01*
X106783Y356690D01*
X106773Y356702D01*
X106512Y356912D01*
X106498Y356919D01*
X106488Y356931D01*
X106224Y357139D01*
X106210Y357146D01*
X106200Y357158D01*
X105936Y357362D01*
X105926Y357367D01*
X105919Y357376D01*
X105918Y357377D01*
X105914Y357379D01*
X105911Y357382D01*
X105646Y357584D01*
X105632Y357591D01*
X105621Y357603D01*
X105353Y357804D01*
X105338Y357811D01*
X105327Y357823D01*
X105059Y358021D01*
X105051Y358025D01*
X105044Y358031D01*
X105043Y358032D01*
X105037Y358035D01*
X105033Y358040D01*
X104763Y358235D01*
X104749Y358242D01*
X104738Y358253D01*
X104465Y358448D01*
X104451Y358454D01*
X104440Y358465D01*
X104166Y358657D01*
X104151Y358663D01*
X104141Y358674D01*
X103865Y358864D01*
X103850Y358870D01*
X103840Y358881D01*
X103562Y359068D01*
X103547Y359075D01*
X103536Y359086D01*
X103259Y359269D01*
X103244Y359276D01*
X103232Y359287D01*
X102952Y359469D01*
X102938Y359475D01*
X102927Y359486D01*
X102645Y359666D01*
X102630Y359672D01*
X102619Y359682D01*
X102336Y359860D01*
X102321Y359866D01*
X102309Y359876D01*
X102026Y360051D01*
X102013Y360056D01*
X102002Y360065D01*
X102001Y360066D01*
X102000Y360067D01*
X101999Y360068D01*
X101714Y360240D01*
X101712Y360241D01*
X101709Y360243D01*
X101707Y360244D01*
X101697Y360248D01*
X101688Y360255D01*
X101687Y360256D01*
X101687Y360256D01*
X101687Y360256D01*
X101401Y360426D01*
X101385Y360431D01*
X101373Y360442D01*
X101371Y360443D01*
X101371Y360444D01*
X101370Y360444D01*
X101086Y360609D01*
X101070Y360615D01*
X101058Y360625D01*
X100770Y360790D01*
X100755Y360795D01*
X100743Y360806D01*
X100451Y360969D01*
X100436Y360973D01*
X100424Y360983D01*
X100132Y361144D01*
X100117Y361149D01*
X100105Y361158D01*
X99812Y361316D01*
X99797Y361321D01*
X99785Y361331D01*
X99784Y361331D01*
X99784Y361331D01*
X99784Y361331D01*
X99491Y361486D01*
X99476Y361490D01*
X99464Y361500D01*
X99463Y361501D01*
X99463Y361501D01*
X99462Y361501D01*
X99168Y361653D01*
X99153Y361657D01*
X99140Y361668D01*
X98843Y361818D01*
X98828Y361822D01*
X98815Y361832D01*
X98517Y361979D01*
X98502Y361984D01*
X98489Y361993D01*
X98191Y362138D01*
X98176Y362142D01*
X98163Y362151D01*
X97863Y362294D01*
X97847Y362298D01*
X97835Y362307D01*
X97533Y362447D01*
X97518Y362451D01*
X97506Y362460D01*
X97324Y362543D01*
X97203Y362598D01*
X97175Y362610D01*
X97174Y362611D01*
X97171Y362612D01*
X96872Y362745D01*
X96844Y362757D01*
X96843Y362758D01*
X96837Y362761D01*
X96539Y362890D01*
X96511Y362902D01*
X96511Y362902D01*
X96177Y363045D01*
X95870Y363172D01*
X95870Y363172D01*
X95869Y363172D01*
X95563Y363296D01*
X95559Y363297D01*
X95536Y363306D01*
X95536Y363306D01*
X95509Y363317D01*
X95508Y363317D01*
X95506Y363318D01*
X95205Y363437D01*
X95198Y363440D01*
X95197Y363440D01*
X95169Y363451D01*
X94863Y363568D01*
X94860Y363570D01*
X94859Y363570D01*
X94831Y363581D01*
X94689Y363634D01*
X94522Y363697D01*
X94506Y363700D01*
X94492Y363708D01*
X94183Y363821D01*
X94166Y363824D01*
X94152Y363832D01*
X93843Y363942D01*
X93833Y363944D01*
X93824Y363949D01*
X93823Y363949D01*
X93820Y363950D01*
X93816Y363951D01*
X93814Y363952D01*
X93812Y363953D01*
X93811Y363953D01*
X93501Y364061D01*
X93484Y364063D01*
X93470Y364072D01*
X93158Y364176D01*
X93142Y364178D01*
X93128Y364186D01*
X92815Y364289D01*
X92799Y364291D01*
X92784Y364299D01*
X92472Y364398D01*
X92456Y364400D01*
X92441Y364408D01*
X92126Y364505D01*
X92110Y364507D01*
X92096Y364514D01*
X91782Y364608D01*
X91769Y364610D01*
X91757Y364616D01*
X91757Y364616D01*
X91753Y364616D01*
X91750Y364618D01*
X91435Y364709D01*
X91419Y364710D01*
X91404Y364718D01*
X91089Y364806D01*
X91073Y364808D01*
X91058Y364815D01*
X90741Y364901D01*
X90725Y364902D01*
X90710Y364909D01*
X90392Y364992D01*
X90376Y364994D01*
X90361Y365000D01*
X90044Y365081D01*
X90028Y365081D01*
X90013Y365088D01*
X89694Y365166D01*
X89678Y365167D01*
X89664Y365173D01*
X89345Y365248D01*
X89328Y365249D01*
X89313Y365256D01*
X88995Y365327D01*
X88989Y365328D01*
X88983Y365330D01*
X88982Y365330D01*
X88972Y365331D01*
X88963Y365335D01*
X88644Y365404D01*
X88627Y365404D01*
X88612Y365410D01*
X88292Y365477D01*
X88275Y365477D01*
X88260Y365483D01*
X87942Y365546D01*
X87929D01*
X87918Y365551D01*
X87916Y365551D01*
X87913Y365551D01*
X87909Y365553D01*
X87588Y365614D01*
X87579Y365613D01*
X87570Y365617D01*
X87569Y365617D01*
X87565Y365617D01*
X87562Y365618D01*
X87562Y365618D01*
X87558Y365618D01*
X87555Y365620D01*
X87236Y365677D01*
X87219Y365677D01*
X87204Y365683D01*
X86882Y365738D01*
X86866Y365737D01*
X86851Y365743D01*
X86529Y365796D01*
X86512Y365795D01*
X86496Y365801D01*
X86177Y365850D01*
X86168Y365849D01*
X86161Y365852D01*
X86159Y365852D01*
X86151Y365852D01*
X86143Y365855D01*
X85822Y365901D01*
X85805Y365900D01*
X85789Y365906D01*
X85467Y365949D01*
X85455Y365949D01*
X85443Y365952D01*
X85443Y365953D01*
X85438Y365952D01*
X85434Y365954D01*
X85113Y365994D01*
X85096Y365993D01*
X85080Y365998D01*
X84759Y366036D01*
X84742Y366035D01*
X84726Y366040D01*
X84403Y366075D01*
X84387Y366074D01*
X84371Y366078D01*
X84048Y366111D01*
X84031Y366109D01*
X84015Y366114D01*
X83694Y366143D01*
X83689Y366143D01*
X83684Y366144D01*
X83683Y366144D01*
X83672Y366143D01*
X83661Y366146D01*
X83338Y366172D01*
X83321Y366170D01*
X83304Y366175D01*
X82983Y366199D01*
X82966Y366196D01*
X82950Y366201D01*
X82627Y366222D01*
X82611Y366219D01*
X82595Y366223D01*
X82272Y366241D01*
X82255Y366239D01*
X82239Y366243D01*
X81917Y366258D01*
X81900Y366255D01*
X81884Y366259D01*
X81561Y366272D01*
X81545Y366269D01*
X81528Y366273D01*
X81207Y366282D01*
X81190Y366279D01*
X81173Y366283D01*
X80851Y366289D01*
X80835Y366286D01*
X80818Y366289D01*
X80609Y366292D01*
X80588Y366288D01*
X80565Y366292D01*
X80515Y366282D01*
X80457Y366294D01*
X80388Y366280D01*
X78752Y366605D01*
X77629Y367122D01*
X77629Y367122D01*
X71281Y370569D01*
X55818Y380044D01*
X40872Y390316D01*
X28895Y399507D01*
X27920Y400322D01*
X27920Y400322D01*
Y400322D01*
X27042Y401153D01*
X26098Y402566D01*
X25754Y403767D01*
X25405Y404989D01*
X16783Y440775D01*
X16537Y442022D01*
X16537Y442022D01*
X16537Y442022D01*
X16244Y443492D01*
X16731Y445942D01*
X17550Y447168D01*
X17533Y447180D01*
X20572Y451495D01*
X32542Y466833D01*
X45251Y481566D01*
X47359Y483780D01*
X47359D01*
X47739Y484094D01*
X48718Y484835D01*
Y484835D01*
X49714Y485589D01*
X50963Y486354D01*
X55278Y490040D01*
X58964Y494355D01*
X60936Y497575D01*
X61022Y497531D01*
X61028Y497528D01*
X61304Y497942D01*
X62065Y498892D01*
X72758Y509073D01*
X87490Y521781D01*
X102828Y533751D01*
X118735Y544954D01*
X135173Y555363D01*
X139955Y558072D01*
X167297Y561976D01*
X188404Y564520D01*
Y564520D01*
X189654Y564765D01*
X190178Y564817D01*
X194625Y566166D01*
X198724Y568357D01*
X202317Y571305D01*
X205265Y574898D01*
X207456Y578997D01*
X208137Y581242D01*
X208558Y582388D01*
X208559Y582389D01*
X208558Y582389D01*
X209327Y584922D01*
X210954Y587967D01*
X213145Y590636D01*
X215814Y592827D01*
X218859Y594454D01*
X222164Y595457D01*
X225600Y595795D01*
X229036Y595457D01*
D02*
G37*
G36*
X587779Y294573D02*
X591094Y293568D01*
X594148Y291935D01*
X596825Y289738D01*
X599023Y287061D01*
X600656Y284006D01*
X601058Y282678D01*
X601369Y281487D01*
X601368Y281484D01*
X601377Y281457D01*
X601379Y281452D01*
X601391Y281429D01*
X601841Y280340D01*
X602526Y278081D01*
X604712Y273991D01*
X607654Y270407D01*
X611238Y267465D01*
X615328Y265280D01*
X619765Y263933D01*
X620278Y263883D01*
X621174Y263649D01*
X621509Y263558D01*
X621523Y263552D01*
X622793Y263486D01*
X642642Y261093D01*
X669995Y257188D01*
X674787Y254473D01*
X691227Y244063D01*
X707136Y232858D01*
X722477Y220886D01*
X737211Y208176D01*
X746975Y198881D01*
X747750Y197859D01*
X747774Y197842D01*
X747800Y197831D01*
X748663Y197017D01*
X748938Y196582D01*
X748964Y196519D01*
X748994Y196538D01*
X749135Y196428D01*
X749697Y195598D01*
X751012Y193451D01*
X754692Y189142D01*
X759001Y185462D01*
X760222Y184714D01*
X761223Y183918D01*
X761245Y183903D01*
X761250Y183901D01*
X761645Y183652D01*
X762451Y182772D01*
X762464Y182741D01*
X762613Y182880D01*
X764722Y180666D01*
X777432Y165931D01*
X789403Y150591D01*
X791732Y147284D01*
X792131Y146625D01*
X792378Y146215D01*
X792379Y146213D01*
X792387Y146200D01*
X792388Y146200D01*
X792389Y146200D01*
X792471Y146091D01*
X793145Y145187D01*
X793252Y145027D01*
X793710Y142723D01*
X793677Y142556D01*
X793710Y142389D01*
X793701Y142342D01*
X793430Y141116D01*
X793419Y141090D01*
X793204Y139836D01*
X784579Y104040D01*
X784200Y102826D01*
X784185Y102791D01*
X783867Y101581D01*
X782964Y100231D01*
X782293Y99686D01*
X781973Y99431D01*
X781973Y99431D01*
X781950Y99417D01*
X781049Y98512D01*
X769091Y89337D01*
X754143Y79063D01*
X738678Y69586D01*
X733435Y66739D01*
X732337Y66143D01*
X732321Y66154D01*
X732321Y66154D01*
X732309Y66150D01*
X731190Y65616D01*
X730570Y65493D01*
X729299Y65527D01*
X729112Y65525D01*
X728052Y65472D01*
X727688Y65448D01*
X727330Y65420D01*
X726977Y65391D01*
X726277Y65326D01*
X725209Y65201D01*
X724855Y65154D01*
X724143Y65050D01*
X723438Y64935D01*
X722377Y64740D01*
X722021Y64668D01*
X721311Y64516D01*
X720956Y64434D01*
X720275Y64275D01*
X719576Y64094D01*
X719223Y63999D01*
X718527Y63802D01*
X717835Y63594D01*
X717496Y63488D01*
X717125Y63367D01*
X716806Y63262D01*
X715776Y62901D01*
X715449Y62782D01*
X715107Y62652D01*
X714764Y62520D01*
X714088Y62249D01*
X714066Y62240D01*
X713724Y62098D01*
X713378Y61952D01*
X713042Y61806D01*
X712719Y61663D01*
X712423Y61528D01*
X711738Y61209D01*
X711438Y61063D01*
X711075Y60886D01*
X710760Y60728D01*
X710427Y60558D01*
X710114Y60394D01*
X709792Y60222D01*
X709472Y60049D01*
X709151Y59872D01*
X708861Y59707D01*
X708545Y59525D01*
X707916Y59155D01*
X707257Y58757D01*
X706956Y58567D01*
X706637Y58365D01*
X706323Y58163D01*
X705734Y57767D01*
X705130Y57351D01*
X704828Y57138D01*
X704225Y56703D01*
X703939Y56490D01*
X703936Y56487D01*
X703362Y56049D01*
X702489Y55361D01*
X701920Y54893D01*
X701084Y54177D01*
X700807Y53933D01*
X699998Y53194D01*
X699729Y52940D01*
X699501Y52711D01*
X698992Y52176D01*
X698748Y51912D01*
X698424Y51521D01*
X698423Y51519D01*
X697775Y50520D01*
X697623Y50352D01*
X697357Y50338D01*
X697334Y50302D01*
X697183Y50112D01*
X696874Y49738D01*
X696447Y49254D01*
X696018Y48967D01*
X695489Y48684D01*
X694929Y48385D01*
X693767Y47903D01*
X689610Y46181D01*
X672512Y40127D01*
X655121Y34975D01*
X637484Y30741D01*
X619649Y27436D01*
X601666Y25068D01*
X587140Y23925D01*
X585871Y24052D01*
X585841Y24064D01*
X585707Y24009D01*
X585538Y23831D01*
X584600Y23840D01*
X249240Y27043D01*
X249178Y27045D01*
X249157Y27049D01*
X249156Y27049D01*
X247985Y27291D01*
Y27286D01*
X247970Y27273D01*
X246851Y27009D01*
X243165Y26646D01*
X238727Y25300D01*
X234638Y23114D01*
X231054Y20172D01*
X228112Y16588D01*
X227900Y16191D01*
X227181Y15139D01*
X227172Y15115D01*
X227190Y15105D01*
X226585Y13974D01*
X224388Y11297D01*
X221711Y9100D01*
X218656Y7467D01*
X215342Y6461D01*
X211895Y6122D01*
X208448Y6461D01*
X205134Y7467D01*
X202079Y9100D01*
X199402Y11297D01*
X197204Y13974D01*
X197055Y14255D01*
X196465Y15379D01*
X196454Y15405D01*
X195915Y16185D01*
X195777Y16388D01*
X195756Y16420D01*
X195744Y16439D01*
X195296Y17277D01*
X192354Y20861D01*
X188770Y23803D01*
X184680Y25989D01*
X180243Y27335D01*
X176972Y27657D01*
X175859Y27968D01*
X175859Y27969D01*
X175859Y27969D01*
X175834Y27980D01*
X175824Y27980D01*
X175824Y27980D01*
X175815Y27976D01*
X175613Y27938D01*
X175613Y27938D01*
X174562Y27756D01*
X161558Y27880D01*
X160441Y28091D01*
X160305Y28119D01*
X160296Y28122D01*
X160274Y28126D01*
X159003Y27938D01*
X151763Y28294D01*
X142401Y29683D01*
X133219Y31982D01*
X124308Y35171D01*
X117989Y38159D01*
X116902Y38752D01*
X116901Y38755D01*
X116874Y38768D01*
X116871Y38769D01*
X115766Y39358D01*
X113464Y40768D01*
X110313Y43460D01*
X109479Y44436D01*
X108744Y45453D01*
X108742Y45457D01*
X108726Y45485D01*
X108714Y45486D01*
X107820Y46332D01*
X51391Y114901D01*
X50698Y115743D01*
X50719Y115956D01*
X50719Y115956D01*
X50709Y115981D01*
X50040Y116487D01*
X50039Y116488D01*
X49729Y116725D01*
X48254Y117858D01*
X46176Y118718D01*
X45216Y118844D01*
X45131Y118856D01*
X44041Y119229D01*
X44041Y119230D01*
X44040Y119230D01*
X44019Y119238D01*
X44013Y119239D01*
X44013Y119239D01*
X44010Y119237D01*
X42841Y119018D01*
X38214Y119062D01*
X37135Y119265D01*
X36970Y119298D01*
X35989Y119705D01*
X35983Y119706D01*
X35064Y120576D01*
X9822Y151249D01*
X9240Y152157D01*
X9126Y152340D01*
X9116Y152365D01*
X8981Y152833D01*
X8898Y153130D01*
X8967Y153490D01*
X9046Y153868D01*
X9056Y153893D01*
X9036Y154014D01*
X9668Y154940D01*
X32769Y187269D01*
X33569Y188180D01*
X33571Y188180D01*
Y188180D01*
X34685Y188645D01*
X34685D01*
X34687Y188646D01*
X34692Y188650D01*
X35682Y188837D01*
X36767Y188633D01*
X36788Y188625D01*
X36795Y188625D01*
X36802Y188624D01*
X36802Y188624D01*
X36806Y188626D01*
X36850Y188856D01*
X39080Y189149D01*
X41157Y190010D01*
X42142Y190765D01*
X42941Y191379D01*
X43056Y191529D01*
X43120Y191603D01*
X43945Y192387D01*
X43949Y192397D01*
X44594Y193498D01*
X60991Y216447D01*
X61825Y217411D01*
X61831Y217419D01*
X61842Y217443D01*
X61848Y217458D01*
X62556Y218512D01*
X64531Y220824D01*
X67683Y223516D01*
X69555Y224663D01*
X70650Y225280D01*
X70685Y225295D01*
X70698Y225302D01*
X71758Y225958D01*
X139033Y262413D01*
X140161Y262948D01*
X140182Y262957D01*
X141287Y263582D01*
X144572Y264944D01*
X148603Y265911D01*
X148644Y265914D01*
X149821Y265915D01*
X149822Y265901D01*
X149849Y265907D01*
X150999Y266222D01*
X151019Y266226D01*
X152181Y266370D01*
X152276Y266381D01*
X152735Y266437D01*
X197166Y270813D01*
X241682Y274219D01*
X286261Y276653D01*
X330883Y278113D01*
X375527Y278600D01*
X420170Y278113D01*
X464792Y276653D01*
X509371Y274219D01*
X543911Y271576D01*
X545117Y271335D01*
X545130Y271329D01*
X546413Y271437D01*
X547109Y271368D01*
X551724Y271823D01*
X556161Y273169D01*
X560251Y275355D01*
X563835Y278296D01*
X566777Y281881D01*
X567771Y283741D01*
X567874Y283917D01*
X568367Y284701D01*
X568449Y284779D01*
X568450Y284779D01*
X568452Y284784D01*
X569025Y285906D01*
X569642Y287061D01*
X571839Y289738D01*
X574516Y291935D01*
X577571Y293568D01*
X580886Y294573D01*
X584332Y294913D01*
X587779Y294573D01*
D02*
G37*
%LPC*%
G36*
X225758Y592765D02*
X225591Y592731D01*
X225420Y592743D01*
X224830Y592665D01*
X224653D01*
X224403Y592615D01*
X224148D01*
X223553Y592497D01*
X222353Y592339D01*
X222032Y592230D01*
X221700Y592164D01*
X218842Y590980D01*
X218560Y590792D01*
X218256Y590642D01*
X217068Y589730D01*
X216881Y589605D01*
X216801Y589525D01*
X215802Y588758D01*
X215578Y588504D01*
X215324Y588280D01*
X214557Y587281D01*
X214530Y587254D01*
X214488Y587191D01*
X213440Y585826D01*
X213291Y585522D01*
X213102Y585240D01*
X211918Y582382D01*
X211852Y582050D01*
X211743Y581729D01*
X211339Y578662D01*
X211362Y578324D01*
X211339Y577985D01*
X211743Y574918D01*
X211852Y574597D01*
X211918Y574265D01*
X213102Y571407D01*
X213291Y571125D01*
X213440Y570821D01*
X214503Y569436D01*
X214530Y569396D01*
X214547Y569379D01*
X215324Y568367D01*
X215578Y568143D01*
X215802Y567889D01*
X216814Y567112D01*
X216881Y567045D01*
X217039Y566939D01*
X218256Y566005D01*
X218560Y565855D01*
X218842Y565667D01*
X221700Y564483D01*
X222032Y564417D01*
X222353Y564308D01*
X223596Y564145D01*
X224148Y564035D01*
X224403D01*
X224653Y563985D01*
X224807D01*
X225420Y563904D01*
X225591Y563916D01*
X225758Y563882D01*
X225926Y563916D01*
X226096Y563904D01*
X226709Y563985D01*
X226967D01*
X227218Y564035D01*
X227473D01*
X228227Y564185D01*
X229164Y564308D01*
X229485Y564417D01*
X229817Y564483D01*
X230136Y564616D01*
X230228Y564634D01*
X232367Y565520D01*
X232445Y565572D01*
X232675Y565667D01*
X232809Y565756D01*
X232815Y565759D01*
X232965Y565860D01*
X233261Y566005D01*
X233782Y566405D01*
X234739Y567045D01*
X234919Y567225D01*
X235131Y567367D01*
X235449Y567685D01*
X235715Y567889D01*
X235939Y568143D01*
X236193Y568367D01*
X236397Y568633D01*
X236768Y569003D01*
X236910Y569216D01*
X237090Y569396D01*
X237813Y570477D01*
X238077Y570821D01*
X238173Y571016D01*
X238376Y571320D01*
X238407Y571395D01*
X238415Y571407D01*
X238481Y571567D01*
X238615Y571768D01*
X239501Y573907D01*
X239548Y574143D01*
X239599Y574265D01*
X239601Y574278D01*
X239648Y574392D01*
X239724Y574772D01*
X239774Y574918D01*
X239814Y575224D01*
X240100Y576662D01*
Y576917D01*
X240150Y577168D01*
Y577776D01*
X240177Y577985D01*
X240155Y578324D01*
X240177Y578662D01*
X240150Y578871D01*
Y579482D01*
X240100Y579732D01*
Y579987D01*
X239813Y581432D01*
X239774Y581729D01*
X239725Y581871D01*
X239648Y582258D01*
X239600Y582374D01*
X239599Y582382D01*
X239549Y582501D01*
X239501Y582743D01*
X238615Y584882D01*
X238478Y585087D01*
X238415Y585240D01*
X238410Y585247D01*
X238376Y585330D01*
X238167Y585642D01*
X238077Y585826D01*
X237828Y586150D01*
X237090Y587254D01*
X236910Y587434D01*
X236768Y587646D01*
X236388Y588027D01*
X236193Y588280D01*
X235939Y588504D01*
X235715Y588758D01*
X235462Y588953D01*
X235131Y589283D01*
X234919Y589425D01*
X234739Y589605D01*
X233753Y590264D01*
X233261Y590642D01*
X232982Y590779D01*
X232815Y590891D01*
X232798Y590898D01*
X232675Y590980D01*
X232457Y591070D01*
X232367Y591130D01*
X230228Y592016D01*
X230123Y592037D01*
X229817Y592164D01*
X229485Y592230D01*
X229164Y592339D01*
X228270Y592456D01*
X227473Y592615D01*
X227218D01*
X226967Y592665D01*
X226688D01*
X226096Y592743D01*
X225926Y592731D01*
X225758Y592765D01*
D02*
G37*
G36*
X635508Y528286D02*
X635258Y528236D01*
X635003D01*
X632565Y527751D01*
X631631Y527364D01*
X629564Y525983D01*
X629564Y525983D01*
X628849Y525268D01*
X627468Y523201D01*
X627081Y522267D01*
X626596Y519829D01*
Y518818D01*
X627081Y516380D01*
X627468Y515446D01*
X628849Y513379D01*
X628849Y513379D01*
X629564Y512664D01*
X631631Y511283D01*
X632565Y510896D01*
X635003Y510411D01*
X635258D01*
X635508Y510361D01*
X635759Y510411D01*
X636014D01*
X638452Y510896D01*
X639386Y511283D01*
X641453Y512664D01*
X641453Y512664D01*
X642168Y513379D01*
X643549Y515446D01*
X643936Y516380D01*
X644421Y518818D01*
Y519829D01*
X643936Y522267D01*
X643549Y523201D01*
X642168Y525268D01*
X642168Y525268D01*
X641453Y525983D01*
X639386Y527364D01*
X638452Y527751D01*
X636014Y528236D01*
X635759D01*
X635508Y528286D01*
D02*
G37*
G36*
X210009Y519036D02*
X209758Y518986D01*
X209503D01*
X207065Y518501D01*
X206131Y518114D01*
X204064Y516733D01*
X204064Y516733D01*
X203349Y516018D01*
X201968Y513951D01*
X201581Y513017D01*
X201096Y510579D01*
Y509568D01*
X201581Y507130D01*
X201968Y506196D01*
X203349Y504129D01*
X203349Y504129D01*
X204064Y503414D01*
X206131Y502033D01*
X207065Y501646D01*
X209503Y501161D01*
X209758D01*
X210009Y501111D01*
X210259Y501161D01*
X210514D01*
X212952Y501646D01*
X213886Y502033D01*
X215953Y503414D01*
X215953Y503414D01*
X216668Y504129D01*
X218049Y506196D01*
X218436Y507130D01*
X218921Y509568D01*
Y510579D01*
X218436Y513017D01*
X218049Y513951D01*
X216668Y516018D01*
X216668Y516018D01*
X215953Y516733D01*
X213886Y518114D01*
X212952Y518501D01*
X210514Y518986D01*
X210259D01*
X210009Y519036D01*
D02*
G37*
G36*
X683259Y510413D02*
X674529D01*
Y499094D01*
X685848D01*
Y507824D01*
X685651Y508815D01*
X685090Y509655D01*
X684249Y510216D01*
X683259Y510413D01*
D02*
G37*
G36*
X671989D02*
X663259D01*
X662267Y510216D01*
X661427Y509655D01*
X660866Y508815D01*
X660669Y507824D01*
Y499094D01*
X671989D01*
Y510413D01*
D02*
G37*
G36*
X685848Y496553D02*
X674529D01*
Y485234D01*
X683259D01*
X684249Y485431D01*
X685090Y485992D01*
X685651Y486833D01*
X685848Y487824D01*
Y496553D01*
D02*
G37*
G36*
X671989D02*
X660669D01*
Y487824D01*
X660866Y486833D01*
X661427Y485992D01*
X662267Y485431D01*
X663259Y485234D01*
X671989D01*
Y496553D01*
D02*
G37*
G36*
X662259Y476482D02*
X652029D01*
Y471594D01*
X668164D01*
X667948Y472680D01*
X666613Y474678D01*
X664615Y476013D01*
X662259Y476482D01*
D02*
G37*
G36*
X649489D02*
X639258D01*
X636902Y476013D01*
X634904Y474678D01*
X633569Y472680D01*
X633353Y471594D01*
X649489D01*
Y476482D01*
D02*
G37*
G36*
X274758Y551687D02*
X272529Y551394D01*
X270452Y550533D01*
X268668Y549164D01*
X267299Y547380D01*
X266438Y545303D01*
X266145Y543074D01*
X266438Y540844D01*
X267299Y538767D01*
X268668Y536983D01*
X270452Y535614D01*
X272529Y534753D01*
X274758Y534460D01*
X276988Y534753D01*
X279065Y535614D01*
X280761Y536915D01*
X672958D01*
X706350Y503523D01*
Y487101D01*
X704779Y486894D01*
X702702Y486033D01*
X700918Y484664D01*
X699549Y482880D01*
X698688Y480803D01*
X698447Y478971D01*
X675958Y456482D01*
X668303D01*
X667704Y457602D01*
X667948Y457967D01*
X668417Y460323D01*
X667948Y462680D01*
X666613Y464678D01*
X666598Y464688D01*
Y465602D01*
X666722Y466133D01*
X667948Y467967D01*
X668164Y469053D01*
X650759D01*
X633353D01*
X633569Y467967D01*
X633813Y467602D01*
X633214Y466482D01*
X605809D01*
X600363Y471928D01*
X598365Y473263D01*
X596008Y473732D01*
X573761D01*
X572065Y475033D01*
X569988Y475894D01*
X567758Y476187D01*
X565529Y475894D01*
X563452Y475033D01*
X561756Y473732D01*
X561309D01*
X516863Y518178D01*
X514865Y519513D01*
X512509Y519982D01*
X475261D01*
X473565Y521283D01*
X471488Y522144D01*
X469258Y522437D01*
X467029Y522144D01*
X464952Y521283D01*
X463256Y519982D01*
X337261D01*
X335565Y521283D01*
X333488Y522144D01*
X331259Y522437D01*
X329029Y522144D01*
X326952Y521283D01*
X325168Y519914D01*
X323799Y518130D01*
X322938Y516053D01*
X322645Y513824D01*
X322938Y511594D01*
X323799Y509517D01*
X325168Y507733D01*
X326952Y506364D01*
X329029Y505503D01*
X331259Y505210D01*
X333488Y505503D01*
X335565Y506364D01*
X337261Y507665D01*
X463256D01*
X464952Y506364D01*
X467029Y505503D01*
X469258Y505210D01*
X471488Y505503D01*
X473565Y506364D01*
X475261Y507665D01*
X509958D01*
X554404Y463219D01*
X556402Y461884D01*
X558759Y461415D01*
X561756D01*
X563452Y460114D01*
X565529Y459253D01*
X567758Y458960D01*
X569988Y459253D01*
X572065Y460114D01*
X573761Y461415D01*
X593458D01*
X598904Y455969D01*
X600902Y454634D01*
X603259Y454165D01*
X633214D01*
X633813Y453045D01*
X633569Y452680D01*
X633100Y450324D01*
X633569Y447967D01*
X634795Y446133D01*
X634920Y445602D01*
Y444688D01*
X634904Y444678D01*
X633569Y442680D01*
X633353Y441594D01*
X650759D01*
X668164D01*
X667948Y442680D01*
X667704Y443045D01*
X668303Y444165D01*
X675958D01*
X689311Y430812D01*
X689438Y429844D01*
X690299Y427767D01*
X691668Y425983D01*
X693452Y424614D01*
X695529Y423753D01*
X697758Y423460D01*
X699988Y423753D01*
X702065Y424614D01*
X703849Y425983D01*
X705218Y427767D01*
X706079Y429844D01*
X706372Y432074D01*
X706079Y434303D01*
X705218Y436380D01*
X703849Y438164D01*
X702065Y439533D01*
X699988Y440394D01*
X697758Y440687D01*
X696959Y440582D01*
X687218Y450324D01*
X706872Y469978D01*
X707009Y469960D01*
X709238Y470253D01*
X711315Y471114D01*
X713099Y472483D01*
X714468Y474267D01*
X715329Y476344D01*
X715622Y478574D01*
X715604Y478710D01*
X716863Y479969D01*
X718198Y481967D01*
X718667Y484324D01*
Y506074D01*
X718198Y508430D01*
X716863Y510428D01*
X679863Y547428D01*
X677865Y548763D01*
X675508Y549232D01*
X280761D01*
X279065Y550533D01*
X276988Y551394D01*
X274758Y551687D01*
D02*
G37*
G36*
X668164Y439054D02*
X652029D01*
Y434165D01*
X662259D01*
X664615Y434634D01*
X666613Y435969D01*
X667948Y437967D01*
X668164Y439054D01*
D02*
G37*
G36*
X649489D02*
X633353D01*
X633569Y437967D01*
X634904Y435969D01*
X636902Y434634D01*
X639258Y434165D01*
X649489D01*
Y439054D01*
D02*
G37*
G36*
X683259Y425413D02*
X674529D01*
Y414094D01*
X685848D01*
Y422824D01*
X685651Y423815D01*
X685090Y424655D01*
X684249Y425216D01*
X683259Y425413D01*
D02*
G37*
G36*
X671989D02*
X663259D01*
X662267Y425216D01*
X661427Y424655D01*
X660866Y423815D01*
X660669Y422824D01*
Y414094D01*
X671989D01*
Y425413D01*
D02*
G37*
G36*
X685848Y411553D02*
X674529D01*
Y400234D01*
X683259D01*
X684249Y400431D01*
X685090Y400992D01*
X685651Y401833D01*
X685848Y402824D01*
Y411553D01*
D02*
G37*
G36*
X671989D02*
X660669D01*
Y402824D01*
X660866Y401833D01*
X661427Y400992D01*
X662267Y400431D01*
X663259Y400234D01*
X671989D01*
Y411553D01*
D02*
G37*
G36*
X211008Y412036D02*
X210758Y411986D01*
X210503D01*
X208065Y411501D01*
X207131Y411114D01*
X205064Y409733D01*
X205064Y409733D01*
X204349Y409018D01*
X202968Y406951D01*
X202581Y406017D01*
X202096Y403579D01*
Y402568D01*
X202581Y400130D01*
X202968Y399196D01*
X204349Y397129D01*
X204349Y397129D01*
X205064Y396414D01*
X207131Y395033D01*
X208065Y394646D01*
X210503Y394161D01*
X210758D01*
X211008Y394111D01*
X211259Y394161D01*
X211514D01*
X213952Y394646D01*
X214886Y395033D01*
X216953Y396414D01*
X216953Y396414D01*
X217668Y397129D01*
X219049Y399196D01*
X219436Y400130D01*
X219921Y402568D01*
Y403579D01*
X219436Y406017D01*
X219049Y406951D01*
X217668Y409018D01*
X217668Y409018D01*
X216953Y409733D01*
X214886Y411114D01*
X213952Y411501D01*
X211514Y411986D01*
X211259D01*
X211008Y412036D01*
D02*
G37*
G36*
X636508Y409286D02*
X636258Y409236D01*
X636003D01*
X633565Y408751D01*
X632631Y408364D01*
X630564Y406983D01*
X630564Y406983D01*
X629849Y406268D01*
X628468Y404201D01*
X628081Y403267D01*
X627596Y400829D01*
Y399818D01*
X628081Y397380D01*
X628468Y396446D01*
X629849Y394379D01*
X629849Y394379D01*
X630564Y393664D01*
X632631Y392283D01*
X633565Y391896D01*
X636003Y391411D01*
X636258D01*
X636508Y391361D01*
X636759Y391411D01*
X637014D01*
X639452Y391896D01*
X640386Y392283D01*
X642453Y393664D01*
X642453Y393664D01*
X643168Y394379D01*
X644549Y396446D01*
X644936Y397380D01*
X645421Y399818D01*
Y400829D01*
X644936Y403267D01*
X644549Y404201D01*
X643168Y406268D01*
X643168Y406268D01*
X642453Y406983D01*
X640386Y408364D01*
X639452Y408751D01*
X637014Y409236D01*
X636759D01*
X636508Y409286D01*
D02*
G37*
G36*
X598259Y339265D02*
X598091Y339231D01*
X597920Y339243D01*
X597673Y339210D01*
X597090D01*
X596840Y339160D01*
X596585D01*
X595196Y338884D01*
X594853Y338839D01*
X594689Y338783D01*
X594315Y338709D01*
X594212Y338666D01*
X594200Y338664D01*
X594067Y338609D01*
X593829Y338561D01*
X591691Y337676D01*
X591489Y337541D01*
X591342Y337480D01*
X591331Y337473D01*
X591243Y337436D01*
X590932Y337228D01*
X590756Y337142D01*
X590446Y336904D01*
X589319Y336150D01*
X589138Y335970D01*
X588926Y335828D01*
X588535Y335438D01*
X588302Y335258D01*
X588078Y335004D01*
X587824Y334780D01*
X587644Y334547D01*
X587289Y334192D01*
X587148Y333979D01*
X586967Y333799D01*
X586269Y332755D01*
X585940Y332326D01*
X585820Y332083D01*
X585681Y331875D01*
X585664Y331833D01*
X585602Y331740D01*
X585522Y331547D01*
X585442Y331427D01*
X584556Y329288D01*
X584528Y329147D01*
X584418Y328882D01*
X584352Y328550D01*
X584243Y328229D01*
X584142Y327463D01*
X583957Y326533D01*
Y326278D01*
X583908Y326027D01*
Y325680D01*
X583839Y325162D01*
X583862Y324823D01*
X583839Y324486D01*
X583908Y323968D01*
Y323713D01*
X583957Y323463D01*
Y323208D01*
X584106Y322460D01*
X584243Y321418D01*
X584352Y321097D01*
X584418Y320765D01*
X585602Y317907D01*
X585790Y317625D01*
X585940Y317321D01*
X586752Y316264D01*
X586967Y315941D01*
X587105Y315804D01*
X587215Y315660D01*
X587289Y315549D01*
X587337Y315501D01*
X587824Y314867D01*
X588078Y314643D01*
X588302Y314389D01*
X589239Y313670D01*
X589319Y313590D01*
X589506Y313465D01*
X590756Y312505D01*
X591060Y312355D01*
X591342Y312167D01*
X594200Y310983D01*
X594532Y310917D01*
X594853Y310808D01*
X596582Y310581D01*
X596585Y310580D01*
X596586D01*
X597920Y310404D01*
X598091Y310416D01*
X598259Y310382D01*
X598426Y310416D01*
X598596Y310404D01*
X601664Y310808D01*
X601985Y310917D01*
X602317Y310983D01*
X605175Y312167D01*
X605457Y312355D01*
X605761Y312505D01*
X607160Y313579D01*
X607176Y313590D01*
X607183Y313597D01*
X608215Y314389D01*
X608439Y314643D01*
X608693Y314867D01*
X609485Y315899D01*
X609528Y315941D01*
X609594Y316041D01*
X610577Y317321D01*
X610727Y317625D01*
X610915Y317907D01*
X612099Y320765D01*
X612165Y321097D01*
X612274Y321418D01*
X612454Y322789D01*
X612537Y323208D01*
Y323422D01*
X612553Y323543D01*
X612587Y323713D01*
Y323800D01*
X612677Y324486D01*
X612655Y324823D01*
X612677Y325162D01*
X612587Y325847D01*
Y326027D01*
X612537Y326278D01*
Y326533D01*
X612418Y327134D01*
X612274Y328229D01*
X612165Y328550D01*
X612099Y328882D01*
X611946Y329250D01*
X611939Y329288D01*
X611053Y331427D01*
X611031Y331459D01*
X610915Y331740D01*
X610727Y332022D01*
X610577Y332326D01*
X610076Y332978D01*
X609528Y333799D01*
X609347Y333979D01*
X609206Y334192D01*
X608946Y334452D01*
X608693Y334780D01*
X608439Y335004D01*
X608215Y335258D01*
X607887Y335510D01*
X607569Y335828D01*
X607357Y335970D01*
X607176Y336150D01*
X606220Y336789D01*
X605761Y337142D01*
X605501Y337270D01*
X605252Y337436D01*
X605222Y337449D01*
X605175Y337480D01*
X604970Y337565D01*
X604804Y337676D01*
X602666Y338561D01*
X602471Y338600D01*
X602317Y338664D01*
X602262Y338675D01*
X602180Y338709D01*
X601859Y338772D01*
X601664Y338839D01*
X601256Y338892D01*
X599910Y339160D01*
X599655D01*
X599405Y339210D01*
X598844D01*
X598596Y339243D01*
X598426Y339231D01*
X598259Y339265D01*
D02*
G37*
G36*
X584336Y291803D02*
X584169Y291770D01*
X583998Y291781D01*
X580931Y291378D01*
X580610Y291269D01*
X580278Y291203D01*
X577420Y290019D01*
X577138Y289830D01*
X576834Y289681D01*
X574380Y287797D01*
X574156Y287542D01*
X573901Y287319D01*
X572018Y284865D01*
X571868Y284561D01*
X571680Y284279D01*
X570496Y281421D01*
X570430Y281089D01*
X570321Y280768D01*
X570143Y279412D01*
X570042Y278907D01*
Y278652D01*
X569993Y278402D01*
Y278272D01*
X569917Y277700D01*
X569939Y277362D01*
X569917Y277024D01*
X569993Y276453D01*
Y276088D01*
X570042Y275837D01*
Y275582D01*
X570234Y274618D01*
X570321Y273957D01*
X570429Y273640D01*
X570494Y273312D01*
X570495Y273309D01*
X570496Y273304D01*
X570593Y273071D01*
X570641Y272826D01*
X571527Y270688D01*
X571666Y270481D01*
X571680Y270446D01*
X571683Y270441D01*
X571766Y270240D01*
X572012Y269873D01*
X572018Y269860D01*
X572035Y269838D01*
X573052Y268316D01*
X573232Y268136D01*
X573374Y267923D01*
X575011Y266287D01*
X575223Y266145D01*
X575403Y265965D01*
X577328Y264679D01*
X577564Y264581D01*
X577776Y264440D01*
X579914Y263554D01*
X580164Y263504D01*
X580400Y263406D01*
X582670Y262955D01*
X582925D01*
X583175Y262905D01*
X585490D01*
X585740Y262955D01*
X585995D01*
X588265Y263406D01*
X588501Y263504D01*
X588751Y263554D01*
X590889Y264440D01*
X591101Y264581D01*
X591337Y264679D01*
X593261Y265965D01*
X593442Y266145D01*
X593654Y266287D01*
X595290Y267923D01*
X595432Y268136D01*
X595612Y268316D01*
X596575Y269756D01*
X596655Y269860D01*
X596684Y269919D01*
X596898Y270240D01*
X596968Y270409D01*
X596993Y270446D01*
X597020Y270512D01*
X597138Y270688D01*
X598023Y272826D01*
X598065Y273034D01*
X598176Y273304D01*
X598243Y273636D01*
X598352Y273957D01*
X598454Y274737D01*
X598622Y275582D01*
Y275837D01*
X598672Y276088D01*
Y276392D01*
X598755Y277024D01*
X598733Y277362D01*
X598755Y277700D01*
X598672Y278333D01*
Y278402D01*
X598645Y278538D01*
X598622Y278711D01*
Y278907D01*
X598546Y279292D01*
X598352Y280768D01*
X598243Y281089D01*
X598176Y281421D01*
X596993Y284279D01*
X596804Y284561D01*
X596655Y284865D01*
X594771Y287319D01*
X594516Y287542D01*
X594293Y287797D01*
X591838Y289681D01*
X591535Y289830D01*
X591253Y290019D01*
X588395Y291203D01*
X588063Y291269D01*
X587742Y291378D01*
X584674Y291781D01*
X584504Y291770D01*
X584336Y291803D01*
D02*
G37*
G36*
X174836Y227075D02*
X174586Y227025D01*
X174331D01*
X171893Y226540D01*
X170959Y226153D01*
X168892Y224772D01*
X168892Y224772D01*
X168177Y224057D01*
X166796Y221990D01*
X166409Y221056D01*
X165924Y218618D01*
Y217607D01*
X166409Y215168D01*
X166796Y214235D01*
X168177Y212167D01*
X168177Y212167D01*
X168892Y211453D01*
X170959Y210072D01*
X171892Y209685D01*
X174331Y209200D01*
X174586D01*
X174836Y209150D01*
X175086Y209200D01*
X175342D01*
X177780Y209685D01*
X178714Y210072D01*
X180781Y211453D01*
X180781Y211453D01*
X181496Y212167D01*
X182877Y214235D01*
X183264Y215168D01*
X183749Y217607D01*
Y218617D01*
X183264Y221056D01*
X182877Y221990D01*
X181496Y224057D01*
X181496Y224057D01*
X180781Y224772D01*
X178714Y226153D01*
X177780Y226540D01*
X175342Y227025D01*
X175086D01*
X174836Y227075D01*
D02*
G37*
G36*
X600086Y218074D02*
X599836Y218025D01*
X599581D01*
X597142Y217540D01*
X596209Y217153D01*
X594142Y215772D01*
X594142Y215772D01*
X593427Y215057D01*
X592046Y212990D01*
X591659Y212056D01*
X591174Y209618D01*
Y208607D01*
X591659Y206168D01*
X592046Y205235D01*
X593427Y203168D01*
X593427Y203167D01*
X594142Y202453D01*
X596209Y201072D01*
X597142Y200685D01*
X599581Y200200D01*
X599836D01*
X600086Y200150D01*
X600336Y200200D01*
X600592D01*
X603030Y200685D01*
X603964Y201072D01*
X606031Y202453D01*
X606031Y202453D01*
X606746Y203167D01*
X608127Y205235D01*
X608514Y206168D01*
X608999Y208607D01*
Y209618D01*
X608514Y212056D01*
X608127Y212990D01*
X606746Y215057D01*
X606746Y215057D01*
X606031Y215772D01*
X603964Y217153D01*
X603030Y217540D01*
X600592Y218025D01*
X600336D01*
X600086Y218074D01*
D02*
G37*
G36*
X524086Y250726D02*
X521857Y250432D01*
X519780Y249572D01*
X517995Y248203D01*
X516627Y246419D01*
X515766Y244342D01*
X515514Y242430D01*
X515494Y242395D01*
X515408Y242265D01*
X514694Y241430D01*
X508535Y235271D01*
X218586D01*
X216230Y234802D01*
X214232Y233467D01*
X197232Y216467D01*
X195897Y214469D01*
X195428Y212112D01*
Y179163D01*
X181786Y165521D01*
X128637D01*
X112175Y181983D01*
X112142Y182022D01*
X112017Y182192D01*
X112407Y183133D01*
X112700Y185362D01*
X112407Y187592D01*
X111546Y189669D01*
X110177Y191453D01*
X108393Y192822D01*
X106316Y193682D01*
X104086Y193976D01*
X101857Y193682D01*
X99780Y192822D01*
X97996Y191453D01*
X96627Y189669D01*
X95766Y187592D01*
X95473Y185362D01*
X95766Y183133D01*
X96627Y181055D01*
X97996Y179272D01*
X98454Y178919D01*
X99732Y177008D01*
X116252Y160487D01*
X102772Y147007D01*
X102490Y146767D01*
X102249Y146585D01*
X102054Y146454D01*
X102019Y146434D01*
X100107Y146182D01*
X98029Y145322D01*
X96246Y143953D01*
X94877Y142169D01*
X94016Y140092D01*
X93723Y137862D01*
X94016Y135633D01*
X94877Y133555D01*
X96246Y131771D01*
X98029Y130403D01*
X100107Y129542D01*
X102336Y129249D01*
X104566Y129542D01*
X106643Y130403D01*
X108427Y131771D01*
X109796Y133555D01*
X110656Y135633D01*
X110908Y137545D01*
X110928Y137580D01*
X111015Y137709D01*
X111728Y138545D01*
X126387Y153204D01*
X143292D01*
X143891Y152084D01*
X143647Y151719D01*
X143178Y149362D01*
X143647Y147006D01*
X144982Y145008D01*
X146980Y143673D01*
X149336Y143204D01*
X202836D01*
X205193Y143673D01*
X207191Y145008D01*
X233887Y171704D01*
X234312D01*
X234681Y171675D01*
X234980Y171633D01*
X235211Y171587D01*
X235249Y171577D01*
X236779Y170403D01*
X238857Y169542D01*
X241086Y169249D01*
X243316Y169542D01*
X245393Y170403D01*
X246923Y171577D01*
X246962Y171587D01*
X247115Y171617D01*
X248210Y171704D01*
X471586D01*
X473943Y172173D01*
X475941Y173508D01*
X492651Y190218D01*
X492933Y190458D01*
X493173Y190639D01*
X493369Y190771D01*
X493404Y190790D01*
X495316Y191042D01*
X497393Y191903D01*
X499177Y193272D01*
X500546Y195056D01*
X501407Y197133D01*
X501700Y199362D01*
X501407Y201592D01*
X500546Y203669D01*
X499177Y205453D01*
X497393Y206822D01*
X495316Y207682D01*
X493086Y207976D01*
X490857Y207682D01*
X488779Y206822D01*
X486996Y205453D01*
X485627Y203669D01*
X484766Y201592D01*
X484514Y199680D01*
X484495Y199645D01*
X484408Y199515D01*
X483694Y198680D01*
X469035Y184021D01*
X364741D01*
X363954Y184160D01*
X363297Y184379D01*
X362803Y184644D01*
X362427Y184953D01*
X362118Y185329D01*
X361852Y185823D01*
X361633Y186480D01*
X361495Y187267D01*
Y202339D01*
X361524Y202707D01*
X361566Y203006D01*
X361611Y203237D01*
X361622Y203275D01*
X362796Y204806D01*
X363657Y206883D01*
X363950Y209112D01*
X363657Y211342D01*
X362796Y213419D01*
X361427Y215203D01*
X359643Y216572D01*
X357566Y217432D01*
X355336Y217726D01*
X353107Y217432D01*
X351030Y216572D01*
X349245Y215203D01*
X347877Y213419D01*
X347016Y211342D01*
X346723Y209112D01*
X347016Y206883D01*
X347877Y204806D01*
X349051Y203275D01*
X349061Y203237D01*
X349091Y203084D01*
X349178Y201988D01*
Y187267D01*
X349039Y186480D01*
X348820Y185823D01*
X348554Y185329D01*
X348246Y184953D01*
X347869Y184644D01*
X347375Y184379D01*
X346718Y184160D01*
X345932Y184021D01*
X247860D01*
X247492Y184050D01*
X247193Y184092D01*
X246962Y184137D01*
X246923Y184148D01*
X245393Y185322D01*
X243316Y186182D01*
X241086Y186476D01*
X238857Y186182D01*
X236779Y185322D01*
X235249Y184148D01*
X235211Y184137D01*
X235058Y184107D01*
X233962Y184021D01*
X231336D01*
X228980Y183552D01*
X226982Y182217D01*
X200285Y155521D01*
X190863D01*
X190377Y156694D01*
X205941Y172258D01*
X207276Y174256D01*
X207745Y176612D01*
Y209561D01*
X221137Y222954D01*
X511086D01*
X513443Y223423D01*
X515441Y224758D01*
X523651Y232968D01*
X523932Y233208D01*
X524173Y233389D01*
X524369Y233521D01*
X524403Y233540D01*
X526316Y233792D01*
X528393Y234653D01*
X530177Y236021D01*
X531546Y237805D01*
X532407Y239883D01*
X532700Y242112D01*
X532407Y244342D01*
X531546Y246419D01*
X530177Y248203D01*
X528393Y249572D01*
X526316Y250432D01*
X524086Y250726D01*
D02*
G37*
G36*
X599086Y111074D02*
X598836Y111025D01*
X598581D01*
X596143Y110540D01*
X595209Y110153D01*
X593142Y108772D01*
X593142Y108772D01*
X592427Y108057D01*
X591046Y105990D01*
X590659Y105056D01*
X590174Y102618D01*
Y101607D01*
X590659Y99168D01*
X591046Y98235D01*
X592427Y96167D01*
X592427Y96167D01*
X593142Y95453D01*
X595209Y94072D01*
X596142Y93685D01*
X598581Y93200D01*
X598836D01*
X599086Y93150D01*
X599337Y93200D01*
X599592D01*
X602030Y93685D01*
X602964Y94072D01*
X605031Y95453D01*
X605031Y95453D01*
X605746Y96167D01*
X607127Y98235D01*
X607514Y99168D01*
X607999Y101607D01*
Y102618D01*
X607514Y105056D01*
X607127Y105990D01*
X605746Y108057D01*
X605746Y108057D01*
X605031Y108772D01*
X602964Y110153D01*
X602030Y110540D01*
X599592Y111025D01*
X599337D01*
X599086Y111074D01*
D02*
G37*
G36*
X173586Y108075D02*
X173336Y108025D01*
X173081D01*
X170643Y107540D01*
X169709Y107153D01*
X167642Y105772D01*
X167642Y105772D01*
X166927Y105057D01*
X165546Y102990D01*
X165159Y102056D01*
X164674Y99618D01*
Y98607D01*
X165159Y96168D01*
X165546Y95235D01*
X166927Y93168D01*
X166927Y93167D01*
X167642Y92453D01*
X169709Y91072D01*
X170643Y90685D01*
X173081Y90200D01*
X173336D01*
X173586Y90150D01*
X173836Y90200D01*
X174092D01*
X176530Y90685D01*
X177464Y91072D01*
X179531Y92453D01*
X179531Y92453D01*
X180246Y93167D01*
X181627Y95235D01*
X182014Y96168D01*
X182499Y98607D01*
Y99618D01*
X182014Y102056D01*
X181627Y102990D01*
X180246Y105057D01*
X180246Y105057D01*
X179531Y105772D01*
X177464Y107153D01*
X176530Y107540D01*
X174092Y108025D01*
X173836D01*
X173586Y108075D01*
D02*
G37*
G36*
X211836Y38303D02*
X211669Y38270D01*
X211498Y38281D01*
X208431Y37878D01*
X208110Y37769D01*
X207778Y37703D01*
X204920Y36518D01*
X204638Y36330D01*
X204334Y36181D01*
X201880Y34297D01*
X201656Y34042D01*
X201402Y33819D01*
X199518Y31365D01*
X199368Y31061D01*
X199180Y30779D01*
X197996Y27921D01*
X197930Y27589D01*
X197821Y27268D01*
X197417Y24200D01*
X197439Y23862D01*
X197417Y23524D01*
X197821Y20457D01*
X197930Y20136D01*
X197996Y19804D01*
X199180Y16946D01*
X199368Y16664D01*
X199518Y16360D01*
X200253Y15402D01*
X200615Y14861D01*
X200795Y14681D01*
X200937Y14469D01*
X201078Y14328D01*
X201402Y13906D01*
X201656Y13682D01*
X201880Y13427D01*
X202302Y13103D01*
X202573Y12832D01*
X202785Y12690D01*
X202966Y12510D01*
X203814Y11943D01*
X204334Y11544D01*
X204629Y11399D01*
X204890Y11224D01*
X204897Y11221D01*
X204920Y11206D01*
X205149Y11111D01*
X205338Y10985D01*
X207477Y10099D01*
X207700Y10055D01*
X207778Y10022D01*
X207805Y10017D01*
X207962Y9952D01*
X208351Y9874D01*
X208431Y9847D01*
X208597Y9825D01*
X210232Y9500D01*
X210487D01*
X210738Y9450D01*
X211446D01*
X211498Y9443D01*
X211604Y9450D01*
X211690D01*
X211836Y9421D01*
X211982Y9450D01*
X212069D01*
X212174Y9443D01*
X212227Y9450D01*
X213052D01*
X213302Y9500D01*
X213557D01*
X215827Y9952D01*
X216063Y10049D01*
X216313Y10099D01*
X218452Y10985D01*
X218664Y11126D01*
X218899Y11224D01*
X220824Y12510D01*
X221004Y12690D01*
X221216Y12832D01*
X222853Y14469D01*
X222995Y14681D01*
X223175Y14861D01*
X224461Y16786D01*
X224559Y17021D01*
X224700Y17233D01*
X225586Y19372D01*
X225636Y19622D01*
X225733Y19857D01*
X226185Y22127D01*
Y22383D01*
X226235Y22633D01*
Y23367D01*
X226255Y23524D01*
X226235Y23840D01*
Y23884D01*
X226255Y24200D01*
X226235Y24358D01*
Y24947D01*
X226185Y25197D01*
Y25452D01*
X225906Y26856D01*
X225851Y27268D01*
X225785Y27465D01*
X225733Y27723D01*
X225700Y27803D01*
X225676Y27921D01*
X225612Y28076D01*
X225586Y28208D01*
X224700Y30347D01*
X224625Y30459D01*
X224493Y30779D01*
X224304Y31061D01*
X224154Y31365D01*
X223578Y32116D01*
X223175Y32719D01*
X222995Y32899D01*
X222853Y33111D01*
X222686Y33278D01*
X222271Y33819D01*
X222016Y34042D01*
X221793Y34297D01*
X221252Y34712D01*
X221216Y34748D01*
X221132Y34804D01*
X220950Y34944D01*
X220824Y35070D01*
X220528Y35268D01*
X219339Y36181D01*
X219035Y36330D01*
X218753Y36518D01*
X215895Y37703D01*
X215563Y37769D01*
X215242Y37878D01*
X212174Y38281D01*
X212004Y38270D01*
X211836Y38303D01*
D02*
G37*
%LPD*%
G36*
X524026Y236113D02*
X523815Y236090D01*
X523574Y236017D01*
X523304Y235895D01*
X523003Y235723D01*
X522672Y235501D01*
X522312Y235229D01*
X521500Y234537D01*
X520570Y233646D01*
X515620Y238596D01*
X516090Y239076D01*
X517475Y240698D01*
X517697Y241029D01*
X517869Y241329D01*
X517991Y241600D01*
X518064Y241841D01*
X518087Y242052D01*
X524026Y236113D01*
D02*
G37*
G36*
X359403Y204662D02*
X359284Y204440D01*
X359179Y204162D01*
X359088Y203828D01*
X359011Y203437D01*
X358948Y202990D01*
X358864Y201927D01*
X358836Y200639D01*
X351836D01*
X351829Y201311D01*
X351661Y203437D01*
X351584Y203828D01*
X351493Y204162D01*
X351388Y204440D01*
X351269Y204662D01*
X351136Y204827D01*
X359536D01*
X359403Y204662D01*
D02*
G37*
G36*
X493026Y193363D02*
X492815Y193340D01*
X492574Y193267D01*
X492304Y193145D01*
X492003Y192973D01*
X491672Y192751D01*
X491311Y192479D01*
X490500Y191787D01*
X489570Y190896D01*
X484620Y195846D01*
X485090Y196326D01*
X486475Y197948D01*
X486697Y198279D01*
X486869Y198580D01*
X486991Y198850D01*
X487064Y199091D01*
X487087Y199302D01*
X493026Y193363D01*
D02*
G37*
G36*
X109278Y182281D02*
X109266Y182049D01*
X109314Y181786D01*
X109422Y181492D01*
X109589Y181167D01*
X109817Y180811D01*
X110104Y180424D01*
X110450Y180005D01*
X111323Y179076D01*
X105899Y174600D01*
X101487Y179955D01*
X109349Y182481D01*
X109278Y182281D01*
D02*
G37*
G36*
X358906Y187032D02*
X359116Y185842D01*
X359466Y184792D01*
X359956Y183882D01*
X360586Y183112D01*
X361356Y182482D01*
X362266Y181992D01*
X363316Y181642D01*
X364506Y181432D01*
X365836Y181362D01*
X355336Y174362D01*
X344836Y181362D01*
X346166Y181432D01*
X347356Y181642D01*
X348406Y181992D01*
X349316Y182482D01*
X350086Y183112D01*
X350716Y183882D01*
X351206Y184792D01*
X351556Y185842D01*
X351766Y187032D01*
X351836Y188362D01*
X358836D01*
X358906Y187032D01*
D02*
G37*
G36*
X245537Y181929D02*
X245758Y181810D01*
X246036Y181705D01*
X246371Y181614D01*
X246761Y181537D01*
X247208Y181474D01*
X248271Y181390D01*
X249560Y181362D01*
Y174362D01*
X248887Y174355D01*
X246761Y174187D01*
X246371Y174110D01*
X246036Y174019D01*
X245758Y173914D01*
X245537Y173795D01*
X245371Y173662D01*
Y182062D01*
X245537Y181929D01*
D02*
G37*
G36*
X236801Y173662D02*
X236636Y173795D01*
X236414Y173914D01*
X236136Y174019D01*
X235802Y174110D01*
X235411Y174187D01*
X234964Y174250D01*
X233901Y174334D01*
X232613Y174362D01*
Y181362D01*
X233285Y181369D01*
X235411Y181537D01*
X235802Y181614D01*
X236136Y181705D01*
X236414Y181810D01*
X236636Y181929D01*
X236801Y182062D01*
Y173662D01*
D02*
G37*
G36*
X110803Y141379D02*
X110332Y140899D01*
X108948Y139277D01*
X108726Y138946D01*
X108554Y138645D01*
X108432Y138374D01*
X108359Y138133D01*
X108336Y137922D01*
X102396Y143862D01*
X102607Y143885D01*
X102848Y143958D01*
X103119Y144080D01*
X103420Y144252D01*
X103751Y144474D01*
X104111Y144745D01*
X104922Y145438D01*
X105853Y146329D01*
X110803Y141379D01*
D02*
G37*
D23*
X123836Y159362D02*
X160836D01*
X104086Y181362D02*
Y185362D01*
Y181362D02*
X124961Y160487D01*
X102336Y137862D02*
X123836Y159362D01*
X124961Y160487D01*
X160836Y159362D02*
X184336D01*
X201586Y176612D01*
Y212112D01*
X218586Y229112D01*
X511086D01*
X524086Y242112D01*
X160836Y149362D02*
X202836D01*
X231336Y177862D01*
X241086D01*
X471586D02*
X493086Y199362D01*
X355336Y177862D02*
Y209112D01*
X241086Y177862D02*
X355336D01*
X471586D01*
X675508Y543074D02*
X712508Y506074D01*
X274758Y543074D02*
X675508D01*
X596008Y467574D02*
X603259Y460323D01*
X512509Y513824D02*
X558759Y467574D01*
X567758D01*
X596008D01*
X331259Y513824D02*
X469258D01*
X512509D01*
X603259Y460323D02*
X650759D01*
X650759Y450324D02*
X678508D01*
X712508Y484324D02*
Y506074D01*
X696758Y432074D02*
X697758D01*
X678508Y450324D02*
X696758Y432074D01*
X678508Y450324D02*
X712508Y484324D01*
D30*
X229336Y243362D02*
D03*
X206086Y73112D02*
D03*
X68836Y113362D02*
D03*
X70086Y213862D02*
D03*
X678836Y154362D02*
D03*
X635086Y111362D02*
D03*
X182336Y242112D02*
D03*
X532586Y155112D02*
D03*
X353336Y38862D02*
D03*
X217836Y102862D02*
D03*
X290836Y161362D02*
D03*
X521836Y38862D02*
D03*
X363836Y248612D02*
D03*
X417086Y160862D02*
D03*
X348336Y98862D02*
D03*
X502586Y83112D02*
D03*
X689336Y210862D02*
D03*
X682336Y82362D02*
D03*
X509836Y255862D02*
D03*
X102336Y137862D02*
D03*
X104086Y185362D02*
D03*
X524086Y242112D02*
D03*
X355336Y209112D02*
D03*
X241086Y177862D02*
D03*
X493086Y199362D02*
D03*
X597509Y386324D02*
D03*
X151258Y548324D02*
D03*
X449509Y388324D02*
D03*
X323259Y397324D02*
D03*
X519509Y455074D02*
D03*
X394008D02*
D03*
X600009Y560324D02*
D03*
X322758Y563324D02*
D03*
X126758Y457574D02*
D03*
X37508Y440574D02*
D03*
X741009Y420824D02*
D03*
X274758Y543074D02*
D03*
X567758Y467574D02*
D03*
X469258Y513824D02*
D03*
X331259D02*
D03*
X707009Y478574D02*
D03*
X697758Y432074D02*
D03*
X281758Y460574D02*
D03*
X90259Y386074D02*
D03*
X155508Y404824D02*
D03*
X193759Y492074D02*
D03*
X604509Y514824D02*
D03*
X670508Y342074D02*
D03*
X458508Y336074D02*
D03*
X289508Y343824D02*
D03*
D31*
X160836Y169362D02*
D03*
Y149362D02*
D03*
Y139362D02*
D03*
Y159362D02*
D03*
X650759Y440324D02*
D03*
X650759Y460323D02*
D03*
X650759Y470324D02*
D03*
X650759Y450324D02*
D03*
D32*
X138336Y196862D02*
D03*
Y111862D02*
D03*
X673259Y412824D02*
D03*
Y497824D02*
D03*
M02*
