G04 Layer_Physical_Order=1*
G04 Layer_Color=255*
%FSLAX44Y44*%
%MOMM*%
G71*
G01*
G75*
%ADD10R,1.5000X2.4000*%
G04:AMPARAMS|DCode=11|XSize=2.4mm|YSize=1.5mm|CornerRadius=0mm|HoleSize=0mm|Usage=FLASHONLY|Rotation=179.000|XOffset=0mm|YOffset=0mm|HoleType=Round|Shape=Rectangle|*
%AMROTATEDRECTD11*
4,1,4,1.2129,0.7289,1.1867,-0.7708,-1.2129,-0.7289,-1.1867,0.7708,1.2129,0.7289,0.0*
%
%ADD11ROTATEDRECTD11*%

%ADD12R,1.1000X0.9000*%
%ADD13R,2.4000X1.5000*%
%ADD14R,0.9000X1.1000*%
G04:AMPARAMS|DCode=15|XSize=2.4mm|YSize=1.5mm|CornerRadius=0mm|HoleSize=0mm|Usage=FLASHONLY|Rotation=119.000|XOffset=0mm|YOffset=0mm|HoleType=Round|Shape=Rectangle|*
%AMROTATEDRECTD15*
4,1,4,1.2377,-0.6859,-0.0742,-1.4131,-1.2377,0.6859,0.0742,1.4131,1.2377,-0.6859,0.0*
%
%ADD15ROTATEDRECTD15*%

G04:AMPARAMS|DCode=16|XSize=2.4mm|YSize=1.5mm|CornerRadius=0mm|HoleSize=0mm|Usage=FLASHONLY|Rotation=294.500|XOffset=0mm|YOffset=0mm|HoleType=Round|Shape=Rectangle|*
%AMROTATEDRECTD16*
4,1,4,-1.1801,0.7809,0.1848,1.4030,1.1801,-0.7809,-0.1848,-1.4030,-1.1801,0.7809,0.0*
%
%ADD16ROTATEDRECTD16*%

G04:AMPARAMS|DCode=17|XSize=2.4mm|YSize=1.5mm|CornerRadius=0mm|HoleSize=0mm|Usage=FLASHONLY|Rotation=89.500|XOffset=0mm|YOffset=0mm|HoleType=Round|Shape=Rectangle|*
%AMROTATEDRECTD17*
4,1,4,0.7395,-1.2065,-0.7604,-1.1934,-0.7395,1.2065,0.7604,1.1934,0.7395,-1.2065,0.0*
%
%ADD17ROTATEDRECTD17*%

G04:AMPARAMS|DCode=18|XSize=2.4mm|YSize=1.5mm|CornerRadius=0mm|HoleSize=0mm|Usage=FLASHONLY|Rotation=64.000|XOffset=0mm|YOffset=0mm|HoleType=Round|Shape=Rectangle|*
%AMROTATEDRECTD18*
4,1,4,0.1480,-1.4073,-1.2001,-0.7498,-0.1480,1.4073,1.2001,0.7498,0.1480,-1.4073,0.0*
%
%ADD18ROTATEDRECTD18*%

G04:AMPARAMS|DCode=19|XSize=2.4mm|YSize=1.5mm|CornerRadius=0mm|HoleSize=0mm|Usage=FLASHONLY|Rotation=59.000|XOffset=0mm|YOffset=0mm|HoleType=Round|Shape=Rectangle|*
%AMROTATEDRECTD19*
4,1,4,0.0248,-1.4149,-1.2609,-0.6423,-0.0248,1.4149,1.2609,0.6423,0.0248,-1.4149,0.0*
%
%ADD19ROTATEDRECTD19*%

G04:AMPARAMS|DCode=20|XSize=2.4mm|YSize=1.5mm|CornerRadius=0mm|HoleSize=0mm|Usage=FLASHONLY|Rotation=89.000|XOffset=0mm|YOffset=0mm|HoleType=Round|Shape=Rectangle|*
%AMROTATEDRECTD20*
4,1,4,0.7289,-1.2129,-0.7708,-1.1867,-0.7289,1.2129,0.7708,1.1867,0.7289,-1.2129,0.0*
%
%ADD20ROTATEDRECTD20*%

G04:AMPARAMS|DCode=21|XSize=2.4mm|YSize=1.5mm|CornerRadius=0mm|HoleSize=0mm|Usage=FLASHONLY|Rotation=79.000|XOffset=0mm|YOffset=0mm|HoleType=Round|Shape=Rectangle|*
%AMROTATEDRECTD21*
4,1,4,0.5072,-1.3211,-0.9652,-1.0349,-0.5072,1.3211,0.9652,1.0349,0.5072,-1.3211,0.0*
%
%ADD21ROTATEDRECTD21*%

G04:AMPARAMS|DCode=22|XSize=2.4mm|YSize=1.5mm|CornerRadius=0mm|HoleSize=0mm|Usage=FLASHONLY|Rotation=294.000|XOffset=0mm|YOffset=0mm|HoleType=Round|Shape=Rectangle|*
%AMROTATEDRECTD22*
4,1,4,-1.1732,0.7912,0.1971,1.4013,1.1732,-0.7912,-0.1971,-1.4013,-1.1732,0.7912,0.0*
%
%ADD22ROTATEDRECTD22*%

%ADD23C,0.7000*%
G04:AMPARAMS|DCode=24|XSize=2.4mm|YSize=1.5mm|CornerRadius=0mm|HoleSize=0mm|Usage=FLASHONLY|Rotation=280.000|XOffset=0mm|YOffset=0mm|HoleType=Round|Shape=Rectangle|*
%AMROTATEDRECTD24*
4,1,4,-0.9470,1.0515,0.5302,1.3120,0.9470,-1.0515,-0.5302,-1.3120,-0.9470,1.0515,0.0*
%
%ADD24ROTATEDRECTD24*%

G04:AMPARAMS|DCode=25|XSize=2.4mm|YSize=1.5mm|CornerRadius=0mm|HoleSize=0mm|Usage=FLASHONLY|Rotation=1.000|XOffset=0mm|YOffset=0mm|HoleType=Round|Shape=Rectangle|*
%AMROTATEDRECTD25*
4,1,4,-1.1867,-0.7708,-1.2129,0.7289,1.1867,0.7708,1.2129,-0.7289,-1.1867,-0.7708,0.0*
%
%ADD25ROTATEDRECTD25*%

G04:AMPARAMS|DCode=26|XSize=2.4mm|YSize=1.5mm|CornerRadius=0mm|HoleSize=0mm|Usage=FLASHONLY|Rotation=271.000|XOffset=0mm|YOffset=0mm|HoleType=Round|Shape=Rectangle|*
%AMROTATEDRECTD26*
4,1,4,-0.7708,1.1867,0.7289,1.2129,0.7708,-1.1867,-0.7289,-1.2129,-0.7708,1.1867,0.0*
%
%ADD26ROTATEDRECTD26*%

G04:AMPARAMS|DCode=27|XSize=2.4mm|YSize=1.5mm|CornerRadius=0mm|HoleSize=0mm|Usage=FLASHONLY|Rotation=295.500|XOffset=0mm|YOffset=0mm|HoleType=Round|Shape=Rectangle|*
%AMROTATEDRECTD27*
4,1,4,-1.1936,0.7602,0.1603,1.4060,1.1936,-0.7602,-0.1603,-1.4060,-1.1936,0.7602,0.0*
%
%ADD27ROTATEDRECTD27*%

G04:AMPARAMS|DCode=28|XSize=2.4mm|YSize=1.5mm|CornerRadius=0mm|HoleSize=0mm|Usage=FLASHONLY|Rotation=240.000|XOffset=0mm|YOffset=0mm|HoleType=Round|Shape=Rectangle|*
%AMROTATEDRECTD28*
4,1,4,-0.0495,1.4142,1.2495,0.6642,0.0495,-1.4142,-1.2495,-0.6642,-0.0495,1.4142,0.0*
%
%ADD28ROTATEDRECTD28*%

G04:AMPARAMS|DCode=29|XSize=2.4mm|YSize=1.5mm|CornerRadius=0mm|HoleSize=0mm|Usage=FLASHONLY|Rotation=66.000|XOffset=0mm|YOffset=0mm|HoleType=Round|Shape=Rectangle|*
%AMROTATEDRECTD29*
4,1,4,0.1971,-1.4013,-1.1732,-0.7912,-0.1971,1.4013,1.1732,0.7912,0.1971,-1.4013,0.0*
%
%ADD29ROTATEDRECTD29*%

%ADD30C,1.2000*%
G36*
X229036Y595457D02*
X232341Y594454D01*
X235386Y592827D01*
X238055Y590636D01*
X240245Y587967D01*
X241434Y585743D01*
X241434Y585743D01*
X241665Y585405D01*
X241772Y585291D01*
X243111Y582787D01*
X246059Y579194D01*
X249652Y576246D01*
X253750Y574055D01*
X258198Y572706D01*
X262823Y572250D01*
X263517Y572319D01*
X264787Y572364D01*
X266029Y572459D01*
X300565Y575101D01*
X345143Y577535D01*
X389764Y578996D01*
X434406Y579483D01*
X479048Y578996D01*
X520458Y577640D01*
X520448Y576370D01*
X516003Y576292D01*
X515015Y576078D01*
X514185Y575502D01*
X513638Y574652D01*
X513458Y573658D01*
X513458Y573658D01*
X513877Y549661D01*
X514092Y548674D01*
X514668Y547844D01*
X515518Y547297D01*
X516512Y547117D01*
X516512Y547117D01*
X531510Y547379D01*
X532497Y547593D01*
X533327Y548169D01*
X533874Y549019D01*
X534054Y550014D01*
X534054Y550014D01*
X533971Y554771D01*
X534861Y555677D01*
X562196D01*
X585654Y532219D01*
X587652Y530884D01*
X590009Y530415D01*
X652246D01*
X653455Y530269D01*
X653521Y529261D01*
X653968Y528355D01*
X654728Y527688D01*
X667718Y520188D01*
X667718Y520188D01*
X668675Y519864D01*
X669683Y519930D01*
X670590Y520377D01*
X671256Y521136D01*
X683256Y541921D01*
X683581Y542878D01*
X683515Y543886D01*
X683068Y544792D01*
X682308Y545458D01*
X669318Y552958D01*
X669318Y552958D01*
X668361Y553283D01*
X667353Y553217D01*
X666446Y552770D01*
X665780Y552011D01*
X660423Y542732D01*
X592560D01*
X569101Y566190D01*
X567103Y567525D01*
X564746Y567994D01*
X533740D01*
X533635Y574010D01*
X533420Y574997D01*
X532892Y575760D01*
X532967Y576109D01*
X533360Y577006D01*
X568247Y575101D01*
X612761Y571696D01*
X657191Y567320D01*
X660104Y566968D01*
X660097Y566890D01*
X661290Y566796D01*
X661345Y566788D01*
X665343Y565828D01*
X668616Y564473D01*
X669735Y563896D01*
X670862Y563309D01*
X739269Y526239D01*
X739270Y526236D01*
X739262Y526220D01*
X742218Y524409D01*
X745363Y521722D01*
X748050Y518577D01*
X748126Y518453D01*
X748152Y518394D01*
X766033Y493369D01*
X766252Y493164D01*
X766418Y492915D01*
X766510Y492854D01*
X766953Y492277D01*
X768748Y490899D01*
X770839Y490033D01*
X773082Y489738D01*
X773122Y489743D01*
X773130Y489742D01*
X773150Y489746D01*
X773165Y489743D01*
X775244Y489763D01*
X775249Y489762D01*
X775254Y489763D01*
X775282Y489763D01*
X775348Y489777D01*
X776365Y489190D01*
Y489190D01*
X777123Y488170D01*
X800939Y454840D01*
X800939Y454836D01*
X800921Y454824D01*
X801205Y454138D01*
X801189Y454060D01*
X801205Y453983D01*
X800885Y453212D01*
X800884Y453211D01*
X774009Y420553D01*
X773934Y420414D01*
X773069Y420056D01*
X773023Y420065D01*
X773003Y420061D01*
X772985Y420064D01*
X765903Y419997D01*
X765828Y419981D01*
X763742Y419707D01*
X761652Y418841D01*
X759856Y417463D01*
X759623Y417159D01*
X759531Y417098D01*
X759433Y416951D01*
X759296Y416839D01*
X701312Y346380D01*
X701237Y346373D01*
X701237Y346373D01*
Y346372D01*
X699582Y344435D01*
X696436Y341748D01*
X694126Y340333D01*
X693070Y339688D01*
X691939Y339153D01*
X685604Y336157D01*
X676697Y332970D01*
X667521Y330672D01*
X658164Y329284D01*
X649739Y328870D01*
X649670Y328884D01*
X649650Y328880D01*
X649635Y328882D01*
X635348Y328746D01*
X634078Y328757D01*
Y328757D01*
X629679Y328324D01*
X625231Y326975D01*
X621133Y324784D01*
X617540Y321836D01*
X614591Y318243D01*
X614151Y317419D01*
X613449Y316374D01*
X613448Y316372D01*
X612683Y314940D01*
X610493Y312271D01*
X607823Y310081D01*
X604778Y308453D01*
X601474Y307451D01*
X598037Y307112D01*
X594601Y307451D01*
X591297Y308453D01*
X588252Y310081D01*
X585583Y312271D01*
X583392Y314940D01*
X582784Y316078D01*
X582784Y316078D01*
X582085Y317143D01*
X581865Y317554D01*
X578917Y321147D01*
X575324Y324095D01*
X571226Y326286D01*
X566778Y327635D01*
X563170Y327990D01*
X562153Y328091D01*
X561927Y328068D01*
X561927Y328046D01*
X561925Y328045D01*
X224029Y324818D01*
X208272Y326058D01*
X190292Y328425D01*
X172460Y331730D01*
X154826Y335963D01*
X137437Y341114D01*
X120342Y347168D01*
X115012Y349376D01*
D01*
X113935Y349954D01*
X113459Y350272D01*
X112562Y351097D01*
X112045Y351664D01*
X111716Y352025D01*
X111694Y352049D01*
X111387Y352393D01*
X111386Y352394D01*
X111386Y352394D01*
X111384Y352396D01*
X111381Y352399D01*
X111379Y352402D01*
X111376Y352405D01*
X111345Y352429D01*
X111324Y352462D01*
X111094Y352707D01*
X111081Y352716D01*
X111073Y352729D01*
X110840Y352972D01*
X110828Y352981D01*
X110820Y352994D01*
X110585Y353235D01*
X110565Y353255D01*
X110564Y353256D01*
X110552Y353269D01*
X110549Y353273D01*
X110467Y353354D01*
X110329Y353495D01*
X110316Y353507D01*
X110313Y353512D01*
X110151Y353671D01*
X110069Y353754D01*
X110047Y353775D01*
X110047Y353775D01*
X110033Y353789D01*
X109833Y353985D01*
X109543Y354265D01*
X109543Y354265D01*
X109520Y354286D01*
X109283Y354512D01*
X109277Y354517D01*
X109276Y354518D01*
X109255Y354538D01*
X109013Y354764D01*
X109011Y354766D01*
X109009Y354767D01*
X108987Y354787D01*
X108914Y354854D01*
X108741Y355013D01*
X108727Y355022D01*
X108718Y355034D01*
X108468Y355259D01*
X108455Y355267D01*
X108446Y355279D01*
X108195Y355502D01*
X108181Y355510D01*
X108172Y355522D01*
X107919Y355743D01*
X107905Y355751D01*
X107895Y355764D01*
X107642Y355981D01*
X107633Y355986D01*
X107626Y355994D01*
X107626Y355995D01*
X107621Y355998D01*
X107618Y356002D01*
X107363Y356217D01*
X107349Y356225D01*
X107339Y356237D01*
X107080Y356451D01*
X107066Y356459D01*
X107057Y356471D01*
X106797Y356683D01*
X106783Y356690D01*
X106773Y356702D01*
X106512Y356912D01*
X106498Y356919D01*
X106488Y356931D01*
X106224Y357139D01*
X106210Y357146D01*
X106200Y357158D01*
X105936Y357362D01*
X105926Y357367D01*
X105919Y357376D01*
X105918Y357377D01*
X105914Y357379D01*
X105911Y357382D01*
X105646Y357584D01*
X105632Y357591D01*
X105621Y357603D01*
X105353Y357804D01*
X105338Y357811D01*
X105327Y357823D01*
X105059Y358021D01*
X105051Y358025D01*
X105044Y358031D01*
X105043Y358032D01*
X105037Y358035D01*
X105033Y358040D01*
X104763Y358235D01*
X104749Y358242D01*
X104738Y358253D01*
X104465Y358448D01*
X104451Y358454D01*
X104440Y358465D01*
X104166Y358657D01*
X104151Y358663D01*
X104141Y358674D01*
X103865Y358864D01*
X103850Y358870D01*
X103840Y358881D01*
X103562Y359068D01*
X103547Y359075D01*
X103536Y359086D01*
X103259Y359269D01*
X103244Y359276D01*
X103232Y359287D01*
X102952Y359469D01*
X102938Y359475D01*
X102927Y359486D01*
X102645Y359666D01*
X102630Y359672D01*
X102619Y359682D01*
X102336Y359860D01*
X102321Y359866D01*
X102309Y359876D01*
X102026Y360051D01*
X102013Y360056D01*
X102002Y360065D01*
X102001Y360066D01*
X102000Y360067D01*
X101999Y360068D01*
X101714Y360240D01*
X101712Y360241D01*
X101709Y360243D01*
X101707Y360244D01*
X101697Y360248D01*
X101688Y360255D01*
X101687Y360256D01*
X101687Y360256D01*
X101687Y360256D01*
X101401Y360426D01*
X101385Y360431D01*
X101373Y360442D01*
X101371Y360443D01*
X101371Y360444D01*
X101370Y360444D01*
X101086Y360609D01*
X101070Y360615D01*
X101058Y360625D01*
X100770Y360790D01*
X100755Y360795D01*
X100743Y360806D01*
X100451Y360969D01*
X100436Y360973D01*
X100424Y360983D01*
X100132Y361144D01*
X100117Y361149D01*
X100105Y361158D01*
X99812Y361316D01*
X99797Y361321D01*
X99785Y361331D01*
X99784Y361331D01*
X99784Y361331D01*
X99784Y361331D01*
X99491Y361486D01*
X99476Y361490D01*
X99464Y361500D01*
X99463Y361501D01*
X99463Y361501D01*
X99462Y361501D01*
X99168Y361653D01*
X99153Y361657D01*
X99140Y361668D01*
X98843Y361818D01*
X98828Y361822D01*
X98815Y361832D01*
X98517Y361979D01*
X98502Y361984D01*
X98489Y361993D01*
X98191Y362138D01*
X98176Y362142D01*
X98163Y362151D01*
X97863Y362294D01*
X97847Y362298D01*
X97835Y362307D01*
X97533Y362447D01*
X97518Y362451D01*
X97506Y362460D01*
X97324Y362543D01*
X97203Y362598D01*
X97175Y362610D01*
X97174Y362611D01*
X97171Y362612D01*
X96872Y362745D01*
X96844Y362757D01*
X96843Y362758D01*
X96837Y362761D01*
X96539Y362890D01*
X96511Y362902D01*
X96511Y362902D01*
X96177Y363045D01*
X95870Y363172D01*
X95870Y363172D01*
X95869Y363172D01*
X95563Y363296D01*
X95559Y363297D01*
X95536Y363306D01*
X95536Y363306D01*
X95509Y363317D01*
X95508Y363317D01*
X95506Y363318D01*
X95205Y363437D01*
X95198Y363440D01*
X95197Y363440D01*
X95169Y363451D01*
X94863Y363568D01*
X94860Y363570D01*
X94859Y363570D01*
X94831Y363581D01*
X94689Y363634D01*
X94522Y363697D01*
X94506Y363700D01*
X94492Y363708D01*
X94183Y363821D01*
X94166Y363824D01*
X94152Y363832D01*
X93843Y363942D01*
X93833Y363944D01*
X93824Y363949D01*
X93823Y363949D01*
X93820Y363950D01*
X93816Y363951D01*
X93814Y363952D01*
X93812Y363953D01*
X93811Y363953D01*
X93501Y364061D01*
X93484Y364063D01*
X93470Y364072D01*
X93158Y364176D01*
X93142Y364178D01*
X93128Y364186D01*
X92815Y364289D01*
X92799Y364291D01*
X92784Y364299D01*
X92472Y364398D01*
X92456Y364400D01*
X92441Y364408D01*
X92126Y364505D01*
X92110Y364507D01*
X92096Y364514D01*
X91782Y364608D01*
X91769Y364610D01*
X91757Y364616D01*
X91757Y364616D01*
X91753Y364616D01*
X91750Y364618D01*
X91435Y364709D01*
X91419Y364710D01*
X91404Y364718D01*
X91089Y364806D01*
X91073Y364808D01*
X91058Y364815D01*
X90741Y364901D01*
X90725Y364902D01*
X90710Y364909D01*
X90392Y364992D01*
X90376Y364994D01*
X90361Y365000D01*
X90044Y365081D01*
X90028Y365081D01*
X90013Y365088D01*
X89694Y365166D01*
X89678Y365167D01*
X89664Y365173D01*
X89345Y365248D01*
X89328Y365249D01*
X89313Y365256D01*
X88995Y365327D01*
X88989Y365328D01*
X88983Y365330D01*
X88982Y365330D01*
X88972Y365331D01*
X88963Y365335D01*
X88644Y365404D01*
X88627Y365404D01*
X88612Y365410D01*
X88292Y365477D01*
X88275Y365477D01*
X88260Y365483D01*
X87942Y365546D01*
X87929D01*
X87918Y365551D01*
X87916Y365551D01*
X87913Y365551D01*
X87909Y365553D01*
X87588Y365614D01*
X87579Y365613D01*
X87570Y365617D01*
X87569Y365617D01*
X87565Y365617D01*
X87562Y365618D01*
X87562Y365618D01*
X87558Y365618D01*
X87555Y365620D01*
X87236Y365677D01*
X87219Y365677D01*
X87204Y365683D01*
X86882Y365738D01*
X86866Y365737D01*
X86851Y365743D01*
X86529Y365796D01*
X86512Y365795D01*
X86496Y365801D01*
X86177Y365850D01*
X86168Y365849D01*
X86161Y365852D01*
X86159Y365852D01*
X86151Y365852D01*
X86143Y365855D01*
X85822Y365901D01*
X85805Y365900D01*
X85789Y365906D01*
X85467Y365949D01*
X85455Y365949D01*
X85443Y365952D01*
X85443Y365953D01*
X85438Y365952D01*
X85434Y365954D01*
X85113Y365994D01*
X85096Y365993D01*
X85080Y365998D01*
X84759Y366036D01*
X84742Y366035D01*
X84726Y366040D01*
X84403Y366075D01*
X84387Y366074D01*
X84371Y366078D01*
X84048Y366111D01*
X84031Y366109D01*
X84015Y366114D01*
X83694Y366143D01*
X83689Y366143D01*
X83684Y366144D01*
X83683Y366144D01*
X83672Y366143D01*
X83661Y366146D01*
X83338Y366172D01*
X83321Y366170D01*
X83304Y366175D01*
X82983Y366199D01*
X82966Y366196D01*
X82950Y366201D01*
X82627Y366222D01*
X82611Y366219D01*
X82595Y366223D01*
X82272Y366241D01*
X82255Y366239D01*
X82239Y366243D01*
X81917Y366258D01*
X81900Y366255D01*
X81884Y366259D01*
X81561Y366272D01*
X81545Y366269D01*
X81528Y366273D01*
X81207Y366282D01*
X81190Y366279D01*
X81173Y366283D01*
X80851Y366289D01*
X80835Y366286D01*
X80818Y366289D01*
X80609Y366292D01*
X80588Y366288D01*
X80565Y366292D01*
X80515Y366282D01*
X80457Y366294D01*
X80388Y366280D01*
X78752Y366605D01*
X77629Y367122D01*
X77629Y367122D01*
X71281Y370569D01*
X55818Y380044D01*
X40872Y390316D01*
X28895Y399507D01*
X27920Y400322D01*
X27920Y400322D01*
Y400322D01*
X27042Y401153D01*
X26098Y402566D01*
X25754Y403767D01*
X25405Y404989D01*
X16783Y440775D01*
X16537Y442022D01*
X16537Y442022D01*
X16537Y442022D01*
X16244Y443492D01*
X16731Y445942D01*
X17550Y447168D01*
X17533Y447180D01*
X20572Y451495D01*
X32542Y466833D01*
X45251Y481566D01*
X47359Y483780D01*
X47359D01*
X47739Y484094D01*
X48718Y484835D01*
Y484835D01*
X49714Y485589D01*
X50963Y486354D01*
X55278Y490040D01*
X58964Y494355D01*
X60936Y497575D01*
X61022Y497531D01*
X61028Y497528D01*
X61304Y497942D01*
X62065Y498892D01*
X72758Y509073D01*
X87490Y521781D01*
X102828Y533751D01*
X118735Y544954D01*
X135173Y555363D01*
X139955Y558072D01*
X167297Y561976D01*
X188404Y564520D01*
Y564520D01*
X189654Y564765D01*
X190178Y564817D01*
X194625Y566166D01*
X198724Y568357D01*
X202317Y571305D01*
X205265Y574898D01*
X207456Y578997D01*
X208137Y581242D01*
X208558Y582388D01*
X208559Y582389D01*
X208558Y582389D01*
X209327Y584922D01*
X210954Y587967D01*
X213145Y590636D01*
X215814Y592827D01*
X218859Y594454D01*
X222164Y595457D01*
X225600Y595795D01*
X229036Y595457D01*
D02*
G37*
G36*
X587779Y294573D02*
X591094Y293568D01*
X594148Y291935D01*
X596825Y289738D01*
X599023Y287061D01*
X600656Y284006D01*
X601058Y282678D01*
X601369Y281487D01*
X601368Y281484D01*
X601377Y281457D01*
X601379Y281452D01*
X601391Y281429D01*
X601841Y280340D01*
X602526Y278081D01*
X604712Y273991D01*
X607654Y270407D01*
X611238Y267465D01*
X615328Y265280D01*
X619765Y263933D01*
X620278Y263883D01*
X621174Y263649D01*
X621509Y263558D01*
X621523Y263552D01*
X622793Y263486D01*
X642642Y261093D01*
X669995Y257188D01*
X674787Y254473D01*
X691227Y244063D01*
X707136Y232858D01*
X722477Y220886D01*
X737211Y208176D01*
X746975Y198881D01*
X747750Y197859D01*
X747774Y197842D01*
X747800Y197831D01*
X748212Y197442D01*
X748546Y197089D01*
X748792Y196813D01*
X748938Y196582D01*
X748964Y196519D01*
X749153Y196400D01*
X749834Y195373D01*
X751012Y193451D01*
X754692Y189142D01*
X759001Y185462D01*
X760222Y184714D01*
X761223Y183918D01*
X761245Y183903D01*
X761250Y183901D01*
X761645Y183652D01*
X762451Y182772D01*
X762464Y182741D01*
X762613Y182880D01*
X764722Y180666D01*
X777432Y165931D01*
X789403Y150591D01*
X791732Y147284D01*
X792131Y146625D01*
X792378Y146215D01*
X792379Y146213D01*
X792387Y146200D01*
X792388Y146200D01*
X792389Y146200D01*
X792471Y146091D01*
X793145Y145187D01*
X793252Y145027D01*
X793710Y142723D01*
X793677Y142556D01*
X793710Y142389D01*
X793701Y142342D01*
X793430Y141116D01*
X793419Y141090D01*
X793204Y139836D01*
X784579Y104040D01*
X784200Y102826D01*
X784185Y102791D01*
X783867Y101581D01*
X782964Y100231D01*
X782293Y99686D01*
X781973Y99431D01*
X781973Y99431D01*
X781950Y99417D01*
X781049Y98512D01*
X769091Y89337D01*
X754143Y79063D01*
X738678Y69586D01*
X733435Y66739D01*
X732337Y66143D01*
X732321Y66154D01*
X732321Y66154D01*
X732309Y66150D01*
X731190Y65616D01*
X730570Y65493D01*
X729299Y65527D01*
X729112Y65525D01*
X728052Y65472D01*
X727688Y65448D01*
X727330Y65420D01*
X726977Y65391D01*
X726277Y65326D01*
X725209Y65201D01*
X724855Y65154D01*
X724143Y65050D01*
X723438Y64935D01*
X722377Y64740D01*
X722021Y64668D01*
X721311Y64516D01*
X720956Y64434D01*
X720275Y64275D01*
X719576Y64094D01*
X719223Y63999D01*
X718527Y63802D01*
X717835Y63594D01*
X717496Y63488D01*
X717125Y63367D01*
X716806Y63262D01*
X715776Y62901D01*
X715449Y62782D01*
X715107Y62652D01*
X714764Y62520D01*
X714088Y62249D01*
X714066Y62240D01*
X713724Y62098D01*
X713378Y61952D01*
X713042Y61806D01*
X712719Y61663D01*
X712423Y61528D01*
X711738Y61209D01*
X711438Y61063D01*
X711075Y60886D01*
X710760Y60728D01*
X710427Y60558D01*
X710114Y60394D01*
X709792Y60222D01*
X709472Y60049D01*
X709151Y59872D01*
X708861Y59707D01*
X708545Y59525D01*
X707916Y59155D01*
X707257Y58757D01*
X706956Y58567D01*
X706637Y58365D01*
X706323Y58163D01*
X705734Y57767D01*
X705130Y57351D01*
X704828Y57138D01*
X704225Y56703D01*
X703967Y56511D01*
X703936Y56487D01*
X703362Y56049D01*
X702489Y55361D01*
X701920Y54893D01*
X701084Y54177D01*
X700807Y53933D01*
X699998Y53194D01*
X699729Y52940D01*
X699501Y52711D01*
X698992Y52176D01*
X698748Y51912D01*
X698424Y51521D01*
X698423Y51519D01*
X698001Y50869D01*
X697358Y50338D01*
X697357D01*
X697357Y50337D01*
X697126Y50044D01*
X696874Y49738D01*
X696447Y49254D01*
X696018Y48967D01*
X695489Y48684D01*
X694929Y48385D01*
X693767Y47903D01*
X689610Y46181D01*
X672512Y40127D01*
X655121Y34975D01*
X637484Y30741D01*
X619649Y27436D01*
X601666Y25068D01*
X587140Y23925D01*
X585871Y24052D01*
X585841Y24064D01*
X585707Y24009D01*
X585538Y23831D01*
X584600Y23840D01*
X249240Y27043D01*
X249178Y27045D01*
X249157Y27049D01*
X249156Y27049D01*
X247985Y27291D01*
Y27286D01*
X247970Y27273D01*
X246851Y27009D01*
X243165Y26646D01*
X238727Y25300D01*
X234638Y23114D01*
X231054Y20172D01*
X228112Y16588D01*
X227900Y16191D01*
X227181Y15139D01*
X227172Y15115D01*
X227190Y15105D01*
X226585Y13974D01*
X224388Y11297D01*
X221711Y9100D01*
X218656Y7467D01*
X215342Y6461D01*
X211895Y6122D01*
X208448Y6461D01*
X205134Y7467D01*
X202079Y9100D01*
X199402Y11297D01*
X197204Y13974D01*
X197055Y14255D01*
X196465Y15379D01*
X196454Y15405D01*
X195915Y16185D01*
X195777Y16388D01*
X195756Y16420D01*
X195744Y16439D01*
X195296Y17277D01*
X192354Y20861D01*
X188770Y23803D01*
X184680Y25989D01*
X180243Y27335D01*
X176972Y27657D01*
X175859Y27968D01*
X175859Y27969D01*
X175859Y27969D01*
X175834Y27980D01*
X175824Y27980D01*
X175824Y27980D01*
X175815Y27976D01*
X175613Y27938D01*
X175613Y27938D01*
X174562Y27756D01*
X161558Y27880D01*
X160441Y28091D01*
X160305Y28119D01*
X160296Y28122D01*
X160274Y28126D01*
X159003Y27938D01*
X151763Y28294D01*
X142401Y29683D01*
X133219Y31982D01*
X124308Y35171D01*
X117989Y38159D01*
X116902Y38752D01*
X116901Y38755D01*
X116874Y38768D01*
X116871Y38769D01*
X115766Y39358D01*
X113464Y40768D01*
X110313Y43460D01*
X109478Y44437D01*
X109446Y44481D01*
X108726Y45485D01*
X108726Y45485D01*
X108726Y45485D01*
X108714Y45486D01*
X107805Y46350D01*
X51391Y114901D01*
X50698Y115743D01*
X50719Y115956D01*
X50719Y115956D01*
X50709Y115981D01*
X50040Y116487D01*
X50039Y116488D01*
X49729Y116725D01*
X48254Y117858D01*
X46176Y118718D01*
X45240Y118841D01*
X45129Y118856D01*
X44041Y119229D01*
X44041Y119230D01*
X44040Y119230D01*
X44019Y119238D01*
X44013Y119239D01*
X44013Y119239D01*
X44010Y119237D01*
X42841Y119018D01*
X38214Y119062D01*
X37135Y119265D01*
X36970Y119298D01*
X35989Y119705D01*
X35983Y119706D01*
X35064Y120576D01*
X9822Y151249D01*
X9556Y151664D01*
X9132Y152331D01*
X9126Y152340D01*
X9085Y152474D01*
X8981Y152833D01*
X8898Y153130D01*
X8967Y153490D01*
X9046Y153868D01*
X9056Y153893D01*
X9036Y154014D01*
X9668Y154940D01*
X32769Y187269D01*
X33569Y188180D01*
X33571Y188180D01*
Y188180D01*
X34685Y188645D01*
X34685D01*
X34687Y188646D01*
X34692Y188650D01*
X35682Y188837D01*
X36767Y188633D01*
X36788Y188625D01*
X36795Y188625D01*
X36802Y188624D01*
X36802Y188624D01*
X36806Y188626D01*
X36850Y188856D01*
X39080Y189149D01*
X41157Y190010D01*
X42142Y190765D01*
X42941Y191379D01*
X43056Y191529D01*
X43120Y191603D01*
X43945Y192387D01*
X43949Y192397D01*
X44594Y193498D01*
X60991Y216447D01*
X61825Y217411D01*
X61831Y217419D01*
X61842Y217445D01*
X62167Y217933D01*
X62556Y218512D01*
X64531Y220824D01*
X67683Y223516D01*
X69555Y224663D01*
X70650Y225280D01*
X70685Y225295D01*
X70698Y225302D01*
X71758Y225958D01*
X139033Y262413D01*
X140161Y262948D01*
X140182Y262957D01*
X141287Y263582D01*
X144572Y264944D01*
X148603Y265911D01*
X148640Y265914D01*
X148643Y265914D01*
X149820Y265919D01*
X149822Y265901D01*
X149849Y265907D01*
X151006Y266224D01*
X151014Y266226D01*
X152192Y266371D01*
X152275Y266381D01*
X152735Y266437D01*
X163155Y267463D01*
X163596Y266230D01*
X162079Y265217D01*
X146636Y249774D01*
X146195Y249407D01*
X146178Y249394D01*
X144597Y249627D01*
X143963Y250772D01*
X143310Y251543D01*
X142411Y252005D01*
X141404Y252089D01*
X140442Y251781D01*
X140442Y251781D01*
X127323Y244509D01*
X126552Y243856D01*
X126089Y242958D01*
X126005Y241951D01*
X126313Y240988D01*
X137949Y219997D01*
X138602Y219226D01*
X139500Y218764D01*
X140507Y218680D01*
X141469Y218988D01*
X141469Y218988D01*
X154589Y226260D01*
X155360Y226913D01*
X155822Y227811D01*
X155906Y228818D01*
X155598Y229781D01*
X152120Y236056D01*
X152101Y236142D01*
X152096Y236387D01*
X152149Y236725D01*
X152292Y237175D01*
X152552Y237733D01*
X152947Y238389D01*
X153484Y239128D01*
X153891Y239611D01*
X168984Y254704D01*
X273974D01*
X274575Y254651D01*
X275406Y254513D01*
X276042Y254343D01*
X276473Y254167D01*
X276707Y254025D01*
X276747Y253988D01*
Y248862D01*
X276944Y247871D01*
X277505Y247031D01*
X278345Y246470D01*
X279336Y246273D01*
X294336D01*
X295327Y246470D01*
X296168Y247031D01*
X296729Y247871D01*
X296926Y248862D01*
Y272862D01*
X296729Y273853D01*
X296168Y274694D01*
X295327Y275255D01*
X294336Y275452D01*
X288404D01*
X288383Y276722D01*
X330883Y278113D01*
X375527Y278600D01*
X420170Y278113D01*
X464792Y276653D01*
X509371Y274219D01*
X543911Y271576D01*
X545117Y271335D01*
X545130Y271329D01*
X546413Y271437D01*
X547109Y271368D01*
X551724Y271823D01*
X556161Y273169D01*
X560251Y275355D01*
X563835Y278296D01*
X566777Y281881D01*
X567816Y283824D01*
X568411Y284772D01*
X568414Y284776D01*
X568450Y284779D01*
X568451Y284780D01*
X568459Y284797D01*
X568469Y284821D01*
X568478Y284843D01*
X568479Y284846D01*
X568471Y284870D01*
X569642Y287061D01*
X571839Y289738D01*
X574516Y291935D01*
X577571Y293568D01*
X580886Y294573D01*
X584332Y294913D01*
X587779Y294573D01*
D02*
G37*
G36*
X277846Y274921D02*
X277505Y274694D01*
X276944Y273853D01*
X276747Y272862D01*
Y267736D01*
X276707Y267700D01*
X276473Y267558D01*
X276042Y267382D01*
X275406Y267211D01*
X274575Y267073D01*
X273974Y267021D01*
X171619D01*
X171556Y268291D01*
X197166Y270813D01*
X241682Y274219D01*
X277429Y276170D01*
X277846Y274921D01*
D02*
G37*
G36*
X279400Y253862D02*
X279329Y254527D01*
X279119Y255122D01*
X278767Y255647D01*
X278275Y256102D01*
X277642Y256487D01*
X276869Y256802D01*
X275955Y257047D01*
X274900Y257222D01*
X273705Y257327D01*
X272369Y257362D01*
Y264362D01*
X273705Y264397D01*
X274900Y264502D01*
X275955Y264677D01*
X276869Y264922D01*
X277642Y265237D01*
X278275Y265622D01*
X278767Y266077D01*
X279119Y266602D01*
X279329Y267197D01*
X279400Y267862D01*
Y253862D01*
D02*
G37*
G36*
X153163Y242642D02*
X152236Y241666D01*
X151444Y240725D01*
X150786Y239821D01*
X150263Y238952D01*
X149874Y238119D01*
X149621Y237322D01*
X149502Y236561D01*
X149517Y235836D01*
X149667Y235147D01*
X149952Y234493D01*
X142891Y247232D01*
X143277Y246675D01*
X143727Y246281D01*
X144241Y246051D01*
X144819Y245984D01*
X145462Y246080D01*
X146168Y246340D01*
X146938Y246763D01*
X147772Y247349D01*
X148671Y248099D01*
X149633Y249011D01*
X153163Y242642D01*
D02*
G37*
%LPC*%
G36*
X225758Y592765D02*
X225591Y592731D01*
X225420Y592743D01*
X224830Y592665D01*
X224653D01*
X224403Y592615D01*
X224148D01*
X223553Y592497D01*
X222353Y592339D01*
X222032Y592230D01*
X221700Y592164D01*
X218842Y590980D01*
X218560Y590792D01*
X218256Y590642D01*
X217068Y589730D01*
X216881Y589605D01*
X216801Y589525D01*
X215802Y588758D01*
X215578Y588504D01*
X215324Y588280D01*
X214557Y587281D01*
X214530Y587254D01*
X214488Y587191D01*
X213440Y585826D01*
X213291Y585522D01*
X213102Y585240D01*
X211918Y582382D01*
X211852Y582050D01*
X211743Y581729D01*
X211339Y578662D01*
X211362Y578324D01*
X211339Y577985D01*
X211743Y574918D01*
X211852Y574597D01*
X211918Y574265D01*
X213102Y571407D01*
X213291Y571125D01*
X213440Y570821D01*
X214503Y569436D01*
X214530Y569396D01*
X214547Y569379D01*
X215324Y568367D01*
X215578Y568143D01*
X215802Y567889D01*
X216814Y567112D01*
X216881Y567045D01*
X217039Y566939D01*
X218256Y566005D01*
X218560Y565855D01*
X218842Y565667D01*
X221700Y564483D01*
X222032Y564417D01*
X222353Y564308D01*
X223596Y564145D01*
X224148Y564035D01*
X224403D01*
X224653Y563985D01*
X224807D01*
X225420Y563904D01*
X225591Y563916D01*
X225758Y563882D01*
X225926Y563916D01*
X226096Y563904D01*
X226709Y563985D01*
X226967D01*
X227218Y564035D01*
X227473D01*
X228227Y564185D01*
X229164Y564308D01*
X229485Y564417D01*
X229817Y564483D01*
X230136Y564616D01*
X230228Y564634D01*
X232367Y565520D01*
X232445Y565572D01*
X232675Y565667D01*
X232809Y565756D01*
X232815Y565759D01*
X232965Y565860D01*
X233261Y566005D01*
X233782Y566405D01*
X234739Y567045D01*
X234919Y567225D01*
X235131Y567367D01*
X235449Y567685D01*
X235715Y567889D01*
X235939Y568143D01*
X236193Y568367D01*
X236397Y568633D01*
X236768Y569003D01*
X236910Y569216D01*
X237090Y569396D01*
X237813Y570477D01*
X238077Y570821D01*
X238173Y571016D01*
X238376Y571320D01*
X238407Y571395D01*
X238415Y571407D01*
X238481Y571567D01*
X238615Y571768D01*
X239501Y573907D01*
X239548Y574143D01*
X239599Y574265D01*
X239601Y574278D01*
X239648Y574392D01*
X239724Y574772D01*
X239774Y574918D01*
X239814Y575224D01*
X240100Y576662D01*
Y576917D01*
X240150Y577168D01*
Y577776D01*
X240177Y577985D01*
X240155Y578324D01*
X240177Y578662D01*
X240150Y578871D01*
Y579482D01*
X240100Y579732D01*
Y579987D01*
X239813Y581432D01*
X239774Y581729D01*
X239725Y581871D01*
X239648Y582258D01*
X239600Y582374D01*
X239599Y582382D01*
X239549Y582501D01*
X239501Y582743D01*
X238615Y584882D01*
X238478Y585087D01*
X238415Y585240D01*
X238410Y585247D01*
X238376Y585330D01*
X238167Y585642D01*
X238077Y585826D01*
X237828Y586150D01*
X237090Y587254D01*
X236910Y587434D01*
X236768Y587646D01*
X236388Y588027D01*
X236193Y588280D01*
X235939Y588504D01*
X235715Y588758D01*
X235462Y588953D01*
X235131Y589283D01*
X234919Y589425D01*
X234739Y589605D01*
X233753Y590264D01*
X233261Y590642D01*
X232982Y590779D01*
X232815Y590891D01*
X232798Y590898D01*
X232675Y590980D01*
X232457Y591070D01*
X232367Y591130D01*
X230228Y592016D01*
X230123Y592037D01*
X229817Y592164D01*
X229485Y592230D01*
X229164Y592339D01*
X228270Y592456D01*
X227473Y592615D01*
X227218D01*
X226967Y592665D01*
X226688D01*
X226096Y592743D01*
X225926Y592731D01*
X225758Y592765D01*
D02*
G37*
G36*
X501005Y576030D02*
X501005Y576030D01*
X486007Y575768D01*
X485020Y575554D01*
X484190Y574978D01*
X483643Y574128D01*
X483463Y573134D01*
X483463Y573134D01*
X483546Y568376D01*
X482656Y567470D01*
X393703D01*
X393632Y571522D01*
X393418Y572510D01*
X392842Y573340D01*
X391992Y573886D01*
X390998Y574066D01*
X390998Y574066D01*
X376000Y573805D01*
X375013Y573590D01*
X374182Y573014D01*
X373636Y572164D01*
X373456Y571170D01*
X373456Y571170D01*
X373875Y547174D01*
X374089Y546186D01*
X374665Y545356D01*
X375515Y544809D01*
X376509Y544629D01*
X376509Y544629D01*
X391507Y544891D01*
X392495Y545106D01*
X393325Y545682D01*
X393871Y546531D01*
X394051Y547526D01*
X394051Y547526D01*
X393934Y554247D01*
X394824Y555153D01*
X483777D01*
X483882Y549137D01*
X484096Y548150D01*
X484673Y547320D01*
X485522Y546773D01*
X486517Y546593D01*
X486517Y546593D01*
X501514Y546855D01*
X502502Y547069D01*
X503332Y547645D01*
X503879Y548495D01*
X504058Y549489D01*
X504058Y549490D01*
X503640Y573486D01*
X503425Y574473D01*
X502849Y575303D01*
X502000Y575850D01*
X501005Y576030D01*
D02*
G37*
G36*
X361003Y573542D02*
X361003Y573542D01*
X354774Y573433D01*
X355006Y560115D01*
X363825Y560269D01*
X363637Y570998D01*
X363423Y571985D01*
X362847Y572816D01*
X361997Y573362D01*
X361003Y573542D01*
D02*
G37*
G36*
X352234Y573389D02*
X346005Y573280D01*
X345018Y573066D01*
X344187Y572490D01*
X343641Y571640D01*
X343461Y570646D01*
X343461Y570646D01*
X343648Y559917D01*
X352466Y560071D01*
X352234Y573389D01*
D02*
G37*
G36*
X238258Y552413D02*
X229258D01*
X228267Y552216D01*
X227427Y551655D01*
X226866Y550815D01*
X226800Y550482D01*
X207606D01*
X205249Y550013D01*
X204246Y549343D01*
X202568Y549749D01*
X201885Y550983D01*
X201232Y551754D01*
X200334Y552217D01*
X199327Y552300D01*
X198364Y551992D01*
X198364Y551992D01*
X185245Y544720D01*
X184474Y544067D01*
X184011Y543169D01*
X183927Y542162D01*
X184235Y541199D01*
X195871Y520209D01*
X196524Y519437D01*
X197422Y518975D01*
X198429Y518891D01*
X199392Y519199D01*
X199392Y519199D01*
X212511Y526471D01*
X213282Y527124D01*
X213745Y528022D01*
X213828Y529029D01*
X213520Y529992D01*
X209556Y537144D01*
X210347Y538165D01*
X226800D01*
X226866Y537832D01*
X227427Y536992D01*
X228267Y536431D01*
X229258Y536234D01*
X238258D01*
X239249Y536431D01*
X240090Y536992D01*
X240651Y537832D01*
X240848Y538824D01*
Y549824D01*
X240651Y550815D01*
X240090Y551655D01*
X239249Y552216D01*
X238258Y552413D01*
D02*
G37*
G36*
X363869Y557730D02*
X355050Y557576D01*
X355283Y544258D01*
X361512Y544367D01*
X362499Y544581D01*
X363330Y545157D01*
X363876Y546007D01*
X364056Y547001D01*
X364056Y547002D01*
X363869Y557730D01*
D02*
G37*
G36*
X352511Y557532D02*
X343692Y557378D01*
X343880Y546649D01*
X344094Y545662D01*
X344670Y544832D01*
X345520Y544285D01*
X346514Y544105D01*
X346514Y544105D01*
X352743Y544214D01*
X352511Y557532D01*
D02*
G37*
G36*
X254258Y552413D02*
X245259D01*
X244267Y552216D01*
X243427Y551655D01*
X242866Y550815D01*
X242669Y549824D01*
Y538824D01*
X242866Y537832D01*
X243427Y536992D01*
X244267Y536431D01*
X245259Y536234D01*
X254258D01*
X255250Y536431D01*
X255974Y536915D01*
X268756D01*
X270452Y535614D01*
X272529Y534753D01*
X274758Y534460D01*
X276988Y534753D01*
X279065Y535614D01*
X280849Y536983D01*
X282218Y538767D01*
X283079Y540844D01*
X283372Y543074D01*
X283079Y545303D01*
X282218Y547380D01*
X280849Y549164D01*
X279065Y550533D01*
X276988Y551394D01*
X274758Y551687D01*
X272529Y551394D01*
X270452Y550533D01*
X268756Y549232D01*
X256848D01*
Y549824D01*
X256651Y550815D01*
X256090Y551655D01*
X255250Y552216D01*
X254258Y552413D01*
D02*
G37*
G36*
X469258Y522437D02*
X467029Y522144D01*
X464952Y521283D01*
X463256Y519982D01*
X461517D01*
X461401Y520565D01*
X460840Y521405D01*
X460000Y521966D01*
X459008Y522163D01*
X450008D01*
X449017Y521966D01*
X448177Y521405D01*
X447616Y520565D01*
X447419Y519574D01*
Y508574D01*
X447616Y507583D01*
X448177Y506742D01*
X449017Y506181D01*
X450008Y505984D01*
X459008D01*
X460000Y506181D01*
X460840Y506742D01*
X461401Y507583D01*
X461418Y507665D01*
X463256D01*
X464952Y506364D01*
X467029Y505503D01*
X469258Y505210D01*
X471488Y505503D01*
X473565Y506364D01*
X475349Y507733D01*
X476718Y509517D01*
X477579Y511594D01*
X477872Y513824D01*
X477579Y516053D01*
X476718Y518130D01*
X475349Y519914D01*
X473565Y521283D01*
X471488Y522144D01*
X469258Y522437D01*
D02*
G37*
G36*
X523508Y526664D02*
X508508D01*
X507517Y526466D01*
X506677Y525905D01*
X506116Y525065D01*
X505919Y524074D01*
Y518232D01*
X498509D01*
X498509Y518232D01*
X496152Y517763D01*
X494154Y516428D01*
X463139Y485413D01*
X449758D01*
X448767Y485216D01*
X447927Y484655D01*
X447366Y483815D01*
X447169Y482824D01*
Y467824D01*
X447366Y466833D01*
X447927Y465992D01*
X448767Y465431D01*
X449758Y465234D01*
X473759D01*
X474749Y465431D01*
X475590Y465992D01*
X476151Y466833D01*
X476348Y467824D01*
Y481204D01*
X501059Y505915D01*
X505919D01*
Y500074D01*
X506116Y499083D01*
X506677Y498242D01*
X507517Y497681D01*
X508508Y497484D01*
X523508D01*
X524500Y497681D01*
X525340Y498242D01*
X525901Y499083D01*
X526098Y500074D01*
Y524074D01*
X525901Y525065D01*
X525340Y525905D01*
X524500Y526466D01*
X523508Y526664D01*
D02*
G37*
G36*
X293008Y519913D02*
X284009D01*
X283017Y519716D01*
X282177Y519155D01*
X281616Y518315D01*
X281550Y517982D01*
X279926D01*
X277569Y517513D01*
X275571Y516178D01*
X270391Y510998D01*
X269644Y511327D01*
X268633Y511349D01*
X253861Y508744D01*
X252920Y508378D01*
X252190Y507679D01*
X251783Y506754D01*
X251761Y505744D01*
X255928Y482109D01*
X256294Y481167D01*
X256993Y480437D01*
X257918Y480030D01*
X258928Y480008D01*
X273700Y482613D01*
X274642Y482979D01*
X275372Y483678D01*
X275779Y484603D01*
X275801Y485613D01*
X273796Y496984D01*
X281382Y504571D01*
X282177Y504492D01*
X283017Y503931D01*
X284009Y503734D01*
X293008D01*
X294000Y503931D01*
X294840Y504492D01*
X295401Y505332D01*
X295598Y506324D01*
Y517324D01*
X295401Y518315D01*
X294840Y519155D01*
X294000Y519716D01*
X293008Y519913D01*
D02*
G37*
G36*
X635508Y528286D02*
X635258Y528236D01*
X635003D01*
X632565Y527751D01*
X631631Y527364D01*
X629564Y525983D01*
X629564Y525983D01*
X628849Y525268D01*
X627468Y523201D01*
X627081Y522267D01*
X626596Y519829D01*
Y518818D01*
X627081Y516380D01*
X627468Y515446D01*
X628849Y513379D01*
X628849Y513379D01*
X629564Y512664D01*
X631631Y511283D01*
X632565Y510896D01*
X635003Y510411D01*
X635258D01*
X635508Y510361D01*
X635759Y510411D01*
X636014D01*
X638452Y510896D01*
X639386Y511283D01*
X641453Y512664D01*
X641453Y512664D01*
X642168Y513379D01*
X643549Y515446D01*
X643936Y516380D01*
X644421Y518818D01*
Y519829D01*
X643936Y522267D01*
X643549Y523201D01*
X642168Y525268D01*
X642168Y525268D01*
X641453Y525983D01*
X639386Y527364D01*
X638452Y527751D01*
X636014Y528236D01*
X635759D01*
X635508Y528286D01*
D02*
G37*
G36*
X413008Y525163D02*
X398008D01*
X397018Y524966D01*
X396177Y524405D01*
X395616Y523564D01*
X395419Y522574D01*
Y498573D01*
X395616Y497582D01*
X396177Y496742D01*
X397018Y496181D01*
X398008Y495984D01*
X413008D01*
X414000Y496181D01*
X414840Y496742D01*
X415401Y497582D01*
X415598Y498573D01*
Y507915D01*
X431550D01*
X431616Y507583D01*
X432177Y506742D01*
X433017Y506181D01*
X434008Y505984D01*
X443008D01*
X443999Y506181D01*
X444840Y506742D01*
X445401Y507583D01*
X445598Y508574D01*
Y519574D01*
X445401Y520565D01*
X444840Y521405D01*
X443999Y521966D01*
X443008Y522163D01*
X434008D01*
X433017Y521966D01*
X432177Y521405D01*
X431616Y520565D01*
X431550Y520232D01*
X415598D01*
Y522574D01*
X415401Y523564D01*
X414840Y524405D01*
X414000Y524966D01*
X413008Y525163D01*
D02*
G37*
G36*
X331259Y522437D02*
X329029Y522144D01*
X326952Y521283D01*
X325256Y519982D01*
X306509D01*
X306164Y519913D01*
X300009D01*
X299017Y519716D01*
X298177Y519155D01*
X297616Y518315D01*
X297419Y517324D01*
Y506324D01*
X297616Y505332D01*
X298177Y504492D01*
X299017Y503931D01*
X300009Y503734D01*
X309008D01*
X310000Y503931D01*
X310840Y504492D01*
X311401Y505332D01*
X311598Y506324D01*
Y507665D01*
X325256D01*
X326952Y506364D01*
X329029Y505503D01*
X331259Y505210D01*
X333488Y505503D01*
X335565Y506364D01*
X337349Y507733D01*
X338718Y509517D01*
X339579Y511594D01*
X339872Y513824D01*
X339579Y516053D01*
X338718Y518130D01*
X337349Y519914D01*
X335565Y521283D01*
X333488Y522144D01*
X331259Y522437D01*
D02*
G37*
G36*
X173088Y537756D02*
X172126Y537448D01*
X172126Y537448D01*
X159006Y530176D01*
X158235Y529523D01*
X157773Y528624D01*
X157689Y527617D01*
X157391Y527210D01*
X128977D01*
X126620Y526741D01*
X124622Y525406D01*
X73654Y474437D01*
X60073Y474200D01*
X59085Y473986D01*
X58255Y473410D01*
X57708Y472560D01*
X57529Y471566D01*
X57529Y471566D01*
X57790Y456568D01*
X58005Y455580D01*
X58581Y454750D01*
X59431Y454204D01*
X60425Y454024D01*
X60425Y454024D01*
X84421Y454443D01*
X85409Y454657D01*
X86239Y455233D01*
X86786Y456083D01*
X86966Y457077D01*
X86965Y457077D01*
X86738Y470103D01*
X131528Y514893D01*
X164517D01*
X169632Y505664D01*
X170285Y504893D01*
X171184Y504430D01*
X172191Y504347D01*
X173153Y504655D01*
X173153Y504655D01*
X186272Y511927D01*
X187043Y512580D01*
X187506Y513478D01*
X187590Y514485D01*
X187282Y515448D01*
X175646Y536438D01*
X174993Y537210D01*
X174095Y537672D01*
X173088Y537756D01*
D02*
G37*
G36*
X210009Y519036D02*
X209758Y518986D01*
X209503D01*
X207065Y518501D01*
X206131Y518114D01*
X204064Y516733D01*
X204064Y516733D01*
X203349Y516018D01*
X201968Y513951D01*
X201581Y513017D01*
X201096Y510579D01*
Y509568D01*
X201581Y507130D01*
X201968Y506196D01*
X203349Y504129D01*
X203349Y504129D01*
X204064Y503414D01*
X206131Y502033D01*
X207065Y501646D01*
X209503Y501161D01*
X209758D01*
X210009Y501111D01*
X210259Y501161D01*
X210514D01*
X212952Y501646D01*
X213886Y502033D01*
X215953Y503414D01*
X215953Y503414D01*
X216668Y504129D01*
X218049Y506196D01*
X218436Y507130D01*
X218921Y509568D01*
Y510579D01*
X218436Y513017D01*
X218049Y513951D01*
X216668Y516018D01*
X216668Y516018D01*
X215953Y516733D01*
X213886Y518114D01*
X212952Y518501D01*
X210514Y518986D01*
X210259D01*
X210009Y519036D01*
D02*
G37*
G36*
X694342Y538284D02*
X693334Y538218D01*
X692427Y537771D01*
X691761Y537011D01*
X679761Y516226D01*
X679436Y515270D01*
X679502Y514261D01*
X679949Y513355D01*
X680709Y512689D01*
X693699Y505189D01*
X693699Y505189D01*
X694656Y504864D01*
X695664Y504930D01*
X696571Y505377D01*
X697237Y506137D01*
X698176Y507763D01*
X699435Y507929D01*
X704644Y502719D01*
X705216Y502337D01*
X705366Y501582D01*
X705927Y500742D01*
X706767Y500181D01*
X707758Y499984D01*
X718758D01*
X719750Y500181D01*
X720590Y500742D01*
X721151Y501582D01*
X721348Y502574D01*
Y511574D01*
X721151Y512565D01*
X720590Y513405D01*
X719750Y513966D01*
X718758Y514163D01*
X710619D01*
X705073Y519709D01*
X709237Y526921D01*
X709562Y527878D01*
X709496Y528886D01*
X709049Y529793D01*
X708289Y530459D01*
X695299Y537959D01*
X695299Y537959D01*
X694342Y538284D01*
D02*
G37*
G36*
X383008Y525163D02*
X368008D01*
X367017Y524966D01*
X366177Y524405D01*
X365616Y523565D01*
X365419Y522574D01*
Y516732D01*
X358509D01*
X356152Y516263D01*
X354154Y514928D01*
X323389Y484164D01*
X310009D01*
X309018Y483966D01*
X308178Y483405D01*
X307616Y482565D01*
X307419Y481574D01*
Y466574D01*
X307616Y465583D01*
X308178Y464743D01*
X309018Y464181D01*
X310009Y463984D01*
X334009D01*
X335000Y464181D01*
X335840Y464743D01*
X336401Y465583D01*
X336599Y466574D01*
Y479954D01*
X361060Y504415D01*
X365419D01*
Y498574D01*
X365616Y497583D01*
X366177Y496743D01*
X367017Y496181D01*
X368008Y495984D01*
X383008D01*
X383999Y496181D01*
X384840Y496743D01*
X385401Y497583D01*
X385598Y498574D01*
Y522574D01*
X385401Y523565D01*
X384840Y524405D01*
X383999Y524966D01*
X383008Y525163D01*
D02*
G37*
G36*
X553508Y526663D02*
X538508D01*
X537518Y526466D01*
X536677Y525905D01*
X536116Y525065D01*
X535919Y524073D01*
Y500073D01*
X536116Y499082D01*
X536677Y498242D01*
X537518Y497681D01*
X538508Y497484D01*
X553508D01*
X554500Y497681D01*
X555340Y498242D01*
X556873Y498250D01*
X559919Y495204D01*
Y491324D01*
X560116Y490332D01*
X560677Y489492D01*
X561517Y488931D01*
X562509Y488734D01*
X573508D01*
X574500Y488931D01*
X575340Y489492D01*
X575901Y490332D01*
X576098Y491324D01*
Y500324D01*
X575901Y501315D01*
X575340Y502155D01*
X574500Y502716D01*
X573508Y502913D01*
X569628D01*
X556113Y516428D01*
X556098Y516438D01*
Y524073D01*
X555901Y525065D01*
X555340Y525905D01*
X554500Y526466D01*
X553508Y526663D01*
D02*
G37*
G36*
X239089Y506139D02*
X224317Y503535D01*
X223375Y503168D01*
X222645Y502470D01*
X222238Y501545D01*
X222216Y500535D01*
X223572Y492846D01*
X198639Y467913D01*
X185259D01*
X184268Y467716D01*
X183427Y467155D01*
X182866Y466315D01*
X182669Y465323D01*
Y441324D01*
X182866Y440332D01*
X183427Y439492D01*
X184268Y438931D01*
X185259Y438734D01*
X200259D01*
X201250Y438931D01*
X202090Y439492D01*
X202651Y440332D01*
X202848Y441324D01*
Y454704D01*
X225214Y477069D01*
X226511Y476571D01*
X226750Y475957D01*
X227449Y475227D01*
X228374Y474820D01*
X229384Y474798D01*
X244156Y477403D01*
X245098Y477769D01*
X245828Y478468D01*
X246234Y479393D01*
X246257Y480403D01*
X242089Y504039D01*
X241723Y504980D01*
X241024Y505710D01*
X240099Y506117D01*
X239089Y506139D01*
D02*
G37*
G36*
X718758Y498163D02*
X707758D01*
X706767Y497966D01*
X705927Y497405D01*
X705366Y496565D01*
X705169Y495574D01*
Y491693D01*
X702654Y489178D01*
X701319Y487180D01*
X700850Y484824D01*
Y484576D01*
X699549Y482880D01*
X698688Y480803D01*
X698395Y478574D01*
X698688Y476344D01*
X699549Y474267D01*
X700918Y472483D01*
X702702Y471114D01*
X703576Y470752D01*
X703323Y469482D01*
X697598D01*
Y475323D01*
X697401Y476315D01*
X696840Y477155D01*
X696000Y477716D01*
X695008Y477913D01*
X680008D01*
X679017Y477716D01*
X678177Y477155D01*
X677616Y476315D01*
X677419Y475323D01*
Y451324D01*
X677616Y450332D01*
X678177Y449492D01*
X679017Y448931D01*
X680008Y448734D01*
X695008D01*
X696000Y448931D01*
X696840Y449492D01*
X697401Y450332D01*
X697598Y451324D01*
Y457165D01*
X727781D01*
X727882Y451388D01*
X728096Y450400D01*
X728672Y449570D01*
X729522Y449024D01*
X730517Y448844D01*
X730517Y448844D01*
X745514Y449105D01*
X746502Y449320D01*
X747332Y449896D01*
X747879Y450746D01*
X748058Y451740D01*
X748058Y451740D01*
X747640Y475736D01*
X747425Y476724D01*
X746849Y477554D01*
X745999Y478101D01*
X745005Y478281D01*
X745005Y478281D01*
X730007Y478019D01*
X729020Y477804D01*
X728190Y477228D01*
X727643Y476379D01*
X727463Y475384D01*
X727463Y475384D01*
X727550Y470388D01*
X726660Y469482D01*
X710694D01*
X710441Y470752D01*
X711315Y471114D01*
X713099Y472483D01*
X714468Y474267D01*
X715329Y476344D01*
X715622Y478574D01*
X715329Y480803D01*
X714468Y482880D01*
X714465Y482885D01*
X715222Y483984D01*
X718758D01*
X719750Y484181D01*
X720590Y484742D01*
X721151Y485583D01*
X721348Y486574D01*
Y495574D01*
X721151Y496565D01*
X720590Y497405D01*
X719750Y497966D01*
X718758Y498163D01*
D02*
G37*
G36*
X775001Y478804D02*
X775001Y478804D01*
X768772Y478695D01*
X769004Y465378D01*
X777822Y465532D01*
X777635Y476260D01*
X777421Y477247D01*
X776845Y478078D01*
X775995Y478624D01*
X775001Y478804D01*
D02*
G37*
G36*
X766232Y478651D02*
X760003Y478542D01*
X759016Y478328D01*
X758185Y477752D01*
X757639Y476902D01*
X757459Y475908D01*
X757459Y475908D01*
X757646Y465179D01*
X766464Y465333D01*
X766232Y478651D01*
D02*
G37*
G36*
X777867Y462992D02*
X769048Y462838D01*
X769281Y449520D01*
X775510Y449629D01*
X776497Y449843D01*
X777328Y450419D01*
X777874Y451269D01*
X778054Y452263D01*
X778054Y452264D01*
X777867Y462992D01*
D02*
G37*
G36*
X766509Y462794D02*
X757690Y462640D01*
X757878Y451911D01*
X758092Y450924D01*
X758668Y450094D01*
X759518Y449547D01*
X760512Y449367D01*
X760512Y449367D01*
X766741Y449476D01*
X766509Y462794D01*
D02*
G37*
G36*
X614009Y487913D02*
X590009D01*
X589018Y487716D01*
X588178Y487155D01*
X587616Y486315D01*
X587419Y485323D01*
Y470323D01*
X587616Y469332D01*
X588178Y468492D01*
X589018Y467931D01*
X590009Y467734D01*
X614009D01*
X615000Y467931D01*
X615840Y468492D01*
X616401Y469332D01*
X616599Y470323D01*
Y471665D01*
X640458D01*
X647419Y464704D01*
Y451324D01*
X647616Y450333D01*
X648177Y449492D01*
X649017Y448931D01*
X650008Y448734D01*
X665008D01*
X666000Y448931D01*
X666840Y449492D01*
X667401Y450333D01*
X667598Y451324D01*
Y475324D01*
X667401Y476315D01*
X666840Y477155D01*
X666000Y477716D01*
X665008Y477914D01*
X651628D01*
X647363Y482178D01*
X645365Y483513D01*
X643009Y483982D01*
X616599D01*
Y485323D01*
X616401Y486315D01*
X615840Y487155D01*
X615000Y487716D01*
X614009Y487913D01*
D02*
G37*
G36*
X573508Y486913D02*
X562509D01*
X561517Y486716D01*
X560677Y486155D01*
X560116Y485315D01*
X559919Y484324D01*
Y475324D01*
X560116Y474333D01*
X560677Y473492D01*
X560829Y472572D01*
X560299Y471880D01*
X559438Y469803D01*
X559145Y467574D01*
X559438Y465344D01*
X560299Y463267D01*
X560862Y462532D01*
X560677Y460905D01*
X560116Y460065D01*
X559919Y459074D01*
Y450074D01*
X560116Y449082D01*
X560677Y448242D01*
X561517Y447681D01*
X562509Y447484D01*
X573508D01*
X574500Y447681D01*
X575340Y448242D01*
X575901Y449082D01*
X576098Y450074D01*
Y459074D01*
X575901Y460065D01*
X575340Y460905D01*
X575119Y461052D01*
X574721Y462618D01*
X575218Y463267D01*
X576079Y465344D01*
X576372Y467574D01*
X576079Y469803D01*
X575218Y471880D01*
X575216Y471883D01*
X575340Y473492D01*
X575901Y474333D01*
X576098Y475324D01*
Y484324D01*
X575901Y485315D01*
X575340Y486155D01*
X574500Y486716D01*
X573508Y486913D01*
D02*
G37*
G36*
X614008Y457913D02*
X590009D01*
X589017Y457716D01*
X588177Y457155D01*
X587616Y456315D01*
X587419Y455324D01*
Y444732D01*
X575455D01*
X575340Y444905D01*
X574500Y445466D01*
X573508Y445663D01*
X562509D01*
X561517Y445466D01*
X560677Y444905D01*
X560116Y444065D01*
X559919Y443074D01*
Y434074D01*
X560116Y433083D01*
X560677Y432242D01*
X561517Y431681D01*
X562509Y431484D01*
X573508D01*
X574500Y431681D01*
X575340Y432242D01*
X575455Y432415D01*
X592758D01*
X595115Y432884D01*
X597113Y434219D01*
X600628Y437734D01*
X614008D01*
X615000Y437931D01*
X615840Y438492D01*
X616401Y439333D01*
X616598Y440324D01*
Y455324D01*
X616401Y456315D01*
X615840Y457155D01*
X615000Y457716D01*
X614008Y457913D01*
D02*
G37*
G36*
X697758Y440687D02*
X695529Y440394D01*
X693452Y439533D01*
X691668Y438164D01*
X690299Y436380D01*
X689438Y434303D01*
X689145Y432074D01*
X689438Y429844D01*
X690299Y427767D01*
X691668Y425983D01*
X693452Y424614D01*
X695529Y423753D01*
X697758Y423460D01*
X699988Y423753D01*
X702065Y424614D01*
X702132Y424665D01*
X706062D01*
X706177Y424492D01*
X707017Y423931D01*
X708008Y423734D01*
X719008D01*
X719999Y423931D01*
X720840Y424492D01*
X721401Y425332D01*
X721598Y426324D01*
Y435324D01*
X721401Y436315D01*
X720840Y437155D01*
X719999Y437716D01*
X719008Y437913D01*
X708008D01*
X707017Y437716D01*
X706177Y437155D01*
X706062Y436982D01*
X704757D01*
X703849Y438164D01*
X702065Y439533D01*
X699988Y440394D01*
X697758Y440687D01*
D02*
G37*
G36*
X260809Y431074D02*
X259813Y430903D01*
X258958Y430364D01*
X258375Y429539D01*
X258375Y429539D01*
X254011Y419736D01*
X262068Y416149D01*
X267486Y428317D01*
X261794Y430851D01*
X260809Y431074D01*
D02*
G37*
G36*
X555258Y426163D02*
X549029D01*
Y412844D01*
X557848D01*
Y423573D01*
X557651Y424565D01*
X557090Y425405D01*
X556250Y425966D01*
X555258Y426163D01*
D02*
G37*
G36*
X546488D02*
X540258D01*
X539268Y425966D01*
X538427Y425405D01*
X537866Y424565D01*
X537669Y423573D01*
Y412844D01*
X546488D01*
Y426163D01*
D02*
G37*
G36*
X415258Y425663D02*
X409029D01*
Y412343D01*
X417848D01*
Y423073D01*
X417651Y424064D01*
X417090Y424905D01*
X416250Y425466D01*
X415258Y425663D01*
D02*
G37*
G36*
X406489D02*
X400258D01*
X399268Y425466D01*
X398427Y424905D01*
X397866Y424064D01*
X397669Y423073D01*
Y412343D01*
X406489D01*
Y425663D01*
D02*
G37*
G36*
X269806Y427284D02*
X264389Y415116D01*
X272446Y411529D01*
X276810Y421331D01*
X277033Y422317D01*
X276862Y423312D01*
X276323Y424167D01*
X275497Y424750D01*
X269806Y427284D01*
D02*
G37*
G36*
X170258Y467914D02*
X155258D01*
X154267Y467716D01*
X153427Y467155D01*
X152866Y466315D01*
X152669Y465324D01*
Y441324D01*
X152866Y440333D01*
X153427Y439492D01*
X154267Y438931D01*
X155258Y438734D01*
X156618D01*
X157069Y436467D01*
X158404Y434469D01*
X170553Y422320D01*
X172551Y420985D01*
X174907Y420516D01*
X220265D01*
X221078Y419246D01*
X220984Y418830D01*
X221155Y417835D01*
X221694Y416980D01*
X222519Y416397D01*
X236223Y410296D01*
X237208Y410073D01*
X238204Y410244D01*
X239059Y410783D01*
X239642Y411608D01*
X239642Y411609D01*
X249403Y433533D01*
X249627Y434519D01*
X249455Y435515D01*
X248916Y436370D01*
X248091Y436953D01*
X234388Y443054D01*
X233402Y443277D01*
X232406Y443106D01*
X231552Y442566D01*
X230969Y441741D01*
X230969Y441741D01*
X227003Y432833D01*
X177458D01*
X171974Y438317D01*
X172090Y439492D01*
X172651Y440333D01*
X172848Y441324D01*
Y465324D01*
X172651Y466315D01*
X172090Y467155D01*
X171250Y467716D01*
X170258Y467914D01*
D02*
G37*
G36*
X252978Y417416D02*
X248613Y407614D01*
X248390Y406628D01*
X248561Y405632D01*
X249101Y404778D01*
X249926Y404194D01*
X255617Y401660D01*
X261035Y413829D01*
X252978Y417416D01*
D02*
G37*
G36*
X263355Y412796D02*
X257938Y400627D01*
X263629Y398093D01*
X264615Y397870D01*
X265611Y398042D01*
X266465Y398581D01*
X267048Y399406D01*
X267048Y399406D01*
X271413Y409208D01*
X263355Y412796D01*
D02*
G37*
G36*
X473759Y455413D02*
X449758D01*
X448767Y455216D01*
X447927Y454655D01*
X447366Y453815D01*
X447169Y452823D01*
Y437823D01*
X447366Y436832D01*
X447927Y435992D01*
X448767Y435431D01*
X449758Y435234D01*
X463139D01*
X491154Y407219D01*
X493152Y405884D01*
X495508Y405415D01*
X507669D01*
Y399574D01*
X507866Y398583D01*
X508427Y397743D01*
X509267Y397181D01*
X510258Y396984D01*
X525258D01*
X526250Y397181D01*
X527090Y397743D01*
X527651Y398583D01*
X527848Y399574D01*
Y423574D01*
X527651Y424565D01*
X527090Y425405D01*
X526250Y425966D01*
X525258Y426163D01*
X510258D01*
X509267Y425966D01*
X508427Y425405D01*
X507866Y424565D01*
X507669Y423574D01*
Y417732D01*
X498059D01*
X476348Y439443D01*
Y452823D01*
X476151Y453815D01*
X475590Y454655D01*
X474749Y455216D01*
X473759Y455413D01*
D02*
G37*
G36*
X557848Y410303D02*
X549029D01*
Y396984D01*
X555258D01*
X556250Y397181D01*
X557090Y397742D01*
X557651Y398582D01*
X557848Y399573D01*
Y410303D01*
D02*
G37*
G36*
X546488D02*
X537669D01*
Y399573D01*
X537866Y398582D01*
X538427Y397742D01*
X539268Y397181D01*
X540258Y396984D01*
X546488D01*
Y410303D01*
D02*
G37*
G36*
X334008Y454163D02*
X310008D01*
X309017Y453966D01*
X308177Y453405D01*
X307616Y452565D01*
X307418Y451573D01*
Y436573D01*
X307616Y435582D01*
X308177Y434742D01*
X309017Y434181D01*
X310008Y433984D01*
X334008D01*
X334999Y434181D01*
X335839Y434742D01*
X336401Y435582D01*
X336598Y436573D01*
Y437915D01*
X342208D01*
X367669Y412454D01*
Y399074D01*
X367866Y398083D01*
X368427Y397243D01*
X369267Y396681D01*
X370258Y396484D01*
X385258D01*
X386250Y396681D01*
X387090Y397243D01*
X387651Y398083D01*
X387848Y399074D01*
Y423074D01*
X387651Y424065D01*
X387090Y424905D01*
X386250Y425466D01*
X385258Y425663D01*
X371878D01*
X349113Y448428D01*
X347115Y449763D01*
X344759Y450232D01*
X336598D01*
Y451573D01*
X336401Y452565D01*
X335839Y453405D01*
X334999Y453966D01*
X334008Y454163D01*
D02*
G37*
G36*
X417848Y409803D02*
X409029D01*
Y396484D01*
X415258D01*
X416250Y396681D01*
X417090Y397242D01*
X417651Y398082D01*
X417848Y399073D01*
Y409803D01*
D02*
G37*
G36*
X406489D02*
X397669D01*
Y399073D01*
X397866Y398082D01*
X398427Y397242D01*
X399268Y396681D01*
X400258Y396484D01*
X406489D01*
Y409803D01*
D02*
G37*
G36*
X211008Y412036D02*
X210758Y411986D01*
X210503D01*
X208065Y411501D01*
X207131Y411114D01*
X205064Y409733D01*
X205064Y409733D01*
X204349Y409018D01*
X202968Y406951D01*
X202581Y406017D01*
X202096Y403579D01*
Y402568D01*
X202581Y400130D01*
X202968Y399196D01*
X204349Y397129D01*
X204349Y397129D01*
X205064Y396414D01*
X207131Y395033D01*
X208065Y394646D01*
X210503Y394161D01*
X210758D01*
X211008Y394111D01*
X211259Y394161D01*
X211514D01*
X213952Y394646D01*
X214886Y395033D01*
X216953Y396414D01*
X216953Y396414D01*
X217668Y397129D01*
X219049Y399196D01*
X219436Y400130D01*
X219921Y402568D01*
Y403579D01*
X219436Y406017D01*
X219049Y406951D01*
X217668Y409018D01*
X217668Y409018D01*
X216953Y409733D01*
X214886Y411114D01*
X213952Y411501D01*
X211514Y411986D01*
X211259D01*
X211008Y412036D01*
D02*
G37*
G36*
X636508Y409286D02*
X636258Y409236D01*
X636003D01*
X633565Y408751D01*
X632631Y408364D01*
X630564Y406983D01*
X630564Y406983D01*
X629849Y406268D01*
X628468Y404201D01*
X628081Y403267D01*
X627596Y400829D01*
Y399818D01*
X628081Y397380D01*
X628468Y396446D01*
X629849Y394379D01*
X629849Y394379D01*
X630564Y393664D01*
X632631Y392283D01*
X633565Y391896D01*
X636003Y391411D01*
X636258D01*
X636508Y391361D01*
X636759Y391411D01*
X637014D01*
X639452Y391896D01*
X640386Y392283D01*
X642453Y393664D01*
X642453Y393664D01*
X643168Y394379D01*
X644549Y396446D01*
X644936Y397380D01*
X645421Y399818D01*
Y400829D01*
X644936Y403267D01*
X644549Y404201D01*
X643168Y406268D01*
X643168Y406268D01*
X642453Y406983D01*
X640386Y408364D01*
X639452Y408751D01*
X637014Y409236D01*
X636759D01*
X636508Y409286D01*
D02*
G37*
G36*
X719008Y421913D02*
X708008D01*
X707017Y421716D01*
X706177Y421155D01*
X705616Y420315D01*
X705419Y419324D01*
Y410324D01*
X705616Y409333D01*
X706177Y408492D01*
X706691Y408149D01*
X706295Y407014D01*
X706242Y406922D01*
X705285Y406679D01*
X691747Y400221D01*
X690937Y399617D01*
X690420Y398748D01*
X690275Y397748D01*
X690524Y396769D01*
X700856Y375107D01*
X701461Y374297D01*
X702329Y373781D01*
X703329Y373635D01*
X704309Y373884D01*
X717848Y380342D01*
X718657Y380947D01*
X719174Y381815D01*
X719319Y382815D01*
X719070Y383794D01*
X715178Y391954D01*
X717863Y394638D01*
X719198Y396636D01*
X719667Y398993D01*
Y407865D01*
X719999Y407931D01*
X720840Y408492D01*
X721401Y409333D01*
X721598Y410324D01*
Y419324D01*
X721401Y420315D01*
X720840Y421155D01*
X719999Y421716D01*
X719008Y421913D01*
D02*
G37*
G36*
X220918Y381656D02*
X219917Y381520D01*
X219044Y381011D01*
X218432Y380206D01*
X213728Y370562D01*
X221655Y366696D01*
X227494Y378668D01*
X221895Y381399D01*
X220918Y381656D01*
D02*
G37*
G36*
X229777Y377554D02*
X223938Y365583D01*
X231866Y361716D01*
X236569Y371360D01*
X236827Y372337D01*
X236690Y373339D01*
X236181Y374212D01*
X235377Y374823D01*
X229777Y377554D01*
D02*
G37*
G36*
X84592Y444623D02*
X84592Y444623D01*
X60596Y444204D01*
X59608Y443990D01*
X58778Y443414D01*
X58231Y442564D01*
X58052Y441570D01*
X58052Y441570D01*
X58313Y426572D01*
X58528Y425585D01*
X59104Y424754D01*
X59953Y424208D01*
X60948Y424028D01*
X60948Y424028D01*
X74128Y424258D01*
X124592Y373795D01*
X126590Y372460D01*
X128947Y371991D01*
X179688D01*
X180690Y370810D01*
X180826Y369808D01*
X181336Y368935D01*
X182140Y368324D01*
X195622Y361748D01*
X196599Y361491D01*
X197600Y361627D01*
X198473Y362136D01*
X199085Y362940D01*
X209606Y384512D01*
X209863Y385489D01*
X209727Y386490D01*
X209217Y387363D01*
X208413Y387975D01*
X194931Y394550D01*
X193954Y394807D01*
X192953Y394671D01*
X192080Y394162D01*
X191468Y393358D01*
X187054Y384307D01*
X131497D01*
X87466Y428339D01*
X87226Y442079D01*
X87012Y443067D01*
X86436Y443897D01*
X85586Y444444D01*
X84592Y444623D01*
D02*
G37*
G36*
X679187Y394012D02*
X678208Y393763D01*
X664669Y387305D01*
X663860Y386701D01*
X663343Y385832D01*
X663198Y384832D01*
X663447Y383853D01*
X667339Y375694D01*
X652389Y360744D01*
X553490D01*
X553385Y366759D01*
X553171Y367747D01*
X552595Y368577D01*
X551745Y369124D01*
X550751Y369304D01*
X550750Y369304D01*
X535753Y369042D01*
X534765Y368828D01*
X533935Y368251D01*
X533388Y367402D01*
X533209Y366407D01*
X533209Y366407D01*
X533628Y342411D01*
X533842Y341423D01*
X534418Y340593D01*
X535268Y340047D01*
X536262Y339867D01*
X536262Y339867D01*
X551260Y340129D01*
X552247Y340343D01*
X553077Y340919D01*
X553624Y341769D01*
X553804Y342763D01*
X553804Y342763D01*
X553721Y347521D01*
X554611Y348427D01*
X654939D01*
X657296Y348896D01*
X659294Y350231D01*
X672186Y363122D01*
X673437Y362907D01*
X673779Y362191D01*
X674384Y361381D01*
X675252Y360865D01*
X676252Y360720D01*
X677232Y360968D01*
X690770Y367426D01*
X691580Y368031D01*
X692097Y368899D01*
X692242Y369899D01*
X691993Y370878D01*
X681661Y392540D01*
X681056Y393350D01*
X680188Y393867D01*
X679187Y394012D01*
D02*
G37*
G36*
X520755Y368780D02*
X520755Y368780D01*
X505757Y368518D01*
X504770Y368304D01*
X503940Y367728D01*
X503393Y366878D01*
X503213Y365884D01*
X503213Y365884D01*
X503348Y358149D01*
X502458Y357244D01*
X395740D01*
X395635Y363260D01*
X395420Y364247D01*
X394844Y365077D01*
X393994Y365624D01*
X393000Y365804D01*
X393000Y365804D01*
X378002Y365542D01*
X377015Y365327D01*
X376185Y364752D01*
X375638Y363902D01*
X375458Y362907D01*
X375458Y362907D01*
X375877Y338911D01*
X376091Y337924D01*
X376667Y337093D01*
X377517Y336547D01*
X378512Y336367D01*
X378512Y336367D01*
X393509Y336629D01*
X394497Y336843D01*
X395327Y337419D01*
X395874Y338269D01*
X396054Y339263D01*
X396054Y339263D01*
X395970Y344021D01*
X396861Y344927D01*
X503579D01*
X503632Y341888D01*
X503846Y340900D01*
X504422Y340070D01*
X505272Y339523D01*
X506267Y339343D01*
X506267Y339343D01*
X521264Y339605D01*
X522252Y339820D01*
X523082Y340396D01*
X523629Y341245D01*
X523808Y342240D01*
X523808Y342240D01*
X523390Y366236D01*
X523175Y367224D01*
X522599Y368054D01*
X521749Y368601D01*
X520755Y368780D01*
D02*
G37*
G36*
X212615Y368279D02*
X207911Y358635D01*
X207654Y357658D01*
X207790Y356657D01*
X208299Y355784D01*
X209104Y355172D01*
X214703Y352441D01*
X220542Y364413D01*
X212615Y368279D01*
D02*
G37*
G36*
X363005Y365280D02*
X363005Y365280D01*
X356776Y365171D01*
X357008Y351854D01*
X365827Y352008D01*
X365639Y362736D01*
X365425Y363723D01*
X364849Y364554D01*
X363999Y365100D01*
X363005Y365280D01*
D02*
G37*
G36*
X354236Y365127D02*
X348007Y365018D01*
X347020Y364804D01*
X346189Y364228D01*
X345643Y363378D01*
X345463Y362384D01*
X345463Y362384D01*
X345650Y351655D01*
X354469Y351809D01*
X354236Y365127D01*
D02*
G37*
G36*
X222825Y363300D02*
X216986Y351328D01*
X222585Y348597D01*
X223563Y348340D01*
X224564Y348476D01*
X225437Y348985D01*
X226048Y349789D01*
X230752Y359433D01*
X222825Y363300D01*
D02*
G37*
G36*
X598259Y339265D02*
X598091Y339231D01*
X597920Y339243D01*
X597673Y339210D01*
X597090D01*
X596840Y339160D01*
X596585D01*
X595196Y338884D01*
X594853Y338839D01*
X594689Y338783D01*
X594315Y338709D01*
X594212Y338666D01*
X594200Y338664D01*
X594067Y338609D01*
X593829Y338561D01*
X591691Y337676D01*
X591489Y337541D01*
X591342Y337480D01*
X591331Y337473D01*
X591243Y337436D01*
X590932Y337228D01*
X590756Y337142D01*
X590446Y336904D01*
X589319Y336150D01*
X589138Y335970D01*
X588926Y335828D01*
X588535Y335438D01*
X588302Y335258D01*
X588078Y335004D01*
X587824Y334780D01*
X587644Y334547D01*
X587289Y334192D01*
X587148Y333979D01*
X586967Y333799D01*
X586269Y332755D01*
X585940Y332326D01*
X585820Y332083D01*
X585681Y331875D01*
X585664Y331833D01*
X585602Y331740D01*
X585522Y331547D01*
X585442Y331427D01*
X584556Y329288D01*
X584528Y329147D01*
X584418Y328882D01*
X584352Y328550D01*
X584243Y328229D01*
X584142Y327463D01*
X583957Y326533D01*
Y326278D01*
X583908Y326027D01*
Y325680D01*
X583839Y325162D01*
X583862Y324823D01*
X583839Y324486D01*
X583908Y323968D01*
Y323713D01*
X583957Y323463D01*
Y323208D01*
X584106Y322460D01*
X584243Y321418D01*
X584352Y321097D01*
X584418Y320765D01*
X585602Y317907D01*
X585790Y317625D01*
X585940Y317321D01*
X586752Y316264D01*
X586967Y315941D01*
X587105Y315804D01*
X587215Y315660D01*
X587289Y315549D01*
X587337Y315501D01*
X587824Y314867D01*
X588078Y314643D01*
X588302Y314389D01*
X589239Y313670D01*
X589319Y313590D01*
X589506Y313465D01*
X590756Y312505D01*
X591060Y312355D01*
X591342Y312167D01*
X594200Y310983D01*
X594532Y310917D01*
X594853Y310808D01*
X596582Y310581D01*
X596585Y310580D01*
X596586D01*
X597920Y310404D01*
X598091Y310416D01*
X598259Y310382D01*
X598426Y310416D01*
X598596Y310404D01*
X601664Y310808D01*
X601985Y310917D01*
X602317Y310983D01*
X605175Y312167D01*
X605457Y312355D01*
X605761Y312505D01*
X607160Y313579D01*
X607176Y313590D01*
X607183Y313597D01*
X608215Y314389D01*
X608439Y314643D01*
X608693Y314867D01*
X609485Y315899D01*
X609528Y315941D01*
X609594Y316041D01*
X610577Y317321D01*
X610727Y317625D01*
X610915Y317907D01*
X612099Y320765D01*
X612165Y321097D01*
X612274Y321418D01*
X612454Y322789D01*
X612537Y323208D01*
Y323422D01*
X612553Y323543D01*
X612587Y323713D01*
Y323800D01*
X612677Y324486D01*
X612655Y324823D01*
X612677Y325162D01*
X612587Y325847D01*
Y326027D01*
X612537Y326278D01*
Y326533D01*
X612418Y327134D01*
X612274Y328229D01*
X612165Y328550D01*
X612099Y328882D01*
X611946Y329250D01*
X611939Y329288D01*
X611053Y331427D01*
X611031Y331459D01*
X610915Y331740D01*
X610727Y332022D01*
X610577Y332326D01*
X610076Y332978D01*
X609528Y333799D01*
X609347Y333979D01*
X609206Y334192D01*
X608946Y334452D01*
X608693Y334780D01*
X608439Y335004D01*
X608215Y335258D01*
X607887Y335510D01*
X607569Y335828D01*
X607357Y335970D01*
X607176Y336150D01*
X606220Y336789D01*
X605761Y337142D01*
X605501Y337270D01*
X605252Y337436D01*
X605222Y337449D01*
X605175Y337480D01*
X604970Y337565D01*
X604804Y337676D01*
X602666Y338561D01*
X602471Y338600D01*
X602317Y338664D01*
X602262Y338675D01*
X602180Y338709D01*
X601859Y338772D01*
X601664Y338839D01*
X601256Y338892D01*
X599910Y339160D01*
X599655D01*
X599405Y339210D01*
X598844D01*
X598596Y339243D01*
X598426Y339231D01*
X598259Y339265D01*
D02*
G37*
G36*
X365871Y349468D02*
X357053Y349314D01*
X357285Y335996D01*
X363514Y336105D01*
X364502Y336319D01*
X365332Y336895D01*
X365878Y337745D01*
X366058Y338740D01*
X366058Y338740D01*
X365871Y349468D01*
D02*
G37*
G36*
X354513Y349270D02*
X345695Y349116D01*
X345882Y338387D01*
X346096Y337400D01*
X346672Y336570D01*
X347522Y336023D01*
X348516Y335843D01*
X348517Y335843D01*
X354745Y335952D01*
X354513Y349270D01*
D02*
G37*
G36*
X584336Y291803D02*
X584169Y291770D01*
X583998Y291781D01*
X580931Y291378D01*
X580610Y291269D01*
X580278Y291203D01*
X577420Y290019D01*
X577138Y289830D01*
X576834Y289681D01*
X574380Y287797D01*
X574156Y287542D01*
X573901Y287319D01*
X572018Y284865D01*
X571868Y284561D01*
X571680Y284279D01*
X570496Y281421D01*
X570430Y281089D01*
X570321Y280768D01*
X570143Y279412D01*
X570042Y278907D01*
Y278652D01*
X569993Y278402D01*
Y278272D01*
X569917Y277700D01*
X569939Y277362D01*
X569917Y277024D01*
X569993Y276453D01*
Y276088D01*
X570042Y275837D01*
Y275582D01*
X570234Y274618D01*
X570321Y273957D01*
X570429Y273640D01*
X570494Y273312D01*
X570495Y273309D01*
X570496Y273304D01*
X570593Y273071D01*
X570641Y272826D01*
X571527Y270688D01*
X571666Y270481D01*
X571680Y270446D01*
X571683Y270441D01*
X571766Y270240D01*
X572012Y269873D01*
X572018Y269860D01*
X572035Y269838D01*
X573052Y268316D01*
X573232Y268136D01*
X573374Y267923D01*
X575011Y266287D01*
X575223Y266145D01*
X575403Y265965D01*
X577328Y264679D01*
X577564Y264581D01*
X577776Y264440D01*
X579914Y263554D01*
X580164Y263504D01*
X580400Y263406D01*
X582670Y262955D01*
X582925D01*
X583175Y262905D01*
X585490D01*
X585740Y262955D01*
X585995D01*
X588265Y263406D01*
X588501Y263504D01*
X588751Y263554D01*
X590889Y264440D01*
X591101Y264581D01*
X591337Y264679D01*
X593261Y265965D01*
X593442Y266145D01*
X593654Y266287D01*
X595290Y267923D01*
X595432Y268136D01*
X595612Y268316D01*
X596575Y269756D01*
X596655Y269860D01*
X596684Y269919D01*
X596898Y270240D01*
X596968Y270409D01*
X596993Y270446D01*
X597020Y270512D01*
X597138Y270688D01*
X598023Y272826D01*
X598065Y273034D01*
X598176Y273304D01*
X598243Y273636D01*
X598352Y273957D01*
X598454Y274737D01*
X598622Y275582D01*
Y275837D01*
X598672Y276088D01*
Y276392D01*
X598755Y277024D01*
X598733Y277362D01*
X598755Y277700D01*
X598672Y278333D01*
Y278402D01*
X598645Y278538D01*
X598622Y278711D01*
Y278907D01*
X598546Y279292D01*
X598352Y280768D01*
X598243Y281089D01*
X598176Y281421D01*
X596993Y284279D01*
X596804Y284561D01*
X596655Y284865D01*
X594771Y287319D01*
X594516Y287542D01*
X594293Y287797D01*
X591838Y289681D01*
X591535Y289830D01*
X591253Y290019D01*
X588395Y291203D01*
X588063Y291269D01*
X587742Y291378D01*
X584674Y291781D01*
X584504Y291770D01*
X584336Y291803D01*
D02*
G37*
G36*
X611863Y251548D02*
X610854Y251500D01*
X609940Y251069D01*
X609261Y250321D01*
X606895Y246383D01*
X606205Y246521D01*
X578647D01*
X578445Y246527D01*
X577548Y246611D01*
X576808Y246723D01*
X576266Y246847D01*
X576223Y246862D01*
X575979Y247227D01*
X575973Y247244D01*
X575958Y247259D01*
X575668Y247694D01*
X575279Y247953D01*
X575266Y247966D01*
X575247Y247975D01*
X574827Y248255D01*
X574385Y248343D01*
X574337Y248363D01*
X574278Y248364D01*
X573836Y248452D01*
X564836D01*
X563845Y248255D01*
X563005Y247694D01*
X562444Y246853D01*
X562247Y245862D01*
Y234862D01*
X562444Y233871D01*
X563005Y233031D01*
X563845Y232470D01*
X564836Y232273D01*
X573836D01*
X574278Y232360D01*
X574337Y232361D01*
X574385Y232382D01*
X574827Y232470D01*
X575247Y232750D01*
X575266Y232758D01*
X575279Y232772D01*
X575668Y233031D01*
X575958Y233466D01*
X575973Y233481D01*
X575979Y233498D01*
X576223Y233862D01*
X576266Y233877D01*
X576808Y234002D01*
X577518Y234109D01*
X578868Y234204D01*
X598287D01*
X598913Y233099D01*
X596900Y229749D01*
X596558Y228798D01*
X596607Y227788D01*
X597038Y226874D01*
X597786Y226195D01*
X610643Y218469D01*
X611594Y218128D01*
X612604Y218176D01*
X613518Y218608D01*
X614197Y219355D01*
X626558Y239928D01*
X626899Y240879D01*
X626851Y241888D01*
X626420Y242802D01*
X625672Y243481D01*
X612814Y251207D01*
X611863Y251548D01*
D02*
G37*
G36*
X324336Y275452D02*
X309336D01*
X308345Y275255D01*
X307505Y274694D01*
X306944Y273853D01*
X306747Y272862D01*
Y248862D01*
X306944Y247871D01*
X307505Y247031D01*
X308345Y246470D01*
X309336Y246273D01*
X324336D01*
X325327Y246470D01*
X326167Y247031D01*
X326729Y247871D01*
X326926Y248862D01*
Y253988D01*
X326965Y254025D01*
X327199Y254167D01*
X327631Y254343D01*
X328266Y254513D01*
X329098Y254651D01*
X329699Y254704D01*
X413968D01*
X414568Y254651D01*
X415397Y254513D01*
X416030Y254343D01*
X416456Y254169D01*
X416684Y254030D01*
X416712Y254004D01*
X416643Y246082D01*
X416831Y245089D01*
X417385Y244244D01*
X418221Y243675D01*
X419210Y243469D01*
X434209Y243338D01*
X435202Y243527D01*
X436047Y244081D01*
X436616Y244916D01*
X436822Y245905D01*
X437031Y269905D01*
X436842Y270897D01*
X436288Y271742D01*
X435453Y272311D01*
X434464Y272517D01*
X419464Y272648D01*
X418472Y272459D01*
X417627Y271905D01*
X417058Y271070D01*
X416852Y270081D01*
X416832Y267751D01*
X416781Y267705D01*
X416541Y267560D01*
X416105Y267383D01*
X415466Y267212D01*
X414632Y267073D01*
X414030Y267021D01*
X329699D01*
X329098Y267073D01*
X328266Y267211D01*
X327631Y267382D01*
X327199Y267558D01*
X326965Y267700D01*
X326926Y267736D01*
Y272862D01*
X326729Y273853D01*
X326167Y274694D01*
X325327Y275255D01*
X324336Y275452D01*
D02*
G37*
G36*
X524086Y250726D02*
X521857Y250432D01*
X519780Y249572D01*
X517995Y248203D01*
X516627Y246419D01*
X515766Y244342D01*
X515473Y242112D01*
X515766Y239883D01*
X516627Y237805D01*
X517995Y236021D01*
X519780Y234653D01*
X521857Y233792D01*
X524086Y233499D01*
X526316Y233792D01*
X527310Y234204D01*
X544025D01*
X544228Y234198D01*
X545125Y234114D01*
X545865Y234002D01*
X546407Y233877D01*
X546450Y233862D01*
X546693Y233498D01*
X546700Y233481D01*
X546715Y233466D01*
X547005Y233031D01*
X547393Y232772D01*
X547407Y232758D01*
X547426Y232750D01*
X547845Y232470D01*
X548288Y232382D01*
X548336Y232361D01*
X548394Y232360D01*
X548836Y232273D01*
X557836D01*
X558827Y232470D01*
X559668Y233031D01*
X560229Y233871D01*
X560426Y234862D01*
Y245862D01*
X560229Y246853D01*
X559668Y247694D01*
X558827Y248255D01*
X557836Y248452D01*
X548836D01*
X548394Y248364D01*
X548336Y248363D01*
X548288Y248343D01*
X547845Y248255D01*
X547426Y247975D01*
X547407Y247966D01*
X547393Y247953D01*
X547005Y247694D01*
X546715Y247259D01*
X546700Y247244D01*
X546693Y247227D01*
X546450Y246862D01*
X546407Y246847D01*
X545865Y246723D01*
X545154Y246616D01*
X543805Y246521D01*
X532018D01*
X531877Y246530D01*
X531565Y246576D01*
X531399Y246611D01*
X530177Y248203D01*
X528393Y249572D01*
X526316Y250432D01*
X524086Y250726D01*
D02*
G37*
G36*
X397094Y224343D02*
X396100Y224163D01*
X395250Y223616D01*
X394674Y222786D01*
X394460Y221798D01*
X394460Y221798D01*
X394384Y217483D01*
X393638Y216956D01*
X393103Y216821D01*
X392827Y217005D01*
X392385Y217093D01*
X392337Y217113D01*
X392278Y217114D01*
X391836Y217202D01*
X382836D01*
X381845Y217005D01*
X381005Y216444D01*
X380444Y215603D01*
X380247Y214612D01*
Y203612D01*
X380444Y202621D01*
X381005Y201781D01*
X381845Y201220D01*
X382836Y201023D01*
X391836D01*
X392278Y201110D01*
X392337Y201111D01*
X392385Y201132D01*
X392827Y201220D01*
X392830Y201222D01*
X393936Y200721D01*
X394089Y200535D01*
X394041Y197802D01*
X394221Y196808D01*
X394767Y195958D01*
X395598Y195382D01*
X396585Y195168D01*
X396585Y195168D01*
X411583Y194906D01*
X412577Y195086D01*
X413427Y195632D01*
X414003Y196462D01*
X414217Y197450D01*
X414217Y197450D01*
X414636Y221446D01*
X414456Y222441D01*
X413910Y223291D01*
X413079Y223867D01*
X412092Y224081D01*
X412092Y224081D01*
X397094Y224343D01*
D02*
G37*
G36*
X272086Y224952D02*
X257086D01*
X256095Y224755D01*
X255255Y224194D01*
X254694Y223354D01*
X254496Y222362D01*
Y217236D01*
X254457Y217200D01*
X254223Y217057D01*
X253792Y216882D01*
X253156Y216711D01*
X252325Y216573D01*
X251724Y216521D01*
X250355D01*
X249045Y216598D01*
X248414Y216669D01*
X248132Y216717D01*
X247327Y217255D01*
X246336Y217452D01*
X235336D01*
X234345Y217255D01*
X233505Y216693D01*
X232943Y215853D01*
X232746Y214862D01*
Y205862D01*
X232943Y204871D01*
X233505Y204031D01*
X234345Y203470D01*
X235336Y203272D01*
X246336D01*
X247327Y203470D01*
X248069Y203965D01*
X251277Y204204D01*
X251724D01*
X252325Y204151D01*
X253156Y204013D01*
X253792Y203843D01*
X254223Y203667D01*
X254457Y203525D01*
X254496Y203488D01*
Y198362D01*
X254694Y197371D01*
X255255Y196531D01*
X256095Y195970D01*
X257086Y195773D01*
X272086D01*
X273077Y195970D01*
X273918Y196531D01*
X274479Y197371D01*
X274676Y198362D01*
Y222362D01*
X274479Y223354D01*
X273918Y224194D01*
X273077Y224755D01*
X272086Y224952D01*
D02*
G37*
G36*
X174836Y227075D02*
X174586Y227025D01*
X174331D01*
X171893Y226540D01*
X170959Y226153D01*
X168892Y224772D01*
X168892Y224772D01*
X168177Y224057D01*
X166796Y221990D01*
X166409Y221056D01*
X165924Y218618D01*
Y217607D01*
X166409Y215168D01*
X166796Y214235D01*
X168177Y212167D01*
X168177Y212167D01*
X168892Y211453D01*
X170959Y210072D01*
X171892Y209685D01*
X174331Y209200D01*
X174586D01*
X174836Y209150D01*
X175086Y209200D01*
X175342D01*
X177780Y209685D01*
X178714Y210072D01*
X180781Y211453D01*
X180781Y211453D01*
X181496Y212167D01*
X182877Y214235D01*
X183264Y215168D01*
X183749Y217607D01*
Y218617D01*
X183264Y221056D01*
X182877Y221990D01*
X181496Y224057D01*
X181496Y224057D01*
X180781Y224772D01*
X178714Y226153D01*
X177780Y226540D01*
X175342Y227025D01*
X175086D01*
X174836Y227075D01*
D02*
G37*
G36*
X542034Y210727D02*
X541023Y210723D01*
X540091Y210332D01*
X539380Y209615D01*
X538997Y208679D01*
X538496Y206101D01*
X538488Y206086D01*
X538378Y205959D01*
X538166Y205793D01*
X537804Y205596D01*
X537271Y205396D01*
X536563Y205215D01*
X536221Y205160D01*
X535808Y205223D01*
X535266Y205347D01*
X535223Y205362D01*
X534980Y205727D01*
X534973Y205744D01*
X534958Y205759D01*
X534668Y206194D01*
X534279Y206453D01*
X534266Y206466D01*
X534247Y206475D01*
X533827Y206755D01*
X533385Y206843D01*
X533337Y206863D01*
X533278Y206864D01*
X532836Y206952D01*
X523836D01*
X522845Y206755D01*
X522005Y206194D01*
X521444Y205353D01*
X521247Y204362D01*
Y193362D01*
X521444Y192371D01*
X522005Y191531D01*
X522845Y190970D01*
X523836Y190772D01*
X532836D01*
X533278Y190861D01*
X533337Y190861D01*
X533385Y190882D01*
X533827Y190970D01*
X534247Y191250D01*
X534266Y191258D01*
X534279Y191272D01*
X534326Y191303D01*
X535494Y190656D01*
X534418Y185120D01*
X534422Y184110D01*
X534813Y183178D01*
X535531Y182467D01*
X536466Y182084D01*
X551190Y179222D01*
X552201Y179226D01*
X553133Y179617D01*
X553844Y180335D01*
X554227Y181270D01*
X558806Y204829D01*
X558801Y205839D01*
X558411Y206771D01*
X557693Y207483D01*
X556758Y207865D01*
X542034Y210727D01*
D02*
G37*
G36*
X115166Y237545D02*
X114203Y237237D01*
X114203Y237237D01*
X101084Y229965D01*
X100313Y229312D01*
X99850Y228413D01*
X99767Y227406D01*
X99457Y226530D01*
X97459Y225195D01*
X84982Y212717D01*
X83647Y210719D01*
X83221Y208580D01*
X82845Y208505D01*
X82005Y207943D01*
X81444Y207103D01*
X81247Y206112D01*
Y197112D01*
X81444Y196121D01*
X82005Y195281D01*
X82845Y194720D01*
X83836Y194522D01*
X94836D01*
X95827Y194720D01*
X96667Y195281D01*
X97229Y196121D01*
X97426Y197112D01*
Y206112D01*
X97229Y207103D01*
X97052Y207369D01*
X104365Y214682D01*
X104718D01*
X104950Y214676D01*
X106385Y214554D01*
X106691Y214508D01*
X111710Y205453D01*
X112363Y204682D01*
X113261Y204219D01*
X114268Y204135D01*
X115231Y204444D01*
X115231Y204444D01*
X128350Y211716D01*
X129121Y212369D01*
X129584Y213267D01*
X129668Y214274D01*
X129359Y215236D01*
X117724Y236227D01*
X117071Y236998D01*
X116173Y237461D01*
X115166Y237545D01*
D02*
G37*
G36*
X355336Y217726D02*
X353107Y217432D01*
X351030Y216572D01*
X349245Y215203D01*
X347877Y213419D01*
X347016Y211342D01*
X346723Y209112D01*
X347016Y206883D01*
X347877Y204806D01*
X349245Y203022D01*
X351030Y201653D01*
X353107Y200792D01*
X355336Y200499D01*
X357566Y200792D01*
X359643Y201653D01*
X361173Y202827D01*
X361212Y202837D01*
X361365Y202867D01*
X362298Y202941D01*
X363125Y202864D01*
X363865Y202752D01*
X364407Y202627D01*
X364450Y202612D01*
X364693Y202248D01*
X364700Y202231D01*
X364715Y202216D01*
X365005Y201781D01*
X365393Y201522D01*
X365406Y201508D01*
X365426Y201500D01*
X365845Y201220D01*
X366287Y201132D01*
X366336Y201111D01*
X366394Y201110D01*
X366836Y201023D01*
X375836D01*
X376827Y201220D01*
X377668Y201781D01*
X378229Y202621D01*
X378426Y203612D01*
Y214612D01*
X378229Y215603D01*
X377668Y216444D01*
X376827Y217005D01*
X375836Y217202D01*
X366836D01*
X366394Y217114D01*
X366336Y217113D01*
X366287Y217093D01*
X365845Y217005D01*
X365426Y216725D01*
X365406Y216716D01*
X365393Y216703D01*
X365005Y216444D01*
X364715Y216009D01*
X364700Y215994D01*
X364693Y215977D01*
X364450Y215612D01*
X364407Y215597D01*
X363865Y215473D01*
X363154Y215366D01*
X361966Y215282D01*
X361742Y215300D01*
X361443Y215342D01*
X361212Y215387D01*
X361173Y215398D01*
X359643Y216572D01*
X357566Y217432D01*
X355336Y217726D01*
D02*
G37*
G36*
X600086Y218074D02*
X599836Y218025D01*
X599581D01*
X597142Y217540D01*
X596209Y217153D01*
X594142Y215772D01*
X594142Y215772D01*
X593427Y215057D01*
X592046Y212990D01*
X591659Y212056D01*
X591174Y209618D01*
Y208607D01*
X591659Y206168D01*
X592046Y205235D01*
X593427Y203168D01*
X593427Y203167D01*
X594142Y202453D01*
X596209Y201072D01*
X597142Y200685D01*
X599581Y200200D01*
X599836D01*
X600086Y200150D01*
X600336Y200200D01*
X600592D01*
X603030Y200685D01*
X603964Y201072D01*
X606031Y202453D01*
X606031Y202453D01*
X606746Y203167D01*
X608127Y205235D01*
X608514Y206168D01*
X608999Y208607D01*
Y209618D01*
X608514Y212056D01*
X608127Y212990D01*
X606746Y215057D01*
X606746Y215057D01*
X606031Y215772D01*
X603964Y217153D01*
X603030Y217540D01*
X600592Y218025D01*
X600336D01*
X600086Y218074D01*
D02*
G37*
G36*
X104086Y193976D02*
X101857Y193682D01*
X99780Y192822D01*
X98582Y191903D01*
X98459Y191873D01*
X98286Y191842D01*
X97993Y191822D01*
X97545Y191848D01*
X96915Y191919D01*
X96632Y191967D01*
X95827Y192505D01*
X94836Y192702D01*
X83836D01*
X82845Y192505D01*
X82005Y191943D01*
X81444Y191103D01*
X81247Y190112D01*
Y181112D01*
X81444Y180121D01*
X82005Y179281D01*
X82845Y178720D01*
X83836Y178523D01*
X94836D01*
X95827Y178720D01*
X96569Y179215D01*
X97959Y179319D01*
X97996Y179272D01*
X99780Y177903D01*
X101857Y177042D01*
X104086Y176749D01*
X106316Y177042D01*
X108393Y177903D01*
X110177Y179272D01*
X111546Y181055D01*
X112407Y183133D01*
X112700Y185362D01*
X112407Y187592D01*
X111546Y189669D01*
X110177Y191453D01*
X108393Y192822D01*
X106316Y193682D01*
X104086Y193976D01*
D02*
G37*
G36*
X493086Y207976D02*
X490857Y207682D01*
X488779Y206822D01*
X486996Y205453D01*
X485627Y203669D01*
X484766Y201592D01*
X484473Y199362D01*
X484766Y197133D01*
X485627Y195056D01*
X486996Y193272D01*
X488779Y191903D01*
X490857Y191042D01*
X493086Y190749D01*
X495316Y191042D01*
X497393Y191903D01*
X498281Y192584D01*
X498290Y192586D01*
X498442Y192619D01*
X498636Y192649D01*
X499532Y192704D01*
X503025D01*
X503228Y192698D01*
X504125Y192614D01*
X504865Y192502D01*
X505406Y192377D01*
X505450Y192362D01*
X505693Y191998D01*
X505700Y191981D01*
X505715Y191966D01*
X506005Y191531D01*
X506394Y191272D01*
X506407Y191258D01*
X506426Y191250D01*
X506845Y190970D01*
X507287Y190882D01*
X507336Y190861D01*
X507394Y190861D01*
X507836Y190772D01*
X516836D01*
X517827Y190970D01*
X518668Y191531D01*
X519229Y192371D01*
X519426Y193362D01*
Y204362D01*
X519229Y205353D01*
X518668Y206194D01*
X517827Y206755D01*
X516836Y206952D01*
X507836D01*
X507394Y206864D01*
X507336Y206863D01*
X507287Y206843D01*
X506845Y206755D01*
X506426Y206475D01*
X506407Y206466D01*
X506394Y206453D01*
X506005Y206194D01*
X505715Y205759D01*
X505700Y205744D01*
X505693Y205727D01*
X505450Y205362D01*
X505406Y205347D01*
X504865Y205223D01*
X504154Y205115D01*
X502805Y205021D01*
X500342D01*
X499874Y205065D01*
X499602Y205110D01*
X499405Y205156D01*
X499177Y205453D01*
X497393Y206822D01*
X495316Y207682D01*
X493086Y207976D01*
D02*
G37*
G36*
X196526Y186408D02*
X195532Y186228D01*
X194682Y185681D01*
X194106Y184851D01*
X193891Y183864D01*
X193892Y183863D01*
X193886Y183530D01*
X193865Y183318D01*
X193707Y182677D01*
X193417Y181906D01*
X192981Y181015D01*
X192392Y180019D01*
X191679Y178975D01*
X188726Y175461D01*
X181035Y167771D01*
X165699D01*
X165098Y167823D01*
X164266Y167961D01*
X163631Y168132D01*
X163200Y168307D01*
X162966Y168450D01*
X162926Y168486D01*
Y173612D01*
X162729Y174603D01*
X162168Y175443D01*
X161327Y176005D01*
X160336Y176202D01*
X145336D01*
X144345Y176005D01*
X143505Y175443D01*
X142944Y174603D01*
X142747Y173612D01*
Y149612D01*
X142944Y148621D01*
X143505Y147781D01*
X144345Y147219D01*
X145336Y147022D01*
X160336D01*
X161327Y147219D01*
X162168Y147781D01*
X162729Y148621D01*
X162926Y149612D01*
Y154738D01*
X162966Y154775D01*
X163200Y154917D01*
X163631Y155093D01*
X164266Y155263D01*
X165098Y155401D01*
X165699Y155454D01*
X183586D01*
X185943Y155923D01*
X187941Y157258D01*
X195958Y165274D01*
X196530Y165827D01*
X196982Y166217D01*
X220170Y165812D01*
X221164Y165992D01*
X222014Y166539D01*
X222590Y167369D01*
X222805Y168357D01*
X222805Y168357D01*
X223067Y183354D01*
X222887Y184349D01*
X222340Y185198D01*
X221510Y185774D01*
X220522Y185989D01*
X220522Y185989D01*
X196526Y186408D01*
D02*
G37*
G36*
X302086Y224952D02*
X287086D01*
X286095Y224755D01*
X285255Y224193D01*
X284694Y223353D01*
X284497Y222362D01*
Y198362D01*
X284694Y197371D01*
X285255Y196531D01*
X286095Y195970D01*
X287086Y195772D01*
X302086D01*
X303077Y195970D01*
X303918Y196531D01*
X304479Y197371D01*
X304676Y198362D01*
Y203488D01*
X304715Y203525D01*
X304949Y203667D01*
X305381Y203843D01*
X306017Y204013D01*
X306848Y204151D01*
X307449Y204204D01*
X322786D01*
X341267Y185722D01*
X340741Y184452D01*
X336336D01*
X335345Y184255D01*
X334505Y183694D01*
X333944Y182853D01*
X333747Y181862D01*
Y166862D01*
X333944Y165871D01*
X334505Y165031D01*
X335345Y164470D01*
X336336Y164273D01*
X360336D01*
X361327Y164470D01*
X362168Y165031D01*
X362729Y165871D01*
X362926Y166862D01*
Y181862D01*
X362729Y182853D01*
X362168Y183694D01*
X361327Y184255D01*
X360336Y184452D01*
X354673D01*
X354586Y184894D01*
X354495Y185895D01*
Y187362D01*
X354026Y189719D01*
X352691Y191717D01*
X329691Y214717D01*
X327693Y216052D01*
X325336Y216521D01*
X307449D01*
X306848Y216573D01*
X306017Y216711D01*
X305381Y216882D01*
X304949Y217057D01*
X304715Y217200D01*
X304676Y217236D01*
Y222362D01*
X304479Y223353D01*
X303918Y224193D01*
X303077Y224755D01*
X302086Y224952D01*
D02*
G37*
G36*
X427090Y223819D02*
X426096Y223639D01*
X425246Y223092D01*
X424670Y222262D01*
X424455Y221275D01*
X424455Y221275D01*
X424036Y197278D01*
X424216Y196284D01*
X424763Y195434D01*
X425593Y194858D01*
X426581Y194644D01*
X426581Y194644D01*
X441578Y194382D01*
X442573Y194562D01*
X443423Y195108D01*
X443998Y195939D01*
X444213Y196926D01*
X444213Y196926D01*
X444300Y201943D01*
X444326Y202152D01*
X444331Y202165D01*
X444341Y202180D01*
X444428Y202259D01*
X444668Y202405D01*
X445100Y202582D01*
X445732Y202752D01*
X446558Y202889D01*
X447151Y202942D01*
X450297D01*
X471610Y181629D01*
X472997Y180149D01*
X473980Y178945D01*
X474337Y178442D01*
X474118Y165868D01*
X474298Y164874D01*
X474844Y164024D01*
X475675Y163448D01*
X476662Y163234D01*
X476662Y163234D01*
X500658Y162815D01*
X501653Y162994D01*
X502503Y163541D01*
X503079Y164371D01*
X503293Y165359D01*
X503293Y165359D01*
X503555Y180357D01*
X503375Y181351D01*
X502828Y182201D01*
X501998Y182777D01*
X501011Y182991D01*
X501011Y182991D01*
X488675Y183206D01*
X488190Y183421D01*
X487368Y183889D01*
X486473Y184499D01*
X484607Y186051D01*
X457203Y213455D01*
X455205Y214790D01*
X452848Y215259D01*
X447276D01*
X446686Y215311D01*
X445869Y215448D01*
X445251Y215616D01*
X444837Y215787D01*
X444621Y215922D01*
X444566Y215974D01*
X444549Y216166D01*
X444632Y220923D01*
X444452Y221917D01*
X443905Y222767D01*
X443075Y223343D01*
X442088Y223557D01*
X442087Y223557D01*
X427090Y223819D01*
D02*
G37*
G36*
X246337Y201452D02*
X235337D01*
X234346Y201255D01*
X233506Y200694D01*
X232944Y199853D01*
X232747Y198862D01*
Y189862D01*
X232835Y189420D01*
X232836Y189362D01*
X232856Y189314D01*
X232944Y188871D01*
X233225Y188452D01*
X233233Y188433D01*
X233246Y188419D01*
X233506Y188031D01*
X233940Y187741D01*
X233955Y187726D01*
X233972Y187719D01*
X234337Y187476D01*
X234352Y187432D01*
X234476Y186891D01*
X234584Y186180D01*
X234678Y184831D01*
Y184314D01*
X234615Y183707D01*
X234576Y183490D01*
X234546Y183367D01*
X233627Y182169D01*
X232766Y180092D01*
X232473Y177862D01*
X232766Y175633D01*
X233627Y173556D01*
X234801Y172025D01*
X234811Y171987D01*
X234841Y171834D01*
X234903Y171057D01*
X234872Y170473D01*
X234786Y169713D01*
X234685Y169120D01*
X234642Y168952D01*
X234580Y168911D01*
X234575Y168909D01*
X234573Y168906D01*
X234255Y168694D01*
X233901Y168163D01*
X233897Y168159D01*
X233896Y168156D01*
X233694Y167853D01*
X233575Y167258D01*
X233557Y167208D01*
X233559Y167176D01*
X233497Y166862D01*
Y157862D01*
X233694Y156871D01*
X234255Y156031D01*
X235095Y155470D01*
X236086Y155273D01*
X247086D01*
X248077Y155470D01*
X248918Y156031D01*
X249479Y156871D01*
X249676Y157862D01*
Y166862D01*
X249569Y167402D01*
X249566Y167456D01*
X249552Y167486D01*
X249479Y167853D01*
X249138Y168364D01*
X249135Y168370D01*
X249132Y168373D01*
X248918Y168694D01*
X248392Y169045D01*
X248387Y169049D01*
X248383Y169051D01*
X248077Y169255D01*
X247700Y169330D01*
X247646Y169454D01*
X247503Y169951D01*
X247377Y170615D01*
X247292Y171583D01*
X247316Y171756D01*
X247361Y171987D01*
X247372Y172025D01*
X248546Y173556D01*
X249407Y175633D01*
X249700Y177862D01*
X249407Y180092D01*
X248546Y182169D01*
X247177Y183953D01*
X247116Y184000D01*
X247076Y184183D01*
X247036Y184445D01*
X246995Y185037D01*
Y185051D01*
X247001Y185254D01*
X247085Y186151D01*
X247197Y186891D01*
X247322Y187432D01*
X247337Y187476D01*
X247701Y187719D01*
X247718Y187726D01*
X247733Y187741D01*
X248168Y188031D01*
X248428Y188419D01*
X248441Y188433D01*
X248449Y188452D01*
X248729Y188871D01*
X248817Y189314D01*
X248838Y189362D01*
X248839Y189420D01*
X248927Y189862D01*
Y198862D01*
X248729Y199853D01*
X248168Y200694D01*
X247328Y201255D01*
X246337Y201452D01*
D02*
G37*
G36*
X637578Y236097D02*
X636569Y236048D01*
X635655Y235617D01*
X634976Y234869D01*
X622615Y214297D01*
X622273Y213346D01*
X622322Y212337D01*
X622753Y211423D01*
X623501Y210744D01*
X636358Y203018D01*
X637309Y202677D01*
X638319Y202725D01*
X639233Y203156D01*
X639912Y203904D01*
X640837Y205444D01*
X642412Y205599D01*
X642535Y205513D01*
X642978Y205143D01*
X669614Y178508D01*
X671611Y177173D01*
X673968Y176704D01*
X716295D01*
X721122Y171877D01*
X722509Y170397D01*
X723492Y169192D01*
X723849Y168690D01*
X723630Y156116D01*
X723810Y155121D01*
X724356Y154272D01*
X725186Y153696D01*
X726174Y153481D01*
X726174Y153481D01*
X750170Y153062D01*
X751165Y153242D01*
X752014Y153789D01*
X752590Y154619D01*
X752805Y155607D01*
X752805Y155607D01*
X753067Y170604D01*
X752887Y171599D01*
X752340Y172449D01*
X751510Y173024D01*
X750523Y173239D01*
X750522Y173239D01*
X738187Y173454D01*
X737701Y173669D01*
X736880Y174137D01*
X735985Y174747D01*
X734119Y176299D01*
X723201Y187217D01*
X721203Y188552D01*
X718846Y189021D01*
X676519D01*
X650423Y215117D01*
X650018Y215597D01*
X649487Y216329D01*
X649101Y216974D01*
X648851Y217516D01*
X648719Y217944D01*
X648674Y218254D01*
X648683Y218468D01*
X648697Y218525D01*
X652273Y224476D01*
X652614Y225427D01*
X652566Y226436D01*
X652135Y227350D01*
X651387Y228030D01*
X638529Y235755D01*
X637578Y236097D01*
D02*
G37*
G36*
X80336Y176952D02*
X65336D01*
X64345Y176755D01*
X63505Y176193D01*
X62944Y175353D01*
X62747Y174362D01*
Y150362D01*
X62944Y149371D01*
X63505Y148531D01*
X64345Y147970D01*
X65336Y147772D01*
X80336D01*
X81327Y147970D01*
X82168Y148531D01*
X82729Y149371D01*
X82926Y150362D01*
Y155488D01*
X82965Y155525D01*
X83200Y155667D01*
X83631Y155843D01*
X84267Y156013D01*
X85098Y156151D01*
X85699Y156204D01*
X109974D01*
X110575Y156151D01*
X111406Y156013D01*
X112042Y155843D01*
X112473Y155667D01*
X112707Y155525D01*
X112746Y155488D01*
Y149612D01*
X112944Y148621D01*
X113505Y147781D01*
X114345Y147220D01*
X115336Y147023D01*
X130336D01*
X131327Y147220D01*
X132168Y147781D01*
X132729Y148621D01*
X132926Y149612D01*
Y173612D01*
X132729Y174604D01*
X132168Y175444D01*
X131327Y176005D01*
X130336Y176202D01*
X115336D01*
X114345Y176005D01*
X113505Y175444D01*
X112944Y174604D01*
X112746Y173612D01*
Y169236D01*
X112707Y169200D01*
X112473Y169057D01*
X112042Y168882D01*
X111406Y168711D01*
X110575Y168573D01*
X109974Y168521D01*
X85699D01*
X85098Y168573D01*
X84267Y168711D01*
X83631Y168882D01*
X83200Y169057D01*
X82965Y169200D01*
X82926Y169236D01*
Y174362D01*
X82729Y175353D01*
X82168Y176193D01*
X81327Y176755D01*
X80336Y176952D01*
D02*
G37*
G36*
X102336Y146476D02*
X100107Y146182D01*
X98029Y145322D01*
X96609Y144232D01*
X95827Y144755D01*
X94836Y144952D01*
X83836D01*
X82845Y144755D01*
X82005Y144193D01*
X81444Y143353D01*
X81247Y142362D01*
Y133362D01*
X81444Y132371D01*
X82005Y131531D01*
X82845Y130970D01*
X83836Y130772D01*
X94836D01*
X95827Y130970D01*
X96569Y131465D01*
X96638Y131470D01*
X98029Y130403D01*
X100107Y129542D01*
X102336Y129249D01*
X104566Y129542D01*
X106643Y130403D01*
X108427Y131771D01*
X109796Y133555D01*
X110656Y135633D01*
X110950Y137862D01*
X110656Y140092D01*
X109796Y142169D01*
X108427Y143953D01*
X106643Y145322D01*
X104566Y146182D01*
X102336Y146476D01*
D02*
G37*
G36*
X726002Y143662D02*
X725008Y143482D01*
X724158Y142936D01*
X723582Y142106D01*
X723368Y141118D01*
X723368Y141118D01*
X723353Y140269D01*
X723290Y140212D01*
X723044Y140064D01*
X722604Y139885D01*
X721961Y139714D01*
X721125Y139576D01*
X720523Y139523D01*
X701089D01*
X701089Y139523D01*
X698732Y139054D01*
X696734Y137719D01*
X642006Y82991D01*
X626452D01*
X625806Y83045D01*
X624864Y83190D01*
X624062Y83381D01*
X623402Y83607D01*
X622882Y83854D01*
X622490Y84108D01*
X622204Y84362D01*
X622064Y84534D01*
X618690Y91937D01*
X618100Y92757D01*
X617241Y93288D01*
X616244Y93451D01*
X615260Y93219D01*
X601610Y86999D01*
X600790Y86408D01*
X600259Y85549D01*
X600096Y84552D01*
X600328Y83568D01*
X610280Y61729D01*
X610871Y60909D01*
X611730Y60377D01*
X612728Y60215D01*
X613711Y60446D01*
X627360Y66667D01*
X628181Y67257D01*
X628712Y68116D01*
X628875Y69114D01*
X628837Y69274D01*
X628949Y69733D01*
X629650Y70637D01*
X629720Y70674D01*
X644557D01*
X646914Y71143D01*
X648911Y72478D01*
X703639Y127206D01*
X720397D01*
X720997Y127153D01*
X721824Y127016D01*
X722453Y126846D01*
X722875Y126673D01*
X723097Y126537D01*
X723113Y126521D01*
X723106Y126120D01*
X723286Y125126D01*
X723832Y124276D01*
X724663Y123700D01*
X725650Y123486D01*
X725650Y123486D01*
X749647Y123067D01*
X750641Y123247D01*
X751491Y123793D01*
X752067Y124624D01*
X752281Y125611D01*
X752281Y125611D01*
X752543Y140609D01*
X752363Y141603D01*
X751816Y142453D01*
X750986Y143029D01*
X749999Y143243D01*
X749998Y143243D01*
X726002Y143662D01*
D02*
G37*
G36*
X196003Y156412D02*
X195008Y156232D01*
X194158Y155686D01*
X193582Y154855D01*
X193368Y153868D01*
X193368Y153868D01*
X193106Y138870D01*
X193286Y137876D01*
X193833Y137026D01*
X194663Y136450D01*
X195650Y136236D01*
X195650Y136236D01*
X219647Y135817D01*
X220641Y135997D01*
X221491Y136543D01*
X222067Y137374D01*
X222281Y138361D01*
X222281Y138361D01*
X222296Y139210D01*
X222359Y139268D01*
X222605Y139415D01*
X223045Y139594D01*
X223688Y139765D01*
X224524Y139903D01*
X225126Y139956D01*
X232657D01*
X234119Y139856D01*
X234595Y139796D01*
X234611Y139793D01*
X235095Y139470D01*
X236086Y139272D01*
X247086D01*
X248077Y139470D01*
X248918Y140031D01*
X249479Y140871D01*
X249676Y141862D01*
Y150862D01*
X249479Y151853D01*
X248918Y152694D01*
X248077Y153255D01*
X247086Y153452D01*
X236086D01*
X235095Y153255D01*
X234255Y152694D01*
X234137Y152516D01*
X234003Y152488D01*
X231112Y152273D01*
X225252D01*
X224652Y152326D01*
X223825Y152463D01*
X223196Y152633D01*
X222775Y152806D01*
X222552Y152942D01*
X222536Y152958D01*
X222543Y153359D01*
X222363Y154353D01*
X221817Y155203D01*
X220986Y155779D01*
X219999Y155993D01*
X219999Y155993D01*
X196003Y156412D01*
D02*
G37*
G36*
X571483Y205003D02*
X570472Y204998D01*
X569540Y204608D01*
X568829Y203890D01*
X568446Y202955D01*
X563867Y179396D01*
X563871Y178385D01*
X564262Y177453D01*
X564980Y176742D01*
X565915Y176359D01*
X580639Y173497D01*
X581650Y173502D01*
X582581Y173892D01*
X583293Y174610D01*
X583675Y175545D01*
X584932Y182012D01*
X584940Y182027D01*
X585050Y182153D01*
X585263Y182320D01*
X585624Y182516D01*
X586157Y182717D01*
X586866Y182897D01*
X587746Y183038D01*
X588366Y183092D01*
X628648D01*
X640428Y171311D01*
Y169225D01*
X640375Y168624D01*
X640237Y167792D01*
X640067Y167157D01*
X639891Y166725D01*
X639749Y166491D01*
X639712Y166452D01*
X639086D01*
X638095Y166255D01*
X637255Y165693D01*
X636694Y164853D01*
X636497Y163862D01*
Y139862D01*
X636694Y138871D01*
X637255Y138031D01*
X638095Y137470D01*
X639086Y137273D01*
X654086D01*
X655077Y137470D01*
X655918Y138031D01*
X656479Y138871D01*
X656676Y139862D01*
Y163862D01*
X656479Y164853D01*
X655918Y165693D01*
X655077Y166255D01*
X654086Y166452D01*
X653460D01*
X653424Y166491D01*
X653281Y166725D01*
X653106Y167157D01*
X652935Y167792D01*
X652797Y168624D01*
X652745Y169225D01*
Y173862D01*
X652276Y176219D01*
X650941Y178217D01*
X635553Y193605D01*
X633555Y194940D01*
X631199Y195408D01*
X589760D01*
X589179Y195460D01*
X588814Y195523D01*
X587779Y196658D01*
X588255Y199104D01*
X588251Y200115D01*
X587860Y201047D01*
X587142Y201758D01*
X586207Y202141D01*
X571483Y205003D01*
D02*
G37*
G36*
X624086Y166452D02*
X609086D01*
X608095Y166255D01*
X607255Y165693D01*
X606694Y164853D01*
X606497Y163862D01*
Y158736D01*
X606457Y158700D01*
X606223Y158558D01*
X605792Y158382D01*
X605156Y158211D01*
X604325Y158073D01*
X603724Y158021D01*
X601939D01*
X599582Y157552D01*
X597584Y156217D01*
X581129Y139762D01*
X580951Y139614D01*
X580153Y139660D01*
X579377Y140029D01*
X579376Y140030D01*
X578793Y140855D01*
X577938Y141394D01*
X576943Y141565D01*
X575957Y141342D01*
X562254Y135241D01*
X561429Y134658D01*
X560890Y133803D01*
X560718Y132808D01*
X560941Y131822D01*
X560942Y131822D01*
X570703Y109897D01*
X571286Y109072D01*
X572141Y108532D01*
X573137Y108361D01*
X574122Y108584D01*
X587825Y114685D01*
X588651Y115269D01*
X589190Y116123D01*
X589361Y117119D01*
X589138Y118105D01*
X589138Y118105D01*
X585988Y125179D01*
X585964Y125343D01*
X585973Y125667D01*
X586050Y126075D01*
X586222Y126579D01*
X586509Y127177D01*
X586925Y127859D01*
X587478Y128616D01*
X587892Y129106D01*
X604421Y145635D01*
X605156Y145513D01*
X605792Y145343D01*
X606223Y145167D01*
X606457Y145025D01*
X606497Y144988D01*
Y139862D01*
X606694Y138871D01*
X607255Y138031D01*
X608095Y137470D01*
X609086Y137273D01*
X624086D01*
X625077Y137470D01*
X625918Y138031D01*
X626479Y138871D01*
X626676Y139862D01*
Y163862D01*
X626479Y164853D01*
X625918Y165693D01*
X625077Y166255D01*
X624086Y166452D01*
D02*
G37*
G36*
X476491Y153414D02*
X475496Y153235D01*
X474646Y152688D01*
X474071Y151858D01*
X473856Y150870D01*
X473856Y150870D01*
X473841Y150021D01*
X473779Y149964D01*
X473533Y149816D01*
X473092Y149638D01*
X472450Y149466D01*
X471613Y149328D01*
X471011Y149275D01*
X466341D01*
X463984Y148806D01*
X461986Y147471D01*
X440956Y126441D01*
X439460Y125039D01*
X438242Y124043D01*
X437765Y123702D01*
X424836D01*
X423845Y123505D01*
X423005Y122943D01*
X422444Y122103D01*
X422247Y121112D01*
Y97112D01*
X422444Y96121D01*
X423005Y95281D01*
X423845Y94719D01*
X424836Y94522D01*
X439836D01*
X440827Y94719D01*
X441668Y95281D01*
X442229Y96121D01*
X442426Y97112D01*
Y109232D01*
X442668Y109786D01*
X443126Y110596D01*
X443724Y111477D01*
X445250Y113316D01*
X468892Y136959D01*
X470886D01*
X471485Y136906D01*
X472312Y136768D01*
X472941Y136599D01*
X473363Y136426D01*
X473585Y136289D01*
X473601Y136274D01*
X473594Y135873D01*
X473774Y134878D01*
X474321Y134028D01*
X475151Y133452D01*
X476139Y133238D01*
X476139Y133238D01*
X500135Y132819D01*
X501129Y132999D01*
X501979Y133546D01*
X502555Y134376D01*
X502770Y135363D01*
X502770Y135364D01*
X503031Y150361D01*
X502851Y151355D01*
X502305Y152205D01*
X501474Y152781D01*
X500487Y152996D01*
X500487Y152996D01*
X476491Y153414D01*
D02*
G37*
G36*
X360336Y154452D02*
X336336D01*
X335345Y154255D01*
X334505Y153694D01*
X333944Y152853D01*
X333747Y151862D01*
Y136862D01*
X333944Y135871D01*
X334505Y135031D01*
X335345Y134470D01*
X336336Y134272D01*
X341554D01*
X341557Y134270D01*
X341683Y134057D01*
X341845Y133647D01*
X342004Y133038D01*
X342080Y132565D01*
X326535Y117021D01*
X304949D01*
X304348Y117073D01*
X303517Y117211D01*
X302881Y117382D01*
X302449Y117557D01*
X302215Y117700D01*
X302176Y117736D01*
Y122862D01*
X301979Y123853D01*
X301418Y124693D01*
X300577Y125255D01*
X299586Y125452D01*
X284586D01*
X283595Y125255D01*
X282755Y124693D01*
X282194Y123853D01*
X281997Y122862D01*
Y98862D01*
X282194Y97871D01*
X282755Y97031D01*
X283595Y96469D01*
X284586Y96272D01*
X299586D01*
X300577Y96469D01*
X301418Y97031D01*
X301979Y97871D01*
X302176Y98862D01*
Y103988D01*
X302215Y104025D01*
X302449Y104167D01*
X302881Y104343D01*
X303517Y104513D01*
X304348Y104651D01*
X304949Y104704D01*
X329086D01*
X331443Y105173D01*
X333441Y106508D01*
X352691Y125758D01*
X354026Y127756D01*
X354495Y130112D01*
Y131709D01*
X354540Y132237D01*
X354669Y133038D01*
X354828Y133647D01*
X354990Y134057D01*
X355116Y134270D01*
X355118Y134272D01*
X360336D01*
X361327Y134470D01*
X362168Y135031D01*
X362729Y135871D01*
X362926Y136862D01*
Y151862D01*
X362729Y152853D01*
X362168Y153694D01*
X361327Y154255D01*
X360336Y154452D01*
D02*
G37*
G36*
X599086Y111074D02*
X598836Y111025D01*
X598581D01*
X596143Y110540D01*
X595209Y110153D01*
X593142Y108772D01*
X593142Y108772D01*
X592427Y108057D01*
X591046Y105990D01*
X590659Y105056D01*
X590174Y102618D01*
Y101607D01*
X590659Y99168D01*
X591046Y98235D01*
X592427Y96167D01*
X592427Y96167D01*
X593142Y95453D01*
X595209Y94072D01*
X596142Y93685D01*
X598581Y93200D01*
X598836D01*
X599086Y93150D01*
X599337Y93200D01*
X599592D01*
X602030Y93685D01*
X602964Y94072D01*
X605031Y95453D01*
X605031Y95453D01*
X605746Y96167D01*
X607127Y98235D01*
X607514Y99168D01*
X607999Y101607D01*
Y102618D01*
X607514Y105056D01*
X607127Y105990D01*
X605746Y108057D01*
X605746Y108057D01*
X605031Y108772D01*
X602964Y110153D01*
X602030Y110540D01*
X599592Y111025D01*
X599337D01*
X599086Y111074D01*
D02*
G37*
G36*
X173586Y108075D02*
X173336Y108025D01*
X173081D01*
X170643Y107540D01*
X169709Y107153D01*
X167642Y105772D01*
X167642Y105772D01*
X166927Y105057D01*
X165546Y102990D01*
X165159Y102056D01*
X164674Y99618D01*
Y98607D01*
X165159Y96168D01*
X165546Y95235D01*
X166927Y93168D01*
X166927Y93167D01*
X167642Y92453D01*
X169709Y91072D01*
X170643Y90685D01*
X173081Y90200D01*
X173336D01*
X173586Y90150D01*
X173836Y90200D01*
X174092D01*
X176530Y90685D01*
X177464Y91072D01*
X179531Y92453D01*
X179531Y92453D01*
X180246Y93167D01*
X181627Y95235D01*
X182014Y96168D01*
X182499Y98607D01*
Y99618D01*
X182014Y102056D01*
X181627Y102990D01*
X180246Y105057D01*
X180246Y105057D01*
X179531Y105772D01*
X177464Y107153D01*
X176530Y107540D01*
X174092Y108025D01*
X173836D01*
X173586Y108075D01*
D02*
G37*
G36*
X94836Y128952D02*
X83836D01*
X82845Y128755D01*
X82005Y128194D01*
X81444Y127353D01*
X81247Y126362D01*
Y117362D01*
X81334Y116920D01*
X81335Y116862D01*
X81356Y116813D01*
X81444Y116371D01*
X81724Y115952D01*
X81732Y115933D01*
X81746Y115919D01*
X82005Y115531D01*
X82440Y115241D01*
X82455Y115226D01*
X82472Y115219D01*
X82836Y114976D01*
X82851Y114932D01*
X82976Y114391D01*
X83083Y113680D01*
X83178Y112331D01*
Y105456D01*
X83647Y103100D01*
X84982Y101102D01*
X92724Y93360D01*
X93135Y92872D01*
X93681Y92123D01*
X94088Y91452D01*
X94365Y90870D01*
X94525Y90388D01*
X94592Y90007D01*
X94594Y89715D01*
X94571Y89583D01*
X91275Y82826D01*
X91018Y81849D01*
X91154Y80847D01*
X91663Y79975D01*
X92468Y79363D01*
X105950Y72787D01*
X106927Y72530D01*
X107928Y72666D01*
X108801Y73175D01*
X109413Y73980D01*
X119934Y95551D01*
X120191Y96528D01*
X120055Y97529D01*
X119545Y98402D01*
X118741Y99014D01*
X105259Y105589D01*
X104282Y105847D01*
X103281Y105710D01*
X102408Y105201D01*
X101796Y104397D01*
X101561Y103915D01*
X100463Y103562D01*
X99980Y103571D01*
X99687Y103815D01*
X95495Y108007D01*
Y112551D01*
X95501Y112754D01*
X95585Y113651D01*
X95697Y114391D01*
X95822Y114932D01*
X95836Y114976D01*
X96201Y115219D01*
X96218Y115226D01*
X96233Y115241D01*
X96667Y115531D01*
X96927Y115919D01*
X96940Y115933D01*
X96949Y115952D01*
X97229Y116371D01*
X97317Y116813D01*
X97338Y116862D01*
X97338Y116920D01*
X97426Y117362D01*
Y126362D01*
X97229Y127353D01*
X96667Y128194D01*
X95827Y128755D01*
X94836Y128952D01*
D02*
G37*
G36*
X131246Y92695D02*
X130245Y92558D01*
X129372Y92049D01*
X128760Y91245D01*
X118239Y69674D01*
X117982Y68697D01*
X118118Y67695D01*
X118627Y66823D01*
X119431Y66211D01*
X132913Y59635D01*
X133891Y59378D01*
X134892Y59514D01*
X135765Y60023D01*
X136376Y60828D01*
X137221Y62560D01*
X138461Y62932D01*
X138796Y62892D01*
X139099Y62641D01*
X152982Y48758D01*
X154980Y47423D01*
X157336Y46954D01*
X253974D01*
X254575Y46901D01*
X255406Y46763D01*
X256042Y46593D01*
X256473Y46417D01*
X256707Y46275D01*
X256747Y46238D01*
Y41112D01*
X256944Y40121D01*
X257505Y39281D01*
X258345Y38720D01*
X259336Y38523D01*
X274336D01*
X275327Y38720D01*
X276168Y39281D01*
X276729Y40121D01*
X276926Y41112D01*
Y65112D01*
X276729Y66103D01*
X276168Y66943D01*
X275327Y67505D01*
X274336Y67702D01*
X259336D01*
X258345Y67505D01*
X257505Y66943D01*
X256944Y66103D01*
X256747Y65112D01*
Y59986D01*
X256707Y59950D01*
X256473Y59808D01*
X256042Y59632D01*
X255406Y59461D01*
X254575Y59323D01*
X253974Y59271D01*
X159887D01*
X146069Y73089D01*
X145662Y73572D01*
X145124Y74314D01*
X144724Y74978D01*
X144453Y75554D01*
X144297Y76032D01*
X144232Y76411D01*
X144232Y76707D01*
X144276Y76953D01*
X144399Y77276D01*
X146897Y82399D01*
X147155Y83376D01*
X147018Y84377D01*
X146509Y85250D01*
X145705Y85862D01*
X132223Y92437D01*
X131246Y92695D01*
D02*
G37*
G36*
X211836Y38303D02*
X211669Y38270D01*
X211498Y38281D01*
X208431Y37878D01*
X208110Y37769D01*
X207778Y37703D01*
X204920Y36518D01*
X204638Y36330D01*
X204334Y36181D01*
X201880Y34297D01*
X201656Y34042D01*
X201402Y33819D01*
X199518Y31365D01*
X199368Y31061D01*
X199180Y30779D01*
X197996Y27921D01*
X197930Y27589D01*
X197821Y27268D01*
X197417Y24200D01*
X197439Y23862D01*
X197417Y23524D01*
X197821Y20457D01*
X197930Y20136D01*
X197996Y19804D01*
X199180Y16946D01*
X199368Y16664D01*
X199518Y16360D01*
X200253Y15402D01*
X200615Y14861D01*
X200795Y14681D01*
X200937Y14469D01*
X201078Y14328D01*
X201402Y13906D01*
X201656Y13682D01*
X201880Y13427D01*
X202302Y13103D01*
X202573Y12832D01*
X202785Y12690D01*
X202966Y12510D01*
X203814Y11943D01*
X204334Y11544D01*
X204629Y11399D01*
X204890Y11224D01*
X204897Y11221D01*
X204920Y11206D01*
X205149Y11111D01*
X205338Y10985D01*
X207477Y10099D01*
X207700Y10055D01*
X207778Y10022D01*
X207805Y10017D01*
X207962Y9952D01*
X208351Y9874D01*
X208431Y9847D01*
X208597Y9825D01*
X210232Y9500D01*
X210487D01*
X210738Y9450D01*
X211446D01*
X211498Y9443D01*
X211604Y9450D01*
X211690D01*
X211836Y9421D01*
X211982Y9450D01*
X212069D01*
X212174Y9443D01*
X212227Y9450D01*
X213052D01*
X213302Y9500D01*
X213557D01*
X215827Y9952D01*
X216063Y10049D01*
X216313Y10099D01*
X218452Y10985D01*
X218664Y11126D01*
X218899Y11224D01*
X220824Y12510D01*
X221004Y12690D01*
X221216Y12832D01*
X222853Y14469D01*
X222995Y14681D01*
X223175Y14861D01*
X224461Y16786D01*
X224559Y17021D01*
X224700Y17233D01*
X225586Y19372D01*
X225636Y19622D01*
X225733Y19857D01*
X226185Y22127D01*
Y22383D01*
X226235Y22633D01*
Y23367D01*
X226255Y23524D01*
X226235Y23840D01*
Y23884D01*
X226255Y24200D01*
X226235Y24358D01*
Y24947D01*
X226185Y25197D01*
Y25452D01*
X225906Y26856D01*
X225851Y27268D01*
X225785Y27465D01*
X225733Y27723D01*
X225700Y27803D01*
X225676Y27921D01*
X225612Y28076D01*
X225586Y28208D01*
X224700Y30347D01*
X224625Y30459D01*
X224493Y30779D01*
X224304Y31061D01*
X224154Y31365D01*
X223578Y32116D01*
X223175Y32719D01*
X222995Y32899D01*
X222853Y33111D01*
X222686Y33278D01*
X222271Y33819D01*
X222016Y34042D01*
X221793Y34297D01*
X221252Y34712D01*
X221216Y34748D01*
X221132Y34804D01*
X220950Y34944D01*
X220824Y35070D01*
X220528Y35268D01*
X219339Y36181D01*
X219035Y36330D01*
X218753Y36518D01*
X215895Y37703D01*
X215563Y37769D01*
X215242Y37878D01*
X212174Y38281D01*
X212004Y38270D01*
X211836Y38303D01*
D02*
G37*
G36*
X304336Y67702D02*
X289336D01*
X288345Y67505D01*
X287505Y66943D01*
X286944Y66103D01*
X286747Y65112D01*
Y41112D01*
X286944Y40121D01*
X287505Y39281D01*
X288345Y38720D01*
X289336Y38523D01*
X304336D01*
X305327Y38720D01*
X306168Y39281D01*
X306729Y40121D01*
X306926Y41112D01*
Y46238D01*
X306966Y46275D01*
X307199Y46417D01*
X307631Y46593D01*
X308267Y46763D01*
X309098Y46901D01*
X309699Y46954D01*
X411974D01*
X412575Y46901D01*
X413406Y46763D01*
X414042Y46593D01*
X414473Y46417D01*
X414707Y46275D01*
X414746Y46238D01*
Y37613D01*
X414944Y36622D01*
X415505Y35781D01*
X416345Y35220D01*
X417336Y35023D01*
X432336D01*
X433327Y35220D01*
X434167Y35781D01*
X434729Y36622D01*
X434926Y37613D01*
Y61613D01*
X434729Y62604D01*
X434167Y63444D01*
X433327Y64005D01*
X432336Y64202D01*
X417336D01*
X416345Y64005D01*
X415505Y63444D01*
X414944Y62604D01*
X414746Y61613D01*
Y59986D01*
X414707Y59950D01*
X414473Y59808D01*
X414042Y59632D01*
X413406Y59461D01*
X412575Y59323D01*
X411974Y59271D01*
X309699D01*
X309098Y59323D01*
X308267Y59461D01*
X307631Y59632D01*
X307199Y59808D01*
X306966Y59950D01*
X306926Y59986D01*
Y65112D01*
X306729Y66103D01*
X306168Y66943D01*
X305327Y67505D01*
X304336Y67702D01*
D02*
G37*
%LPD*%
G36*
X573873Y245456D02*
X574083Y245121D01*
X574433Y244826D01*
X574923Y244570D01*
X575553Y244354D01*
X576323Y244177D01*
X577233Y244039D01*
X578283Y243941D01*
X580803Y243862D01*
Y236862D01*
X579473Y236843D01*
X577233Y236685D01*
X576323Y236548D01*
X575553Y236371D01*
X574923Y236154D01*
X574433Y235898D01*
X574083Y235603D01*
X573873Y235269D01*
X573803Y234895D01*
Y245829D01*
X573873Y245456D01*
D02*
G37*
G36*
X324343Y267197D02*
X324554Y266602D01*
X324906Y266077D01*
X325398Y265622D01*
X326031Y265237D01*
X326804Y264922D01*
X327718Y264677D01*
X328772Y264502D01*
X329967Y264397D01*
X331303Y264362D01*
Y257362D01*
X329967Y257327D01*
X328772Y257222D01*
X327718Y257047D01*
X326804Y256802D01*
X326031Y256487D01*
X325398Y256102D01*
X324906Y255647D01*
X324554Y255122D01*
X324343Y254527D01*
X324273Y253862D01*
Y267862D01*
X324343Y267197D01*
D02*
G37*
G36*
X419364Y253862D02*
X419300Y254527D01*
X419094Y255122D01*
X418747Y255647D01*
X418259Y256102D01*
X417629Y256487D01*
X416859Y256802D01*
X415947Y257047D01*
X414894Y257222D01*
X413700Y257327D01*
X412364Y257362D01*
X412425Y264362D01*
X413761Y264397D01*
X414957Y264502D01*
X416013Y264677D01*
X416930Y264922D01*
X417706Y265237D01*
X418342Y265622D01*
X418838Y266077D01*
X419194Y266602D01*
X419410Y267197D01*
X419486Y267862D01*
X419364Y253862D01*
D02*
G37*
G36*
X529545Y244687D02*
X529740Y244514D01*
X529994Y244361D01*
X530306Y244229D01*
X530678Y244117D01*
X531109Y244025D01*
X531600Y243954D01*
X532758Y243873D01*
X533425Y243862D01*
X530591Y236862D01*
X526960Y236845D01*
X529410Y244880D01*
X529545Y244687D01*
D02*
G37*
G36*
X548869Y234895D02*
X548799Y235269D01*
X548589Y235603D01*
X548239Y235898D01*
X547749Y236154D01*
X547119Y236371D01*
X546349Y236548D01*
X545439Y236685D01*
X544389Y236784D01*
X541869Y236862D01*
Y243862D01*
X543199Y243882D01*
X545439Y244039D01*
X546349Y244177D01*
X547119Y244354D01*
X547749Y244570D01*
X548239Y244826D01*
X548589Y245121D01*
X548799Y245456D01*
X548869Y245829D01*
Y234895D01*
D02*
G37*
G36*
X396954Y212670D02*
X398803Y212612D01*
Y205612D01*
X397473Y205593D01*
X396830Y205547D01*
X396770Y202112D01*
X396711Y202777D01*
X396511Y203372D01*
X396168Y203897D01*
X395684Y204352D01*
X395058Y204737D01*
X394290Y205052D01*
X393814Y205180D01*
X393553Y205121D01*
X392923Y204904D01*
X392433Y204648D01*
X392083Y204353D01*
X391873Y204019D01*
X391803Y203645D01*
Y205518D01*
X391136Y205577D01*
X389800Y205612D01*
X389923Y212612D01*
X391259Y212647D01*
X391803Y212695D01*
Y214579D01*
X391873Y214206D01*
X392083Y213871D01*
X392433Y213576D01*
X392923Y213320D01*
X393553Y213104D01*
X393888Y213027D01*
X394432Y213172D01*
X395211Y213487D01*
X395850Y213872D01*
X396350Y214327D01*
X396711Y214852D01*
X396932Y215447D01*
X397014Y216112D01*
X396954Y212670D01*
D02*
G37*
G36*
X257150Y203362D02*
X257080Y204027D01*
X256868Y204622D01*
X256517Y205147D01*
X256025Y205602D01*
X255392Y205987D01*
X254619Y206302D01*
X253705Y206547D01*
X252650Y206722D01*
X251536Y206820D01*
X247423Y206514D01*
X246933Y206388D01*
X246583Y206243D01*
X246373Y206079D01*
X246303Y205895D01*
Y214829D01*
X246373Y214646D01*
X246583Y214481D01*
X246933Y214336D01*
X247423Y214210D01*
X248053Y214104D01*
X248823Y214017D01*
X250783Y213901D01*
X251295Y213893D01*
X251455Y213897D01*
X252650Y214002D01*
X253705Y214177D01*
X254619Y214422D01*
X255392Y214737D01*
X256025Y215122D01*
X256517Y215577D01*
X256868Y216102D01*
X257080Y216697D01*
X257150Y217362D01*
Y203362D01*
D02*
G37*
G36*
X539803Y198921D02*
Y195362D01*
X539110Y195352D01*
X538430Y191856D01*
X538489Y192523D01*
X538394Y193119D01*
X538145Y193644D01*
X537741Y194100D01*
X537183Y194486D01*
X536471Y194801D01*
X535605Y195047D01*
X535471Y195070D01*
X535323Y195048D01*
X534553Y194870D01*
X533923Y194654D01*
X533433Y194398D01*
X533083Y194103D01*
X532873Y193769D01*
X532803Y193395D01*
Y195343D01*
X532080Y195362D01*
X532803Y199081D01*
Y204329D01*
X532873Y203955D01*
X533083Y203621D01*
X533433Y203326D01*
X533923Y203070D01*
X534553Y202854D01*
X535323Y202677D01*
X536232Y202539D01*
X537088Y202677D01*
X538050Y202921D01*
X538884Y203236D01*
X539592Y203620D01*
X540172Y204074D01*
X540626Y204599D01*
X540952Y205193D01*
X541151Y205856D01*
X539803Y198921D01*
D02*
G37*
G36*
X108626Y216489D02*
X108473Y216651D01*
X108203Y216796D01*
X107815Y216923D01*
X107310Y217034D01*
X106687Y217127D01*
X105090Y217264D01*
X101814Y217340D01*
Y224340D01*
X102277Y224349D01*
X103025Y224419D01*
X103311Y224481D01*
X103537Y224560D01*
X103705Y224657D01*
X103814Y224771D01*
X103864Y224904D01*
X103855Y225053D01*
X103786Y225220D01*
X108626Y216489D01*
D02*
G37*
G36*
X366869Y203645D02*
X366799Y204019D01*
X366589Y204353D01*
X366239Y204648D01*
X365749Y204904D01*
X365119Y205121D01*
X364349Y205298D01*
X363439Y205435D01*
X362389Y205534D01*
X362275Y205537D01*
X361011Y205437D01*
X360621Y205360D01*
X360286Y205269D01*
X360008Y205164D01*
X359787Y205045D01*
X359621Y204912D01*
Y213312D01*
X359787Y213179D01*
X360008Y213060D01*
X360286Y212955D01*
X360621Y212864D01*
X361011Y212787D01*
X361458Y212724D01*
X361955Y212685D01*
X363439Y212789D01*
X364349Y212927D01*
X365119Y213104D01*
X365749Y213320D01*
X366239Y213576D01*
X366589Y213871D01*
X366799Y214206D01*
X366869Y214579D01*
Y203645D01*
D02*
G37*
G36*
X94873Y189896D02*
X95083Y189731D01*
X95433Y189586D01*
X95923Y189460D01*
X96553Y189354D01*
X97323Y189267D01*
X98007Y189226D01*
X98603Y189268D01*
X98992Y189337D01*
X99325Y189419D01*
X99600Y189512D01*
X99819Y189618D01*
X99980Y189737D01*
X99955Y189141D01*
X101803Y189112D01*
Y182112D01*
X100473Y182103D01*
X99659Y182042D01*
X99630Y181345D01*
X99464Y181490D01*
X99241Y181621D01*
X98963Y181736D01*
X98628Y181836D01*
X98237Y181920D01*
X98167Y181931D01*
X95923Y181764D01*
X95433Y181639D01*
X95083Y181493D01*
X94873Y181329D01*
X94803Y181145D01*
Y190079D01*
X94873Y189896D01*
D02*
G37*
G36*
X507869Y193395D02*
X507799Y193769D01*
X507589Y194103D01*
X507239Y194398D01*
X506749Y194654D01*
X506119Y194870D01*
X505349Y195048D01*
X504439Y195185D01*
X503389Y195284D01*
X500929Y195360D01*
X500483Y195357D01*
X498359Y195227D01*
X497972Y195167D01*
X497644Y195096D01*
X497374Y195015D01*
X497161Y194923D01*
X497006Y194820D01*
X497706Y203191D01*
X497872Y203033D01*
X498093Y202892D01*
X498370Y202768D01*
X498704Y202661D01*
X499094Y202569D01*
X499539Y202495D01*
X500599Y202395D01*
X501213Y202371D01*
X501331Y202369D01*
X502199Y202382D01*
X504439Y202539D01*
X505349Y202677D01*
X506119Y202854D01*
X506749Y203070D01*
X507239Y203326D01*
X507589Y203621D01*
X507799Y203955D01*
X507869Y204329D01*
Y193395D01*
D02*
G37*
G36*
X196253Y168853D02*
X196119Y168810D01*
X195905Y168677D01*
X195611Y168455D01*
X194783Y167741D01*
X191311Y164387D01*
X188924Y171900D01*
X190352Y173371D01*
X193745Y177408D01*
X194578Y178627D01*
X195262Y179785D01*
X195798Y180879D01*
X196185Y181910D01*
X196424Y182879D01*
X196513Y183785D01*
X196253Y168853D01*
D02*
G37*
G36*
X160343Y167947D02*
X160554Y167352D01*
X160906Y166827D01*
X161398Y166372D01*
X162031Y165987D01*
X162804Y165672D01*
X163718Y165427D01*
X164772Y165252D01*
X165968Y165147D01*
X167303Y165112D01*
Y158112D01*
X165968Y158077D01*
X164772Y157972D01*
X163718Y157797D01*
X162804Y157552D01*
X162031Y157237D01*
X161398Y156852D01*
X160906Y156397D01*
X160554Y155872D01*
X160343Y155277D01*
X160273Y154612D01*
Y168612D01*
X160343Y167947D01*
D02*
G37*
G36*
X302093Y216697D02*
X302304Y216102D01*
X302656Y215577D01*
X303148Y215122D01*
X303780Y214737D01*
X304554Y214422D01*
X305468Y214177D01*
X306522Y214002D01*
X307718Y213897D01*
X309053Y213862D01*
Y206862D01*
X307718Y206827D01*
X306522Y206722D01*
X305468Y206547D01*
X304554Y206302D01*
X303780Y205987D01*
X303148Y205602D01*
X302656Y205147D01*
X302304Y204622D01*
X302093Y204027D01*
X302023Y203362D01*
Y217362D01*
X302093Y216697D01*
D02*
G37*
G36*
X351857Y186305D02*
X352019Y184525D01*
X352162Y183802D01*
X352345Y183190D01*
X352568Y182689D01*
X352832Y182300D01*
X353137Y182021D01*
X353483Y181854D01*
X353869Y181799D01*
X342803D01*
X343190Y181854D01*
X343535Y182021D01*
X343840Y182300D01*
X344104Y182689D01*
X344328Y183190D01*
X344511Y183802D01*
X344653Y184525D01*
X344755Y185359D01*
X344816Y186305D01*
X344836Y187362D01*
X351836D01*
X351857Y186305D01*
D02*
G37*
G36*
X442013Y215435D02*
X442212Y214840D01*
X442551Y214315D01*
X443031Y213860D01*
X443651Y213475D01*
X444413Y213160D01*
X445314Y212915D01*
X446357Y212740D01*
X447540Y212635D01*
X448863Y212600D01*
X448741Y205600D01*
X447416Y205565D01*
X446230Y205460D01*
X445181Y205285D01*
X444271Y205040D01*
X443499Y204725D01*
X442865Y204340D01*
X442369Y203885D01*
X442011Y203360D01*
X441792Y202765D01*
X441711Y202100D01*
X441955Y216100D01*
X442013Y215435D01*
D02*
G37*
G36*
X482576Y184371D02*
X484912Y182429D01*
X485995Y181690D01*
X487022Y181106D01*
X487993Y180676D01*
X488907Y180402D01*
X489764Y180282D01*
X490566Y180317D01*
X491310Y180507D01*
X476934Y175146D01*
X477530Y175484D01*
X477884Y175966D01*
X477998Y176590D01*
X477870Y177357D01*
X477501Y178267D01*
X476891Y179320D01*
X476040Y180516D01*
X474947Y181855D01*
X472038Y184961D01*
X481324Y185575D01*
X482576Y184371D01*
D02*
G37*
G36*
X245930Y189825D02*
X245596Y189615D01*
X245301Y189265D01*
X245045Y188775D01*
X244829Y188145D01*
X244652Y187375D01*
X244514Y186465D01*
X244415Y185415D01*
X244402Y184993D01*
X244460Y184158D01*
X244529Y183711D01*
X244613Y183320D01*
X244713Y182986D01*
X244828Y182707D01*
X244959Y182485D01*
X245105Y182318D01*
X236712Y181969D01*
X236831Y182130D01*
X236937Y182349D01*
X237031Y182624D01*
X237112Y182957D01*
X237181Y183346D01*
X237281Y184296D01*
X237292Y184576D01*
X237160Y186465D01*
X237022Y187375D01*
X236845Y188145D01*
X236629Y188775D01*
X236373Y189265D01*
X236078Y189615D01*
X235744Y189825D01*
X235370Y189895D01*
X246304D01*
X245930Y189825D01*
D02*
G37*
G36*
X244591Y173577D02*
X245286D01*
X245153Y173412D01*
X245034Y173190D01*
X244929Y172912D01*
X244838Y172578D01*
X244761Y172187D01*
X244698Y171740D01*
X244689Y171618D01*
X244808Y170259D01*
X244981Y169349D01*
X245203Y168579D01*
X245474Y167949D01*
X245795Y167459D01*
X246165Y167109D01*
X246585Y166899D01*
X247053Y166829D01*
X236119D01*
X236398Y166899D01*
X236647Y167109D01*
X236868Y167459D01*
X237058Y167949D01*
X237220Y168579D01*
X237352Y169349D01*
X237454Y170259D01*
X237498Y171092D01*
X237411Y172187D01*
X237334Y172578D01*
X237243Y172912D01*
X237138Y173190D01*
X237019Y173412D01*
X236886Y173577D01*
X237584D01*
X237586Y173829D01*
X244586D01*
X244591Y173577D01*
D02*
G37*
G36*
X646273Y219509D02*
X646106Y218835D01*
X646077Y218123D01*
X646184Y217374D01*
X646428Y216588D01*
X646808Y215763D01*
X647324Y214901D01*
X647977Y214000D01*
X648767Y213063D01*
X649693Y212087D01*
X645977Y205903D01*
X645014Y206817D01*
X644113Y207569D01*
X643274Y208160D01*
X642497Y208590D01*
X641783Y208858D01*
X641131Y208964D01*
X640541Y208910D01*
X640013Y208693D01*
X639547Y208316D01*
X639144Y207777D01*
X646575Y220145D01*
X646273Y219509D01*
D02*
G37*
G36*
X732088Y174619D02*
X734424Y172677D01*
X735507Y171938D01*
X736534Y171353D01*
X737505Y170924D01*
X738419Y170650D01*
X739276Y170530D01*
X740078Y170565D01*
X740822Y170755D01*
X726445Y165393D01*
X727041Y165732D01*
X727396Y166214D01*
X727510Y166838D01*
X727382Y167605D01*
X727013Y168515D01*
X726403Y169568D01*
X725552Y170764D01*
X724459Y172103D01*
X721550Y175208D01*
X730835Y175823D01*
X732088Y174619D01*
D02*
G37*
G36*
X115400Y155362D02*
X115330Y156027D01*
X115119Y156622D01*
X114767Y157147D01*
X114275Y157602D01*
X113642Y157987D01*
X112869Y158302D01*
X111955Y158547D01*
X110900Y158722D01*
X109705Y158827D01*
X108369Y158862D01*
Y165862D01*
X109705Y165897D01*
X110900Y166002D01*
X111955Y166177D01*
X112869Y166422D01*
X113642Y166737D01*
X114275Y167122D01*
X114767Y167577D01*
X115119Y168102D01*
X115330Y168697D01*
X115400Y169362D01*
Y155362D01*
D02*
G37*
G36*
X80343Y168697D02*
X80554Y168102D01*
X80906Y167577D01*
X81398Y167122D01*
X82030Y166737D01*
X82804Y166422D01*
X83718Y166177D01*
X84772Y166002D01*
X85968Y165897D01*
X87303Y165862D01*
Y158862D01*
X85968Y158827D01*
X84772Y158722D01*
X83718Y158547D01*
X82804Y158302D01*
X82030Y157987D01*
X81398Y157602D01*
X80906Y157147D01*
X80554Y156622D01*
X80343Y156027D01*
X80273Y155362D01*
Y169362D01*
X80343Y168697D01*
D02*
G37*
G36*
X94873Y142146D02*
X95083Y141981D01*
X95433Y141836D01*
X95923Y141710D01*
X96553Y141604D01*
X96837Y141572D01*
X97052Y141614D01*
X97386Y141705D01*
X97664Y141810D01*
X97886Y141929D01*
X98052Y142062D01*
Y141474D01*
X99283Y141401D01*
X101803Y141362D01*
Y134362D01*
X100473Y134353D01*
X98052Y134172D01*
Y133662D01*
X97886Y133795D01*
X97664Y133914D01*
X97386Y134019D01*
X97087Y134101D01*
X95923Y134014D01*
X95433Y133889D01*
X95083Y133743D01*
X94873Y133579D01*
X94803Y133395D01*
Y134342D01*
X93863Y134362D01*
X93863Y141362D01*
X94535Y141369D01*
X94803Y141390D01*
Y142329D01*
X94873Y142146D01*
D02*
G37*
G36*
X725764Y126364D02*
X725705Y127029D01*
X725505Y127624D01*
X725162Y128149D01*
X724678Y128604D01*
X724052Y128989D01*
X723284Y129304D01*
X722374Y129550D01*
X721323Y129725D01*
X720130Y129830D01*
X718794Y129865D01*
X718917Y136865D01*
X720253Y136899D01*
X721450Y137004D01*
X722508Y137179D01*
X723426Y137424D01*
X724205Y137739D01*
X724844Y138124D01*
X725344Y138579D01*
X725705Y139104D01*
X725926Y139699D01*
X726008Y140364D01*
X725764Y126364D01*
D02*
G37*
G36*
X619846Y83158D02*
X620327Y82565D01*
X620917Y82042D01*
X621616Y81588D01*
X622424Y81205D01*
X623341Y80891D01*
X624366Y80647D01*
X625501Y80472D01*
X626744Y80368D01*
X628096Y80333D01*
X631286Y73333D01*
X629966Y73298D01*
X628818Y73192D01*
X627843Y73017D01*
X627041Y72771D01*
X626412Y72455D01*
X625955Y72068D01*
X625670Y71612D01*
X625559Y71085D01*
X625620Y70487D01*
X625854Y69820D01*
X619473Y83820D01*
X619846Y83158D01*
D02*
G37*
G36*
X236119Y141895D02*
X236049Y142032D01*
X235839Y142154D01*
X235489Y142262D01*
X234999Y142356D01*
X234369Y142435D01*
X232689Y142550D01*
X229119Y142614D01*
Y149615D01*
X230449Y149627D01*
X234369Y149918D01*
X234999Y150052D01*
X235489Y150210D01*
X235839Y150392D01*
X236049Y150598D01*
X236119Y150829D01*
Y141895D01*
D02*
G37*
G36*
X219944Y152450D02*
X220144Y151855D01*
X220487Y151330D01*
X220971Y150875D01*
X221597Y150490D01*
X222365Y150175D01*
X223274Y149930D01*
X224326Y149755D01*
X225519Y149650D01*
X226854Y149615D01*
X226732Y142614D01*
X225396Y142579D01*
X224199Y142475D01*
X223141Y142300D01*
X222223Y142055D01*
X221444Y141740D01*
X220805Y141355D01*
X220305Y140900D01*
X219944Y140375D01*
X219723Y139780D01*
X219641Y139115D01*
X219885Y153115D01*
X219944Y152450D01*
D02*
G37*
G36*
X584939Y195590D02*
X585034Y194994D01*
X585284Y194468D01*
X585687Y194012D01*
X586245Y193626D01*
X586957Y193311D01*
X587823Y193066D01*
X588844Y192890D01*
X590019Y192785D01*
X591348Y192750D01*
X589987Y185750D01*
X588644Y185715D01*
X587429Y185610D01*
X586340Y185436D01*
X585379Y185191D01*
X584544Y184876D01*
X583837Y184492D01*
X583256Y184038D01*
X582803Y183514D01*
X582476Y182920D01*
X582277Y182256D01*
X584998Y196256D01*
X584939Y195590D01*
D02*
G37*
G36*
X650121Y169494D02*
X650226Y168298D01*
X650401Y167244D01*
X650646Y166330D01*
X650961Y165557D01*
X651346Y164924D01*
X651801Y164432D01*
X652326Y164080D01*
X652921Y163869D01*
X653586Y163799D01*
X639586D01*
X640251Y163869D01*
X640846Y164080D01*
X641371Y164432D01*
X641826Y164924D01*
X642211Y165557D01*
X642526Y166330D01*
X642771Y167244D01*
X642946Y168298D01*
X643051Y169494D01*
X643086Y170829D01*
X650086D01*
X650121Y169494D01*
D02*
G37*
G36*
X609150Y144862D02*
X609080Y145527D01*
X608869Y146122D01*
X608517Y146647D01*
X608025Y147102D01*
X607392Y147487D01*
X606619Y147802D01*
X605705Y148047D01*
X604650Y148222D01*
X603455Y148327D01*
X602119Y148362D01*
Y155362D01*
X603455Y155397D01*
X604650Y155502D01*
X605705Y155677D01*
X606619Y155922D01*
X607392Y156237D01*
X608025Y156622D01*
X608517Y157077D01*
X608869Y157602D01*
X609080Y158197D01*
X609150Y158862D01*
Y144862D01*
D02*
G37*
G36*
X587170Y132144D02*
X586240Y131165D01*
X585440Y130217D01*
X584771Y129300D01*
X584230Y128415D01*
X583820Y127561D01*
X583540Y126737D01*
X583389Y125946D01*
X583369Y125185D01*
X583478Y124455D01*
X583717Y123757D01*
X577618Y137456D01*
X577958Y136853D01*
X578367Y136418D01*
X578845Y136152D01*
X579392Y136053D01*
X580008Y136123D01*
X580693Y136361D01*
X581446Y136767D01*
X582269Y137341D01*
X583160Y138083D01*
X584120Y138994D01*
X587170Y132144D01*
D02*
G37*
G36*
X476252Y136116D02*
X476194Y136781D01*
X475993Y137376D01*
X475651Y137902D01*
X475167Y138357D01*
X474540Y138742D01*
X473773Y139057D01*
X472863Y139302D01*
X471811Y139477D01*
X470618Y139582D01*
X469283Y139617D01*
X469405Y146617D01*
X470742Y146652D01*
X471939Y146757D01*
X472996Y146932D01*
X473914Y147177D01*
X474693Y147492D01*
X475333Y147877D01*
X475833Y148332D01*
X476193Y148856D01*
X476415Y149451D01*
X476497Y150116D01*
X476252Y136116D01*
D02*
G37*
G36*
X444753Y116579D02*
X443566Y115343D01*
X441651Y113034D01*
X440924Y111962D01*
X440349Y110945D01*
X439927Y109983D01*
X439659Y109075D01*
X439544Y108222D01*
X439582Y107423D01*
X439773Y106680D01*
X434404Y121049D01*
X434744Y120454D01*
X435228Y120102D01*
X435857Y119993D01*
X436630Y120127D01*
X437548Y120503D01*
X438610Y121123D01*
X439817Y121985D01*
X441168Y123090D01*
X444303Y126029D01*
X444753Y116579D01*
D02*
G37*
G36*
X354496Y136827D02*
X353937Y136624D01*
X353445Y136285D01*
X353018Y135810D01*
X352657Y135199D01*
X352362Y134453D01*
X352132Y133572D01*
X351968Y132554D01*
X351869Y131401D01*
X351836Y130112D01*
X344836D01*
X344804Y131401D01*
X344705Y132554D01*
X344541Y133572D01*
X344311Y134453D01*
X344016Y135199D01*
X343655Y135810D01*
X343228Y136285D01*
X342735Y136624D01*
X342177Y136827D01*
X341553Y136895D01*
X355119D01*
X354496Y136827D01*
D02*
G37*
G36*
X299593Y117197D02*
X299804Y116602D01*
X300156Y116077D01*
X300648Y115622D01*
X301280Y115237D01*
X302054Y114922D01*
X302968Y114677D01*
X304022Y114502D01*
X305218Y114397D01*
X306553Y114362D01*
Y107362D01*
X305218Y107327D01*
X304022Y107222D01*
X302968Y107047D01*
X302054Y106802D01*
X301280Y106487D01*
X300648Y106102D01*
X300156Y105647D01*
X299804Y105122D01*
X299593Y104527D01*
X299523Y103862D01*
Y117862D01*
X299593Y117197D01*
D02*
G37*
G36*
X94430Y117325D02*
X94095Y117115D01*
X93800Y116765D01*
X93544Y116275D01*
X93328Y115645D01*
X93151Y114875D01*
X93013Y113965D01*
X92915Y112915D01*
X92836Y110395D01*
X85836D01*
X85817Y111725D01*
X85659Y113965D01*
X85522Y114875D01*
X85345Y115645D01*
X85128Y116275D01*
X84873Y116765D01*
X84578Y117115D01*
X84243Y117325D01*
X83869Y117395D01*
X94803D01*
X94430Y117325D01*
D02*
G37*
G36*
X97654Y102138D02*
X98548Y101393D01*
X99376Y100814D01*
X100136Y100401D01*
X100829Y100154D01*
X101456Y100073D01*
X102016Y100159D01*
X102508Y100411D01*
X102934Y100829D01*
X103293Y101413D01*
X96802Y88105D01*
X97060Y88785D01*
X97186Y89498D01*
X97180Y90245D01*
X97042Y91024D01*
X96773Y91836D01*
X96371Y92682D01*
X95838Y93561D01*
X95173Y94472D01*
X94376Y95417D01*
X93448Y96395D01*
X96693Y103049D01*
X97654Y102138D01*
D02*
G37*
G36*
X141770Y77649D02*
X141641Y76934D01*
X141643Y76187D01*
X141777Y75409D01*
X142041Y74598D01*
X142437Y73756D01*
X142963Y72882D01*
X143621Y71976D01*
X144410Y71038D01*
X145330Y70069D01*
X142084Y63415D01*
X141132Y64318D01*
X140246Y65056D01*
X139426Y65629D01*
X138672Y66037D01*
X137984Y66281D01*
X137363Y66359D01*
X136808Y66273D01*
X136319Y66021D01*
X135896Y65605D01*
X135539Y65024D01*
X142030Y78332D01*
X141770Y77649D01*
D02*
G37*
G36*
X259400Y46112D02*
X259329Y46777D01*
X259119Y47372D01*
X258767Y47897D01*
X258275Y48352D01*
X257642Y48737D01*
X256869Y49052D01*
X255955Y49297D01*
X254900Y49472D01*
X253705Y49577D01*
X252369Y49612D01*
Y56612D01*
X253705Y56647D01*
X254900Y56752D01*
X255955Y56927D01*
X256869Y57172D01*
X257642Y57487D01*
X258275Y57872D01*
X258767Y58327D01*
X259119Y58852D01*
X259329Y59447D01*
X259400Y60112D01*
Y46112D01*
D02*
G37*
G36*
X417400D02*
X417329Y46777D01*
X417118Y47372D01*
X416767Y47897D01*
X416275Y48352D01*
X415642Y48737D01*
X414869Y49052D01*
X413955Y49297D01*
X412900Y49472D01*
X411705Y49577D01*
X410369Y49612D01*
Y56612D01*
X411705Y56647D01*
X412900Y56752D01*
X413955Y56927D01*
X414869Y57172D01*
X415642Y57487D01*
X416275Y57872D01*
X416767Y58327D01*
X417118Y58852D01*
X417329Y59447D01*
X417400Y60112D01*
Y46112D01*
D02*
G37*
G36*
X304343Y59447D02*
X304554Y58852D01*
X304906Y58327D01*
X305398Y57872D01*
X306031Y57487D01*
X306804Y57172D01*
X307718Y56927D01*
X308772Y56752D01*
X309968Y56647D01*
X311303Y56612D01*
Y49612D01*
X309968Y49577D01*
X308772Y49472D01*
X307718Y49297D01*
X306804Y49052D01*
X306031Y48737D01*
X305398Y48352D01*
X304906Y47897D01*
X304554Y47372D01*
X304343Y46777D01*
X304273Y46112D01*
Y60112D01*
X304343Y59447D01*
D02*
G37*
D10*
X454836Y49612D02*
D03*
X424836Y49613D02*
D03*
X294586Y210362D02*
D03*
X264586Y210362D02*
D03*
X316836Y260862D02*
D03*
X286836D02*
D03*
X122836Y161612D02*
D03*
X152836Y161612D02*
D03*
X42836Y162362D02*
D03*
X72836Y162362D02*
D03*
X296836Y53112D02*
D03*
X266836D02*
D03*
X262086Y110862D02*
D03*
X292086Y110862D02*
D03*
X402336Y109112D02*
D03*
X432336Y109112D02*
D03*
X616586Y151862D02*
D03*
X646586D02*
D03*
X516008Y512074D02*
D03*
X546008Y512073D02*
D03*
X547758Y411573D02*
D03*
X517758Y411574D02*
D03*
X375508Y510574D02*
D03*
X405508Y510574D02*
D03*
X407758Y411073D02*
D03*
X377758Y411074D02*
D03*
X162758Y453324D02*
D03*
X192759Y453324D02*
D03*
X687508Y463324D02*
D03*
X657508Y463324D02*
D03*
D11*
X208348Y176110D02*
D03*
X207825Y146115D02*
D03*
X737824Y133364D02*
D03*
X738348Y163360D02*
D03*
X488313Y143117D02*
D03*
X488836Y173112D02*
D03*
D12*
X241586Y162362D02*
D03*
Y146362D02*
D03*
X240837Y194362D02*
D03*
X240836Y210362D02*
D03*
X89336Y185612D02*
D03*
Y201612D02*
D03*
Y137862D02*
D03*
Y121862D02*
D03*
X568008Y454574D02*
D03*
Y438574D02*
D03*
Y479824D02*
D03*
Y495824D02*
D03*
X713259Y491074D02*
D03*
Y507074D02*
D03*
X713509Y430824D02*
D03*
Y414824D02*
D03*
D13*
X348336Y144362D02*
D03*
X348336Y174362D02*
D03*
X461758Y445323D02*
D03*
Y475324D02*
D03*
X322008Y444073D02*
D03*
X322009Y474074D02*
D03*
X602009Y477823D02*
D03*
X602009Y447824D02*
D03*
D14*
X371336Y209112D02*
D03*
X387336D02*
D03*
X512336Y198862D02*
D03*
X528336D02*
D03*
X553336Y240362D02*
D03*
X569336D02*
D03*
X454508Y514074D02*
D03*
X438508D02*
D03*
X304508Y511824D02*
D03*
X288508D02*
D03*
X249758Y544324D02*
D03*
X233759D02*
D03*
D15*
X140956Y235385D02*
D03*
X114717Y220840D02*
D03*
X172639Y521051D02*
D03*
X198878Y535596D02*
D03*
D16*
X587187Y64392D02*
D03*
X614486Y76833D02*
D03*
D17*
X456836Y257731D02*
D03*
X426837Y257993D02*
D03*
D18*
X132568Y76036D02*
D03*
X105604Y89188D02*
D03*
X222240Y364998D02*
D03*
X195277Y378149D02*
D03*
D19*
X637444Y219387D02*
D03*
X611729Y234838D02*
D03*
D20*
X434334Y209100D02*
D03*
X404339Y209624D02*
D03*
D21*
X576061Y189250D02*
D03*
X546612Y194974D02*
D03*
D22*
X547633Y112761D02*
D03*
X575040Y124963D02*
D03*
D23*
X89336Y185612D02*
X104086D01*
X89336Y137862D02*
X102336D01*
X102336Y137862D01*
X89336Y201612D02*
Y208362D01*
X101814Y220840D01*
X114717D01*
X140956Y235385D02*
X166434Y260862D01*
X286836D01*
X316836D02*
X423968D01*
X426837Y257993D01*
X72836Y162362D02*
X122086D01*
X122836Y161612D01*
X198084Y176110D02*
X208348D01*
X183586Y161612D02*
X198084Y176110D01*
X152836Y161612D02*
X183586D01*
X89336Y105456D02*
Y121862D01*
Y105456D02*
X105604Y89188D01*
X132568Y76036D02*
X134412D01*
X157336Y53112D01*
X266836D01*
X296836D02*
X421337D01*
X424836Y49613D01*
X294586Y210362D02*
X325336D01*
X348336Y187362D01*
Y174362D02*
Y187362D01*
X348336Y130112D02*
Y144362D01*
X329086Y110862D02*
X348336Y130112D01*
X292086Y110862D02*
X329086D01*
X434334Y209100D02*
X452848D01*
X488836Y173112D01*
X466341Y143117D02*
X488313D01*
X432336Y109112D02*
X466341Y143117D01*
X576061Y189250D02*
X631199D01*
X646586Y173862D01*
Y151862D02*
Y173862D01*
X601939Y151862D02*
X616586D01*
X575040Y124963D02*
X601939Y151862D01*
X637444Y219387D02*
X673968Y182862D01*
X718846D01*
X738348Y163360D01*
X701089Y133364D02*
X737824D01*
X644557Y76833D02*
X701089Y133364D01*
X614486Y76833D02*
X644557D01*
X241339Y146115D02*
X241586Y146362D01*
X207825Y146115D02*
X241339D01*
X240836Y210362D02*
X264586D01*
X264586Y210362D01*
X387336Y209112D02*
X403827D01*
X404339Y209624D01*
X528336Y198862D02*
X542724D01*
X546612Y194974D01*
X355336Y209112D02*
X371336D01*
X240837Y178112D02*
Y194362D01*
Y178112D02*
X241086Y177862D01*
X493586Y198862D02*
X512336D01*
X493086Y199362D02*
X493586Y198862D01*
X241086Y162862D02*
Y177862D01*
Y162862D02*
X241586Y162362D01*
X569336Y240362D02*
X606205D01*
X611729Y234838D01*
X525836Y240362D02*
X553336D01*
X524086Y242112D02*
X525836Y240362D01*
X694499Y521574D02*
X708999Y507074D01*
X713259D01*
X251008Y543074D02*
X274758D01*
X249758Y544324D02*
X251008Y543074D01*
X306509Y513824D02*
X331259D01*
X304508Y511824D02*
X306509Y513824D01*
X454758D02*
X469258D01*
X454508Y514074D02*
X454758Y513824D01*
X567758Y467574D02*
Y479574D01*
X568008Y479824D01*
X567758Y454824D02*
Y467574D01*
Y454824D02*
X568008Y454574D01*
X590009Y536573D02*
X668518D01*
X564746Y561836D02*
X590009Y536573D01*
X523756Y561836D02*
X564746D01*
X385717Y561311D02*
X493761D01*
X383754Y559348D02*
X385717Y561311D01*
X704797Y390281D02*
X713509Y398993D01*
Y414824D01*
X707009Y478574D02*
Y484824D01*
X713259Y491074D01*
X699008Y430824D02*
X713509D01*
X697758Y432074D02*
X699008Y430824D01*
X737522Y463324D02*
X737761Y463562D01*
X687508Y463324D02*
X737522D01*
X602009Y477823D02*
X643009D01*
X657508Y463324D01*
X568008Y438574D02*
X592758D01*
X602009Y447824D01*
X654939Y354585D02*
X677720Y377366D01*
X543506Y354585D02*
X654939D01*
X551759Y512073D02*
X568008Y495824D01*
X546008Y512073D02*
X551759D01*
X498509Y512074D02*
X516008D01*
X461758Y475324D02*
X498509Y512074D01*
X461758Y445323D02*
X495508Y411574D01*
X517758D01*
X409009Y514074D02*
X438508D01*
X405508Y510574D02*
X409009Y514074D01*
X358509Y510574D02*
X375508D01*
X322009Y474074D02*
X358509Y510574D01*
X322008Y444073D02*
X344759D01*
X377758Y411074D01*
X510534Y351085D02*
X513511Y354062D01*
X385756Y351085D02*
X510534D01*
X279926Y511824D02*
X288508D01*
X263781Y495678D02*
X279926Y511824D01*
X229904Y490469D02*
X234236D01*
X192759Y453324D02*
X229904Y490469D01*
X162758Y438824D02*
Y453324D01*
Y438824D02*
X174907Y426675D01*
X235305D01*
X128947Y378149D02*
X195277D01*
X72770Y434326D02*
X128947Y378149D01*
X72247Y464321D02*
X128977Y521051D01*
X172639D01*
X207606Y544324D02*
X233759D01*
X198878Y535596D02*
X207606Y544324D01*
D24*
X234236Y490469D02*
D03*
X263781Y495678D02*
D03*
D25*
X72770Y434326D02*
D03*
X72247Y464321D02*
D03*
D26*
X353758Y558824D02*
D03*
X383754Y559348D02*
D03*
X513511Y354062D02*
D03*
X543506Y354585D02*
D03*
X355761Y350562D02*
D03*
X385756Y351085D02*
D03*
X493761Y561311D02*
D03*
X523756Y561836D02*
D03*
X767756Y464086D02*
D03*
X737761Y463562D02*
D03*
D27*
X677720Y377366D02*
D03*
X704797Y390281D02*
D03*
D28*
X668518Y536573D02*
D03*
X694499Y521574D02*
D03*
D29*
X262712Y414472D02*
D03*
X235305Y426675D02*
D03*
D30*
X229336Y243362D02*
D03*
X206086Y73112D02*
D03*
X68836Y113362D02*
D03*
X70086Y213862D02*
D03*
X678836Y154362D02*
D03*
X635086Y111362D02*
D03*
X182336Y242112D02*
D03*
X532586Y155112D02*
D03*
X353336Y38862D02*
D03*
X217836Y102862D02*
D03*
X290836Y161362D02*
D03*
X521836Y38862D02*
D03*
X363836Y248612D02*
D03*
X417086Y160862D02*
D03*
X348336Y98862D02*
D03*
X502586Y83112D02*
D03*
X689336Y210862D02*
D03*
X682336Y82362D02*
D03*
X509836Y255862D02*
D03*
X102336Y137862D02*
D03*
X104086Y185362D02*
D03*
X524086Y242112D02*
D03*
X355336Y209112D02*
D03*
X241086Y177862D02*
D03*
X493086Y199362D02*
D03*
X597509Y386324D02*
D03*
X151258Y548324D02*
D03*
X449509Y388324D02*
D03*
X323259Y397324D02*
D03*
X519509Y455074D02*
D03*
X394008D02*
D03*
X600009Y560324D02*
D03*
X322758Y563324D02*
D03*
X126758Y457574D02*
D03*
X37508Y440574D02*
D03*
X741009Y420824D02*
D03*
X274758Y543074D02*
D03*
X567758Y467574D02*
D03*
X469258Y513824D02*
D03*
X331259D02*
D03*
X707009Y478574D02*
D03*
X697758Y432074D02*
D03*
X281758Y460574D02*
D03*
X90259Y386074D02*
D03*
X155508Y404824D02*
D03*
X193759Y492074D02*
D03*
X604509Y514824D02*
D03*
X670508Y342074D02*
D03*
X458508Y336074D02*
D03*
X289508Y343824D02*
D03*
M02*
