M48
;Layer_Color=9474304
;FILE_FORMAT=2:5
INCH,LZ
;TYPE=PLATED
T1F00S00C0.01968
T2F00S00C0.04921
T3F00S00C0.09252
%
T01
X0081136Y0028784
X0085762Y0040497
X013714Y0038922
X0139109Y00153
X0205447
X0197869Y0032721
X0268636Y0032426
X0267258Y0060773
X0271392Y0083017
X026398Y0134675
X0274708Y0170108
X0291736Y0165679
X027835Y0188415
X0223527Y0184084
X0204531Y0179163
X0155121
X0110928Y0181328
X0127267Y0156427
X011398Y0135364
X0143243Y0097879
X0139896Y0082328
X0164207Y0063332
X0194129Y0078489
X0200723Y0100733
X0206333Y009532
X020968Y0061068
X0250034Y0043843
X023524Y0152096
X0176972Y0152883
X0180515Y0132312
X0114503Y0063529
X0094916Y0070025
X009029Y0095812
X0071786Y009532
X0040979Y0072977
X004029Y0054277
X0027101Y0044631
X0027593Y0084198
X0035535Y0151997
X0061224Y0159379
X0049905Y0180147
X0076283Y019373
X0014767Y0173454
X0059551Y0215875
X0108173Y0213808
X012707Y0221781
X0130417Y0202293
X0184747
X0237996Y0202686
X0236224Y02206
T02
X0068341Y0039021
X0235861Y0040202
X0236255Y0082328
X0250594Y0157608
X0083074Y015869
X0068833Y0085871
X008268Y0200816
X02502Y0204458
T03
X00834Y0009395
X0230054Y0109198
X0235535Y0127883
X0088881Y0227686
M30
