G04 Layer_Color=8388736*
%FSLAX44Y44*%
%MOMM*%
G71*
G01*
G75*
%ADD36R,1.7032X2.6032*%
G04:AMPARAMS|DCode=37|XSize=2.6032mm|YSize=1.7032mm|CornerRadius=0mm|HoleSize=0mm|Usage=FLASHONLY|Rotation=179.000|XOffset=0mm|YOffset=0mm|HoleType=Round|Shape=Rectangle|*
%AMROTATEDRECTD37*
4,1,4,1.3163,0.8288,1.2865,-0.8742,-1.3163,-0.8288,-1.2865,0.8742,1.3163,0.8288,0.0*
%
%ADD37ROTATEDRECTD37*%

%ADD38R,1.3032X1.1032*%
%ADD39R,2.6032X1.7032*%
%ADD40R,1.1032X1.3032*%
G04:AMPARAMS|DCode=41|XSize=2.6032mm|YSize=1.7032mm|CornerRadius=0mm|HoleSize=0mm|Usage=FLASHONLY|Rotation=119.000|XOffset=0mm|YOffset=0mm|HoleType=Round|Shape=Rectangle|*
%AMROTATEDRECTD41*
4,1,4,1.3759,-0.7255,-0.1138,-1.5513,-1.3759,0.7255,0.1138,1.5513,1.3759,-0.7255,0.0*
%
%ADD41ROTATEDRECTD41*%

G04:AMPARAMS|DCode=42|XSize=2.6032mm|YSize=1.7032mm|CornerRadius=0mm|HoleSize=0mm|Usage=FLASHONLY|Rotation=294.500|XOffset=0mm|YOffset=0mm|HoleType=Round|Shape=Rectangle|*
%AMROTATEDRECTD42*
4,1,4,-1.3147,0.8313,0.2352,1.5376,1.3147,-0.8313,-0.2352,-1.5376,-1.3147,0.8313,0.0*
%
%ADD42ROTATEDRECTD42*%

G04:AMPARAMS|DCode=43|XSize=2.6032mm|YSize=1.7032mm|CornerRadius=0mm|HoleSize=0mm|Usage=FLASHONLY|Rotation=89.500|XOffset=0mm|YOffset=0mm|HoleType=Round|Shape=Rectangle|*
%AMROTATEDRECTD43*
4,1,4,0.8402,-1.3090,-0.8629,-1.2941,-0.8402,1.3090,0.8629,1.2941,0.8402,-1.3090,0.0*
%
%ADD43ROTATEDRECTD43*%

G04:AMPARAMS|DCode=44|XSize=2.6032mm|YSize=1.7032mm|CornerRadius=0mm|HoleSize=0mm|Usage=FLASHONLY|Rotation=64.000|XOffset=0mm|YOffset=0mm|HoleType=Round|Shape=Rectangle|*
%AMROTATEDRECTD44*
4,1,4,0.1948,-1.5432,-1.3360,-0.7965,-0.1948,1.5432,1.3360,0.7965,0.1948,-1.5432,0.0*
%
%ADD44ROTATEDRECTD44*%

G04:AMPARAMS|DCode=45|XSize=2.6032mm|YSize=1.7032mm|CornerRadius=0mm|HoleSize=0mm|Usage=FLASHONLY|Rotation=59.000|XOffset=0mm|YOffset=0mm|HoleType=Round|Shape=Rectangle|*
%AMROTATEDRECTD45*
4,1,4,0.0596,-1.5543,-1.4003,-0.6771,-0.0596,1.5543,1.4003,0.6771,0.0596,-1.5543,0.0*
%
%ADD45ROTATEDRECTD45*%

G04:AMPARAMS|DCode=46|XSize=2.6032mm|YSize=1.7032mm|CornerRadius=0mm|HoleSize=0mm|Usage=FLASHONLY|Rotation=89.000|XOffset=0mm|YOffset=0mm|HoleType=Round|Shape=Rectangle|*
%AMROTATEDRECTD46*
4,1,4,0.8288,-1.3163,-0.8742,-1.2865,-0.8288,1.3163,0.8742,1.2865,0.8288,-1.3163,0.0*
%
%ADD46ROTATEDRECTD46*%

G04:AMPARAMS|DCode=47|XSize=2.6032mm|YSize=1.7032mm|CornerRadius=0mm|HoleSize=0mm|Usage=FLASHONLY|Rotation=79.000|XOffset=0mm|YOffset=0mm|HoleType=Round|Shape=Rectangle|*
%AMROTATEDRECTD47*
4,1,4,0.5876,-1.4402,-1.0843,-1.1152,-0.5876,1.4402,1.0843,1.1152,0.5876,-1.4402,0.0*
%
%ADD47ROTATEDRECTD47*%

G04:AMPARAMS|DCode=48|XSize=2.6032mm|YSize=1.7032mm|CornerRadius=0mm|HoleSize=0mm|Usage=FLASHONLY|Rotation=294.000|XOffset=0mm|YOffset=0mm|HoleType=Round|Shape=Rectangle|*
%AMROTATEDRECTD48*
4,1,4,-1.3074,0.8427,0.2486,1.5354,1.3074,-0.8427,-0.2486,-1.5354,-1.3074,0.8427,0.0*
%
%ADD48ROTATEDRECTD48*%

G04:AMPARAMS|DCode=49|XSize=2.6032mm|YSize=1.7032mm|CornerRadius=0mm|HoleSize=0mm|Usage=FLASHONLY|Rotation=280.000|XOffset=0mm|YOffset=0mm|HoleType=Round|Shape=Rectangle|*
%AMROTATEDRECTD49*
4,1,4,-1.0647,1.1340,0.6126,1.4297,1.0647,-1.1340,-0.6126,-1.4297,-1.0647,1.1340,0.0*
%
%ADD49ROTATEDRECTD49*%

G04:AMPARAMS|DCode=50|XSize=2.6032mm|YSize=1.7032mm|CornerRadius=0mm|HoleSize=0mm|Usage=FLASHONLY|Rotation=1.000|XOffset=0mm|YOffset=0mm|HoleType=Round|Shape=Rectangle|*
%AMROTATEDRECTD50*
4,1,4,-1.2865,-0.8742,-1.3163,0.8288,1.2865,0.8742,1.3163,-0.8288,-1.2865,-0.8742,0.0*
%
%ADD50ROTATEDRECTD50*%

G04:AMPARAMS|DCode=51|XSize=2.6032mm|YSize=1.7032mm|CornerRadius=0mm|HoleSize=0mm|Usage=FLASHONLY|Rotation=271.000|XOffset=0mm|YOffset=0mm|HoleType=Round|Shape=Rectangle|*
%AMROTATEDRECTD51*
4,1,4,-0.8742,1.2865,0.8288,1.3163,0.8742,-1.2865,-0.8288,-1.3163,-0.8742,1.2865,0.0*
%
%ADD51ROTATEDRECTD51*%

G04:AMPARAMS|DCode=52|XSize=2.6032mm|YSize=1.7032mm|CornerRadius=0mm|HoleSize=0mm|Usage=FLASHONLY|Rotation=295.500|XOffset=0mm|YOffset=0mm|HoleType=Round|Shape=Rectangle|*
%AMROTATEDRECTD52*
4,1,4,-1.3290,0.8082,0.2083,1.5414,1.3290,-0.8082,-0.2083,-1.5414,-1.3290,0.8082,0.0*
%
%ADD52ROTATEDRECTD52*%

G04:AMPARAMS|DCode=53|XSize=2.6032mm|YSize=1.7032mm|CornerRadius=0mm|HoleSize=0mm|Usage=FLASHONLY|Rotation=240.000|XOffset=0mm|YOffset=0mm|HoleType=Round|Shape=Rectangle|*
%AMROTATEDRECTD53*
4,1,4,-0.0867,1.5530,1.3883,0.7014,0.0867,-1.5530,-1.3883,-0.7014,-0.0867,1.5530,0.0*
%
%ADD53ROTATEDRECTD53*%

G04:AMPARAMS|DCode=54|XSize=2.6032mm|YSize=1.7032mm|CornerRadius=0mm|HoleSize=0mm|Usage=FLASHONLY|Rotation=66.000|XOffset=0mm|YOffset=0mm|HoleType=Round|Shape=Rectangle|*
%AMROTATEDRECTD54*
4,1,4,0.2486,-1.5354,-1.3074,-0.8427,-0.2486,1.5354,1.3074,0.8427,0.2486,-1.5354,0.0*
%
%ADD54ROTATEDRECTD54*%

%ADD55C,0.2032*%
D36*
X454836Y49612D02*
D03*
X424836Y49613D02*
D03*
X294586Y210362D02*
D03*
X264586Y210362D02*
D03*
X316836Y260862D02*
D03*
X286836D02*
D03*
X122836Y161612D02*
D03*
X152836Y161612D02*
D03*
X42836Y162362D02*
D03*
X72836Y162362D02*
D03*
X296836Y53112D02*
D03*
X266836D02*
D03*
X262086Y110862D02*
D03*
X292086Y110862D02*
D03*
X402336Y109112D02*
D03*
X432336Y109112D02*
D03*
X616586Y151862D02*
D03*
X646586D02*
D03*
X516008Y512074D02*
D03*
X546008Y512073D02*
D03*
X547758Y411573D02*
D03*
X517758Y411574D02*
D03*
X375508Y510574D02*
D03*
X405508Y510574D02*
D03*
X407758Y411073D02*
D03*
X377758Y411074D02*
D03*
X162758Y453324D02*
D03*
X192759Y453324D02*
D03*
X687508Y463324D02*
D03*
X657508Y463324D02*
D03*
D37*
X208348Y176110D02*
D03*
X207825Y146115D02*
D03*
X737824Y133364D02*
D03*
X738348Y163360D02*
D03*
X488313Y143117D02*
D03*
X488836Y173112D02*
D03*
D38*
X241586Y162362D02*
D03*
Y146362D02*
D03*
X240837Y194362D02*
D03*
X240836Y210362D02*
D03*
X89336Y185612D02*
D03*
Y201612D02*
D03*
Y137862D02*
D03*
Y121862D02*
D03*
X568008Y454574D02*
D03*
Y438574D02*
D03*
Y479824D02*
D03*
Y495824D02*
D03*
X713259Y491074D02*
D03*
Y507074D02*
D03*
X713509Y430824D02*
D03*
Y414824D02*
D03*
D39*
X348336Y144362D02*
D03*
X348336Y174362D02*
D03*
X461758Y445323D02*
D03*
Y475324D02*
D03*
X322008Y444073D02*
D03*
X322009Y474074D02*
D03*
X602009Y477823D02*
D03*
X602009Y447824D02*
D03*
D40*
X371336Y209112D02*
D03*
X387336D02*
D03*
X512336Y198862D02*
D03*
X528336D02*
D03*
X553336Y240362D02*
D03*
X569336D02*
D03*
X454508Y514074D02*
D03*
X438508D02*
D03*
X304508Y511824D02*
D03*
X288508D02*
D03*
X249758Y544324D02*
D03*
X233759D02*
D03*
D41*
X140956Y235385D02*
D03*
X114717Y220840D02*
D03*
X172639Y521051D02*
D03*
X198878Y535596D02*
D03*
D42*
X587187Y64392D02*
D03*
X614486Y76833D02*
D03*
D43*
X456836Y257731D02*
D03*
X426837Y257993D02*
D03*
D44*
X132568Y76036D02*
D03*
X105604Y89188D02*
D03*
X222240Y364998D02*
D03*
X195277Y378149D02*
D03*
D45*
X637444Y219387D02*
D03*
X611729Y234838D02*
D03*
D46*
X434334Y209100D02*
D03*
X404339Y209624D02*
D03*
D47*
X576061Y189250D02*
D03*
X546612Y194974D02*
D03*
D48*
X547633Y112761D02*
D03*
X575040Y124963D02*
D03*
D49*
X234236Y490469D02*
D03*
X263781Y495678D02*
D03*
D50*
X72770Y434326D02*
D03*
X72247Y464321D02*
D03*
D51*
X353758Y558824D02*
D03*
X383754Y559348D02*
D03*
X513511Y354062D02*
D03*
X543506Y354585D02*
D03*
X355761Y350562D02*
D03*
X385756Y351085D02*
D03*
X493761Y561311D02*
D03*
X523756Y561836D02*
D03*
X767756Y464086D02*
D03*
X737761Y463562D02*
D03*
D52*
X677720Y377366D02*
D03*
X704797Y390281D02*
D03*
D53*
X668518Y536573D02*
D03*
X694499Y521574D02*
D03*
D54*
X262712Y414472D02*
D03*
X235305Y426675D02*
D03*
D55*
X211836Y23862D02*
D03*
X584336Y277362D02*
D03*
X174836Y218112D02*
D03*
X173586Y99112D02*
D03*
X600086Y209112D02*
D03*
X599086Y102112D02*
D03*
X225758Y578324D02*
D03*
X598259Y324823D02*
D03*
X210009Y510074D02*
D03*
X211008Y403074D02*
D03*
X636508Y400323D02*
D03*
X635508Y519324D02*
D03*
M02*
