G04 Layer_Color=2752767*
%FSLAX44Y44*%
%MOMM*%
G71*
G01*
G75*
%ADD59C,0.0508*%
%ADD60C,0.0677*%
D59*
X209804Y21830D02*
Y25894D01*
X213868D01*
Y21830D01*
X209804D01*
X582304Y275330D02*
Y279394D01*
X586368D01*
Y275330D01*
X582304D01*
X229336Y241330D02*
X227304Y245394D01*
X231368D01*
X229336Y241330D01*
X206086Y71080D02*
X204054Y75144D01*
X208118D01*
X206086Y71080D01*
X68836Y111330D02*
X66804Y115394D01*
X70868D01*
X68836Y111330D01*
X70086Y211830D02*
X68054Y215894D01*
X72118D01*
X70086Y211830D01*
X678836Y152330D02*
X676804Y156394D01*
X680868D01*
X678836Y152330D01*
X635086Y109330D02*
X633054Y113394D01*
X637118D01*
X635086Y109330D01*
X182336Y240080D02*
X180304Y244144D01*
X184368D01*
X182336Y240080D01*
X532586Y153080D02*
X530554Y157144D01*
X534618D01*
X532586Y153080D01*
X353336Y36830D02*
X351304Y40894D01*
X355368D01*
X353336Y36830D01*
X217836Y100830D02*
X215804Y104894D01*
X219868D01*
X217836Y100830D01*
X290836Y159330D02*
X288804Y163394D01*
X292868D01*
X290836Y159330D01*
X521836Y36830D02*
X519804Y40894D01*
X523868D01*
X521836Y36830D01*
X363836Y246580D02*
X361804Y250644D01*
X365868D01*
X363836Y246580D01*
X417086Y158830D02*
X415054Y162894D01*
X419118D01*
X417086Y158830D01*
X348336Y96830D02*
X346304Y100894D01*
X350368D01*
X348336Y96830D01*
X502586Y81080D02*
X500554Y85144D01*
X504618D01*
X502586Y81080D01*
X689336Y208830D02*
X687304Y212894D01*
X691368D01*
X689336Y208830D01*
X682336Y80330D02*
X680304Y84394D01*
X684368D01*
X682336Y80330D01*
X509836Y253830D02*
X507804Y257894D01*
X511868D01*
X509836Y253830D01*
X102336Y135830D02*
X100304Y139894D01*
X104368D01*
X102336Y135830D01*
X104086Y183330D02*
X102054Y187394D01*
X106118D01*
X104086Y183330D01*
X524086Y240080D02*
X522054Y244144D01*
X526118D01*
X524086Y240080D01*
X355336Y207080D02*
X353304Y211144D01*
X357368D01*
X355336Y207080D01*
X241086Y175830D02*
X239054Y179894D01*
X243118D01*
X241086Y175830D01*
X493086Y197330D02*
X491054Y201394D01*
X495118D01*
X493086Y197330D01*
X223727Y576292D02*
Y580355D01*
X227791D01*
Y576292D01*
X223727D01*
X596227Y322791D02*
Y326856D01*
X600290D01*
Y322791D01*
X596227D01*
X597509Y384292D02*
X595476Y388356D01*
X599540D01*
X597509Y384292D01*
X151258Y546292D02*
X149227Y550356D01*
X153291D01*
X151258Y546292D01*
X449509Y386292D02*
X447477Y390356D01*
X451540D01*
X449509Y386292D01*
X323259Y395292D02*
X321227Y399356D01*
X325290D01*
X323259Y395292D01*
X519509Y453042D02*
X517477Y457106D01*
X521540D01*
X519509Y453042D01*
X394008D02*
X391977Y457106D01*
X396040D01*
X394008Y453042D01*
X600009Y558292D02*
X597976Y562356D01*
X602040D01*
X600009Y558292D01*
X322758Y561292D02*
X320727Y565356D01*
X324790D01*
X322758Y561292D01*
X126758Y455542D02*
X124726Y459606D01*
X128791D01*
X126758Y455542D01*
X37508Y438542D02*
X35477Y442606D01*
X39541D01*
X37508Y438542D01*
X741009Y418792D02*
X738977Y422856D01*
X743040D01*
X741009Y418792D01*
X274758Y541042D02*
X272726Y545106D01*
X276791D01*
X274758Y541042D01*
X567758Y465542D02*
X565727Y469606D01*
X569790D01*
X567758Y465542D01*
X469258Y511792D02*
X467226Y515856D01*
X471291D01*
X469258Y511792D01*
X331259D02*
X329226Y515856D01*
X333290D01*
X331259Y511792D01*
X707009Y476542D02*
X704977Y480606D01*
X709041D01*
X707009Y476542D01*
X697758Y430042D02*
X695726Y434106D01*
X699790D01*
X697758Y430042D01*
X281758Y458542D02*
X279727Y462606D01*
X283790D01*
X281758Y458542D01*
X90259Y384042D02*
X88226Y388106D01*
X92290D01*
X90259Y384042D01*
X155508Y402792D02*
X153476Y406856D01*
X157541D01*
X155508Y402792D01*
X193759Y490042D02*
X191726Y494106D01*
X195791D01*
X193759Y490042D01*
X604509Y512792D02*
X602477Y516856D01*
X606540D01*
X604509Y512792D01*
X670508Y340042D02*
X668476Y344106D01*
X672541D01*
X670508Y340042D01*
X458508Y334042D02*
X456477Y338106D01*
X460541D01*
X458508Y334042D01*
X289508Y341792D02*
X287477Y345856D01*
X291541D01*
X289508Y341792D01*
D60*
X176868Y218112D02*
G03*
X176868Y218112I-2032J0D01*
G01*
X175618Y99112D02*
G03*
X175618Y99112I-2032J0D01*
G01*
X602118Y209112D02*
G03*
X602118Y209112I-2032J0D01*
G01*
X601118Y102112D02*
G03*
X601118Y102112I-2032J0D01*
G01*
X212041Y510074D02*
G03*
X212041Y510074I-2032J0D01*
G01*
X213041Y403074D02*
G03*
X213041Y403074I-2032J0D01*
G01*
X638540Y400323D02*
G03*
X638540Y400323I-2032J0D01*
G01*
X637541Y519324D02*
G03*
X637541Y519324I-2032J0D01*
G01*
M02*
